<?xml version="1.0" encoding="utf-8"?>
<!-- Generator: Adobe Illustrator 16.0.0, SVG Export Plug-In . SVG Version: 6.00 Build 0)  -->
<!DOCTYPE svg PUBLIC "-//W3C//DTD SVG 1.1//EN" "http://www.w3.org/Graphics/SVG/1.1/DTD/svg11.dtd" [
	<!ENTITY ns_extend "http://ns.adobe.com/Extensibility/1.0/">
	<!ENTITY ns_ai "http://ns.adobe.com/AdobeIllustrator/10.0/">
	<!ENTITY ns_graphs "http://ns.adobe.com/Graphs/1.0/">
	<!ENTITY ns_vars "http://ns.adobe.com/Variables/1.0/">
	<!ENTITY ns_imrep "http://ns.adobe.com/ImageReplacement/1.0/">
	<!ENTITY ns_sfw "http://ns.adobe.com/SaveForWeb/1.0/">
	<!ENTITY ns_custom "http://ns.adobe.com/GenericCustomNamespace/1.0/">
	<!ENTITY ns_adobe_xpath "http://ns.adobe.com/XPath/1.0/">
]>
<svg version="1.1" id="Layer_1" xmlns:x="&ns_extend;" xmlns:i="&ns_ai;" xmlns:graph="&ns_graphs;"
	 xmlns="http://www.w3.org/2000/svg" xmlns:xlink="http://www.w3.org/1999/xlink" x="0px" y="0px" width="155.385px"
	 height="187.561px" viewBox="0 0 155.385 187.561" enable-background="new 0 0 155.385 187.561" xml:space="preserve">
<metadata>
	<sfw  xmlns="&ns_sfw;">
		<slices></slices>
		<sliceSourceBounds  x="1204.488" y="627.72" bottomLeftOrigin="true" height="186.107" width="150.535"></sliceSourceBounds>
	</sfw>
</metadata>
<g>
	<g>
		<g>
			<linearGradient id="SVGID_1_" gradientUnits="userSpaceOnUse" x1="7.0811" y1="4.9236" x2="143.3062" y2="175.2055">
				<stop  offset="0" style="stop-color:#FFFFFF"/>
				<stop  offset="1" style="stop-color:#E6E5E5"/>
			</linearGradient>
			<path fill="url(#SVGID_1_)" d="M153.216,148.829V9.345c0-4.913-4.039-8.892-9.016-8.892H11.695c-4.979,0-9.015,3.979-9.015,8.892
				v168.323c0,4.913,4.036,8.893,9.015,8.893h102.92L153.216,148.829z"/>
			<polygon fill="#F4F4F4" points="153.216,148.829 114.615,148.829 114.615,186.561 			"/>
		</g>
		<g>
			<path fill="#B6B6B6" d="M81.851,103.806H65.731l-1.917,4.441c-0.627,1.481-0.943,2.704-0.943,3.668
				c0,1.279,0.517,2.222,1.549,2.827c0.605,0.358,2.098,0.627,4.476,0.807v1.247H53.718v-1.247c1.637-0.247,2.984-0.924,4.038-2.035
				c1.055-1.109,2.356-3.404,3.904-6.882L77.981,70.22h0.64l16.455,37.422c1.571,3.544,2.862,5.777,3.872,6.697
				c0.762,0.696,1.84,1.1,3.23,1.21v1.247H80.102v-1.247h0.91c1.771,0,3.017-0.247,3.733-0.738c0.494-0.361,0.741-0.875,0.741-1.55
				c0-0.403-0.068-0.817-0.203-1.244c-0.044-0.202-0.379-1.045-1.009-2.523L81.851,103.806z M80.706,101.317L73.91,85.599l-7,15.718
				H80.706z"/>
		</g>
	</g>
</g>
</svg>
