<?xml version="1.0" encoding="utf-8"?>
<!-- Generator: Adobe Illustrator 16.0.0, SVG Export Plug-In . SVG Version: 6.00 Build 0)  -->
<!DOCTYPE svg PUBLIC "-//W3C//DTD SVG 1.1//EN" "http://www.w3.org/Graphics/SVG/1.1/DTD/svg11.dtd" [
	<!ENTITY ns_extend "http://ns.adobe.com/Extensibility/1.0/">
	<!ENTITY ns_ai "http://ns.adobe.com/AdobeIllustrator/10.0/">
	<!ENTITY ns_graphs "http://ns.adobe.com/Graphs/1.0/">
	<!ENTITY ns_vars "http://ns.adobe.com/Variables/1.0/">
	<!ENTITY ns_imrep "http://ns.adobe.com/ImageReplacement/1.0/">
	<!ENTITY ns_sfw "http://ns.adobe.com/SaveForWeb/1.0/">
	<!ENTITY ns_custom "http://ns.adobe.com/GenericCustomNamespace/1.0/">
	<!ENTITY ns_adobe_xpath "http://ns.adobe.com/XPath/1.0/">
]>
<svg version="1.1" xmlns:x="&ns_extend;" xmlns:i="&ns_ai;" xmlns:graph="&ns_graphs;"
	 xmlns="http://www.w3.org/2000/svg" xmlns:xlink="http://www.w3.org/1999/xlink" x="0px" y="0px" width="354.49px"
	 height="396.609px" viewBox="0 0 354.49 396.609" enable-background="new 0 0 354.49 396.609" xml:space="preserve">
<metadata>
	<sfw  xmlns="&ns_sfw;">
		<slices></slices>
		<sliceSourceBounds  x="-6911" y="-8912" bottomLeftOrigin="true" height="16383" width="16383"></sliceSourceBounds>
	</sfw>
</metadata>
<g id="Background" display="none">
	<radialGradient id="SVGID_1_" cx="1186.8584" cy="-411.4873" r="1113.6583" gradientUnits="userSpaceOnUse">
		<stop  offset="0" style="stop-color:#006594"/>
		<stop  offset="0.5393" style="stop-color:#000B2A"/>
		<stop  offset="1" style="stop-color:#00232A"/>
	</radialGradient>
	<rect x="-93.142" y="-1329.131" display="inline" fill="url(#SVGID_1_)" width="2560" height="1835.287"/>
	<g display="inline">
		<linearGradient id="SVGID_2_" gradientUnits="userSpaceOnUse" x1="297.9297" y1="-34.4834" x2="297.9297" y2="73.7679">
			<stop  offset="0" style="stop-color:#EED387"/>
			<stop  offset="0.5" style="stop-color:#E6C14C"/>
			<stop  offset="1" style="stop-color:#E1B724"/>
		</linearGradient>
		<path fill="url(#SVGID_2_)" d="M352.742,52.079c-1.278,11.918-11.027,22.406-22.946,22.406h-65.009
			c-11.918,0-21.669-10.488-21.669-22.406v-65.01c0-11.917,9.751-22.391,21.669-22.391h65.009c11.919,0,21.668,10.474,22.946,22.391
			V52.079z"/>
		<linearGradient id="SVGID_3_" gradientUnits="userSpaceOnUse" x1="177.2451" y1="-34.4834" x2="177.2451" y2="73.7679">
			<stop  offset="0" style="stop-color:#EED387"/>
			<stop  offset="0.5" style="stop-color:#E6C14C"/>
			<stop  offset="1" style="stop-color:#E1B724"/>
		</linearGradient>
		<path fill="url(#SVGID_3_)" d="M232.058,52.079c-1.278,11.918-11.027,22.406-22.946,22.406h-65.009
			c-11.918,0-21.669-10.488-21.669-22.406v-65.01c0-11.917,9.751-22.391,21.669-22.391h65.009c11.919,0,21.668,10.474,22.946,22.391
			V52.079z"/>
		<linearGradient id="SVGID_4_" gradientUnits="userSpaceOnUse" x1="56.5605" y1="-34.4834" x2="56.5605" y2="73.7679">
			<stop  offset="0" style="stop-color:#EED387"/>
			<stop  offset="0.5" style="stop-color:#E6C14C"/>
			<stop  offset="1" style="stop-color:#E1B724"/>
		</linearGradient>
		<path fill="url(#SVGID_4_)" d="M111.373,52.079c-1.278,11.918-11.027,22.406-22.946,22.406H23.417
			c-11.918,0-21.669-10.488-21.669-22.406v-65.01c0-11.917,9.751-22.391,21.669-22.391h65.009c11.919,0,21.668,10.474,22.946,22.391
			V52.079z"/>
	</g>
</g>
<g id="Layer_1" display="none">
</g>
<g id="squares">
	<g>
		<text transform="matrix(0.8942 0 0 1 95.7319 380.874)" font-family="'HelveticaNeue'" font-size="36">Latest Note</text>
	</g>
	<g>
		<g>
			<linearGradient id="SVGID_5_" gradientUnits="userSpaceOnUse" x1="298.1816" y1="3.1396" x2="298.1816" y2="111.3909">
				<stop  offset="0" style="stop-color:#EED387"/>
				<stop  offset="0.5" style="stop-color:#E6C14C"/>
				<stop  offset="1" style="stop-color:#E1B724"/>
			</linearGradient>
			<path fill="url(#SVGID_5_)" d="M352.994,89.702c-1.278,11.918-11.027,22.406-22.946,22.406h-65.009
				c-11.918,0-21.669-10.488-21.669-22.406v-65.01c0-11.917,9.751-22.391,21.669-22.391h65.009
				c11.919,0,21.668,10.474,22.946,22.391V89.702z"/>
			<linearGradient id="SVGID_6_" gradientUnits="userSpaceOnUse" x1="177.4971" y1="3.1396" x2="177.4971" y2="111.3909">
				<stop  offset="0" style="stop-color:#EED387"/>
				<stop  offset="0.5" style="stop-color:#E6C14C"/>
				<stop  offset="1" style="stop-color:#E1B724"/>
			</linearGradient>
			<path fill="url(#SVGID_6_)" d="M232.31,89.702c-1.278,11.918-11.027,22.406-22.946,22.406h-65.009
				c-11.918,0-21.669-10.488-21.669-22.406v-65.01c0-11.917,9.751-22.391,21.669-22.391h65.009
				c11.919,0,21.668,10.474,22.946,22.391V89.702z"/>
			<linearGradient id="SVGID_7_" gradientUnits="userSpaceOnUse" x1="56.8125" y1="3.1396" x2="56.8125" y2="111.3909">
				<stop  offset="0" style="stop-color:#EED387"/>
				<stop  offset="0.5" style="stop-color:#E6C14C"/>
				<stop  offset="1" style="stop-color:#E1B724"/>
			</linearGradient>
			<path fill="url(#SVGID_7_)" d="M111.625,89.702c-1.278,11.918-11.027,22.406-22.946,22.406H23.669
				C11.751,112.108,2,101.62,2,89.702v-65.01C2,12.775,11.751,2.302,23.669,2.302h65.009c11.919,0,21.668,10.474,22.946,22.391
				V89.702z"/>
			<linearGradient id="SVGID_8_" gradientUnits="userSpaceOnUse" x1="298.1816" y1="121.4521" x2="298.1816" y2="229.7034">
				<stop  offset="0" style="stop-color:#EED387"/>
				<stop  offset="0.5" style="stop-color:#E6C14C"/>
				<stop  offset="1" style="stop-color:#E1B724"/>
			</linearGradient>
			<path fill="url(#SVGID_8_)" d="M352.994,208.015c-1.278,11.918-11.027,22.406-22.946,22.406h-65.009
				c-11.918,0-21.669-10.488-21.669-22.406v-65.01c0-11.917,9.751-22.391,21.669-22.391h65.009
				c11.919,0,21.668,10.474,22.946,22.391V208.015z"/>
			<linearGradient id="SVGID_9_" gradientUnits="userSpaceOnUse" x1="177.4971" y1="121.4521" x2="177.4971" y2="229.7034">
				<stop  offset="0" style="stop-color:#EED387"/>
				<stop  offset="0.5" style="stop-color:#E6C14C"/>
				<stop  offset="1" style="stop-color:#E1B724"/>
			</linearGradient>
			<path fill="url(#SVGID_9_)" d="M232.31,208.015c-1.278,11.918-11.027,22.406-22.946,22.406h-65.009
				c-11.918,0-21.669-10.488-21.669-22.406v-65.01c0-11.917,9.751-22.391,21.669-22.391h65.009
				c11.919,0,21.668,10.474,22.946,22.391V208.015z"/>
			<linearGradient id="SVGID_10_" gradientUnits="userSpaceOnUse" x1="56.8125" y1="121.4521" x2="56.8125" y2="229.7034">
				<stop  offset="0" style="stop-color:#EED387"/>
				<stop  offset="0.5" style="stop-color:#E6C14C"/>
				<stop  offset="1" style="stop-color:#E1B724"/>
			</linearGradient>
			<path fill="url(#SVGID_10_)" d="M111.625,208.015c-1.278,11.918-11.027,22.406-22.946,22.406H23.669
				C11.751,230.421,2,219.933,2,208.015v-65.01c0-11.917,9.751-22.391,21.669-22.391h65.009c11.919,0,21.668,10.474,22.946,22.391
				V208.015z"/>
			<linearGradient id="SVGID_11_" gradientUnits="userSpaceOnUse" x1="298.1816" y1="239.7646" x2="298.1816" y2="348.0159">
				<stop  offset="0" style="stop-color:#EED387"/>
				<stop  offset="0.5" style="stop-color:#E6C14C"/>
				<stop  offset="1" style="stop-color:#E1B724"/>
			</linearGradient>
			<path fill="url(#SVGID_11_)" d="M352.994,326.327c-1.278,11.918-11.027,22.406-22.946,22.406h-65.009
				c-11.918,0-21.669-10.488-21.669-22.406v-65.01c0-11.917,9.751-22.391,21.669-22.391h65.009
				c11.919,0,21.668,10.474,22.946,22.391V326.327z"/>
			<linearGradient id="SVGID_12_" gradientUnits="userSpaceOnUse" x1="177.4971" y1="239.7646" x2="177.4971" y2="348.0159">
				<stop  offset="0" style="stop-color:#EED387"/>
				<stop  offset="0.5" style="stop-color:#E6C14C"/>
				<stop  offset="1" style="stop-color:#E1B724"/>
			</linearGradient>
			<path fill="url(#SVGID_12_)" d="M232.31,326.327c-1.278,11.918-11.027,22.406-22.946,22.406h-65.009
				c-11.918,0-21.669-10.488-21.669-22.406v-65.01c0-11.917,9.751-22.391,21.669-22.391h65.009
				c11.919,0,21.668,10.474,22.946,22.391V326.327z"/>
			<linearGradient id="SVGID_13_" gradientUnits="userSpaceOnUse" x1="56.8125" y1="239.7646" x2="56.8125" y2="348.0159">
				<stop  offset="0" style="stop-color:#EED387"/>
				<stop  offset="0.5" style="stop-color:#E6C14C"/>
				<stop  offset="1" style="stop-color:#E1B724"/>
			</linearGradient>
			<path fill="url(#SVGID_13_)" d="M111.625,326.327c-1.278,11.918-11.027,22.406-22.946,22.406H23.669
				C11.751,348.733,2,338.245,2,326.327v-65.01c0-11.917,9.751-22.391,21.669-22.391h65.009c11.919,0,21.668,10.474,22.946,22.391
				V326.327z"/>
		</g>
		<g>
			<g>
				<g>
					<linearGradient id="SVGID_14_" gradientUnits="userSpaceOnUse" x1="94.1382" y1="76.8389" x2="239.4196" y2="258.4412">
						<stop  offset="0" style="stop-color:#FFFFFF"/>
						<stop  offset="1" style="stop-color:#E6E5E5"/>
					</linearGradient>
					<path fill="url(#SVGID_14_)" d="M249.988,230.311V81.553c0-5.238-4.306-9.482-9.614-9.482H99.059
						c-5.31,0-9.614,4.244-9.614,9.482v179.515c0,5.239,4.304,9.483,9.614,9.483h109.764L249.988,230.311z"/>
					<polygon fill="#F4F4F4" points="249.988,230.311 208.822,230.311 208.822,270.551 					"/>
				</g>
				<g>
					<path fill="#B6B6B6" d="M173.879,182.295h-17.191l-2.045,4.736c-0.67,1.579-1.006,2.884-1.006,3.911
						c0,1.364,0.551,2.369,1.652,3.015c0.646,0.383,2.237,0.67,4.773,0.861v1.329h-16.187v-1.329
						c1.747-0.263,3.183-0.984,4.307-2.171c1.125-1.183,2.513-3.631,4.163-7.339l17.407-38.833h0.682l17.55,39.91
						c1.674,3.779,3.05,6.161,4.127,7.142c0.814,0.741,1.962,1.173,3.446,1.291v1.329h-23.544v-1.329h0.97
						c1.89,0,3.218-0.263,3.983-0.788c0.526-0.385,0.79-0.935,0.79-1.652c0-0.43-0.072-0.873-0.215-1.327
						c-0.048-0.216-0.406-1.113-1.077-2.691L173.879,182.295z M172.659,179.639l-7.249-16.762l-7.466,16.762H172.659z"/>
				</g>
			</g>
			<g>
				
					<linearGradient id="SVGID_15_" gradientUnits="userSpaceOnUse" x1="196.5376" y1="154.1738" x2="279.6877" y2="258.1119" gradientTransform="matrix(0.9991 0.0417 -0.0417 0.9991 -25.4564 -3.7445)">
					<stop  offset="0" style="stop-color:#FFFFFF"/>
					<stop  offset="1" style="stop-color:#E6E5E5"/>
				</linearGradient>
				<path fill="url(#SVGID_15_)" d="M102.414,270.104c-0.26,6.245,4.733,8.868,11.045,9.133l105.465,4.4l42.216-37.954l5.955-142.63
					c0.261-6.242-4.663-11.537-10.975-11.801l-0.191,4.585c3.785,0.157,6.738,3.31,6.582,7.024l-5.875,140.699l-39.39,35.415
					L113.65,274.65c-3.785-0.159-6.807-0.64-6.651-4.356L102.414,270.104z"/>
			</g>
			<g>
				
					<linearGradient id="SVGID_16_" gradientUnits="userSpaceOnUse" x1="250.021" y1="158.585" x2="333.1724" y2="262.5245" gradientTransform="matrix(0.9968 0.0794 -0.0794 0.9968 -54.8041 -7.5624)">
					<stop  offset="0" style="stop-color:#FFFFFF"/>
					<stop  offset="1" style="stop-color:#E6E5E5"/>
				</linearGradient>
				<path fill="url(#SVGID_16_)" d="M115.374,277.598c-0.496,6.231,4.252,11.258,10.548,11.761l105.225,8.376l43.617-36.338
					l11.329-142.305c0.497-6.229-4.225-11.705-10.522-12.205l-0.365,4.574c3.776,0.301,6.608,3.561,6.313,7.268l-11.175,140.378
					l-40.696,33.903l-103.359-8.228c-3.776-0.3-6.627-3.149-6.331-6.855L115.374,277.598z"/>
			</g>
		</g>
	</g>
</g>
<g id="guides">
</g>
<g id="circles" display="none">
	<linearGradient id="SVGID_17_" gradientUnits="userSpaceOnUse" x1="221.4487" y1="207.8691" x2="221.4487" y2="568.2245">
		<stop  offset="0" style="stop-color:#EED387"/>
		<stop  offset="0.5" style="stop-color:#E6C14C"/>
		<stop  offset="1" style="stop-color:#E1B724"/>
	</linearGradient>
	<circle display="inline" fill="url(#SVGID_17_)" cx="221.449" cy="387.788" r="179.125"/>
	<g display="inline">
		<g>
			<linearGradient id="SVGID_18_" gradientUnits="userSpaceOnUse" x1="136.5869" y1="290.583" x2="299.7137" y2="494.4922">
				<stop  offset="0" style="stop-color:#FFFFFF"/>
				<stop  offset="1" style="stop-color:#E6E5E5"/>
			</linearGradient>
			<path fill="url(#SVGID_18_)" d="M311.58,462.906V295.877c0-5.883-4.835-10.648-10.795-10.648H142.112
				c-5.962,0-10.795,4.766-10.795,10.648v201.564c0,5.883,4.833,10.648,10.795,10.648h123.246L311.58,462.906z"/>
		</g>
		<g>
			<path fill="#B6B6B6" d="M226.123,408.992H206.82l-2.297,5.318c-0.752,1.773-1.129,3.238-1.129,4.393
				c0,1.531,0.618,2.66,1.854,3.385c0.725,0.43,2.512,0.752,5.359,0.967v1.492h-18.175v-1.492c1.961-0.295,3.573-1.105,4.836-2.438
				c1.263-1.328,2.821-4.076,4.675-8.24l19.545-43.604h0.766l19.706,44.812c1.88,4.244,3.425,6.918,4.634,8.02
				c0.914,0.832,2.203,1.316,3.869,1.449v1.492h-26.437v-1.492h1.089c2.122,0,3.613-0.295,4.473-0.885
				c0.591-0.432,0.887-1.049,0.887-1.855c0-0.482-0.081-0.98-0.242-1.49c-0.054-0.242-0.456-1.25-1.209-3.021L226.123,408.992z
				 M224.753,406.01l-8.14-18.82l-8.383,18.82H224.753z"/>
		</g>
	</g>
</g>
</svg>
