<?xml version="1.0" encoding="utf-8"?>
<!-- Generator: Adobe Illustrator 16.0.0, SVG Export Plug-In . SVG Version: 6.00 Build 0)  -->
<!DOCTYPE svg PUBLIC "-//W3C//DTD SVG 1.1//EN" "http://www.w3.org/Graphics/SVG/1.1/DTD/svg11.dtd" [
	<!ENTITY ns_extend "http://ns.adobe.com/Extensibility/1.0/">
	<!ENTITY ns_ai "http://ns.adobe.com/AdobeIllustrator/10.0/">
	<!ENTITY ns_graphs "http://ns.adobe.com/Graphs/1.0/">
	<!ENTITY ns_vars "http://ns.adobe.com/Variables/1.0/">
	<!ENTITY ns_imrep "http://ns.adobe.com/ImageReplacement/1.0/">
	<!ENTITY ns_sfw "http://ns.adobe.com/SaveForWeb/1.0/">
	<!ENTITY ns_custom "http://ns.adobe.com/GenericCustomNamespace/1.0/">
	<!ENTITY ns_adobe_xpath "http://ns.adobe.com/XPath/1.0/">
]>
<svg version="1.1" xmlns:x="&ns_extend;" xmlns:i="&ns_ai;" xmlns:graph="&ns_graphs;"
	 xmlns="http://www.w3.org/2000/svg" xmlns:xlink="http://www.w3.org/1999/xlink" x="0px" y="0px" width="354.49px"
	 height="396.611px" viewBox="0 0 354.49 396.611" enable-background="new 0 0 354.49 396.611" xml:space="preserve">
<metadata>
	<sfw  xmlns="&ns_sfw;">
		<slices></slices>
		<sliceSourceBounds  x="-6911" y="-8912" bottomLeftOrigin="true" height="16383" width="16383"></sliceSourceBounds>
	</sfw>
</metadata>
<g id="Background" display="none">
	<radialGradient id="SVGID_1_" cx="-328.8916" cy="883.2549" r="1113.6583" gradientUnits="userSpaceOnUse">
		<stop  offset="0" style="stop-color:#006594"/>
		<stop  offset="0.5393" style="stop-color:#000B2A"/>
		<stop  offset="1" style="stop-color:#00232A"/>
	</radialGradient>
	<rect x="-1608.892" y="-34.389" display="inline" fill="url(#SVGID_1_)" width="2560" height="1835.287"/>
</g>
<g id="Layer_1" display="none">
	<linearGradient id="SVGID_2_" gradientUnits="userSpaceOnUse" x1="28.29" y1="32.2778" x2="28.29" y2="385.6742">
		<stop  offset="0.3054" style="stop-color:#53A88F"/>
		<stop  offset="1" style="stop-color:#0027A9"/>
	</linearGradient>
	<path display="inline" fill="url(#SVGID_2_)" d="M205.535,314.368c-4.131,38.537-35.656,72.457-74.201,72.457H-78.882
		c-38.539,0-70.072-33.92-70.072-72.457V104.149c0-38.54,31.533-72.405,70.072-72.405h210.216c38.545,0,70.07,33.865,74.201,72.405
		V314.368z"/>
	<g display="inline">
		<path fill="#FFFFFF" d="M140.675,114.552H-78.201v194.191h218.876V114.552z M126.087,294.153H2.526v-60.354
			c4.984-1.002,7.698-2.587,9.991-4.644c3.69,2.562,8.166,4.076,12.999,4.076c12.605,0,22.822-10.223,22.822-22.826
			c0-8.118-4.25-15.226-10.633-19.272c0.775-2.292,1.213-4.743,1.213-7.297c0-11.261-8.163-20.593-18.887-22.462
			c-0.92-11.76-10.734-21.02-22.73-21.02c-11.896,0-21.654,9.104-22.717,20.723c-12.006,0.667-21.544,10.585-21.544,22.757
			c0,2.556,0.438,5.006,1.215,7.297c-6.384,4.047-10.635,11.155-10.635,19.269c0,12.606,10.219,22.828,22.823,22.828
			c5.495,0,10.535-1.947,14.474-5.182c1.864,1.926,4.079,3.502,8.519,4.679v61.428h-9.02H-34.26h-31.35V127.144h191.688v37.746
			v14.676h0.008V294.153z M109.868,234.398c-2.072-1.279-4.113-5.21-6.112-5.3c-1.07-0.049-3.844-0.208-3.844-0.208
			c-4.426-8.997-9.464-11.158-11.362-11.86c-1.896-0.702,1.571,6.276,1.571,6.276c-1.077-1.752-8.958-4.392-10.727-3.369
			c-1.769,1.022,2.526,5.339,3.968,6.462c1.688,1.315,6.368,2.691,7.673,3.795c1.304,1.1,0.779,3.141,0.779,3.141
			c-0.239,1.79-0.331,1.958-0.331,1.958c-0.648,0.255-0.648,0.255-0.648,0.255c-0.884-0.506-7.161-9.826-23.142-5.491
			c-13.318,3.611-11.765,16.137-11.552,18.3c-0.597-0.81-1.767-0.152-1.767-0.152c-1.499,0.778-0.833,2.094-0.833,2.094
			c-0.523-0.271-1.263-2.222-1.263-2.222c-1.835,2.432-2.201,3.876-0.82,6.801c1.37,2.906,5.384,3.84,8.31,1.188
			c0,0,0.945,3.504,3.048,3.809c0.724,0.105,1.27,0.932,1.159,1.676c-0.112,0.746-0.766,1.9-0.046,2.573
			c1.212,1.139,2.701,1.761,7.541,2.365c0.545,0.067,1.949,0.114,3.525,0.215c0.117,0.63,0.212,1.129,0.224,1.361
			c0.047,0.884,7.104,2.858,6.596,1.707c-0.638-1.451-1.271-2.199-1.736-2.809c0.447,0.006,0.813,0.003,1.036-0.017
			c1.092-0.107,1.85-2.076,0.321-2.663c-0.361-0.139-1.05-0.329-1.889-0.538c0.023-0.098,0.042-0.188,0.07-0.294
			c0.288-1.076,2.273-2.631,4.834-4.643c12.251,0.456,19.93-10.24,17.736-15.37c-1.023-2.392-0.609-2.336-0.609-2.336
			s5.836-0.429,6.826-1.585C109.412,238.345,111.618,235.479,109.868,234.398z M77.067,258.607
			c-0.543,0.916-1.662,0.993-2.369,2.522c-0.165,0.354-0.223,0.871-0.222,1.463c-1.116-0.237-1.909-0.401-1.909-0.401
			s-2.752-0.697-1.705-3.901c0.356-1.094,3.523-3.037,5.062-2.424c0.296,0.303,0.621,0.673,0.871,1.063
			c0.067,0.141,0.15,0.299,0.246,0.468C77.228,257.824,77.279,258.246,77.067,258.607z"/>
	</g>
</g>
<g id="squares">
	<g>
		<linearGradient id="SVGID_3_" gradientUnits="userSpaceOnUse" x1="175.8154" y1="0.5337" x2="175.8154" y2="353.9301">
			<stop  offset="0" style="stop-color:#A8989B"/>
			<stop  offset="0.5" style="stop-color:#7E6B71"/>
			<stop  offset="1" style="stop-color:#61505A"/>
		</linearGradient>
		<path fill="url(#SVGID_3_)" d="M353.06,282.625c-4.131,38.537-35.656,72.456-74.201,72.456H68.643
			c-38.539,0-70.072-33.919-70.072-72.456V72.405C-1.43,33.865,30.104,0,68.643,0h210.216c38.545,0,70.07,33.865,74.201,72.405
			V282.625z"/>
		<g>
			<path fill="#FEFEFE" d="M309.196,271.592c0,10.459-8.48,18.938-18.939,18.938H61.374c-10.46,0-18.939-8.479-18.939-18.938V83.489
				c0-10.459,8.479-18.938,18.939-18.938h228.883c10.459,0,18.939,8.479,18.939,18.938V271.592z"/>
			<rect x="59.045" y="82.736" fill="#E8E8E8" width="231.212" height="192.711"/>
			<g>
				<path fill="#C9C9C9" d="M150.188,275.447v-64.813c5.698-1.145,8.802-2.957,11.424-5.309c4.219,2.93,9.336,4.661,14.861,4.661
					c14.414,0,26.095-11.689,26.095-26.099c0-9.283-4.859-17.411-12.157-22.036c0.888-2.621,1.387-5.423,1.387-8.344
					c0-12.877-9.332-23.548-21.594-25.684c-1.053-13.446-12.273-24.034-25.991-24.034c-13.601,0-24.758,10.41-25.975,23.696
					c-13.727,0.76-24.632,12.102-24.632,26.019c0,2.923,0.502,5.725,1.388,8.344c-7.297,4.627-12.158,12.755-12.158,22.032
					c0,14.414,11.684,26.101,26.098,26.101c6.28,0,12.044-2.228,16.548-5.926c2.131,2.202,4.662,4.005,9.739,5.352v66.039H150.188z
					 M272.921,211.319c-2.37-1.46-4.703-5.957-6.988-6.06c-1.225-0.058-4.396-0.237-4.396-0.237
					c-5.061-10.289-10.819-12.76-12.992-13.562c-2.167-0.802,1.797,7.176,1.797,7.176c-1.231-2.004-10.242-5.021-12.263-3.853
					c-2.023,1.17,2.887,6.105,4.534,7.39c1.929,1.502,7.281,3.078,8.775,4.339c1.489,1.258,0.89,3.592,0.89,3.592
					c-0.271,2.045-0.38,2.238-0.38,2.238c-0.738,0.292-0.738,0.292-0.738,0.292c-1.013-0.58-8.19-11.234-26.464-6.28
					c-15.227,4.129-13.449,18.451-13.206,20.924c-0.682-0.925-2.021-0.173-2.021-0.173c-1.713,0.889-0.951,2.394-0.951,2.394
					c-0.6-0.309-1.442-2.539-1.442-2.539c-2.1,2.779-2.519,4.432-0.94,7.775c1.568,3.322,6.156,4.392,9.502,1.359
					c0,0,1.08,4.008,3.485,4.355c0.827,0.119,1.45,1.064,1.325,1.916c-0.129,0.854-0.875,2.172-0.053,2.941
					c1.385,1.305,3.089,2.014,8.621,2.704c0.623,0.078,2.23,0.132,4.032,0.247c0.132,0.721,0.243,1.291,0.255,1.557
					c0.053,1.011,8.123,3.268,7.544,1.95c-0.731-1.659-1.456-2.513-1.987-3.21c0.513,0.005,0.932,0.004,1.186-0.021
					c1.246-0.123,2.115-2.373,0.366-3.044c-0.414-0.159-1.2-0.378-2.16-0.616c0.028-0.112,0.048-0.214,0.082-0.337
					c0.329-1.229,2.598-3.007,5.525-5.307c14.01,0.52,22.787-11.71,20.28-17.572c-1.171-2.737-0.697-2.674-0.697-2.674
					s6.673-0.488,7.807-1.81C272.398,215.833,274.922,212.554,272.921,211.319z M235.416,238.999
					c-0.618,1.049-1.9,1.138-2.709,2.884c-0.188,0.404-0.253,0.995-0.253,1.675c-1.275-0.271-2.184-0.46-2.184-0.46
					s-3.146-0.797-1.948-4.459c0.407-1.252,4.028-3.473,5.788-2.772c0.338,0.347,0.709,0.77,0.996,1.216
					c0.078,0.16,0.172,0.342,0.28,0.535C235.599,238.104,235.659,238.586,235.416,238.999z"/>
			</g>
		</g>
	</g>
	<g>
		<text transform="matrix(0.8942 0 0 1 119.3027 386.7734)" font-family="'HelveticaNeue'" font-size="36">Pictures</text>
	</g>
</g>
<g id="guides">
</g>
<g id="circles" display="none">
</g>
</svg>
