<?xml version="1.0" encoding="utf-8"?>
<!-- Generator: Adobe Illustrator 15.0.0, SVG Export Plug-In . SVG Version: 6.00 Build 0)  -->
<!DOCTYPE svg PUBLIC "-//W3C//DTD SVG 1.1//EN" "http://www.w3.org/Graphics/SVG/1.1/DTD/svg11.dtd">
<svg version="1.1" id="Layer_1" xmlns="http://www.w3.org/2000/svg" xmlns:xlink="http://www.w3.org/1999/xlink" x="0px" y="0px"
	 width="2560px" height="210.894px" viewBox="0 0 2560 210.894" enable-background="new 0 0 2560 210.894" xml:space="preserve">
<g id="Layer_3" display="none">
</g>
<g id="squares">
	
		<linearGradient id="SVGID_1_" gradientUnits="userSpaceOnUse" x1="1255.0554" y1="160.1533" x2="1255.0554" y2="-58.236" gradientTransform="matrix(1 0 0 -1 24.9448 156.4824)">
		<stop  offset="0.2228" style="stop-color:#6C6D6F"/>
		<stop  offset="0.7515" style="stop-color:#212121"/>
	</linearGradient>
	<rect x="0" fill="url(#SVGID_1_)" width="2560" height="210.894"/>
	<g>
		<path fill="#FFFFFF" d="M118.97,63.162l22.581,40.593h0.152V63.162h11.139v60.508h-11.897l-22.506-40.508h-0.15v40.508h-11.14
			V63.162H118.97z"/>
		<path fill="#FFFFFF" d="M173.68,113.162c1.616,1.752,3.94,2.627,6.972,2.627c2.171,0,4.041-0.606,5.607-1.822
			c1.565-1.214,2.525-2.5,2.879-3.856h9.472c-1.516,5.254-3.84,9.013-6.972,11.271c-3.133,2.26-6.922,3.391-11.366,3.391
			c-3.082,0-5.86-0.551-8.335-1.652c-2.476-1.102-4.573-2.669-6.29-4.704c-1.718-2.034-3.044-4.462-3.978-7.288
			c-0.937-2.824-1.402-5.932-1.402-9.322c0-3.275,0.479-6.326,1.439-9.152c0.959-2.823,2.322-5.268,4.092-7.33
			c1.768-2.062,3.876-3.688,6.328-4.873c2.45-1.188,5.165-1.78,8.146-1.78c3.334,0,6.238,0.72,8.714,2.161
			c2.476,1.439,4.51,3.376,6.101,5.805c1.591,2.43,2.74,5.199,3.448,8.305c0.707,3.108,0.959,6.356,0.758,9.746h-28.266
			C171.179,108.585,172.062,111.411,173.68,113.162z M185.842,90.11c-1.288-1.58-3.247-2.373-5.873-2.373
			c-1.718,0-3.145,0.326-4.281,0.976s-2.046,1.455-2.728,2.415c-0.683,0.961-1.163,1.979-1.44,3.051
			c-0.277,1.074-0.442,2.034-0.493,2.881h17.504C188.026,94.009,187.13,91.692,185.842,90.11z"/>
		<path fill="#FFFFFF" d="M205.959,73.077v-9.915h10.76v9.915H205.959z M216.72,79.856v43.813h-10.76V79.856H216.72z"/>
		<path fill="#FFFFFF" d="M262.223,126.89c-0.43,2.26-1.352,4.364-2.766,6.313c-1.415,1.948-3.461,3.603-6.139,4.958
			s-6.265,2.033-10.76,2.033c-1.92,0-3.878-0.268-5.873-0.805c-1.997-0.537-3.814-1.371-5.456-2.5
			c-1.642-1.131-3.006-2.584-4.092-4.363c-1.087-1.78-1.705-3.914-1.856-6.398h10.685c0.504,2.26,1.49,3.827,2.956,4.704
			c1.464,0.875,3.156,1.313,5.077,1.313c3.03,0,5.24-1.018,6.63-3.051c1.389-2.035,2.058-4.605,2.008-7.713v-5.763h-0.151
			c-1.163,2.317-2.816,4.024-4.963,5.127c-2.147,1.103-4.408,1.653-6.781,1.653c-2.931,0-5.456-0.58-7.578-1.737
			s-3.864-2.74-5.229-4.746c-1.364-2.004-2.362-4.351-2.993-7.034c-0.632-2.683-0.946-5.521-0.946-8.517
			c0-2.825,0.365-5.552,1.099-8.179c0.732-2.627,1.806-4.942,3.221-6.949c1.414-2.004,3.169-3.602,5.268-4.787
			c2.096-1.188,4.509-1.78,7.235-1.78c2.577,0,4.837,0.538,6.782,1.61c1.944,1.074,3.573,2.881,4.888,5.423h0.151v-5.847h10.23
			v41.017C262.867,122.625,262.651,124.63,262.223,126.89z M247.484,112.313c1.162-0.678,2.122-1.58,2.879-2.711
			c0.759-1.129,1.326-2.416,1.705-3.855c0.379-1.441,0.568-2.952,0.568-4.534c0-1.808-0.151-3.517-0.455-5.127
			s-0.809-3.036-1.516-4.28c-0.708-1.242-1.643-2.23-2.805-2.966c-1.163-0.733-2.627-1.103-4.395-1.103
			c-1.517,0-2.817,0.34-3.902,1.018c-1.087,0.678-1.997,1.598-2.728,2.754c-0.733,1.159-1.264,2.487-1.591,3.983
			c-0.329,1.497-0.493,3.065-0.493,4.704c0,1.582,0.139,3.15,0.417,4.703c0.276,1.555,0.758,2.953,1.438,4.195
			c0.683,1.243,1.579,2.26,2.69,3.051c1.11,0.791,2.5,1.187,4.167,1.187C244.984,113.331,246.322,112.992,247.484,112.313z"/>
		<path fill="#FFFFFF" d="M282.265,63.162v22.796h0.229c1.363-2.542,3.106-4.393,5.229-5.551c2.122-1.157,4.192-1.737,6.213-1.737
			c2.88,0,5.241,0.438,7.085,1.313c1.843,0.875,3.296,2.09,4.357,3.644c1.061,1.556,1.806,3.447,2.234,5.679
			c0.43,2.232,0.645,4.703,0.645,7.416v26.948h-10.76V98.924c0-3.614-0.505-6.313-1.516-8.093s-2.804-2.669-5.38-2.669
			c-2.93,0-5.052,0.976-6.365,2.924c-1.313,1.949-1.97,5.156-1.97,9.619v22.966h-10.76V63.162H282.265z"/>
		<path fill="#FFFFFF" d="M327.2,63.162v22.034h0.151c1.313-2.26,3.094-3.912,5.342-4.959c2.248-1.045,4.584-1.567,7.011-1.567
			c1.97,0,3.914,0.453,5.834,1.356c1.919,0.904,3.648,2.287,5.19,4.152c1.54,1.863,2.791,4.252,3.751,7.16
			c0.959,2.91,1.439,6.37,1.439,10.381c0,4.012-0.48,7.473-1.439,10.381c-0.96,2.912-2.211,5.297-3.751,7.162
			c-1.542,1.863-3.271,3.25-5.19,4.151c-1.92,0.903-3.865,1.356-5.834,1.356c-2.88,0-5.456-0.508-7.729-1.525
			c-2.272-1.018-3.991-2.74-5.153-5.169h-0.15v5.593h-10.23V63.162H327.2z M344.628,96.467c-0.354-1.694-0.909-3.19-1.667-4.491
			c-0.758-1.3-1.705-2.33-2.842-3.094c-1.138-0.763-2.515-1.145-4.131-1.145c-1.565,0-2.93,0.382-4.092,1.145
			c-1.163,0.764-2.122,1.794-2.879,3.094c-0.758,1.301-1.313,2.797-1.667,4.491c-0.354,1.695-0.531,3.476-0.531,5.339
			c0,1.809,0.178,3.561,0.531,5.254c0.354,1.695,0.909,3.192,1.667,4.491c0.758,1.3,1.717,2.331,2.879,3.093
			c1.162,0.764,2.525,1.145,4.092,1.145c1.616,0,2.993-0.381,4.131-1.145c1.137-0.763,2.084-1.793,2.842-3.093
			c0.758-1.299,1.312-2.796,1.667-4.491c0.353-1.695,0.53-3.445,0.53-5.254C345.159,99.94,344.981,98.162,344.628,96.467z"/>
		<path fill="#FFFFFF" d="M362.966,92.272c0.959-2.853,2.323-5.283,4.092-7.289c1.769-2.004,3.891-3.559,6.365-4.66
			s5.253-1.652,8.335-1.652c3.081,0,5.873,0.551,8.373,1.652c2.501,1.102,4.634,2.656,6.402,4.66
			c1.769,2.006,3.132,4.437,4.093,7.289c0.959,2.854,1.439,6.031,1.439,9.533c0,3.504-0.48,6.668-1.439,9.492
			c-0.96,2.826-2.324,5.241-4.093,7.246c-1.769,2.006-3.901,3.546-6.402,4.619c-2.5,1.072-5.292,1.609-8.373,1.609
			c-3.082,0-5.861-0.537-8.335-1.609c-2.477-1.073-4.598-2.613-6.365-4.619c-1.769-2.005-3.133-4.42-4.092-7.246
			c-0.96-2.824-1.44-5.988-1.44-9.492C361.526,98.304,362.005,95.125,362.966,92.272z M372.741,106.933
			c0.303,1.668,0.82,3.166,1.554,4.492c0.73,1.328,1.705,2.387,2.917,3.178c1.212,0.793,2.728,1.188,4.546,1.188
			s3.346-0.395,4.584-1.188c1.237-0.791,2.222-1.85,2.955-3.178c0.731-1.326,1.25-2.824,1.554-4.492
			c0.303-1.666,0.455-3.375,0.455-5.127c0-1.75-0.152-3.475-0.455-5.168c-0.303-1.695-0.822-3.191-1.554-4.492
			c-0.733-1.299-1.718-2.357-2.955-3.178c-1.238-0.818-2.766-1.229-4.584-1.229c-1.819,0-3.334,0.41-4.546,1.229
			c-1.213,0.82-2.187,1.879-2.917,3.178c-0.733,1.301-1.25,2.797-1.554,4.492c-0.304,1.694-0.455,3.418-0.455,5.168
			C372.286,103.558,372.438,105.267,372.741,106.933z"/>
		<path fill="#FFFFFF" d="M419.267,79.856v8.136h0.151c0.504-1.356,1.187-2.612,2.046-3.771c0.857-1.158,1.844-2.146,2.956-2.967
			c1.109-0.818,2.298-1.453,3.562-1.906c1.262-0.451,2.576-0.679,3.94-0.679c0.707,0,1.488,0.142,2.349,0.425V90.28
			c-0.505-0.112-1.111-0.213-1.818-0.297c-0.708-0.084-1.39-0.127-2.046-0.127c-1.97,0-3.637,0.369-5.001,1.103
			c-1.364,0.735-2.462,1.737-3.296,3.008c-0.833,1.271-1.428,2.755-1.78,4.449c-0.354,1.694-0.53,3.53-0.53,5.508v19.746h-10.761
			V79.856H419.267z"/>
		<path fill="#FFFFFF" d="M449.274,63.162v22.796h0.229c1.363-2.542,3.106-4.393,5.229-5.551c2.122-1.157,4.192-1.737,6.213-1.737
			c2.88,0,5.241,0.438,7.085,1.313c1.843,0.875,3.296,2.09,4.357,3.644c1.061,1.556,1.806,3.447,2.234,5.679
			c0.43,2.232,0.645,4.703,0.645,7.416v26.948h-10.76V98.924c0-3.614-0.506-6.313-1.516-8.093c-1.011-1.779-2.804-2.669-5.38-2.669
			c-2.93,0-5.052,0.976-6.365,2.924c-1.313,1.949-1.97,5.156-1.97,9.619v22.966h-10.76V63.162H449.274z"/>
		<path fill="#FFFFFF" d="M483.676,92.272c0.959-2.853,2.322-5.283,4.092-7.289c1.768-2.004,3.89-3.559,6.365-4.66
			c2.475-1.102,5.253-1.652,8.335-1.652c3.081,0,5.873,0.551,8.373,1.652c2.501,1.102,4.634,2.656,6.402,4.66
			c1.769,2.006,3.132,4.437,4.093,7.289c0.959,2.854,1.439,6.031,1.439,9.533c0,3.504-0.48,6.668-1.439,9.492
			c-0.961,2.826-2.324,5.241-4.093,7.246c-1.769,2.006-3.901,3.546-6.402,4.619c-2.5,1.072-5.292,1.609-8.373,1.609
			c-3.082,0-5.861-0.537-8.335-1.609c-2.477-1.073-4.599-2.613-6.365-4.619c-1.77-2.005-3.133-4.42-4.092-7.246
			c-0.96-2.824-1.44-5.988-1.44-9.492C482.236,98.304,482.715,95.125,483.676,92.272z M493.45,106.933
			c0.304,1.668,0.821,3.166,1.555,4.492c0.73,1.328,1.704,2.387,2.917,3.178c1.212,0.793,2.728,1.188,4.546,1.188
			c1.817,0,3.346-0.395,4.584-1.188c1.236-0.791,2.222-1.85,2.955-3.178c0.731-1.326,1.25-2.824,1.554-4.492
			c0.303-1.666,0.455-3.375,0.455-5.127c0-1.75-0.152-3.475-0.455-5.168c-0.303-1.695-0.822-3.191-1.554-4.492
			c-0.733-1.299-1.719-2.357-2.955-3.178c-1.238-0.818-2.767-1.229-4.584-1.229c-1.819,0-3.334,0.41-4.546,1.229
			c-1.213,0.82-2.187,1.879-2.917,3.178c-0.733,1.301-1.25,2.797-1.555,4.492c-0.303,1.694-0.455,3.418-0.455,5.168
			C492.995,103.558,493.148,105.267,493.45,106.933z"/>
		<path fill="#FFFFFF" d="M529.975,92.272c0.959-2.853,2.323-5.283,4.092-7.289c1.768-2.004,3.89-3.559,6.365-4.66
			c2.475-1.102,5.253-1.652,8.335-1.652c3.081,0,5.873,0.551,8.373,1.652c2.501,1.102,4.634,2.656,6.403,4.66
			c1.768,2.006,3.132,4.437,4.092,7.289c0.959,2.854,1.439,6.031,1.439,9.533c0,3.504-0.48,6.668-1.439,9.492
			c-0.96,2.826-2.324,5.241-4.092,7.246c-1.77,2.006-3.902,3.546-6.403,4.619c-2.5,1.072-5.292,1.609-8.373,1.609
			c-3.082,0-5.861-0.537-8.335-1.609c-2.477-1.073-4.599-2.613-6.365-4.619c-1.769-2.005-3.133-4.42-4.092-7.246
			c-0.96-2.824-1.44-5.988-1.44-9.492C528.534,98.304,529.014,95.125,529.975,92.272z M539.75,106.933
			c0.303,1.668,0.82,3.166,1.554,4.492c0.73,1.328,1.705,2.387,2.917,3.178c1.212,0.793,2.728,1.188,4.546,1.188
			s3.346-0.395,4.584-1.188c1.237-0.791,2.222-1.85,2.955-3.178c0.731-1.326,1.25-2.824,1.554-4.492
			c0.303-1.666,0.455-3.375,0.455-5.127c0-1.75-0.152-3.475-0.455-5.168c-0.303-1.695-0.822-3.191-1.554-4.492
			c-0.733-1.299-1.718-2.357-2.955-3.178c-1.238-0.818-2.766-1.229-4.584-1.229c-1.819,0-3.334,0.41-4.546,1.229
			c-1.213,0.82-2.187,1.879-2.917,3.178c-0.733,1.301-1.25,2.797-1.554,4.492c-0.304,1.694-0.455,3.418-0.455,5.168
			C539.295,103.558,539.447,105.267,539.75,106.933z"/>
		<path fill="#FFFFFF" d="M603.856,118.077c-1.263,2.373-2.917,4.083-4.963,5.127c-2.046,1.045-4.357,1.568-6.934,1.568
			c-2.931,0-5.508-0.635-7.729-1.908c-2.224-1.27-4.054-2.993-5.494-5.168c-1.438-2.174-2.526-4.674-3.258-7.5
			c-0.733-2.824-1.099-5.764-1.099-8.813c0-2.937,0.365-5.776,1.099-8.517c0.731-2.74,1.819-5.155,3.258-7.246
			c1.44-2.09,3.246-3.771,5.418-5.042c2.171-1.271,4.698-1.907,7.578-1.907c2.323,0,4.533,0.551,6.63,1.652
			c2.096,1.102,3.751,2.727,4.963,4.873h0.151V63.162h10.76v60.508h-10.229v-5.593H603.856z M603.401,96.424
			c-0.303-1.666-0.822-3.135-1.554-4.407c-0.733-1.271-1.681-2.301-2.841-3.093c-1.163-0.791-2.627-1.187-4.396-1.187
			s-3.258,0.396-4.471,1.187c-1.212,0.792-2.187,1.837-2.917,3.136c-0.733,1.301-1.264,2.783-1.591,4.449
			c-0.329,1.667-0.493,3.404-0.493,5.213c0,1.694,0.176,3.389,0.53,5.084c0.353,1.694,0.921,3.207,1.704,4.533
			c0.783,1.328,1.769,2.402,2.956,3.221c1.187,0.819,2.614,1.229,4.281,1.229c1.769,0,3.245-0.396,4.434-1.187
			c1.187-0.791,2.134-1.851,2.842-3.179c0.707-1.327,1.212-2.839,1.516-4.534c0.303-1.695,0.455-3.445,0.455-5.254
			C603.856,99.829,603.704,98.091,603.401,96.424z"/>
		<path fill="#FFFFFF" d="M653.641,108.755c0.656,1.413,1.527,2.557,2.614,3.432c1.086,0.877,2.36,1.525,3.827,1.949
			c1.465,0.424,2.979,0.635,4.546,0.635c1.061,0,2.197-0.098,3.409-0.295c1.213-0.197,2.35-0.58,3.41-1.145
			c1.062-0.564,1.944-1.342,2.652-2.331c0.707-0.987,1.061-2.246,1.061-3.771c0-1.639-0.468-2.967-1.401-3.983
			c-0.937-1.017-2.16-1.865-3.675-2.542c-1.517-0.678-3.233-1.271-5.153-1.78c-1.92-0.508-3.865-1.071-5.834-1.694
			c-2.021-0.564-3.992-1.256-5.911-2.076c-1.92-0.818-3.637-1.877-5.153-3.178c-1.516-1.3-2.741-2.924-3.675-4.873
			c-0.936-1.949-1.402-4.309-1.402-7.076c0-3.106,0.594-5.805,1.781-8.093s2.74-4.195,4.66-5.72c1.919-1.525,4.092-2.655,6.517-3.39
			c2.426-0.734,4.851-1.102,7.274-1.102c2.829,0,5.543,0.354,8.146,1.06c2.601,0.707,4.911,1.851,6.934,3.432
			c2.02,1.583,3.624,3.602,4.812,6.059c1.188,2.458,1.781,5.438,1.781,8.941h-11.518c-0.103-1.808-0.443-3.305-1.023-4.492
			c-0.581-1.187-1.352-2.119-2.311-2.796c-0.96-0.678-2.06-1.157-3.296-1.441c-1.238-0.282-2.59-0.424-4.055-0.424
			c-0.96,0-1.92,0.114-2.879,0.339c-0.96,0.226-1.832,0.622-2.614,1.186c-0.783,0.565-1.428,1.271-1.932,2.119
			c-0.506,0.848-0.758,1.921-0.758,3.221c0,1.186,0.201,2.146,0.605,2.881c0.404,0.735,1.2,1.414,2.388,2.034
			c1.187,0.623,2.829,1.243,4.925,1.864c2.096,0.623,4.837,1.413,8.222,2.373c1.01,0.227,2.412,0.636,4.206,1.229
			c1.793,0.594,3.574,1.541,5.342,2.84c1.769,1.299,3.296,3.037,4.584,5.211c1.289,2.176,1.934,4.957,1.934,8.348
			c0,2.77-0.481,5.339-1.44,7.712c-0.96,2.373-2.387,4.421-4.281,6.144c-1.895,1.725-4.243,3.065-7.047,4.025
			s-6.05,1.441-9.736,1.441c-2.981,0-5.873-0.412-8.677-1.229c-2.803-0.817-5.278-2.104-7.426-3.856
			c-2.146-1.75-3.853-3.982-5.115-6.694c-1.263-2.711-1.87-5.933-1.817-9.661h11.518
			C652.655,105.619,652.983,107.343,653.641,108.755z"/>
		<path fill="#FFFFFF" d="M694.028,86.297c1.11-1.864,2.525-3.36,4.243-4.491c1.717-1.129,3.649-1.935,5.797-2.416
			c2.146-0.479,4.306-0.72,6.479-0.72c1.97,0,3.965,0.156,5.985,0.466c2.021,0.311,3.865,0.92,5.532,1.822
			c1.667,0.904,3.031,2.161,4.092,3.771c1.062,1.609,1.591,3.744,1.591,6.397v22.796c0,1.979,0.102,3.871,0.304,5.678
			c0.201,1.81,0.555,3.166,1.061,4.068h-10.912c-0.202-0.678-0.367-1.369-0.492-2.076c-0.127-0.705-0.216-1.426-0.265-2.16
			c-1.718,1.979-3.739,3.361-6.062,4.151c-2.324,0.791-4.698,1.187-7.123,1.187c-1.869,0-3.612-0.254-5.229-0.763
			c-1.617-0.508-3.031-1.299-4.243-2.372c-1.212-1.074-2.16-2.43-2.842-4.068s-1.022-3.588-1.022-5.848
			c0-2.486,0.391-4.535,1.175-6.145c0.781-1.61,1.792-2.895,3.031-3.855c1.236-0.959,2.651-1.681,4.243-2.16
			s3.194-0.861,4.812-1.145c1.616-0.282,3.208-0.508,4.773-0.678s2.956-0.424,4.169-0.764c1.212-0.338,2.171-0.832,2.879-1.482
			c0.707-0.649,1.034-1.596,0.984-2.84c0-1.299-0.188-2.33-0.567-3.092c-0.378-0.764-0.885-1.356-1.516-1.781
			c-0.632-0.422-1.364-0.705-2.198-0.846c-0.832-0.142-1.73-0.213-2.689-0.213c-2.122,0-3.789,0.508-5.001,1.525
			s-1.92,2.712-2.122,5.084h-10.76C692.284,90.507,692.916,88.162,694.028,86.297z M715.283,103.289
			c-0.682,0.254-1.415,0.466-2.197,0.636c-0.784,0.17-1.604,0.311-2.464,0.424c-0.858,0.114-1.718,0.254-2.575,0.424
			c-0.81,0.17-1.604,0.396-2.388,0.679c-0.784,0.282-1.465,0.665-2.046,1.144c-0.581,0.481-1.049,1.088-1.401,1.822
			c-0.354,0.734-0.53,1.667-0.53,2.796c0,1.074,0.176,1.979,0.53,2.712c0.353,0.735,0.833,1.312,1.439,1.737
			c0.606,0.424,1.313,0.72,2.122,0.89c0.808,0.17,1.641,0.254,2.501,0.254c2.122,0,3.763-0.395,4.925-1.187
			c1.162-0.791,2.021-1.737,2.576-2.839s0.896-2.217,1.023-3.348c0.125-1.129,0.188-2.035,0.188-2.713v-4.49
			C716.533,102.683,715.965,103.035,715.283,103.289z"/>
		<path fill="#FFFFFF" d="M731.99,87.908v-8.052h6.441v-3.39c0-3.898,1.086-7.089,3.258-9.576c2.171-2.485,5.456-3.729,9.852-3.729
			c0.959,0,1.919,0.042,2.879,0.127c0.959,0.085,1.895,0.156,2.804,0.212v8.983c-1.263-0.169-2.576-0.254-3.94-0.254
			c-1.466,0-2.514,0.381-3.145,1.144c-0.632,0.763-0.947,2.048-0.947,3.855v2.627h7.426v8.051h-7.426v35.762h-10.76V87.908H731.99z"
			/>
		<path fill="#FFFFFF" d="M762.756,86.297c1.109-1.864,2.524-3.36,4.242-4.491c1.718-1.129,3.649-1.935,5.798-2.416
			c2.146-0.479,4.306-0.72,6.479-0.72c1.97,0,3.965,0.156,5.986,0.466c2.02,0.311,3.864,0.92,5.532,1.822
			c1.666,0.904,3.03,2.161,4.092,3.771c1.061,1.609,1.591,3.744,1.591,6.397v22.796c0,1.979,0.101,3.871,0.303,5.678
			c0.201,1.81,0.555,3.166,1.062,4.068h-10.912c-0.202-0.678-0.367-1.369-0.492-2.076c-0.127-0.705-0.216-1.426-0.266-2.16
			c-1.718,1.979-3.738,3.361-6.062,4.151c-2.324,0.791-4.698,1.187-7.123,1.187c-1.869,0-3.612-0.254-5.229-0.763
			c-1.617-0.508-3.031-1.299-4.243-2.372c-1.212-1.074-2.16-2.43-2.842-4.068c-0.683-1.639-1.023-3.588-1.023-5.848
			c0-2.486,0.391-4.535,1.175-6.145c0.782-1.61,1.792-2.895,3.031-3.855c1.237-0.959,2.652-1.681,4.244-2.16
			c1.591-0.479,3.193-0.861,4.812-1.145c1.616-0.282,3.208-0.508,4.774-0.678c1.564-0.17,2.956-0.424,4.168-0.764
			c1.212-0.338,2.171-0.832,2.879-1.482c0.707-0.649,1.035-1.596,0.985-2.84c0-1.299-0.189-2.33-0.568-3.092
			c-0.378-0.764-0.884-1.356-1.515-1.781c-0.632-0.422-1.364-0.705-2.198-0.846c-0.833-0.142-1.731-0.213-2.69-0.213
			c-2.122,0-3.789,0.508-5.001,1.525s-1.92,2.712-2.122,5.084h-10.76C761.013,90.507,761.644,88.162,762.756,86.297z
			 M784.011,103.289c-0.683,0.254-1.415,0.466-2.198,0.636c-0.784,0.17-1.604,0.311-2.463,0.424
			c-0.859,0.114-1.718,0.254-2.576,0.424c-0.809,0.17-1.604,0.396-2.387,0.679c-0.784,0.282-1.465,0.665-2.046,1.144
			c-0.581,0.481-1.05,1.088-1.402,1.822c-0.354,0.734-0.53,1.667-0.53,2.796c0,1.074,0.176,1.979,0.53,2.712
			c0.353,0.735,0.833,1.312,1.44,1.737c0.605,0.424,1.312,0.72,2.121,0.89s1.642,0.254,2.502,0.254c2.121,0,3.763-0.395,4.925-1.187
			c1.162-0.791,2.02-1.737,2.575-2.839c0.557-1.102,0.896-2.217,1.023-3.348c0.125-1.129,0.189-2.035,0.189-2.713v-4.49
			C785.261,102.683,784.693,103.035,784.011,103.289z"/>
		<path fill="#FFFFFF" d="M815.041,79.856v8.136h0.15c0.504-1.356,1.188-2.612,2.046-3.771s1.845-2.146,2.956-2.967
			c1.11-0.818,2.298-1.453,3.562-1.906c1.262-0.451,2.576-0.679,3.939-0.679c0.707,0,1.489,0.142,2.35,0.425V90.28
			c-0.506-0.112-1.111-0.213-1.818-0.297c-0.708-0.084-1.39-0.127-2.046-0.127c-1.97,0-3.637,0.369-5.001,1.103
			c-1.364,0.735-2.462,1.737-3.296,3.008c-0.833,1.271-1.429,2.755-1.78,4.449c-0.354,1.694-0.531,3.53-0.531,5.508v19.746h-10.76
			V79.856H815.041z"/>
		<path fill="#FFFFFF" d="M834.59,73.077v-9.915h10.76v9.915H834.59z M845.351,79.856v43.813h-10.76V79.856H845.351z"/>
	</g>
	<path fill="#FFFFFF" d="M1849.955,71.721c-2.754-2.146-6.023-3.22-9.812-3.22c-3.233,0-5.999,0.678-8.298,2.034
		s-4.193,3.178-5.683,5.466c-1.491,2.288-2.591,4.902-3.298,7.839c-0.708,2.938-1.061,5.989-1.061,9.152
		c0,3.446,0.353,6.709,1.061,9.788c0.707,3.08,1.807,5.763,3.298,8.051c1.488,2.288,3.396,4.109,5.721,5.466
		c2.322,1.356,5.103,2.034,8.336,2.034c2.374,0,4.482-0.438,6.327-1.312c1.844-0.875,3.435-2.09,4.772-3.645
		c1.338-1.553,2.389-3.402,3.146-5.551c0.757-2.146,1.212-4.463,1.363-6.949h7.198c-0.708,7.627-3.058,13.559-7.048,17.796
		c-3.991,4.237-9.446,6.356-16.367,6.356c-4.192,0-7.855-0.805-10.986-2.416c-3.134-1.609-5.734-3.826-7.807-6.652
		c-2.07-2.824-3.625-6.156-4.66-10c-1.035-3.841-1.553-7.966-1.553-12.373c0-4.406,0.555-8.544,1.667-12.415
		c1.11-3.868,2.739-7.246,4.888-10.127c2.146-2.881,4.823-5.155,8.032-6.822c3.207-1.666,6.882-2.5,11.025-2.5
		c2.828,0,5.505,0.424,8.032,1.271c2.524,0.847,4.772,2.091,6.743,3.729c1.971,1.64,3.611,3.687,4.926,6.144
		c1.313,2.457,2.172,5.297,2.577,8.517h-7.199C1854.489,77.089,1852.707,73.869,1849.955,71.721z"/>
	<path fill="#FFFFFF" d="M1877.348,63.162v23.135h0.15c0.505-1.356,1.213-2.5,2.121-3.433c0.91-0.932,1.934-1.694,3.069-2.287
		c1.136-0.594,2.323-1.03,3.562-1.312c1.237-0.283,2.438-0.425,3.601-0.425c2.576,0,4.723,0.396,6.439,1.187
		c1.718,0.793,3.107,1.895,4.168,3.306c1.062,1.413,1.807,3.093,2.235,5.042s0.645,4.109,0.645,6.482v28.813h-6.44V94.009
		c0-2.712-0.708-4.857-2.122-6.441c-1.414-1.58-3.359-2.373-5.834-2.373c-1.971,0-3.676,0.34-5.115,1.018
		c-1.438,0.678-2.641,1.639-3.6,2.881c-0.96,1.243-1.68,2.698-2.159,4.364c-0.479,1.667-0.72,3.489-0.72,5.466v24.746h-6.441V63.162
		H1877.348z"/>
	<path fill="#FFFFFF" d="M1943.12,124.603c-1.667,0-2.993-0.523-3.978-1.568c-0.985-1.044-1.479-2.754-1.479-5.127
		c-1.769,2.373-3.825,4.083-6.176,5.127c-2.349,1.045-4.887,1.568-7.615,1.568c-1.769,0-3.436-0.213-5.001-0.637
		c-1.565-0.423-2.942-1.129-4.13-2.117s-2.122-2.26-2.804-3.814c-0.682-1.553-1.023-3.432-1.023-5.635
		c0-2.485,0.38-4.521,1.138-6.103c0.758-1.581,1.755-2.866,2.993-3.856c1.236-0.987,2.651-1.736,4.244-2.246
		c1.591-0.508,3.22-0.932,4.888-1.271c1.768-0.396,3.446-0.69,5.039-0.89c1.591-0.197,2.993-0.479,4.204-0.848
		c1.214-0.367,2.173-0.903,2.881-1.61c0.707-0.706,1.061-1.737,1.061-3.093c0-1.582-0.266-2.853-0.796-3.813
		c-0.53-0.96-1.212-1.694-2.046-2.204c-0.833-0.508-1.77-0.847-2.804-1.018c-1.036-0.17-2.06-0.254-3.068-0.254
		c-2.729,0-5.002,0.58-6.82,1.738c-1.817,1.158-2.804,3.346-2.954,6.567h-6.441c0.101-2.712,0.605-5,1.516-6.864
		c0.909-1.865,2.122-3.375,3.639-4.535c1.516-1.156,3.258-1.992,5.229-2.5c1.97-0.508,4.041-0.763,6.214-0.763
		c1.769,0,3.523,0.142,5.267,0.425c1.742,0.282,3.32,0.861,4.735,1.736c1.414,0.876,2.551,2.105,3.41,3.688
		c0.858,1.582,1.288,3.644,1.288,6.186v22.542c0,1.694,0.088,2.938,0.266,3.729c0.176,0.791,0.771,1.187,1.78,1.187
		c0.556,0,1.213-0.142,1.971-0.425v5.594C1946.632,124.233,1945.092,124.603,1943.12,124.603z M1934.104,102.526
		c-1.312,0.312-2.689,0.564-4.129,0.763c-1.44,0.198-2.893,0.424-4.357,0.678c-1.466,0.255-2.779,0.665-3.939,1.229
		c-1.163,0.564-2.11,1.371-2.842,2.416c-0.732,1.046-1.1,2.472-1.1,4.279c0,1.187,0.214,2.19,0.646,3.008
		c0.428,0.82,0.983,1.483,1.667,1.992c0.682,0.508,1.488,0.877,2.425,1.102c0.934,0.227,1.881,0.339,2.841,0.339
		c2.122,0,3.939-0.325,5.456-0.976c1.516-0.648,2.753-1.467,3.713-2.457c0.959-0.988,1.668-2.062,2.122-3.221
		c0.455-1.158,0.682-2.246,0.682-3.263v-7.373C1936.478,101.722,1935.416,102.216,1934.104,102.526z"/>
	<path fill="#FFFFFF" d="M1959.791,79.856v6.949h0.151c2.677-5.31,6.92-7.966,12.73-7.966c2.575,0,4.723,0.396,6.439,1.187
		c1.717,0.793,3.107,1.895,4.168,3.306c1.062,1.413,1.806,3.093,2.235,5.042c0.429,1.949,0.645,4.109,0.645,6.482v28.813h-6.44
		V94.009c0-2.712-0.708-4.857-2.122-6.441c-1.414-1.58-3.359-2.373-5.834-2.373c-1.971,0-3.676,0.34-5.115,1.018
		s-2.641,1.639-3.6,2.881c-0.96,1.243-1.681,2.698-2.159,4.364c-0.48,1.667-0.72,3.489-0.72,5.466v24.746h-6.441V79.856H1959.791z"
		/>
	<path fill="#FFFFFF" d="M2001.923,79.856v6.949h0.15c2.677-5.31,6.92-7.966,12.73-7.966c2.576,0,4.723,0.396,6.439,1.187
		c1.718,0.793,3.107,1.895,4.168,3.306c1.062,1.413,1.806,3.093,2.235,5.042c0.429,1.949,0.645,4.109,0.645,6.482v28.813h-6.44
		V94.009c0-2.712-0.708-4.857-2.122-6.441c-1.414-1.58-3.359-2.373-5.834-2.373c-1.971,0-3.676,0.34-5.115,1.018
		c-1.438,0.678-2.641,1.639-3.6,2.881c-0.96,1.243-1.681,2.698-2.159,4.364c-0.48,1.667-0.72,3.489-0.72,5.466v24.746h-6.441V79.856
		H2001.923z"/>
	<path fill="#FFFFFF" d="M2065.727,120.874c-2.931,2.486-6.619,3.729-11.062,3.729c-3.134,0-5.849-0.564-8.146-1.694
		c-2.3-1.13-4.232-2.712-5.798-4.746c-1.566-2.034-2.74-4.462-3.522-7.288c-0.783-2.825-1.227-5.902-1.326-9.236
		c0-3.334,0.455-6.385,1.363-9.152c0.909-2.769,2.186-5.17,3.827-7.205c1.642-2.033,3.586-3.614,5.834-4.745
		c2.248-1.13,4.71-1.695,7.39-1.695c3.484,0,6.377,0.806,8.677,2.415c2.298,1.609,4.142,3.659,5.53,6.145
		c1.39,2.486,2.35,5.199,2.881,8.136c0.529,2.938,0.743,5.735,0.644,8.39h-29.325c-0.051,1.922,0.151,3.743,0.606,5.467
		c0.454,1.723,1.187,3.248,2.196,4.575c1.011,1.328,2.299,2.388,3.864,3.179s3.41,1.187,5.532,1.187
		c2.729,0,4.963-0.706,6.706-2.119c1.743-1.412,2.892-3.56,3.447-6.44h6.364C2070.55,114.687,2068.655,118.388,2065.727,120.874z
		 M2064.173,92.737c-0.581-1.524-1.364-2.838-2.35-3.939s-2.147-1.977-3.485-2.627c-1.34-0.648-2.816-0.975-4.434-0.975
		c-1.667,0-3.171,0.326-4.509,0.975c-1.339,0.65-2.488,1.54-3.447,2.669c-0.961,1.132-1.719,2.444-2.272,3.94
		c-0.558,1.498-0.886,3.093-0.985,4.787h22.506C2065.094,95.874,2064.752,94.265,2064.173,92.737z"/>
	<path fill="#FFFFFF" d="M2085.502,63.162v60.508h-6.44V63.162H2085.502z"/>
	<path fill="#FFFFFF" d="M2144.721,71.425c-2.4-1.949-5.471-2.924-9.207-2.924c-1.517,0-3.008,0.169-4.471,0.508
		c-1.467,0.339-2.768,0.905-3.902,1.695c-1.137,0.792-2.046,1.851-2.729,3.178c-0.682,1.328-1.021,2.98-1.021,4.958
		c0,1.864,0.491,3.376,1.478,4.534c0.984,1.159,2.299,2.105,3.94,2.839c1.641,0.735,3.497,1.343,5.569,1.822
		c2.069,0.479,4.18,1.004,6.326,1.567c2.146,0.565,4.255,1.229,6.327,1.992c2.071,0.762,3.928,1.793,5.569,3.092
		c1.642,1.301,2.956,2.938,3.939,4.916c0.985,1.979,1.479,4.463,1.479,7.459c0,3.219-0.645,5.975-1.932,8.263
		c-1.288,2.288-2.943,4.151-4.965,5.593c-2.021,1.441-4.281,2.486-6.781,3.137c-2.5,0.648-4.989,0.975-7.464,0.975
		c-3.03,0-5.898-0.424-8.602-1.271c-2.702-0.848-5.076-2.132-7.122-3.855c-2.046-1.723-3.664-3.926-4.852-6.61
		c-1.188-2.683-1.779-5.86-1.779-9.534h6.819c0,2.542,0.441,4.732,1.325,6.568s2.047,3.347,3.486,4.533
		c1.438,1.188,3.117,2.063,5.039,2.627c1.919,0.565,3.89,0.849,5.91,0.849c1.615,0,3.246-0.169,4.888-0.508s3.118-0.918,4.433-1.737
		c1.313-0.818,2.374-1.936,3.184-3.348c0.808-1.412,1.213-3.221,1.213-5.424c0-2.09-0.492-3.784-1.479-5.084
		c-0.984-1.299-2.3-2.358-3.939-3.178c-1.644-0.818-3.499-1.484-5.569-1.992c-2.072-0.508-4.181-1.03-6.327-1.568
		c-2.147-0.536-4.257-1.157-6.328-1.864c-2.07-0.706-3.928-1.638-5.568-2.797c-1.643-1.157-2.955-2.655-3.94-4.491
		c-0.985-1.835-1.478-4.138-1.478-6.906c0-3.051,0.556-5.691,1.667-7.924c1.11-2.231,2.589-4.067,4.433-5.508
		c1.844-1.44,3.94-2.513,6.29-3.22c2.35-0.706,4.761-1.06,7.236-1.06c2.778,0,5.354,0.368,7.729,1.102
		c2.373,0.735,4.457,1.894,6.25,3.475c1.793,1.582,3.209,3.574,4.244,5.974c1.034,2.402,1.604,5.269,1.705,8.602h-6.82
		C2148.521,76.524,2147.118,73.374,2144.721,71.425z"/>
	<path fill="#FFFFFF" d="M2193.406,120.874c-2.931,2.486-6.618,3.729-11.062,3.729c-3.134,0-5.849-0.564-8.146-1.694
		c-2.3-1.13-4.231-2.712-5.798-4.746s-2.74-4.462-3.523-7.288c-0.782-2.825-1.226-5.902-1.325-9.236
		c0-3.334,0.455-6.385,1.364-9.152c0.908-2.769,2.185-5.17,3.826-7.205c1.642-2.033,3.586-3.614,5.834-4.745
		c2.248-1.13,4.71-1.695,7.389-1.695c3.485,0,6.377,0.806,8.678,2.415c2.298,1.609,4.142,3.659,5.531,6.145
		c1.389,2.486,2.349,5.199,2.879,8.136c0.53,2.938,0.744,5.735,0.645,8.39h-29.325c-0.051,1.922,0.151,3.743,0.606,5.467
		c0.454,1.723,1.187,3.248,2.197,4.575c1.01,1.328,2.298,2.388,3.863,3.179s3.41,1.187,5.532,1.187c2.728,0,4.963-0.706,6.706-2.119
		c1.743-1.412,2.893-3.56,3.447-6.44h6.365C2198.229,114.687,2196.334,118.388,2193.406,120.874z M2191.853,92.737
		c-0.581-1.524-1.364-2.838-2.349-3.939c-0.985-1.102-2.148-1.977-3.486-2.627c-1.34-0.648-2.816-0.975-4.434-0.975
		c-1.667,0-3.171,0.326-4.509,0.975c-1.339,0.65-2.488,1.54-3.447,2.669c-0.961,1.132-1.719,2.444-2.272,3.94
		c-0.557,1.498-0.885,3.093-0.985,4.787h22.506C2192.773,95.874,2192.433,94.265,2191.853,92.737z"/>
	<path fill="#FFFFFF" d="M2213.183,63.162v60.508h-6.44V63.162H2213.183z"/>
	<path fill="#FFFFFF" d="M2250.918,120.874c-2.932,2.486-6.619,3.729-11.063,3.729c-3.133,0-5.848-0.564-8.146-1.694
		c-2.301-1.13-4.232-2.712-5.799-4.746c-1.565-2.034-2.74-4.462-3.522-7.288c-0.783-2.825-1.227-5.902-1.326-9.236
		c0-3.334,0.455-6.385,1.364-9.152c0.908-2.769,2.185-5.17,3.826-7.205c1.642-2.033,3.586-3.614,5.834-4.745
		c2.248-1.13,4.711-1.695,7.39-1.695c3.485,0,6.377,0.806,8.677,2.415c2.298,1.609,4.143,3.659,5.531,6.145
		c1.389,2.486,2.349,5.199,2.88,8.136c0.53,2.938,0.743,5.735,0.644,8.39h-29.324c-0.052,1.922,0.15,3.743,0.605,5.467
		c0.454,1.723,1.188,3.248,2.197,4.575c1.01,1.328,2.298,2.388,3.863,3.179s3.41,1.187,5.532,1.187c2.729,0,4.963-0.706,6.706-2.119
		c1.743-1.412,2.893-3.56,3.447-6.44h6.365C2255.74,114.687,2253.847,118.388,2250.918,120.874z M2249.364,92.737
		c-0.581-1.524-1.363-2.838-2.349-3.939s-2.148-1.977-3.486-2.627c-1.339-0.648-2.815-0.975-4.433-0.975
		c-1.668,0-3.172,0.326-4.51,0.975c-1.339,0.65-2.488,1.54-3.447,2.669c-0.961,1.132-1.719,2.444-2.272,3.94
		c-0.557,1.498-0.885,3.093-0.985,4.787h22.506C2250.284,95.874,2249.944,94.265,2249.364,92.737z"/>
	<path fill="#FFFFFF" d="M2287.289,87.483c-1.617-1.524-3.789-2.287-6.518-2.287c-2.324,0-4.27,0.479-5.835,1.439
		c-1.565,0.961-2.815,2.233-3.751,3.813c-0.936,1.583-1.604,3.405-2.008,5.466c-0.405,2.062-0.606,4.195-0.606,6.398
		c0,2.033,0.214,4.012,0.646,5.932c0.428,1.921,1.099,3.63,2.008,5.127c0.909,1.498,2.096,2.697,3.562,3.602
		c1.465,0.904,3.207,1.356,5.229,1.356c3.184,0,5.67-0.933,7.464-2.797c1.792-1.864,2.893-4.491,3.296-7.882h6.594
		c-0.709,5.424-2.515,9.605-5.418,12.543c-2.905,2.938-6.857,4.406-11.859,4.406c-2.98,0-5.62-0.537-7.918-1.609
		c-2.3-1.073-4.219-2.598-5.759-4.577c-1.542-1.978-2.703-4.335-3.486-7.076c-0.783-2.739-1.175-5.748-1.175-9.024
		s0.379-6.342,1.137-9.195s1.906-5.34,3.448-7.458c1.54-2.118,3.473-3.784,5.797-5c2.323-1.214,5.026-1.822,8.108-1.822
		c2.222,0,4.306,0.298,6.25,0.89c1.944,0.594,3.662,1.512,5.153,2.754c1.489,1.244,2.716,2.812,3.675,4.703
		c0.959,1.895,1.565,4.141,1.818,6.737h-6.668C2289.966,91.157,2288.905,89.009,2287.289,87.483z"/>
	<path fill="#FFFFFF" d="M2321.312,79.856v6.356h-7.806v27.203c0,0.847,0.062,1.524,0.188,2.034c0.126,0.509,0.366,0.904,0.72,1.188
		c0.354,0.282,0.847,0.465,1.479,0.551c0.631,0.084,1.451,0.127,2.462,0.127h2.956v6.355h-4.926c-1.667,0-3.095-0.127-4.281-0.381
		c-1.188-0.254-2.147-0.721-2.88-1.398s-1.275-1.638-1.629-2.881c-0.354-1.242-0.53-2.881-0.53-4.914V86.213h-6.669v-6.356h6.669
		V66.721h6.44v13.135H2321.312z"/>
	<path fill="#FFFFFF" d="M2327.523,92.78c0.808-2.797,2.021-5.225,3.637-7.288c1.616-2.062,3.611-3.687,5.986-4.873
		c2.374-1.187,5.103-1.78,8.185-1.78c3.133,0,5.873,0.594,8.223,1.78c2.349,1.187,4.331,2.812,5.947,4.873
		c1.616,2.063,2.828,4.491,3.639,7.288c0.807,2.797,1.212,5.805,1.212,9.025c0,3.219-0.405,6.215-1.212,8.982
		c-0.811,2.77-2.021,5.184-3.639,7.246c-1.616,2.062-3.6,3.673-5.947,4.83c-2.351,1.158-5.09,1.738-8.223,1.738
		c-3.082,0-5.811-0.58-8.185-1.738c-2.375-1.156-4.37-2.768-5.986-4.83s-2.829-4.477-3.637-7.246
		c-0.81-2.768-1.213-5.764-1.213-8.982C2326.31,98.585,2326.715,95.577,2327.523,92.78z M2334.077,108.882
		c0.632,2.062,1.502,3.786,2.614,5.169c1.11,1.386,2.412,2.444,3.902,3.179c1.488,0.734,3.068,1.102,4.736,1.102
		c1.666,0,3.244-0.367,4.734-1.102s2.791-1.793,3.903-3.179c1.11-1.384,1.981-3.106,2.614-5.169c0.631-2.062,0.947-4.42,0.947-7.076
		c0-2.654-0.316-5.013-0.947-7.076c-0.633-2.062-1.504-3.799-2.614-5.211c-1.112-1.412-2.413-2.485-3.903-3.221
		c-1.49-0.732-3.068-1.102-4.734-1.102c-1.668,0-3.248,0.367-4.736,1.102c-1.49,0.735-2.792,1.809-3.902,3.221
		c-1.112,1.412-1.982,3.149-2.614,5.211c-0.633,2.063-0.946,4.422-0.946,7.076C2333.131,104.462,2333.445,106.819,2334.077,108.882z
		"/>
	<path fill="#FFFFFF" d="M2377.763,79.856v9.238h0.15c1.565-3.561,3.485-6.188,5.759-7.882c2.274-1.694,5.153-2.485,8.64-2.373
		v7.627c-2.576,0-4.773,0.396-6.593,1.187c-1.818,0.793-3.284,1.949-4.396,3.476c-1.112,1.524-1.921,3.376-2.425,5.552
		c-0.506,2.174-0.758,4.674-0.758,7.5v19.49h-6.441V79.856H2377.763z"/>
</g>
</svg>
