<?xml version="1.0" encoding="utf-8"?>
<!-- Generator: Adobe Illustrator 16.0.0, SVG Export Plug-In . SVG Version: 6.00 Build 0)  -->
<!DOCTYPE svg PUBLIC "-//W3C//DTD SVG 1.1//EN" "http://www.w3.org/Graphics/SVG/1.1/DTD/svg11.dtd" [
	<!ENTITY ns_extend "http://ns.adobe.com/Extensibility/1.0/">
	<!ENTITY ns_ai "http://ns.adobe.com/AdobeIllustrator/10.0/">
	<!ENTITY ns_graphs "http://ns.adobe.com/Graphs/1.0/">
	<!ENTITY ns_vars "http://ns.adobe.com/Variables/1.0/">
	<!ENTITY ns_imrep "http://ns.adobe.com/ImageReplacement/1.0/">
	<!ENTITY ns_sfw "http://ns.adobe.com/SaveForWeb/1.0/">
	<!ENTITY ns_custom "http://ns.adobe.com/GenericCustomNamespace/1.0/">
	<!ENTITY ns_adobe_xpath "http://ns.adobe.com/XPath/1.0/">
]>
<svg version="1.1" xmlns:x="&ns_extend;" xmlns:i="&ns_ai;" xmlns:graph="&ns_graphs;"
	 xmlns="http://www.w3.org/2000/svg" xmlns:xlink="http://www.w3.org/1999/xlink" x="0px" y="0px" width="354.49px"
	 height="396.611px" viewBox="0 0 354.49 396.611" enable-background="new 0 0 354.49 396.611" xml:space="preserve">
<metadata>
	<sfw  xmlns="&ns_sfw;">
		<slices></slices>
		<sliceSourceBounds  x="-6911" y="-8912" bottomLeftOrigin="true" height="16383" width="16383"></sliceSourceBounds>
	</sfw>
</metadata>
<g id="Background" display="none">
	<radialGradient id="SVGID_1_" cx="681.6084" cy="451.6743" r="1113.6583" gradientUnits="userSpaceOnUse">
		<stop  offset="0" style="stop-color:#006594"/>
		<stop  offset="0.5393" style="stop-color:#000B2A"/>
		<stop  offset="1" style="stop-color:#00232A"/>
	</radialGradient>
	<rect x="-598.392" y="-465.969" display="inline" fill="url(#SVGID_1_)" width="2560" height="1835.287"/>
</g>
<g id="Layer_1" display="none">
	<linearGradient id="SVGID_2_" gradientUnits="userSpaceOnUse" x1="168.4575" y1="25.1763" x2="168.4575" y2="378.5736">
		<stop  offset="0.3" style="stop-color:#BFAE25"/>
		<stop  offset="1" style="stop-color:#3BAA49"/>
	</linearGradient>
	<path display="inline" fill="url(#SVGID_2_)" d="M345.703,307.267c-4.131,38.537-35.656,72.457-74.201,72.457H61.285
		c-38.539,0-70.072-33.92-70.072-72.457V97.048c0-38.54,31.533-72.405,70.072-72.405h210.217c38.545,0,70.07,33.865,74.201,72.405
		V307.267z"/>
	<g display="inline">
		<linearGradient id="SVGID_3_" gradientUnits="userSpaceOnUse" x1="72.5718" y1="109.6646" x2="254.0625" y2="348.1528">
			<stop  offset="0" style="stop-color:#FFFFFF"/>
			<stop  offset="1" style="stop-color:#E6E5E5"/>
		</linearGradient>
		<path fill="url(#SVGID_3_)" d="M202.486,189.616c4.284-1.324,7.475-3.971,9.57-7.941c2.094-3.973,2.481-8.1,1.157-12.385
			c-1.323-4.281-3.973-7.469-7.942-9.566c-3.972-2.096-8.1-2.484-12.384-1.16s-7.473,3.975-9.568,7.945
			c-2.095,3.973-2.48,8.1-1.158,12.379c1.325,4.285,3.973,7.475,7.943,9.572C194.076,190.556,198.202,190.94,202.486,189.616z
			 M172.631,340.621c-4.278,1.324-8.384,0.949-12.301-1.123l-78.084-41.1c-3.959-2.227-6.595-5.443-7.895-9.65
			c-1.325-4.283-0.95-8.381,1.109-12.301l60.037-113.557c2.044-3.998,5.319-7.869,9.834-11.609c4.511-3.74,8.91-6.273,13.194-7.598
			l50.455-15.598c4.205-1.299,8.318-0.885,12.339,1.238c4.017,2.127,6.682,5.289,7.983,9.49l15.596,50.451
			c1.324,4.285,1.715,9.346,1.177,15.186c-0.542,5.836-1.88,10.762-4.004,14.783L182.284,332.71
			c-2.224,3.973-5.441,6.609-9.646,7.91H172.631z"/>
	</g>
</g>
<g id="squares">
	<g>
		<g>
			<linearGradient id="SVGID_4_" gradientUnits="userSpaceOnUse" x1="299.3218" y1="5.9741" x2="299.3218" y2="114.2254">
				<stop  offset="0" style="stop-color:#999674"/>
				<stop  offset="0.5" style="stop-color:#737144"/>
				<stop  offset="1" style="stop-color:#5A5C2A"/>
			</linearGradient>
			<path fill="url(#SVGID_4_)" d="M354.134,92.537c-1.278,11.918-11.027,22.406-22.946,22.406h-65.009
				c-11.918,0-21.669-10.488-21.669-22.406v-65.01c0-11.917,9.751-22.391,21.669-22.391h65.009
				c11.919,0,21.668,10.474,22.946,22.391V92.537z"/>
			<linearGradient id="SVGID_5_" gradientUnits="userSpaceOnUse" x1="178.6372" y1="5.9741" x2="178.6372" y2="114.2254">
				<stop  offset="0" style="stop-color:#999674"/>
				<stop  offset="0.5" style="stop-color:#737144"/>
				<stop  offset="1" style="stop-color:#5A5C2A"/>
			</linearGradient>
			<path fill="url(#SVGID_5_)" d="M233.45,92.537c-1.278,11.918-11.027,22.406-22.946,22.406h-65.009
				c-11.918,0-21.669-10.488-21.669-22.406v-65.01c0-11.917,9.751-22.391,21.669-22.391h65.009
				c11.919,0,21.668,10.474,22.946,22.391V92.537z"/>
			<linearGradient id="SVGID_6_" gradientUnits="userSpaceOnUse" x1="57.9526" y1="5.9741" x2="57.9526" y2="114.2254">
				<stop  offset="0" style="stop-color:#999674"/>
				<stop  offset="0.5" style="stop-color:#737144"/>
				<stop  offset="1" style="stop-color:#5A5C2A"/>
			</linearGradient>
			<path fill="url(#SVGID_6_)" d="M112.765,92.537c-1.278,11.918-11.027,22.406-22.946,22.406H24.81
				c-11.918,0-21.669-10.488-21.669-22.406v-65.01c0-11.917,9.751-22.391,21.669-22.391h65.009
				c11.919,0,21.668,10.474,22.946,22.391V92.537z"/>
			<linearGradient id="SVGID_7_" gradientUnits="userSpaceOnUse" x1="299.3218" y1="124.2866" x2="299.3218" y2="232.5379">
				<stop  offset="0" style="stop-color:#999674"/>
				<stop  offset="0.5" style="stop-color:#737144"/>
				<stop  offset="1" style="stop-color:#5A5C2A"/>
			</linearGradient>
			<path fill="url(#SVGID_7_)" d="M354.134,210.849c-1.278,11.918-11.027,22.406-22.946,22.406h-65.009
				c-11.918,0-21.669-10.488-21.669-22.406v-65.01c0-11.917,9.751-22.391,21.669-22.391h65.009
				c11.919,0,21.668,10.474,22.946,22.391V210.849z"/>
			<linearGradient id="SVGID_8_" gradientUnits="userSpaceOnUse" x1="178.6372" y1="124.2866" x2="178.6372" y2="232.5379">
				<stop  offset="0" style="stop-color:#999674"/>
				<stop  offset="0.5" style="stop-color:#737144"/>
				<stop  offset="1" style="stop-color:#5A5C2A"/>
			</linearGradient>
			<path fill="url(#SVGID_8_)" d="M233.45,210.849c-1.278,11.918-11.027,22.406-22.946,22.406h-65.009
				c-11.918,0-21.669-10.488-21.669-22.406v-65.01c0-11.917,9.751-22.391,21.669-22.391h65.009
				c11.919,0,21.668,10.474,22.946,22.391V210.849z"/>
			<linearGradient id="SVGID_9_" gradientUnits="userSpaceOnUse" x1="57.9526" y1="124.2866" x2="57.9526" y2="232.5379">
				<stop  offset="0" style="stop-color:#999674"/>
				<stop  offset="0.5" style="stop-color:#737144"/>
				<stop  offset="1" style="stop-color:#5A5C2A"/>
			</linearGradient>
			<path fill="url(#SVGID_9_)" d="M112.765,210.849c-1.278,11.918-11.027,22.406-22.946,22.406H24.81
				c-11.918,0-21.669-10.488-21.669-22.406v-65.01c0-11.917,9.751-22.391,21.669-22.391h65.009
				c11.919,0,21.668,10.474,22.946,22.391V210.849z"/>
			<linearGradient id="SVGID_10_" gradientUnits="userSpaceOnUse" x1="299.3218" y1="242.5991" x2="299.3218" y2="350.8509">
				<stop  offset="0" style="stop-color:#999674"/>
				<stop  offset="0.5" style="stop-color:#737144"/>
				<stop  offset="1" style="stop-color:#5A5C2A"/>
			</linearGradient>
			<path fill="url(#SVGID_10_)" d="M354.134,329.162c-1.278,11.918-11.027,22.406-22.946,22.406h-65.009
				c-11.918,0-21.669-10.488-21.669-22.406v-65.01c0-11.917,9.751-22.391,21.669-22.391h65.009
				c11.919,0,21.668,10.474,22.946,22.391V329.162z"/>
			<linearGradient id="SVGID_11_" gradientUnits="userSpaceOnUse" x1="178.6372" y1="242.5991" x2="178.6372" y2="350.8509">
				<stop  offset="0" style="stop-color:#999674"/>
				<stop  offset="0.5" style="stop-color:#737144"/>
				<stop  offset="1" style="stop-color:#5A5C2A"/>
			</linearGradient>
			<path fill="url(#SVGID_11_)" d="M233.45,329.162c-1.278,11.918-11.027,22.406-22.946,22.406h-65.009
				c-11.918,0-21.669-10.488-21.669-22.406v-65.01c0-11.917,9.751-22.391,21.669-22.391h65.009
				c11.919,0,21.668,10.474,22.946,22.391V329.162z"/>
			<linearGradient id="SVGID_12_" gradientUnits="userSpaceOnUse" x1="57.9526" y1="242.5991" x2="57.9526" y2="350.8509">
				<stop  offset="0" style="stop-color:#999674"/>
				<stop  offset="0.5" style="stop-color:#737144"/>
				<stop  offset="1" style="stop-color:#5A5C2A"/>
			</linearGradient>
			<path fill="url(#SVGID_12_)" d="M112.765,329.162c-1.278,11.918-11.027,22.406-22.946,22.406H24.81
				c-11.918,0-21.669-10.488-21.669-22.406v-65.01c0-11.917,9.751-22.391,21.669-22.391h65.009
				c11.919,0,21.668,10.474,22.946,22.391V329.162z"/>
		</g>
		<g>
			<g>
				<g>
					<linearGradient id="SVGID_13_" gradientUnits="userSpaceOnUse" x1="83.6167" y1="80.9072" x2="246.7435" y2="284.8164">
						<stop  offset="0" style="stop-color:#FFFFFF"/>
						<stop  offset="1" style="stop-color:#E6E5E5"/>
					</linearGradient>
					<path fill="url(#SVGID_13_)" d="M258.609,253.23V86.202c0-5.883-4.836-10.648-10.795-10.648H89.142
						c-5.962,0-10.796,4.766-10.796,10.648v201.563c0,5.883,4.834,10.648,10.796,10.648h123.246L258.609,253.23z"/>
					<polygon fill="#F4F4F4" points="258.609,253.23 212.388,253.23 212.388,298.414 					"/>
				</g>
				<linearGradient id="SVGID_14_" gradientUnits="userSpaceOnUse" x1="225.7754" y1="80.4844" x2="259.2125" y2="123.2528">
					<stop  offset="0" style="stop-color:#FFFFFF"/>
					<stop  offset="1" style="stop-color:#E6E5E5"/>
				</linearGradient>
				<circle fill="url(#SVGID_14_)" cx="238.11" cy="96.26" r="37.081"/>
				<g>
					<path fill="#B6B6B6" d="M174.324,199.316h-19.303l-2.297,5.319c-0.752,1.772-1.129,3.237-1.129,4.392
						c0,1.532,0.618,2.66,1.854,3.386c0.726,0.43,2.512,0.752,5.36,0.967v1.491h-18.175v-1.491c1.961-0.295,3.573-1.106,4.836-2.438
						c1.263-1.328,2.82-4.076,4.674-8.24l19.545-43.604h0.766l19.707,44.812c1.88,4.244,3.425,6.918,4.634,8.02
						c0.913,0.832,2.203,1.316,3.868,1.45v1.491h-26.436v-1.491h1.088c2.123,0,3.613-0.295,4.474-0.886
						c0.591-0.431,0.887-1.049,0.887-1.854c0-0.483-0.081-0.98-0.242-1.491c-0.054-0.241-0.456-1.249-1.209-3.021L174.324,199.316z
						 M172.954,196.333l-8.14-18.819l-8.383,18.819H172.954z"/>
				</g>
				<g>
					<linearGradient id="SVGID_15_" gradientUnits="userSpaceOnUse" x1="83.6167" y1="80.9072" x2="246.7435" y2="284.8164">
						<stop  offset="0" style="stop-color:#FFFFFF"/>
						<stop  offset="1" style="stop-color:#E6E5E5"/>
					</linearGradient>
					<path fill="url(#SVGID_15_)" d="M258.609,253.23V86.202c0-5.883-4.836-10.648-10.795-10.648H89.142
						c-5.962,0-10.796,4.766-10.796,10.648v201.563c0,5.883,4.834,10.648,10.796,10.648h123.246L258.609,253.23z"/>
					<polygon fill="#F4F4F4" points="258.609,253.23 212.388,253.23 212.388,298.414 					"/>
				</g>
				<linearGradient id="SVGID_16_" gradientUnits="userSpaceOnUse" x1="238.1099" y1="127.2568" x2="238.1099" y2="65.0882">
					<stop  offset="0" style="stop-color:#FFFFFF"/>
					<stop  offset="1" style="stop-color:#E6E5E5"/>
				</linearGradient>
				<circle fill="url(#SVGID_16_)" cx="238.11" cy="96.26" r="31.309"/>
				<g>
					<path fill="#BBBBBB" d="M227.761,106.744h-3.616v-5.849h4.786l1.595-7.843h-6.38v-5.875h7.577l2.101-10.368h5.955
						l-2.101,10.368h5.875l2.047-10.368h6.167l-2.126,10.368h3.668v5.875h-4.865l-1.595,7.843h6.46v5.849h-7.657l-2.1,10.368h-5.928
						l2.047-10.368h-5.902l-2.1,10.368h-6.009L227.761,106.744z M236.508,93.052l-1.569,7.843h5.902l1.542-7.843H236.508z"/>
				</g>
				<g>
					<path fill="#B6B6B6" d="M174.324,199.316h-19.303l-2.297,5.319c-0.752,1.772-1.129,3.237-1.129,4.392
						c0,1.532,0.618,2.66,1.854,3.386c0.726,0.43,2.512,0.752,5.36,0.967v1.491h-18.175v-1.491c1.961-0.295,3.573-1.106,4.836-2.438
						c1.263-1.328,2.82-4.076,4.674-8.24l19.545-43.604h0.766l19.707,44.812c1.88,4.244,3.425,6.918,4.634,8.02
						c0.913,0.832,2.203,1.316,3.868,1.45v1.491h-26.436v-1.491h1.088c2.123,0,3.613-0.295,4.474-0.886
						c0.591-0.431,0.887-1.049,0.887-1.854c0-0.483-0.081-0.98-0.242-1.491c-0.054-0.241-0.456-1.249-1.209-3.021L174.324,199.316z
						 M172.954,196.333l-8.14-18.819l-8.383,18.819H172.954z"/>
				</g>
			</g>
		</g>
	</g>
	<g>
		<text transform="matrix(0.8942 0 0 1 55.2222 384.7593)" font-family="'HelveticaNeue'" font-size="36">Number of Notes</text>
	</g>
</g>
<g id="guides">
</g>
<g id="circles" display="none">
</g>
</svg>
