<?xml version="1.0" encoding="utf-8"?>
<!-- Generator: Adobe Illustrator 16.0.0, SVG Export Plug-In . SVG Version: 6.00 Build 0)  -->
<!DOCTYPE svg PUBLIC "-//W3C//DTD SVG 1.1//EN" "http://www.w3.org/Graphics/SVG/1.1/DTD/svg11.dtd" [
	<!ENTITY ns_extend "http://ns.adobe.com/Extensibility/1.0/">
	<!ENTITY ns_ai "http://ns.adobe.com/AdobeIllustrator/10.0/">
	<!ENTITY ns_graphs "http://ns.adobe.com/Graphs/1.0/">
	<!ENTITY ns_vars "http://ns.adobe.com/Variables/1.0/">
	<!ENTITY ns_imrep "http://ns.adobe.com/ImageReplacement/1.0/">
	<!ENTITY ns_sfw "http://ns.adobe.com/SaveForWeb/1.0/">
	<!ENTITY ns_custom "http://ns.adobe.com/GenericCustomNamespace/1.0/">
	<!ENTITY ns_adobe_xpath "http://ns.adobe.com/XPath/1.0/">
]>
<svg version="1.1" xmlns:x="&ns_extend;" xmlns:i="&ns_ai;" xmlns:graph="&ns_graphs;"
	 xmlns="http://www.w3.org/2000/svg" xmlns:xlink="http://www.w3.org/1999/xlink" x="0px" y="0px" width="354.49px"
	 height="396.611px" viewBox="0 0 354.49 396.611" enable-background="new 0 0 354.49 396.611" xml:space="preserve">
<metadata>
	<sfw  xmlns="&ns_sfw;">
		<slices></slices>
		<sliceSourceBounds  x="-6911" y="-8912" bottomLeftOrigin="true" height="16383" width="16383"></sliceSourceBounds>
	</sfw>
</metadata>
<g id="Background" display="none">
	<radialGradient id="SVGID_1_" cx="176.3584" cy="883.2549" r="1113.6583" gradientUnits="userSpaceOnUse">
		<stop  offset="0" style="stop-color:#006594"/>
		<stop  offset="0.5393" style="stop-color:#000B2A"/>
		<stop  offset="1" style="stop-color:#00232A"/>
	</radialGradient>
	<rect x="-1103.642" y="-34.389" display="inline" fill="url(#SVGID_1_)" width="2560" height="1835.287"/>
</g>
<g id="Layer_1" display="none">
	<linearGradient id="SVGID_2_" gradientUnits="userSpaceOnUse" x1="95.207" y1="32.2778" x2="95.207" y2="385.6742">
		<stop  offset="0.3562" style="stop-color:#8ABA6F"/>
		<stop  offset="1" style="stop-color:#008CBF"/>
	</linearGradient>
	<path display="inline" fill="url(#SVGID_2_)" d="M272.452,314.368c-4.131,38.537-35.656,72.457-74.201,72.457H-11.965
		c-38.539,0-70.072-33.92-70.072-72.457V104.149c0-38.54,31.533-72.405,70.072-72.405h210.216c38.545,0,70.07,33.865,74.201,72.405
		V314.368z"/>
	<g display="inline">
		<g>
			<polygon fill="#FFFFFF" stroke="#FFFFFF" stroke-miterlimit="10" points="50.704,170.747 61.282,170.747 56.07,157.272 			"/>
			<path fill="#FFFFFF" stroke="#FFFFFF" stroke-miterlimit="10" d="M147.852,120.039H26.075l1.837,178.492h155.386V159.037v-7.498
				L147.852,120.039z M77.744,184.02H60.818v-1.066h0.696c1.358,0,2.313-0.213,2.864-0.635c0.378-0.309,0.567-0.752,0.567-1.328
				c0-0.346-0.052-0.701-0.154-1.068c-0.035-0.172-0.293-0.895-0.774-2.164l-1.857-4.875H49.8l-1.471,3.809
				c-0.481,1.27-0.723,2.318-0.723,3.145c0,1.096,0.396,1.904,1.188,2.424c0.464,0.309,1.607,0.539,3.432,0.693v1.066H40.589v-1.066
				c1.256-0.213,2.287-0.795,3.096-1.746c0.809-0.953,1.807-2.92,2.993-5.9l12.514-31.223h0.49l12.617,32.088
				c1.204,3.039,2.193,4.953,2.967,5.742c0.585,0.596,1.41,0.941,2.478,1.039V184.02z"/>
		</g>
		<path fill="#FFFFFF" stroke="#BFBFBF" stroke-miterlimit="10" d="M147.852,120.039l35.446,31.5c0,0-24.014-1.848-30.221,6.186
			L147.852,120.039z"/>
	</g>
	
		<line display="inline" fill="none" stroke="#000000" stroke-width="2" stroke-miterlimit="10" x1="89.268" y1="184.02" x2="165.575" y2="184.02"/>
	
		<line display="inline" fill="none" stroke="#000000" stroke-width="2" stroke-miterlimit="10" x1="40.644" y1="214.44" x2="165.575" y2="214.44"/>
	
		<line display="inline" fill="none" stroke="#000000" stroke-width="2" stroke-miterlimit="10" x1="40.644" y1="244.862" x2="165.575" y2="244.862"/>
</g>
<g id="squares">
	<linearGradient id="SVGID_3_" gradientUnits="userSpaceOnUse" x1="176.2915" y1="0.5337" x2="176.2915" y2="353.9296">
		<stop  offset="0" style="stop-color:#D0937A"/>
		<stop  offset="0.5" style="stop-color:#B25538"/>
		<stop  offset="1" style="stop-color:#A2311A"/>
	</linearGradient>
	<path fill="url(#SVGID_3_)" d="M353.536,282.624c-4.131,38.537-35.656,72.457-74.201,72.457H69.119
		c-38.539,0-70.072-33.92-70.072-72.457V72.405C-0.953,33.865,30.58,0,69.119,0h210.216c38.545,0,70.07,33.865,74.201,72.405
		V282.624z"/>
	<g>
		<linearGradient id="SVGID_4_" gradientUnits="userSpaceOnUse" x1="65.1196" y1="18.8643" x2="296.0494" y2="322.3179">
			<stop  offset="0" style="stop-color:#FFFFFF"/>
			<stop  offset="1" style="stop-color:#E6E5E5"/>
		</linearGradient>
		<path fill="url(#SVGID_4_)" d="M230.423,120.596c5.451-1.685,9.512-5.053,12.178-10.104c2.664-5.055,3.158-10.306,1.473-15.759
			c-1.684-5.447-5.055-9.503-10.105-12.172c-5.055-2.667-10.307-3.162-15.758-1.476c-5.451,1.685-9.508,5.057-12.176,10.11
			c-2.664,5.054-3.155,10.306-1.473,15.75c1.686,5.453,5.055,9.511,10.107,12.181C219.722,121.791,224.972,122.28,230.423,120.596z
			 M192.437,312.733c-5.443,1.686-10.668,1.208-15.652-1.429l-99.354-52.295c-5.037-2.833-8.391-6.927-10.044-12.279
			c-1.687-5.45-1.209-10.663,1.41-15.651l76.392-144.49c2.601-5.086,6.769-10.012,12.514-14.771
			c5.739-4.759,11.337-7.983,16.788-9.668l64.197-19.846c5.352-1.653,10.586-1.125,15.701,1.575
			c5.111,2.707,8.502,6.729,10.158,12.075l19.844,64.195c1.686,5.452,2.182,11.891,1.498,19.322
			c-0.691,7.425-2.393,13.693-5.096,18.81l-76.074,144.388c-2.829,5.055-6.924,8.41-12.273,10.064H192.437z"/>
	</g>
	<g>
		<text transform="matrix(0.8942 0 0 1 94.8589 386.7734)" font-family="'HelveticaNeue'" font-size="36">Tag Counts</text>
	</g>
</g>
<g id="guides">
</g>
<g id="circles" display="none">
</g>
</svg>
