<?xml version="1.0" encoding="utf-8"?>
<!-- Generator: Adobe Illustrator 16.0.0, SVG Export Plug-In . SVG Version: 6.00 Build 0)  -->
<!DOCTYPE svg PUBLIC "-//W3C//DTD SVG 1.1//EN" "http://www.w3.org/Graphics/SVG/1.1/DTD/svg11.dtd" [
	<!ENTITY ns_extend "http://ns.adobe.com/Extensibility/1.0/">
	<!ENTITY ns_ai "http://ns.adobe.com/AdobeIllustrator/10.0/">
	<!ENTITY ns_graphs "http://ns.adobe.com/Graphs/1.0/">
	<!ENTITY ns_vars "http://ns.adobe.com/Variables/1.0/">
	<!ENTITY ns_imrep "http://ns.adobe.com/ImageReplacement/1.0/">
	<!ENTITY ns_sfw "http://ns.adobe.com/SaveForWeb/1.0/">
	<!ENTITY ns_custom "http://ns.adobe.com/GenericCustomNamespace/1.0/">
	<!ENTITY ns_adobe_xpath "http://ns.adobe.com/XPath/1.0/">
]>
<svg version="1.1" xmlns:x="&ns_extend;" xmlns:i="&ns_ai;" xmlns:graph="&ns_graphs;"
	 xmlns="http://www.w3.org/2000/svg" xmlns:xlink="http://www.w3.org/1999/xlink" x="0px" y="0px" width="354.49px"
	 height="396.61px" viewBox="0 0 354.49 396.61" enable-background="new 0 0 354.49 396.61" xml:space="preserve">
<metadata>
	<sfw  xmlns="&ns_sfw;">
		<slices></slices>
		<sliceSourceBounds  x="-6911" y="-8912" bottomLeftOrigin="true" height="16383" width="16383"></sliceSourceBounds>
	</sfw>
</metadata>
<g id="Background" display="none">
	<radialGradient id="SVGID_1_" cx="1186.8584" cy="20.0938" r="1113.6583" gradientUnits="userSpaceOnUse">
		<stop  offset="0" style="stop-color:#006594"/>
		<stop  offset="0.5393" style="stop-color:#000B2A"/>
		<stop  offset="1" style="stop-color:#00232A"/>
	</radialGradient>
	<rect x="-93.142" y="-897.55" display="inline" fill="url(#SVGID_1_)" width="2560" height="1835.287"/>
	<g display="inline">
		<linearGradient id="SVGID_2_" gradientUnits="userSpaceOnUse" x1="297.9297" y1="160.4727" x2="297.9297" y2="268.7239">
			<stop  offset="0" style="stop-color:#EED387"/>
			<stop  offset="0.5" style="stop-color:#E6C14C"/>
			<stop  offset="1" style="stop-color:#E1B724"/>
		</linearGradient>
		<path fill="url(#SVGID_2_)" d="M352.742,247.035c-1.278,11.918-11.027,22.406-22.946,22.406h-65.009
			c-11.918,0-21.669-10.488-21.669-22.406v-65.01c0-11.917,9.751-22.391,21.669-22.391h65.009c11.919,0,21.668,10.474,22.946,22.391
			V247.035z"/>
		<linearGradient id="SVGID_3_" gradientUnits="userSpaceOnUse" x1="177.2451" y1="160.4727" x2="177.2451" y2="268.7239">
			<stop  offset="0" style="stop-color:#EED387"/>
			<stop  offset="0.5" style="stop-color:#E6C14C"/>
			<stop  offset="1" style="stop-color:#E1B724"/>
		</linearGradient>
		<path fill="url(#SVGID_3_)" d="M232.058,247.035c-1.278,11.918-11.027,22.406-22.946,22.406h-65.009
			c-11.918,0-21.669-10.488-21.669-22.406v-65.01c0-11.917,9.751-22.391,21.669-22.391h65.009c11.919,0,21.668,10.474,22.946,22.391
			V247.035z"/>
		<linearGradient id="SVGID_4_" gradientUnits="userSpaceOnUse" x1="56.5605" y1="160.4727" x2="56.5605" y2="268.7239">
			<stop  offset="0" style="stop-color:#EED387"/>
			<stop  offset="0.5" style="stop-color:#E6C14C"/>
			<stop  offset="1" style="stop-color:#E1B724"/>
		</linearGradient>
		<path fill="url(#SVGID_4_)" d="M111.373,247.035c-1.278,11.918-11.027,22.406-22.946,22.406H23.417
			c-11.918,0-21.669-10.488-21.669-22.406v-65.01c0-11.917,9.751-22.391,21.669-22.391h65.009c11.919,0,21.668,10.474,22.946,22.391
			V247.035z"/>
		<linearGradient id="SVGID_5_" gradientUnits="userSpaceOnUse" x1="297.9297" y1="278.7852" x2="297.9297" y2="387.0364">
			<stop  offset="0" style="stop-color:#EED387"/>
			<stop  offset="0.5" style="stop-color:#E6C14C"/>
			<stop  offset="1" style="stop-color:#E1B724"/>
		</linearGradient>
		<path fill="url(#SVGID_5_)" d="M352.742,365.348c-1.278,11.918-11.027,22.406-22.946,22.406h-65.009
			c-11.918,0-21.669-10.488-21.669-22.406v-65.01c0-11.917,9.751-22.391,21.669-22.391h65.009c11.919,0,21.668,10.474,22.946,22.391
			V365.348z"/>
		<linearGradient id="SVGID_6_" gradientUnits="userSpaceOnUse" x1="177.2451" y1="278.7852" x2="177.2451" y2="387.0364">
			<stop  offset="0" style="stop-color:#EED387"/>
			<stop  offset="0.5" style="stop-color:#E6C14C"/>
			<stop  offset="1" style="stop-color:#E1B724"/>
		</linearGradient>
		<path fill="url(#SVGID_6_)" d="M232.058,365.348c-1.278,11.918-11.027,22.406-22.946,22.406h-65.009
			c-11.918,0-21.669-10.488-21.669-22.406v-65.01c0-11.917,9.751-22.391,21.669-22.391h65.009c11.919,0,21.668,10.474,22.946,22.391
			V365.348z"/>
		<linearGradient id="SVGID_7_" gradientUnits="userSpaceOnUse" x1="56.5605" y1="278.7852" x2="56.5605" y2="387.0364">
			<stop  offset="0" style="stop-color:#EED387"/>
			<stop  offset="0.5" style="stop-color:#E6C14C"/>
			<stop  offset="1" style="stop-color:#E1B724"/>
		</linearGradient>
		<path fill="url(#SVGID_7_)" d="M111.373,365.348c-1.278,11.918-11.027,22.406-22.946,22.406H23.417
			c-11.918,0-21.669-10.488-21.669-22.406v-65.01c0-11.917,9.751-22.391,21.669-22.391h65.009c11.919,0,21.668,10.474,22.946,22.391
			V365.348z"/>
		<linearGradient id="SVGID_8_" gradientUnits="userSpaceOnUse" x1="297.9297" y1="397.0977" x2="297.9297" y2="505.3489">
			<stop  offset="0" style="stop-color:#EED387"/>
			<stop  offset="0.5" style="stop-color:#E6C14C"/>
			<stop  offset="1" style="stop-color:#E1B724"/>
		</linearGradient>
		<path fill="url(#SVGID_8_)" d="M352.742,483.66c-1.278,11.918-11.027,22.406-22.946,22.406h-65.009
			c-11.918,0-21.669-10.488-21.669-22.406v-65.01c0-11.917,9.751-22.391,21.669-22.391h65.009c11.919,0,21.668,10.474,22.946,22.391
			V483.66z"/>
		<linearGradient id="SVGID_9_" gradientUnits="userSpaceOnUse" x1="177.2451" y1="397.0977" x2="177.2451" y2="505.3489">
			<stop  offset="0" style="stop-color:#EED387"/>
			<stop  offset="0.5" style="stop-color:#E6C14C"/>
			<stop  offset="1" style="stop-color:#E1B724"/>
		</linearGradient>
		<path fill="url(#SVGID_9_)" d="M232.058,483.66c-1.278,11.918-11.027,22.406-22.946,22.406h-65.009
			c-11.918,0-21.669-10.488-21.669-22.406v-65.01c0-11.917,9.751-22.391,21.669-22.391h65.009c11.919,0,21.668,10.474,22.946,22.391
			V483.66z"/>
		<linearGradient id="SVGID_10_" gradientUnits="userSpaceOnUse" x1="56.5605" y1="397.0977" x2="56.5605" y2="505.3489">
			<stop  offset="0" style="stop-color:#EED387"/>
			<stop  offset="0.5" style="stop-color:#E6C14C"/>
			<stop  offset="1" style="stop-color:#E1B724"/>
		</linearGradient>
		<path fill="url(#SVGID_10_)" d="M111.373,483.66c-1.278,11.918-11.027,22.406-22.946,22.406H23.417
			c-11.918,0-21.669-10.488-21.669-22.406v-65.01c0-11.917,9.751-22.391,21.669-22.391h65.009c11.919,0,21.668,10.474,22.946,22.391
			V483.66z"/>
	</g>
</g>
<g id="Layer_1" display="none">
	<linearGradient id="SVGID_11_" gradientUnits="userSpaceOnUse" x1="267.6538" y1="72.1748" x2="267.6538" y2="419.2689">
		<stop  offset="0.3166" style="stop-color:#FF8700"/>
		<stop  offset="1" style="stop-color:#FFE12A"/>
	</linearGradient>
	<circle display="inline" fill="url(#SVGID_11_)" cx="267.654" cy="246.369" r="179.125"/>
	<g display="inline">
		<linearGradient id="SVGID_12_" gradientUnits="userSpaceOnUse" x1="190.6782" y1="154.1895" x2="353.8056" y2="358.0994">
			<stop  offset="0" style="stop-color:#FFFFFF"/>
			<stop  offset="1" style="stop-color:#E6E5E5"/>
		</linearGradient>
		<path fill="url(#SVGID_12_)" d="M365.672,326.514V159.485c0-5.883-4.835-10.648-10.795-10.648H196.204
			c-5.962,0-10.795,4.766-10.795,10.648v201.563c0,5.883,4.833,10.648,10.795,10.648H319.45L365.672,326.514z"/>
		<polygon fill="#F4F4F4" points="365.672,326.514 319.45,326.514 319.45,371.697 		"/>
	</g>
	<g display="inline">
		<path fill="#B6B6B6" d="M279.047,272.6h-19.303l-2.297,5.319c-0.752,1.772-1.128,3.237-1.128,4.392
			c0,1.532,0.618,2.66,1.854,3.386c0.725,0.43,2.512,0.752,5.36,0.967v1.491h-18.175v-1.491c1.961-0.295,3.573-1.106,4.836-2.438
			c1.263-1.328,2.821-4.076,4.674-8.24l19.545-43.604h0.766l19.706,44.812c1.88,4.244,3.425,6.918,4.634,8.02
			c0.914,0.832,2.203,1.316,3.869,1.45v1.491h-26.436v-1.491h1.088c2.123,0,3.613-0.295,4.473-0.886
			c0.591-0.431,0.887-1.049,0.887-1.854c0-0.483-0.081-0.98-0.242-1.491c-0.054-0.241-0.457-1.249-1.209-3.021L279.047,272.6z
			 M277.677,269.617l-8.14-18.819l-8.382,18.819H277.677z"/>
	</g>
	<g display="inline">
		<linearGradient id="SVGID_13_" gradientUnits="userSpaceOnUse" x1="190.6782" y1="154.1895" x2="353.8056" y2="358.0994">
			<stop  offset="0" style="stop-color:#FFFFFF"/>
			<stop  offset="1" style="stop-color:#E6E5E5"/>
		</linearGradient>
		<path fill="url(#SVGID_13_)" d="M365.672,326.514V159.485c0-5.883-4.835-10.648-10.795-10.648H196.204
			c-5.962,0-10.795,4.766-10.795,10.648v201.563c0,5.883,4.833,10.648,10.795,10.648H319.45L365.672,326.514z"/>
		<polygon fill="#F4F4F4" points="365.672,326.514 319.45,326.514 319.45,371.697 		"/>
	</g>
	<g display="inline">
		<path fill="#B6B6B6" d="M279.047,272.6h-19.303l-2.297,5.319c-0.752,1.772-1.128,3.237-1.128,4.392
			c0,1.532,0.618,2.66,1.854,3.386c0.725,0.43,2.512,0.752,5.36,0.967v1.491h-18.175v-1.491c1.961-0.295,3.573-1.106,4.836-2.438
			c1.263-1.328,2.821-4.076,4.674-8.24l19.545-43.604h0.766l19.706,44.812c1.88,4.244,3.425,6.918,4.634,8.02
			c0.914,0.832,2.203,1.316,3.869,1.45v1.491h-26.436v-1.491h1.088c2.123,0,3.613-0.295,4.473-0.886
			c0.591-0.431,0.887-1.049,0.887-1.854c0-0.483-0.081-0.98-0.242-1.491c-0.054-0.241-0.457-1.249-1.209-3.021L279.047,272.6z
			 M277.677,269.617l-8.14-18.819l-8.382,18.819H277.677z"/>
	</g>
</g>
<g id="squares">
	<linearGradient id="SVGID_14_" gradientUnits="userSpaceOnUse" x1="177.2451" y1="6.7656" x2="177.2451" y2="356.818">
		<stop  offset="0" style="stop-color:#EED387"/>
		<stop  offset="0.5" style="stop-color:#E6C14C"/>
		<stop  offset="1" style="stop-color:#E1B724"/>
	</linearGradient>
	<path fill="url(#SVGID_14_)" d="M354.49,286.68c-4.131,38.539-35.656,72.459-74.201,72.459H70.072
		C31.533,359.139,0,325.219,0,286.68V76.463C0,37.922,31.533,4.057,70.072,4.057h210.217c38.545,0,70.07,33.865,74.201,72.406
		V286.68z"/>
	<g>
		<g>
			<g>
				<linearGradient id="SVGID_15_" gradientUnits="userSpaceOnUse" x1="93.8862" y1="89.1689" x2="239.1683" y2="270.7721">
					<stop  offset="0" style="stop-color:#FFFFFF"/>
					<stop  offset="1" style="stop-color:#E6E5E5"/>
				</linearGradient>
				<path fill="url(#SVGID_15_)" d="M249.736,242.642V93.885c0-5.24-4.306-9.484-9.614-9.484H98.807
					c-5.31,0-9.614,4.244-9.614,9.484v179.514c0,5.239,4.304,9.483,9.614,9.483H208.57L249.736,242.642z"/>
				<polygon fill="#F4F4F4" points="249.736,242.642 208.57,242.642 208.57,282.882 				"/>
			</g>
			<g>
				<path fill="#B6B6B6" d="M173.627,194.625h-17.191l-2.045,4.737c-0.67,1.579-1.006,2.884-1.006,3.911
					c0,1.364,0.551,2.369,1.652,3.015c0.646,0.383,2.237,0.67,4.773,0.861v1.329h-16.187v-1.329
					c1.747-0.263,3.183-0.984,4.307-2.171c1.125-1.183,2.513-3.631,4.163-7.338l17.407-38.834h0.682l17.55,39.91
					c1.674,3.779,3.05,6.161,4.127,7.142c0.814,0.741,1.962,1.173,3.446,1.291v1.329h-23.544v-1.329h0.97
					c1.89,0,3.218-0.263,3.983-0.788c0.526-0.385,0.79-0.935,0.79-1.652c0-0.43-0.072-0.873-0.215-1.327
					c-0.048-0.216-0.406-1.113-1.077-2.691L173.627,194.625z M172.407,191.969l-7.249-16.761l-7.466,16.761H172.407z"/>
			</g>
		</g>
		<g>
			
				<linearGradient id="SVGID_16_" gradientUnits="userSpaceOnUse" x1="178.7939" y1="166.8789" x2="261.9453" y2="270.8185" gradientTransform="matrix(0.9991 0.0417 -0.0417 0.9991 -7.4511 -3.3688)">
				<stop  offset="0" style="stop-color:#FFFFFF"/>
				<stop  offset="1" style="stop-color:#E6E5E5"/>
			</linearGradient>
			<path fill="url(#SVGID_16_)" d="M102.162,282.435c-0.26,6.245,4.733,8.868,11.045,9.133l105.465,4.4l42.216-37.954l5.955-142.629
				c0.261-6.244-4.663-11.539-10.975-11.802l-0.191,4.585c3.785,0.157,6.738,3.31,6.582,7.025l-5.875,140.698l-39.39,35.415
				l-103.596-4.325c-3.785-0.159-6.807-0.64-6.651-4.356L102.162,282.435z"/>
		</g>
		<g>
			
				<linearGradient id="SVGID_17_" gradientUnits="userSpaceOnUse" x1="216.499" y1="172.2578" x2="299.6516" y2="276.1989" gradientTransform="matrix(0.9968 0.0794 -0.0794 0.9968 -20.5556 -6.2014)">
				<stop  offset="0" style="stop-color:#FFFFFF"/>
				<stop  offset="1" style="stop-color:#E6E5E5"/>
			</linearGradient>
			<path fill="url(#SVGID_17_)" d="M115.122,289.929c-0.496,6.231,4.252,11.258,10.548,11.761l105.225,8.376l43.617-36.338
				l11.329-142.304c0.497-6.229-4.225-11.705-10.522-12.207l-0.365,4.576c3.776,0.299,6.608,3.561,6.313,7.267l-11.175,140.378
				l-40.696,33.903l-103.359-8.228c-3.776-0.3-6.627-3.149-6.331-6.855L115.122,289.929z"/>
		</g>
	</g>
	<g>
		<text transform="matrix(0.8942 0 0 1 95.48 390.8311)" font-family="'HelveticaNeue'" font-size="36">Latest Note</text>
	</g>
</g>
<g id="guides">
</g>
<g id="circles" display="none">
</g>
</svg>
