<?xml version="1.0" encoding="utf-8"?>
<!-- Generator: Adobe Illustrator 16.0.0, SVG Export Plug-In . SVG Version: 6.00 Build 0)  -->
<!DOCTYPE svg PUBLIC "-//W3C//DTD SVG 1.1//EN" "http://www.w3.org/Graphics/SVG/1.1/DTD/svg11.dtd" [
	<!ENTITY ns_extend "http://ns.adobe.com/Extensibility/1.0/">
	<!ENTITY ns_ai "http://ns.adobe.com/AdobeIllustrator/10.0/">
	<!ENTITY ns_graphs "http://ns.adobe.com/Graphs/1.0/">
	<!ENTITY ns_vars "http://ns.adobe.com/Variables/1.0/">
	<!ENTITY ns_imrep "http://ns.adobe.com/ImageReplacement/1.0/">
	<!ENTITY ns_sfw "http://ns.adobe.com/SaveForWeb/1.0/">
	<!ENTITY ns_custom "http://ns.adobe.com/GenericCustomNamespace/1.0/">
	<!ENTITY ns_adobe_xpath "http://ns.adobe.com/XPath/1.0/">
]>
<svg version="1.1" xmlns:x="&ns_extend;" xmlns:i="&ns_ai;" xmlns:graph="&ns_graphs;"
	 xmlns="http://www.w3.org/2000/svg" xmlns:xlink="http://www.w3.org/1999/xlink" x="0px" y="0px" width="354.491px" height="430px"
	 viewBox="0 0 354.491 430" enable-background="new 0 0 354.491 430" xml:space="preserve">
<metadata>
	<sfw  xmlns="&ns_sfw;">
		<slices>
			<slice  width="108" height="90" y="-1219" x="0" sliceID="1091419343"></slice>
			<slice  width="354" height="90" y="-1219" x="107" sliceID="1091436150"></slice>
			<slice  width="144" height="90" y="-1219" x="460" sliceID="1091452957"></slice>
			<slice  width="355" height="90" y="-1219" x="603" sliceID="1091469764"></slice>
			<slice  width="144" height="90" y="-1219" x="957" sliceID="1091486571"></slice>
			<slice  width="355" height="90" y="-1219" x="1100" sliceID="1091503378"></slice>
			<slice  width="144" height="90" y="-1219" x="1454" sliceID="1091520185"></slice>
			<slice  width="356" height="90" y="-1219" x="1597" sliceID="1091536992"></slice>
			<slice  width="144" height="90" y="-1219" x="1952" sliceID="1091553799"></slice>
			<slice  width="355" height="90" y="-1219" x="2095" sliceID="1091570606"></slice>
			<slice  width="111" height="90" y="-1219" x="2449" sliceID="1091587413"></slice>
			<slice  width="108" height="356" y="-1130" x="0" sliceID="1091604220"></slice>
			<slice  width="144" height="356" y="-1130" x="460" sliceID="1091637834"></slice>
			<slice  width="144" height="356" y="-1130" x="957" sliceID="1091671448"></slice>
			<slice  width="144" height="356" y="-1130" x="1454" sliceID="1091705062"></slice>
			<slice  width="144" height="356" y="-1130" x="1952" sliceID="1091738676"></slice>
			<slice  width="111" height="356" y="-1130" x="2449" sliceID="1091772290"></slice>
			<slice  width="108" height="156" y="-775" x="0" sliceID="1091789097"></slice>
			<slice  width="354" height="156" y="-775" x="107" sliceID="1091805904"></slice>
			<slice  width="144" height="156" y="-775" x="460" sliceID="1091822711"></slice>
			<slice  width="355" height="156" y="-775" x="603" sliceID="1091839518"></slice>
			<slice  width="144" height="156" y="-775" x="957" sliceID="1091856325"></slice>
			<slice  width="355" height="156" y="-775" x="1100" sliceID="1091873132"></slice>
			<slice  width="144" height="156" y="-775" x="1454" sliceID="1091889939"></slice>
			<slice  width="356" height="156" y="-775" x="1597" sliceID="1091906746"></slice>
			<slice  width="144" height="156" y="-775" x="1952" sliceID="1091923553"></slice>
			<slice  width="355" height="156" y="-775" x="2095" sliceID="1091940360"></slice>
			<slice  width="111" height="156" y="-775" x="2449" sliceID="1091957167"></slice>
			<slice  width="108" height="358" y="-620" x="0" sliceID="1091973974"></slice>
			<slice  width="144" height="358" y="-620" x="460" sliceID="1092007588"></slice>
			<slice  width="144" height="358" y="-620" x="957" sliceID="1092041202"></slice>
			<slice  width="144" height="358" y="-620" x="1454" sliceID="1092074816"></slice>
			<slice  width="144" height="358" y="-620" x="1952" sliceID="1092108430"></slice>
			<slice  width="111" height="358" y="-620" x="2449" sliceID="1092142044"></slice>
			<slice  width="108" height="263" y="-263" x="0" sliceID="1092158851"></slice>
			<slice  width="354" height="263" y="-263" x="107" sliceID="1092175658"></slice>
			<slice  width="144" height="263" y="-263" x="460" sliceID="1092192465"></slice>
			<slice  width="355" height="263" y="-263" x="603" sliceID="1092209272"></slice>
			<slice  width="144" height="263" y="-263" x="957" sliceID="1092226079"></slice>
			<slice  width="355" height="263" y="-263" x="1100" sliceID="1092242886"></slice>
			<slice  width="144" height="263" y="-263" x="1454" sliceID="1092259693"></slice>
			<slice  width="356" height="263" y="-263" x="1597" sliceID="1092276500"></slice>
			<slice  width="144" height="263" y="-263" x="1952" sliceID="1092293307"></slice>
			<slice  width="355" height="263" y="-263" x="2095" sliceID="1092310114"></slice>
			<slice  width="111" height="263" y="-263" x="2449" sliceID="1092326921"></slice>
		</slices>
		<sliceSourceBounds  width="16680.914" height="16413" y="-8912" x="-7050.368" bottomLeftOrigin="true"></sliceSourceBounds>
	</sfw>
</metadata>
<g id="Layer_3" display="none">
	<g display="inline">
		<g>
			<defs>
				<rect id="SVGID_25_" x="-1.893" y="38.494" width="345.739" height="357.922"/>
			</defs>
			<clipPath id="SVGID_2_">
				<use xlink:href="#SVGID_25_"  overflow="visible"/>
			</clipPath>
			<g clip-path="url(#SVGID_2_)">
				<radialGradient id="SVGID_3_" cx="170.9771" cy="217.4551" r="175.9416" gradientUnits="userSpaceOnUse">
					<stop  offset="0.5" style="stop-color:#A0E7E6"/>
					<stop  offset="1" style="stop-color:#00BFBC"/>
				</radialGradient>
				
					<rect x="-1.893" y="38.494" fill="url(#SVGID_3_)" stroke="#999999" stroke-width="2" stroke-miterlimit="10" width="345.739" height="357.922"/>
				
					<radialGradient id="SVGID_4_" cx="-9.8486" cy="196.2734" r="179.6303" gradientTransform="matrix(1.214 0.0021 0.0028 1.214 182.3951 -20.7942)" gradientUnits="userSpaceOnUse">
					<stop  offset="0.0669" style="stop-color:#FFFFFF"/>
					<stop  offset="0.771" style="stop-color:#E9FFA9;stop-opacity:0.3"/>
				</radialGradient>
				<polygon opacity="0.15" fill="url(#SVGID_4_)" stroke="#999999" stroke-width="2" stroke-miterlimit="10" points="
					170.833,153.5 208.647,3.377 192.946,157.395 280.413,29.326 212.405,168.532 338.981,77.969 226.872,185.572 377.286,143.434 
					234.595,206.457 390.706,217.827 234.647,228.666 377.622,292.174 227.017,249.526 339.618,357.512 212.628,266.517 
					281.269,405.955 193.218,277.589 209.618,431.661 171.123,281.408 133.307,431.531 149.01,277.515 61.54,405.583 
					129.548,266.377 2.973,356.941 115.082,249.337 -35.331,291.477 107.359,228.451 -48.75,217.084 107.307,206.241 
					-35.669,142.735 114.937,185.383 2.339,77.398 129.326,168.391 60.688,28.954 148.738,157.32 132.336,3.249 				"/>
			</g>
		</g>
	</g>
</g>
<g id="squares">
	<linearGradient id="SVGID_5_" gradientUnits="userSpaceOnUse" x1="177.2456" y1="-7.1133" x2="177.2456" y2="368.9351">
		<stop  offset="0.3939" style="stop-color:#6316A3"/>
		<stop  offset="1" style="stop-color:#290054"/>
	</linearGradient>
	<path fill="url(#SVGID_5_)" d="M354.491,282.624c-4.132,38.537-35.657,72.457-74.201,72.457H70.072
		C31.534,355.081,0,321.161,0,282.624V72.405C0,33.865,31.534,0,70.072,0H280.29c38.544,0,70.069,33.865,74.201,72.405V282.624z"/>
</g>
<g id="Layer_2">
	<g>
		<path fill="#FFFFFF" d="M205.631,123.116c4.284-1.324,7.475-3.97,9.57-7.941c2.094-3.973,2.481-8.1,1.157-12.385
			c-1.323-4.28-3.973-7.469-7.942-9.566c-3.972-2.096-8.1-2.483-12.384-1.159s-7.473,3.974-9.568,7.945
			c-2.095,3.972-2.48,8.099-1.158,12.379c1.325,4.285,3.973,7.474,7.943,9.571C197.221,124.057,201.347,124.441,205.631,123.116z
			 M175.776,274.121c-4.278,1.323-8.384,0.948-12.301-1.124l-78.084-41.099c-3.959-2.228-6.595-5.444-7.895-9.65
			c-1.325-4.284-0.95-8.382,1.109-12.302l60.037-113.556c2.044-3.999,5.319-7.87,9.834-11.61c4.511-3.74,8.91-6.273,13.194-7.598
			l50.455-15.597c4.205-1.3,8.318-0.886,12.339,1.238c4.017,2.127,6.682,5.289,7.983,9.489l15.596,50.451
			c1.324,4.285,1.715,9.346,1.177,15.187c-0.542,5.836-1.88,10.761-4.004,14.782L185.429,266.21
			c-2.224,3.973-5.441,6.609-9.646,7.91L175.776,274.121z"/>
		<path fill="none" stroke="#FFFFFF" stroke-width="7" stroke-miterlimit="10" d="M246.547,83.08
			c1.324,4.285,15.004,54.557,14.466,60.397c-0.542,5.836-1.88,10.761-4.004,14.782l-65.914,121.844
			c-2.224,3.973-5.441,6.609-9.646,7.91l-0.006,0.001c-4.278,1.323-8.384,0.948-12.301-1.124l-78.084-41.099
			c-3.959-2.228-6.595-5.444-7.896-9.65"/>
		<path fill="none" stroke="#FFFFFF" stroke-width="7" stroke-miterlimit="10" d="M262.662,92.421
			c1.324,4.285,12.796,54.032,12.258,59.873c-0.542,5.836-1.88,10.761-4.004,14.782l-72.54,132.147
			c-2.224,3.973-5.441,6.609-9.646,7.91l-0.006,0.001c-4.278,1.323-8.384,0.948-12.301-1.124l-78.084-41.099
			c-3.959-2.228-6.595-5.444-7.896-9.65"/>
	</g>
	<g>
		<g>
			<path d="M18.321,386.049v3.121H4.442v8.853H17.38v3.12H4.442v9.633h13.984v3.12H1.129v-27.847H18.321z"/>
			<path d="M26.899,413.896l-6.695-20.163h3.313l5.056,16.809h0.07l4.917-16.809h3.104l-6.591,20.163H26.899z"/>
			<path d="M52.147,412.608c-1.349,1.145-3.046,1.716-5.091,1.716c-1.442,0-2.691-0.26-3.749-0.779
				c-1.058-0.52-1.947-1.248-2.667-2.185c-0.721-0.937-1.261-2.054-1.622-3.354c-0.361-1.299-0.564-2.716-0.61-4.25
				c0-1.534,0.209-2.938,0.628-4.213c0.418-1.273,1.005-2.379,1.761-3.314s1.65-1.664,2.686-2.184c1.034-0.52,2.167-0.78,3.4-0.78
				c1.604,0,2.935,0.37,3.993,1.111c1.058,0.741,1.906,1.684,2.546,2.827c0.639,1.145,1.081,2.393,1.325,3.744
				c0.244,1.353,0.343,2.64,0.296,3.861H41.546c-0.023,0.885,0.07,1.723,0.279,2.516c0.209,0.793,0.546,1.495,1.011,2.105
				c0.465,0.611,1.058,1.1,1.779,1.463c0.72,0.364,1.569,0.546,2.545,0.546c1.255,0,2.284-0.325,3.086-0.976
				c0.802-0.648,1.331-1.637,1.586-2.963h2.93C54.367,409.762,53.496,411.465,52.147,412.608z M51.433,399.66
				c-0.268-0.701-0.627-1.307-1.081-1.812c-0.453-0.508-0.988-0.91-1.604-1.209c-0.616-0.299-1.296-0.449-2.04-0.449
				c-0.767,0-1.459,0.15-2.075,0.449c-0.616,0.299-1.145,0.708-1.586,1.229c-0.442,0.52-0.791,1.124-1.046,1.812
				c-0.256,0.689-0.407,1.424-0.453,2.203h10.357C51.856,401.104,51.7,400.362,51.433,399.66z"/>
			<path d="M60.795,393.732v4.251h0.07c0.72-1.638,1.604-2.847,2.65-3.627c1.046-0.78,2.371-1.144,3.976-1.092v3.51
				c-1.186,0-2.197,0.183-3.034,0.546c-0.837,0.365-1.511,0.896-2.022,1.6c-0.512,0.701-0.884,1.554-1.116,2.555
				c-0.232,1-0.349,2.15-0.349,3.451v8.97h-2.964v-20.163H60.795z"/>
			<path d="M75.773,419.043c-0.337,0.676-0.709,1.229-1.116,1.658c-0.407,0.429-0.854,0.74-1.343,0.936s-1.07,0.293-1.744,0.293
				c-0.349,0-0.697-0.026-1.046-0.078c-0.349-0.053-0.686-0.143-1.011-0.273v-3.041c0.279,0.104,0.563,0.207,0.854,0.312
				c0.291,0.104,0.587,0.155,0.889,0.155c0.604,0,1.093-0.155,1.465-0.467c0.372-0.312,0.697-0.768,0.977-1.365l1.22-3.394
				l-7.149-20.046h3.348l5.266,16.497h0.07l5.056-16.497h3.139l-7.846,22.814C76.453,417.535,76.11,418.367,75.773,419.043z"/>
			<path d="M86.741,399.68c0.372-1.287,0.93-2.404,1.674-3.354c0.744-0.949,1.662-1.697,2.755-2.242
				c1.092-0.547,2.348-0.819,3.766-0.819c1.441,0,2.703,0.272,3.784,0.819c1.081,0.545,1.993,1.293,2.738,2.242
				c0.744,0.949,1.302,2.066,1.674,3.354c0.372,1.287,0.558,2.672,0.558,4.154c0,1.481-0.186,2.859-0.558,4.133
				c-0.372,1.275-0.93,2.387-1.674,3.336c-0.745,0.949-1.657,1.689-2.738,2.223c-1.081,0.532-2.342,0.799-3.784,0.799
				c-1.418,0-2.674-0.267-3.766-0.799c-1.093-0.533-2.011-1.273-2.755-2.223c-0.744-0.949-1.302-2.061-1.674-3.336
				c-0.372-1.273-0.558-2.651-0.558-4.133C86.183,402.352,86.369,400.967,86.741,399.68z M89.757,407.09
				c0.29,0.949,0.691,1.742,1.203,2.379c0.511,0.638,1.11,1.125,1.796,1.463c0.685,0.338,1.412,0.507,2.179,0.507
				s1.494-0.169,2.18-0.507c0.686-0.338,1.284-0.825,1.796-1.463c0.511-0.637,0.912-1.43,1.203-2.379
				c0.291-0.949,0.436-2.033,0.436-3.256s-0.146-2.308-0.436-3.257c-0.291-0.948-0.692-1.749-1.203-2.398
				c-0.512-0.649-1.11-1.144-1.796-1.482c-0.686-0.337-1.413-0.507-2.18-0.507s-1.494,0.17-2.179,0.507
				c-0.686,0.339-1.285,0.833-1.796,1.482c-0.512,0.649-0.913,1.45-1.203,2.398c-0.291,0.949-0.436,2.034-0.436,3.257
				S89.466,406.141,89.757,407.09z"/>
			<path d="M109.965,393.732v3.198h0.07c1.232-2.444,3.185-3.666,5.859-3.666c1.186,0,2.173,0.183,2.964,0.546
				c0.79,0.364,1.43,0.871,1.918,1.521s0.831,1.423,1.029,2.32c0.197,0.896,0.296,1.891,0.296,2.983v13.26h-2.964v-13.649
				c0-1.248-0.326-2.236-0.977-2.965c-0.651-0.728-1.546-1.092-2.685-1.092c-0.907,0-1.691,0.156-2.354,0.469
				c-0.663,0.312-1.215,0.754-1.657,1.325c-0.442,0.572-0.773,1.242-0.994,2.009c-0.221,0.768-0.332,1.605-0.332,2.516v11.388
				h-2.964v-20.163H109.965z"/>
			<path d="M139.328,412.608c-1.349,1.145-3.046,1.716-5.091,1.716c-1.442,0-2.691-0.26-3.749-0.779
				c-1.058-0.52-1.947-1.248-2.667-2.185c-0.721-0.937-1.261-2.054-1.622-3.354c-0.361-1.299-0.564-2.716-0.61-4.25
				c0-1.534,0.209-2.938,0.628-4.213c0.418-1.273,1.005-2.379,1.761-3.314s1.65-1.664,2.686-2.184c1.034-0.52,2.167-0.78,3.4-0.78
				c1.604,0,2.935,0.37,3.993,1.111c1.058,0.741,1.906,1.684,2.546,2.827c0.639,1.145,1.081,2.393,1.325,3.744
				c0.244,1.353,0.343,2.64,0.296,3.861h-13.496c-0.023,0.885,0.07,1.723,0.279,2.516c0.209,0.793,0.546,1.495,1.011,2.105
				c0.465,0.611,1.058,1.1,1.779,1.463c0.72,0.364,1.569,0.546,2.545,0.546c1.255,0,2.284-0.325,3.086-0.976
				c0.802-0.648,1.331-1.637,1.586-2.963h2.93C141.548,409.762,140.676,411.465,139.328,412.608z M138.613,399.66
				c-0.268-0.701-0.627-1.307-1.081-1.812c-0.453-0.508-0.988-0.91-1.604-1.209c-0.616-0.299-1.296-0.449-2.04-0.449
				c-0.767,0-1.459,0.15-2.075,0.449c-0.616,0.299-1.145,0.708-1.586,1.229c-0.442,0.52-0.791,1.124-1.046,1.812
				c-0.256,0.689-0.407,1.424-0.453,2.203h10.357C139.037,401.104,138.88,400.362,138.613,399.66z"/>
			<path d="M149.824,386.049v4.33c0,0.779-0.076,1.515-0.227,2.203c-0.151,0.689-0.384,1.293-0.697,1.813
				c-0.314,0.521-0.709,0.937-1.186,1.248s-1.052,0.468-1.726,0.468v-1.949c0.395,0,0.72-0.111,0.977-0.332
				c0.255-0.221,0.465-0.514,0.627-0.877c0.163-0.364,0.273-0.773,0.332-1.229c0.058-0.455,0.087-0.904,0.087-1.346h-2.058v-4.33
				H149.824z"/>
			<path d="M154.672,409.391c0.279,0.508,0.645,0.91,1.099,1.209c0.453,0.3,0.964,0.514,1.534,0.645
				c0.569,0.13,1.156,0.194,1.761,0.194c0.465,0,0.953-0.039,1.464-0.117c0.511-0.077,0.982-0.22,1.413-0.429
				c0.43-0.208,0.785-0.514,1.063-0.916c0.279-0.403,0.418-0.917,0.418-1.541c0-0.857-0.291-1.508-0.872-1.95
				c-0.582-0.441-1.308-0.8-2.18-1.072c-0.872-0.272-1.819-0.521-2.842-0.741s-1.97-0.532-2.842-0.936
				c-0.872-0.403-1.599-0.969-2.18-1.697c-0.582-0.727-0.872-1.741-0.872-3.041c0-1.015,0.203-1.885,0.61-2.613
				s0.93-1.319,1.569-1.775c0.639-0.454,1.36-0.792,2.162-1.014c0.802-0.221,1.598-0.331,2.389-0.331
				c1.023,0,1.964,0.097,2.825,0.292c0.86,0.195,1.622,0.533,2.284,1.014c0.663,0.482,1.191,1.132,1.587,1.951
				c0.395,0.818,0.627,1.84,0.697,3.061h-2.964c-0.047-0.648-0.198-1.189-0.454-1.618s-0.581-0.772-0.976-1.033
				c-0.396-0.26-0.832-0.448-1.308-0.565s-0.959-0.176-1.447-0.176c-0.442,0-0.889,0.039-1.342,0.117
				c-0.454,0.078-0.867,0.215-1.238,0.409c-0.372,0.195-0.674,0.456-0.906,0.78c-0.233,0.325-0.349,0.748-0.349,1.268
				c0,0.572,0.18,1.047,0.541,1.424s0.82,0.688,1.377,0.936c0.558,0.248,1.186,0.455,1.883,0.624s1.395,0.345,2.092,0.526
				c0.744,0.182,1.47,0.403,2.18,0.663c0.709,0.261,1.336,0.604,1.883,1.034c0.546,0.428,0.988,0.969,1.325,1.617
				c0.337,0.65,0.506,1.457,0.506,2.418c0,1.223-0.227,2.236-0.68,3.043c-0.453,0.806-1.046,1.456-1.778,1.949
				c-0.732,0.494-1.558,0.839-2.476,1.034c-0.918,0.194-1.831,0.292-2.737,0.292c-1,0-1.953-0.117-2.86-0.351
				c-0.906-0.233-1.708-0.617-2.406-1.15c-0.697-0.532-1.255-1.235-1.674-2.106s-0.651-1.93-0.697-3.178h2.964
				C154.241,408.267,154.393,408.884,154.672,409.391z"/>
			<path d="M177.374,389.17v-3.121h19.912v3.121h-8.3v24.726h-3.312V389.17H177.374z"/>
			<path d="M209.526,414.324c-0.768,0-1.377-0.24-1.83-0.721c-0.454-0.481-0.681-1.268-0.681-2.359
				c-0.813,1.092-1.761,1.878-2.843,2.359c-1.08,0.48-2.248,0.721-3.504,0.721c-0.814,0-1.582-0.098-2.302-0.292
				c-0.721-0.195-1.354-0.521-1.9-0.976c-0.547-0.454-0.977-1.039-1.29-1.754c-0.314-0.715-0.471-1.58-0.471-2.594
				c0-1.145,0.174-2.08,0.522-2.809c0.349-0.728,0.808-1.319,1.378-1.774c0.569-0.454,1.221-0.8,1.953-1.034
				c0.732-0.233,1.481-0.428,2.248-0.584c0.814-0.182,1.588-0.318,2.32-0.41c0.732-0.09,1.377-0.221,1.936-0.39
				c0.557-0.169,0.998-0.415,1.324-0.741c0.326-0.324,0.488-0.799,0.488-1.424c0-0.727-0.122-1.312-0.366-1.754
				c-0.243-0.442-0.558-0.781-0.941-1.015s-0.813-0.39-1.29-0.468s-0.947-0.117-1.412-0.117c-1.256,0-2.303,0.268-3.139,0.799
				c-0.838,0.533-1.291,1.541-1.36,3.023h-2.964c0.046-1.248,0.279-2.301,0.697-3.159s0.977-1.554,1.674-2.087
				c0.697-0.532,1.5-0.916,2.406-1.15s1.859-0.351,2.859-0.351c0.813,0,1.621,0.065,2.424,0.194c0.803,0.131,1.528,0.397,2.18,0.8
				c0.65,0.403,1.174,0.97,1.568,1.696c0.396,0.729,0.594,1.678,0.594,2.848v10.373c0,0.781,0.04,1.354,0.122,1.717
				c0.081,0.364,0.354,0.546,0.819,0.546c0.256,0,0.559-0.064,0.906-0.194v2.573C211.142,414.155,210.433,414.324,209.526,414.324z
				 M205.376,404.165c-0.604,0.144-1.237,0.261-1.9,0.351c-0.662,0.092-1.33,0.195-2.005,0.312s-1.278,0.306-1.813,0.565
				c-0.535,0.261-0.971,0.631-1.308,1.111c-0.337,0.481-0.505,1.138-0.505,1.97c0,0.546,0.098,1.008,0.296,1.385
				c0.197,0.377,0.453,0.682,0.767,0.916c0.314,0.234,0.686,0.403,1.116,0.508c0.431,0.104,0.866,0.155,1.308,0.155
				c0.977,0,1.814-0.149,2.512-0.448s1.266-0.676,1.708-1.131c0.441-0.455,0.768-0.949,0.977-1.482
				c0.21-0.533,0.313-1.033,0.313-1.502v-3.393C206.47,403.795,205.981,404.022,205.376,404.165z"/>
			<path d="M227.938,419.59c-1.348,1.638-3.465,2.457-6.347,2.457c-0.837,0-1.691-0.104-2.563-0.312
				c-0.871-0.209-1.662-0.546-2.371-1.014c-0.709-0.469-1.296-1.08-1.761-1.833c-0.466-0.755-0.722-1.677-0.768-2.769h2.964
				c0.023,0.598,0.192,1.104,0.506,1.521c0.314,0.415,0.697,0.753,1.15,1.014c0.454,0.26,0.947,0.448,1.482,0.565
				s1.047,0.176,1.535,0.176c0.977,0,1.801-0.189,2.476-0.565c0.674-0.378,1.231-0.897,1.674-1.56
				c0.441-0.664,0.761-1.463,0.959-2.398c0.197-0.937,0.296-1.963,0.296-3.082v-1.326h-0.069c-0.511,1.248-1.284,2.165-2.319,2.75
				c-1.034,0.585-2.133,0.877-3.295,0.877c-1.349,0-2.523-0.272-3.521-0.818c-1-0.546-1.838-1.28-2.512-2.203
				s-1.18-2.002-1.517-3.237s-0.506-2.541-0.506-3.919c0-1.196,0.14-2.425,0.419-3.686c0.278-1.262,0.743-2.405,1.395-3.433
				c0.65-1.026,1.511-1.872,2.58-2.535s2.383-0.994,3.941-0.994c1.139,0,2.185,0.28,3.139,0.839
				c0.953,0.559,1.696,1.397,2.231,2.516h0.034v-2.887h2.791v18.447C229.962,415.48,229.286,417.951,227.938,419.59z
				 M224.155,410.521c0.686-0.454,1.238-1.053,1.656-1.793c0.418-0.742,0.727-1.58,0.924-2.516c0.197-0.937,0.297-1.873,0.297-2.809
				c0-0.883-0.094-1.755-0.279-2.613c-0.186-0.857-0.482-1.631-0.889-2.32c-0.408-0.688-0.937-1.241-1.588-1.657
				c-0.65-0.415-1.441-0.624-2.371-0.624c-0.953,0-1.767,0.201-2.44,0.604c-0.675,0.403-1.227,0.942-1.657,1.618
				c-0.43,0.677-0.744,1.457-0.941,2.34c-0.197,0.885-0.296,1.809-0.296,2.77c0,0.91,0.081,1.82,0.244,2.73
				c0.162,0.91,0.441,1.734,0.837,2.477c0.395,0.74,0.918,1.339,1.569,1.793c0.65,0.455,1.464,0.684,2.44,0.684
				S223.47,410.977,224.155,410.521z"/>
			<path d="M259.655,389.988c-1.268-0.988-2.773-1.482-4.517-1.482c-1.487,0-2.761,0.312-3.818,0.937s-1.931,1.462-2.616,2.516
				s-1.191,2.256-1.516,3.607c-0.326,1.353-0.488,2.757-0.488,4.212c0,1.586,0.162,3.088,0.488,4.505
				c0.324,1.417,0.83,2.651,1.516,3.704c0.686,1.054,1.564,1.893,2.634,2.516c1.069,0.625,2.348,0.937,3.836,0.937
				c1.093,0,2.063-0.201,2.911-0.604c0.85-0.402,1.581-0.961,2.197-1.677c0.616-0.715,1.099-1.566,1.447-2.555
				c0.35-0.987,0.559-2.054,0.628-3.198h3.313c-0.326,3.51-1.408,6.24-3.244,8.19s-4.348,2.925-7.532,2.925
				c-1.93,0-3.615-0.371-5.056-1.111c-1.442-0.741-2.64-1.762-3.593-3.062s-1.669-2.834-2.145-4.603
				c-0.477-1.768-0.715-3.666-0.715-5.693c0-2.028,0.255-3.933,0.767-5.714c0.512-1.78,1.262-3.335,2.25-4.661
				c0.988-1.325,2.22-2.371,3.696-3.139c1.476-0.767,3.167-1.15,5.074-1.15c1.302,0,2.534,0.195,3.696,0.585
				s2.197,0.962,3.104,1.716s1.662,1.696,2.268,2.828c0.604,1.131,0.998,2.438,1.186,3.919h-3.313
				C261.741,392.459,260.922,390.977,259.655,389.988z"/>
			<path d="M268.878,399.68c0.372-1.287,0.93-2.404,1.674-3.354s1.662-1.697,2.756-2.242c1.092-0.547,2.348-0.819,3.766-0.819
				c1.441,0,2.703,0.272,3.783,0.819c1.082,0.545,1.994,1.293,2.738,2.242s1.302,2.066,1.674,3.354
				c0.371,1.287,0.558,2.672,0.558,4.154c0,1.481-0.187,2.859-0.558,4.133c-0.372,1.275-0.93,2.387-1.674,3.336
				s-1.656,1.689-2.738,2.223c-1.08,0.532-2.342,0.799-3.783,0.799c-1.418,0-2.674-0.267-3.766-0.799
				c-1.094-0.533-2.012-1.273-2.756-2.223s-1.302-2.061-1.674-3.336c-0.371-1.273-0.558-2.651-0.558-4.133
				C268.32,402.352,268.507,400.967,268.878,399.68z M271.896,407.09c0.289,0.949,0.691,1.742,1.203,2.379
				c0.51,0.638,1.109,1.125,1.795,1.463s1.412,0.507,2.18,0.507s1.494-0.169,2.18-0.507s1.284-0.825,1.796-1.463
				c0.511-0.637,0.912-1.43,1.203-2.379c0.29-0.949,0.437-2.033,0.437-3.256s-0.146-2.308-0.437-3.257
				c-0.291-0.948-0.692-1.749-1.203-2.398c-0.512-0.649-1.11-1.144-1.796-1.482c-0.686-0.337-1.412-0.507-2.18-0.507
				s-1.494,0.17-2.18,0.507c-0.686,0.339-1.285,0.833-1.795,1.482c-0.512,0.649-0.914,1.45-1.203,2.398
				c-0.291,0.949-0.437,2.034-0.437,3.257S271.604,406.141,271.896,407.09z"/>
			<path d="M301.448,413.896v-3.198h-0.069c-0.628,1.248-1.43,2.164-2.406,2.75c-0.977,0.585-2.128,0.877-3.452,0.877
				c-1.186,0-2.174-0.176-2.965-0.526c-0.79-0.351-1.43-0.851-1.918-1.501s-0.831-1.424-1.028-2.32
				c-0.198-0.897-0.296-1.893-0.296-2.984v-13.26h2.963v13.65c0,1.248,0.326,2.236,0.977,2.964c0.651,0.728,1.547,1.092,2.686,1.092
				c0.906,0,1.691-0.155,2.354-0.468c0.663-0.312,1.215-0.754,1.657-1.326c0.441-0.572,0.772-1.241,0.993-2.008
				c0.221-0.768,0.332-1.605,0.332-2.516v-11.389h2.964v20.163H301.448z"/>
			<path d="M311.491,393.732v3.198h0.07c1.232-2.444,3.186-3.666,5.859-3.666c1.186,0,2.173,0.183,2.963,0.546
				c0.791,0.364,1.43,0.871,1.918,1.521s0.832,1.423,1.029,2.32c0.197,0.896,0.297,1.891,0.297,2.983v13.26h-2.965v-13.649
				c0-1.248-0.326-2.236-0.977-2.965c-0.65-0.728-1.546-1.092-2.685-1.092c-0.907,0-1.691,0.156-2.354,0.469
				c-0.662,0.312-1.215,0.754-1.656,1.325c-0.441,0.572-0.773,1.242-0.994,2.009c-0.221,0.768-0.331,1.605-0.331,2.516v11.388
				h-2.964v-20.163H311.491z"/>
			<path d="M335.798,393.732v2.926h-3.592v12.518c0,0.391,0.029,0.703,0.088,0.937c0.057,0.234,0.168,0.417,0.33,0.546
				c0.163,0.131,0.39,0.215,0.681,0.254c0.29,0.039,0.668,0.059,1.134,0.059h1.359v2.925h-2.267c-0.767,0-1.425-0.059-1.97-0.175
				c-0.547-0.117-0.988-0.332-1.326-0.645c-0.337-0.312-0.587-0.754-0.749-1.326c-0.163-0.571-0.244-1.326-0.244-2.262v-12.83
				h-3.069v-2.926h3.069v-6.045h2.964v6.045H335.798z"/>
			<path d="M341.343,409.391c0.278,0.508,0.645,0.91,1.098,1.209c0.453,0.3,0.965,0.514,1.535,0.645
				c0.568,0.13,1.156,0.194,1.761,0.194c0.465,0,0.953-0.039,1.464-0.117c0.512-0.077,0.982-0.22,1.413-0.429
				c0.43-0.208,0.784-0.514,1.063-0.916c0.279-0.403,0.418-0.917,0.418-1.541c0-0.857-0.291-1.508-0.871-1.95
				c-0.582-0.441-1.308-0.8-2.18-1.072c-0.871-0.272-1.819-0.521-2.842-0.741c-1.023-0.221-1.971-0.532-2.842-0.936
				c-0.873-0.403-1.6-0.969-2.18-1.697c-0.582-0.727-0.872-1.741-0.872-3.041c0-1.015,0.203-1.885,0.61-2.613
				c0.406-0.729,0.93-1.319,1.568-1.775c0.64-0.454,1.361-0.792,2.162-1.014c0.803-0.221,1.599-0.331,2.389-0.331
				c1.023,0,1.965,0.097,2.825,0.292s1.622,0.533,2.284,1.014c0.662,0.482,1.191,1.132,1.587,1.951
				c0.396,0.818,0.628,1.84,0.697,3.061h-2.964c-0.047-0.648-0.197-1.189-0.453-1.618s-0.582-0.772-0.977-1.033
				c-0.396-0.26-0.832-0.448-1.309-0.565s-0.959-0.176-1.447-0.176c-0.441,0-0.889,0.039-1.342,0.117s-0.867,0.215-1.238,0.409
				c-0.372,0.195-0.674,0.456-0.906,0.78c-0.232,0.325-0.35,0.748-0.35,1.268c0,0.572,0.181,1.047,0.541,1.424
				s0.82,0.688,1.377,0.936c0.559,0.248,1.187,0.455,1.884,0.624s1.396,0.345,2.093,0.526c0.743,0.182,1.47,0.403,2.18,0.663
				c0.709,0.261,1.336,0.604,1.883,1.034c0.546,0.428,0.988,0.969,1.324,1.617c0.338,0.65,0.506,1.457,0.506,2.418
				c0,1.223-0.227,2.236-0.68,3.043c-0.453,0.806-1.046,1.456-1.778,1.949c-0.732,0.494-1.558,0.839-2.476,1.034
				c-0.919,0.194-1.831,0.292-2.738,0.292c-1,0-1.953-0.117-2.859-0.351s-1.709-0.617-2.406-1.15
				c-0.697-0.532-1.256-1.235-1.674-2.106s-0.65-1.93-0.697-3.178h2.965C340.911,408.267,341.063,408.884,341.343,409.391z"/>
		</g>
	</g>
	<rect id="_x3C_Slice_x3E__4_" x="-142.807" y="355.081" fill="none" width="142.807" height="89.333"/>
	<rect id="_x3C_Slice_x3E__5_" y="355.081" fill="none" width="354.491" height="89.333"/>
	<rect id="_x3C_Slice_x3E__6_" x="354.491" y="355.081" fill="none" width="142.807" height="89.333"/>
	<rect id="_x3C_Slice_x3E__15_" x="-142.807" fill="none" width="142.807" height="355.081"/>
	<rect id="_x3C_Slice_x3E__17_" x="354.491" fill="none" width="142.807" height="355.081"/>
	<rect id="_x3C_Slice_x3E__26_" x="-142.807" y="-155.392" fill="none" width="142.807" height="155.392"/>
	<rect id="_x3C_Slice_x3E__27_" y="-155.392" fill="none" width="354.491" height="155.392"/>
	<rect id="_x3C_Slice_x3E__28_" x="354.491" y="-155.392" fill="none" width="142.807" height="155.392"/>
</g>
</svg>
