<?xml version="1.0" encoding="utf-8"?>
<!-- Generator: Adobe Illustrator 16.0.0, SVG Export Plug-In . SVG Version: 6.00 Build 0)  -->
<!DOCTYPE svg PUBLIC "-//W3C//DTD SVG 1.1//EN" "http://www.w3.org/Graphics/SVG/1.1/DTD/svg11.dtd" [
	<!ENTITY ns_extend "http://ns.adobe.com/Extensibility/1.0/">
	<!ENTITY ns_ai "http://ns.adobe.com/AdobeIllustrator/10.0/">
	<!ENTITY ns_graphs "http://ns.adobe.com/Graphs/1.0/">
	<!ENTITY ns_vars "http://ns.adobe.com/Variables/1.0/">
	<!ENTITY ns_imrep "http://ns.adobe.com/ImageReplacement/1.0/">
	<!ENTITY ns_sfw "http://ns.adobe.com/SaveForWeb/1.0/">
	<!ENTITY ns_custom "http://ns.adobe.com/GenericCustomNamespace/1.0/">
	<!ENTITY ns_adobe_xpath "http://ns.adobe.com/XPath/1.0/">
]>
<svg version="1.1" xmlns:x="&ns_extend;" xmlns:i="&ns_ai;" xmlns:graph="&ns_graphs;"
	 xmlns="http://www.w3.org/2000/svg" xmlns:xlink="http://www.w3.org/1999/xlink" x="0px" y="0px" width="354.49px"
	 height="396.609px" viewBox="0 0 354.49 396.609" enable-background="new 0 0 354.49 396.609" xml:space="preserve">
<metadata>
	<sfw  xmlns="&ns_sfw;">
		<slices></slices>
		<sliceSourceBounds  x="-6911" y="-8912" bottomLeftOrigin="true" height="16383" width="16383"></sliceSourceBounds>
	</sfw>
</metadata>
<g id="Background" display="none">
	<radialGradient id="SVGID_1_" cx="681.6084" cy="-411.4873" r="1113.6583" gradientUnits="userSpaceOnUse">
		<stop  offset="0" style="stop-color:#006594"/>
		<stop  offset="0.5393" style="stop-color:#000B2A"/>
		<stop  offset="1" style="stop-color:#00232A"/>
	</radialGradient>
	<rect x="-598.392" y="-1329.131" display="inline" fill="url(#SVGID_1_)" width="2560" height="1835.287"/>
</g>
<g id="Layer_1" display="none">
</g>
<g id="squares">
	<g>
		<g>
			<linearGradient id="SVGID_2_" gradientUnits="userSpaceOnUse" x1="297.1816" y1="3.1396" x2="297.1816" y2="111.3909">
				<stop  offset="0" style="stop-color:#999674"/>
				<stop  offset="0.5" style="stop-color:#737144"/>
				<stop  offset="1" style="stop-color:#5A5C2A"/>
			</linearGradient>
			<path fill="url(#SVGID_2_)" d="M351.994,89.702c-1.278,11.918-11.027,22.406-22.946,22.406h-65.009
				c-11.918,0-21.669-10.488-21.669-22.406v-65.01c0-11.917,9.751-22.391,21.669-22.391h65.009
				c11.919,0,21.668,10.474,22.946,22.391V89.702z"/>
			<linearGradient id="SVGID_3_" gradientUnits="userSpaceOnUse" x1="176.4971" y1="3.1396" x2="176.4971" y2="111.3909">
				<stop  offset="0" style="stop-color:#999674"/>
				<stop  offset="0.5" style="stop-color:#737144"/>
				<stop  offset="1" style="stop-color:#5A5C2A"/>
			</linearGradient>
			<path fill="url(#SVGID_3_)" d="M231.31,89.702c-1.278,11.918-11.027,22.406-22.946,22.406h-65.009
				c-11.918,0-21.669-10.488-21.669-22.406v-65.01c0-11.917,9.751-22.391,21.669-22.391h65.009
				c11.919,0,21.668,10.474,22.946,22.391V89.702z"/>
			<linearGradient id="SVGID_4_" gradientUnits="userSpaceOnUse" x1="55.8125" y1="3.1396" x2="55.8125" y2="111.3909">
				<stop  offset="0" style="stop-color:#999674"/>
				<stop  offset="0.5" style="stop-color:#737144"/>
				<stop  offset="1" style="stop-color:#5A5C2A"/>
			</linearGradient>
			<path fill="url(#SVGID_4_)" d="M110.625,89.702c-1.278,11.918-11.027,22.406-22.946,22.406H22.669
				C10.751,112.108,1,101.62,1,89.702v-65.01C1,12.775,10.751,2.302,22.669,2.302h65.009c11.919,0,21.668,10.474,22.946,22.391
				V89.702z"/>
			<linearGradient id="SVGID_5_" gradientUnits="userSpaceOnUse" x1="297.1816" y1="121.4521" x2="297.1816" y2="229.7034">
				<stop  offset="0" style="stop-color:#999674"/>
				<stop  offset="0.5" style="stop-color:#737144"/>
				<stop  offset="1" style="stop-color:#5A5C2A"/>
			</linearGradient>
			<path fill="url(#SVGID_5_)" d="M351.994,208.015c-1.278,11.918-11.027,22.406-22.946,22.406h-65.009
				c-11.918,0-21.669-10.488-21.669-22.406v-65.01c0-11.917,9.751-22.391,21.669-22.391h65.009
				c11.919,0,21.668,10.474,22.946,22.391V208.015z"/>
			<linearGradient id="SVGID_6_" gradientUnits="userSpaceOnUse" x1="176.4971" y1="121.4521" x2="176.4971" y2="229.7034">
				<stop  offset="0" style="stop-color:#999674"/>
				<stop  offset="0.5" style="stop-color:#737144"/>
				<stop  offset="1" style="stop-color:#5A5C2A"/>
			</linearGradient>
			<path fill="url(#SVGID_6_)" d="M231.31,208.015c-1.278,11.918-11.027,22.406-22.946,22.406h-65.009
				c-11.918,0-21.669-10.488-21.669-22.406v-65.01c0-11.917,9.751-22.391,21.669-22.391h65.009
				c11.919,0,21.668,10.474,22.946,22.391V208.015z"/>
			<linearGradient id="SVGID_7_" gradientUnits="userSpaceOnUse" x1="55.8125" y1="121.4521" x2="55.8125" y2="229.7034">
				<stop  offset="0" style="stop-color:#999674"/>
				<stop  offset="0.5" style="stop-color:#737144"/>
				<stop  offset="1" style="stop-color:#5A5C2A"/>
			</linearGradient>
			<path fill="url(#SVGID_7_)" d="M110.625,208.015c-1.278,11.918-11.027,22.406-22.946,22.406H22.669
				C10.751,230.421,1,219.933,1,208.015v-65.01c0-11.917,9.751-22.391,21.669-22.391h65.009c11.919,0,21.668,10.474,22.946,22.391
				V208.015z"/>
			<linearGradient id="SVGID_8_" gradientUnits="userSpaceOnUse" x1="297.1816" y1="239.7646" x2="297.1816" y2="348.0159">
				<stop  offset="0" style="stop-color:#999674"/>
				<stop  offset="0.5" style="stop-color:#737144"/>
				<stop  offset="1" style="stop-color:#5A5C2A"/>
			</linearGradient>
			<path fill="url(#SVGID_8_)" d="M351.994,326.327c-1.278,11.918-11.027,22.406-22.946,22.406h-65.009
				c-11.918,0-21.669-10.488-21.669-22.406v-65.01c0-11.917,9.751-22.391,21.669-22.391h65.009
				c11.919,0,21.668,10.474,22.946,22.391V326.327z"/>
			<linearGradient id="SVGID_9_" gradientUnits="userSpaceOnUse" x1="176.4971" y1="239.7646" x2="176.4971" y2="348.0159">
				<stop  offset="0" style="stop-color:#999674"/>
				<stop  offset="0.5" style="stop-color:#737144"/>
				<stop  offset="1" style="stop-color:#5A5C2A"/>
			</linearGradient>
			<path fill="url(#SVGID_9_)" d="M231.31,326.327c-1.278,11.918-11.027,22.406-22.946,22.406h-65.009
				c-11.918,0-21.669-10.488-21.669-22.406v-65.01c0-11.917,9.751-22.391,21.669-22.391h65.009
				c11.919,0,21.668,10.474,22.946,22.391V326.327z"/>
			<linearGradient id="SVGID_10_" gradientUnits="userSpaceOnUse" x1="55.8125" y1="239.7646" x2="55.8125" y2="348.0159">
				<stop  offset="0" style="stop-color:#999674"/>
				<stop  offset="0.5" style="stop-color:#737144"/>
				<stop  offset="1" style="stop-color:#5A5C2A"/>
			</linearGradient>
			<path fill="url(#SVGID_10_)" d="M110.625,326.327c-1.278,11.918-11.027,22.406-22.946,22.406H22.669
				C10.751,348.733,1,338.245,1,326.327v-65.01c0-11.917,9.751-22.391,21.669-22.391h65.009c11.919,0,21.668,10.474,22.946,22.391
				V326.327z"/>
		</g>
		
			<linearGradient id="SVGID_11_" gradientUnits="userSpaceOnUse" x1="260.9751" y1="60.9922" x2="280.0957" y2="60.9922" gradientTransform="matrix(0.9992 0.0394 -0.0394 0.9992 -19.8207 -4.3368)">
			<stop  offset="0" style="stop-color:#FFFFFF"/>
			<stop  offset="1" style="stop-color:#E6E5E5"/>
		</linearGradient>
		<path fill="none" stroke="url(#SVGID_11_)" stroke-width="6" stroke-miterlimit="10" d="M257.738,65.575
			c-6.4-0.253-12.485,1.133-17.85,3.782"/>
		<g>
			<g>
				<g>
					<linearGradient id="SVGID_12_" gradientUnits="userSpaceOnUse" x1="81.2148" y1="71.6758" x2="236.2654" y2="265.4896">
						<stop  offset="0" style="stop-color:#FFFFFF"/>
						<stop  offset="1" style="stop-color:#E6E5E5"/>
					</linearGradient>
					<path fill="url(#SVGID_12_)" d="M247.543,235.467V76.709c0-5.592-4.597-10.122-10.261-10.122H86.467
						c-5.667,0-10.261,4.53-10.261,10.122v191.583c0,5.591,4.595,10.121,10.261,10.121H203.61L247.543,235.467z"/>
					<polygon fill="#F4F4F4" points="247.543,235.467 203.61,235.467 203.61,278.413 					"/>
				</g>
				<linearGradient id="SVGID_13_" gradientUnits="userSpaceOnUse" x1="216.3354" y1="71.2734" x2="248.1171" y2="111.9244">
					<stop  offset="0" style="stop-color:#FFFFFF"/>
					<stop  offset="1" style="stop-color:#E6E5E5"/>
				</linearGradient>
				<circle fill="url(#SVGID_13_)" cx="228.059" cy="86.27" r="35.245"/>
				<g>
					<path fill="#B6B6B6" d="M167.432,184.223h-18.347l-2.183,5.055c-0.714,1.686-1.073,3.078-1.073,4.175
						c0,1.455,0.587,2.528,1.762,3.217c0.689,0.409,2.387,0.715,5.095,0.919v1.419H135.41v-1.419c1.864-0.28,3.396-1.05,4.597-2.316
						c1.2-1.263,2.681-3.874,4.442-7.832l18.577-41.445h0.728l18.731,42.594c1.787,4.034,3.255,6.576,4.404,7.623
						c0.868,0.791,2.094,1.251,3.677,1.377v1.419H165.44v-1.419h1.034c2.018,0,3.435-0.28,4.252-0.841
						c0.562-0.41,0.843-0.996,0.843-1.764c0-0.458-0.077-0.932-0.23-1.416c-0.051-0.23-0.434-1.188-1.149-2.872L167.432,184.223z
						 M166.129,181.387l-7.737-17.887l-7.967,17.887H166.129z"/>
				</g>
				<g>
					<linearGradient id="SVGID_14_" gradientUnits="userSpaceOnUse" x1="81.2148" y1="71.6758" x2="236.2654" y2="265.4896">
						<stop  offset="0" style="stop-color:#FFFFFF"/>
						<stop  offset="1" style="stop-color:#E6E5E5"/>
					</linearGradient>
					<path fill="url(#SVGID_14_)" d="M247.543,235.467V76.709c0-5.592-4.597-10.122-10.261-10.122H86.467
						c-5.667,0-10.261,4.53-10.261,10.122v191.583c0,5.591,4.595,10.121,10.261,10.121H203.61L247.543,235.467z"/>
					<polygon fill="#F4F4F4" points="247.543,235.467 203.61,235.467 203.61,278.413 					"/>
				</g>
				<linearGradient id="SVGID_15_" gradientUnits="userSpaceOnUse" x1="228.0591" y1="115.7305" x2="228.0591" y2="56.6402">
					<stop  offset="0" style="stop-color:#FFFFFF"/>
					<stop  offset="1" style="stop-color:#E6E5E5"/>
				</linearGradient>
				<circle fill="url(#SVGID_15_)" cx="228.059" cy="86.27" r="29.759"/>
				<g>
					<path fill="#BBBBBB" d="M218.223,96.233h-3.437v-5.56h4.548l1.516-7.454h-6.064v-5.584h7.201l1.997-9.854h5.66l-1.996,9.854
						h5.584l1.946-9.854h5.862l-2.021,9.854h3.487v5.584h-4.624l-1.517,7.454h6.141v5.56h-7.277l-1.996,9.854h-5.635l1.945-9.854
						h-5.609l-1.996,9.854h-5.711L218.223,96.233z M226.536,83.22l-1.491,7.454h5.61l1.465-7.454H226.536z"/>
				</g>
				<g>
					<path fill="#B6B6B6" d="M167.432,184.223h-18.347l-2.183,5.055c-0.714,1.686-1.073,3.078-1.073,4.175
						c0,1.455,0.587,2.528,1.762,3.217c0.689,0.409,2.387,0.715,5.095,0.919v1.419H135.41v-1.419c1.864-0.28,3.396-1.05,4.597-2.316
						c1.2-1.263,2.681-3.874,4.442-7.832l18.577-41.445h0.728l18.731,42.594c1.787,4.034,3.255,6.576,4.404,7.623
						c0.868,0.791,2.094,1.251,3.677,1.377v1.419H165.44v-1.419h1.034c2.018,0,3.435-0.28,4.252-0.841
						c0.562-0.41,0.843-0.996,0.843-1.764c0-0.458-0.077-0.932-0.23-1.416c-0.051-0.23-0.434-1.188-1.149-2.872L167.432,184.223z
						 M166.129,181.387l-7.737-17.887l-7.967,17.887H166.129z"/>
				</g>
			</g>
			
				<linearGradient id="SVGID_16_" gradientUnits="userSpaceOnUse" x1="116.2319" y1="180.4424" x2="309.3306" y2="180.4424" gradientTransform="matrix(0.9992 0.0394 -0.0394 0.9992 -19.8207 -4.3368)">
				<stop  offset="0" style="stop-color:#FFFFFF"/>
				<stop  offset="1" style="stop-color:#E6E5E5"/>
			</linearGradient>
			<path fill="none" stroke="url(#SVGID_16_)" stroke-width="6" stroke-miterlimit="10" d="M88.462,275.977
				c-0.22,5.587,4.193,10.295,9.855,10.518l117.052,4.61l45.589-41.184l4.716-119.737c9.739-5.936,16.422-16.475,16.904-28.725
				c0.295-7.493-1.771-14.532-5.537-20.398"/>
			
				<linearGradient id="SVGID_17_" gradientUnits="userSpaceOnUse" x1="154.3555" y1="188.6729" x2="347.4541" y2="188.6729" gradientTransform="matrix(0.9977 0.0683 -0.0683 0.9977 -34.8768 -7.4722)">
				<stop  offset="0" style="stop-color:#FFFFFF"/>
				<stop  offset="1" style="stop-color:#E6E5E5"/>
			</linearGradient>
			<path fill="none" stroke="url(#SVGID_17_)" stroke-width="6" stroke-miterlimit="10" d="M102.72,286.432
				c-0.382,5.577,3.892,10.412,9.545,10.798l116.87,8.005L275.9,265.39l8.187-119.548c9.907-5.652,16.893-15.992,17.73-28.224
				c0.499-7.282-1.252-14.199-4.66-20.071"/>
		</g>
	</g>
	<g>
		<text transform="matrix(0.8942 0 0 1 53.082 380.874)" font-family="'HelveticaNeue'" font-size="36">Number of Notes</text>
	</g>
</g>
<g id="guides">
</g>
<g id="circles" display="none">
	<linearGradient id="SVGID_18_" gradientUnits="userSpaceOnUse" x1="178.7451" y1="211.8691" x2="178.7451" y2="559.8749">
		<stop  offset="0" style="stop-color:#999674"/>
		<stop  offset="0.5" style="stop-color:#737144"/>
		<stop  offset="1" style="stop-color:#5A5C2A"/>
	</linearGradient>
	<circle display="inline" fill="url(#SVGID_18_)" cx="178.745" cy="387.788" r="179.125"/>
	<g display="inline">
		<g>
			<linearGradient id="SVGID_19_" gradientUnits="userSpaceOnUse" x1="100.3599" y1="289.8975" x2="263.4873" y2="493.8074">
				<stop  offset="0" style="stop-color:#FFFFFF"/>
				<stop  offset="1" style="stop-color:#E6E5E5"/>
			</linearGradient>
			<path fill="url(#SVGID_19_)" d="M275.353,462.222V295.193c0-5.883-4.836-10.648-10.795-10.648H105.885
				c-5.962,0-10.796,4.766-10.796,10.648v201.563c0,5.883,4.834,10.648,10.796,10.648h123.246L275.353,462.222z"/>
		</g>
		<linearGradient id="SVGID_20_" gradientUnits="userSpaceOnUse" x1="242.519" y1="289.4756" x2="275.9561" y2="332.244">
			<stop  offset="0" style="stop-color:#FFFFFF"/>
			<stop  offset="1" style="stop-color:#E6E5E5"/>
		</linearGradient>
		<circle fill="url(#SVGID_20_)" cx="254.854" cy="305.252" r="37.081"/>
		<g>
			<path fill="#B6B6B6" d="M191.068,408.308h-19.303l-2.297,5.319c-0.752,1.772-1.129,3.237-1.129,4.392
				c0,1.532,0.618,2.66,1.854,3.386c0.726,0.43,2.512,0.752,5.36,0.967v1.491h-18.175v-1.491c1.961-0.295,3.573-1.106,4.836-2.438
				c1.263-1.328,2.82-4.076,4.674-8.24l19.545-43.604h0.766l19.707,44.812c1.88,4.244,3.425,6.918,4.634,8.02
				c0.913,0.832,2.203,1.316,3.868,1.45v1.491h-26.436v-1.491h1.088c2.123,0,3.613-0.295,4.474-0.886
				c0.591-0.431,0.887-1.049,0.887-1.854c0-0.483-0.081-0.98-0.242-1.491c-0.054-0.241-0.456-1.249-1.209-3.021L191.068,408.308z
				 M189.698,405.325l-8.14-18.819l-8.383,18.819H189.698z"/>
		</g>
		<g>
			<linearGradient id="SVGID_21_" gradientUnits="userSpaceOnUse" x1="100.3599" y1="289.8975" x2="263.4873" y2="493.8074">
				<stop  offset="0" style="stop-color:#FFFFFF"/>
				<stop  offset="1" style="stop-color:#E6E5E5"/>
			</linearGradient>
			<path fill="url(#SVGID_21_)" d="M275.353,462.222V295.193c0-5.883-4.836-10.648-10.795-10.648H105.885
				c-5.962,0-10.796,4.766-10.796,10.648v201.563c0,5.883,4.834,10.648,10.796,10.648h123.246L275.353,462.222z"/>
		</g>
		<linearGradient id="SVGID_22_" gradientUnits="userSpaceOnUse" x1="254.8535" y1="336.249" x2="254.8535" y2="274.0804">
			<stop  offset="0" style="stop-color:#FFFFFF"/>
			<stop  offset="1" style="stop-color:#E6E5E5"/>
		</linearGradient>
		<circle fill="url(#SVGID_22_)" cx="254.854" cy="305.252" r="31.309"/>
		<g>
			<path fill="#BBBBBB" d="M244.505,315.735h-3.616v-5.849h4.786l1.595-7.843h-6.38v-5.875h7.577l2.101-10.368h5.955l-2.101,10.368
				h5.875l2.047-10.368h6.167l-2.126,10.368h3.668v5.875h-4.865l-1.595,7.843h6.46v5.849h-7.657l-2.1,10.368h-5.928l2.047-10.368
				h-5.902l-2.1,10.368h-6.009L244.505,315.735z M253.251,302.044l-1.569,7.843h5.902l1.542-7.843H253.251z"/>
		</g>
		<g>
			<path fill="#B6B6B6" d="M191.068,408.308h-19.303l-2.297,5.319c-0.752,1.772-1.129,3.237-1.129,4.392
				c0,1.532,0.618,2.66,1.854,3.386c0.726,0.43,2.512,0.752,5.36,0.967v1.491h-18.175v-1.491c1.961-0.295,3.573-1.106,4.836-2.438
				c1.263-1.328,2.82-4.076,4.674-8.24l19.545-43.604h0.766l19.707,44.812c1.88,4.244,3.425,6.918,4.634,8.02
				c0.913,0.832,2.203,1.316,3.868,1.45v1.491h-26.436v-1.491h1.088c2.123,0,3.613-0.295,4.474-0.886
				c0.591-0.431,0.887-1.049,0.887-1.854c0-0.483-0.081-0.98-0.242-1.491c-0.054-0.241-0.456-1.249-1.209-3.021L191.068,408.308z
				 M189.698,405.325l-8.14-18.819l-8.383,18.819H189.698z"/>
		</g>
	</g>
</g>
</svg>
