<?xml version="1.0" encoding="utf-8"?>
<!-- Generator: Adobe Illustrator 16.0.0, SVG Export Plug-In . SVG Version: 6.00 Build 0)  -->
<!DOCTYPE svg PUBLIC "-//W3C//DTD SVG 1.1//EN" "http://www.w3.org/Graphics/SVG/1.1/DTD/svg11.dtd" [
	<!ENTITY ns_extend "http://ns.adobe.com/Extensibility/1.0/">
	<!ENTITY ns_ai "http://ns.adobe.com/AdobeIllustrator/10.0/">
	<!ENTITY ns_graphs "http://ns.adobe.com/Graphs/1.0/">
	<!ENTITY ns_vars "http://ns.adobe.com/Variables/1.0/">
	<!ENTITY ns_imrep "http://ns.adobe.com/ImageReplacement/1.0/">
	<!ENTITY ns_sfw "http://ns.adobe.com/SaveForWeb/1.0/">
	<!ENTITY ns_custom "http://ns.adobe.com/GenericCustomNamespace/1.0/">
	<!ENTITY ns_adobe_xpath "http://ns.adobe.com/XPath/1.0/">
]>
<svg version="1.1" xmlns:x="&ns_extend;" xmlns:i="&ns_ai;" xmlns:graph="&ns_graphs;"
	 xmlns="http://www.w3.org/2000/svg" xmlns:xlink="http://www.w3.org/1999/xlink" x="0px" y="0px" width="354.49px"
	 height="396.611px" viewBox="0 0 354.49 396.611" enable-background="new 0 0 354.49 396.611" xml:space="preserve">
<metadata>
	<sfw  xmlns="&ns_sfw;">
		<slices></slices>
		<sliceSourceBounds  x="-6911" y="-8912" bottomLeftOrigin="true" height="16383" width="16383"></sliceSourceBounds>
	</sfw>
</metadata>
<g id="Background" display="none">
	<radialGradient id="SVGID_1_" cx="-328.8916" cy="451.6743" r="1113.6583" gradientUnits="userSpaceOnUse">
		<stop  offset="0" style="stop-color:#006594"/>
		<stop  offset="0.5393" style="stop-color:#000B2A"/>
		<stop  offset="1" style="stop-color:#00232A"/>
	</radialGradient>
	<rect x="-1608.892" y="-465.969" display="inline" fill="url(#SVGID_1_)" width="2560" height="1835.287"/>
</g>
<g id="Layer_1" display="none">
	<linearGradient id="SVGID_2_" gradientUnits="userSpaceOnUse" x1="28.29" y1="25.1763" x2="28.29" y2="378.5736">
		<stop  offset="0.3054" style="stop-color:#53A88F"/>
		<stop  offset="1" style="stop-color:#0027A9"/>
	</linearGradient>
	<path display="inline" fill="url(#SVGID_2_)" d="M205.535,307.267c-4.131,38.537-35.656,72.457-74.201,72.457H-78.882
		c-38.539,0-70.072-33.92-70.072-72.457V97.048c0-38.54,31.533-72.405,70.072-72.405h210.216c38.545,0,70.07,33.865,74.201,72.405
		V307.267z"/>
	<g display="inline">
		<path fill="#FEFEFE" d="M137.218,278.546c0,8.492-6.885,15.377-15.377,15.377H-85.997c-8.492,0-15.377-6.885-15.377-15.377V125.82
			c0-8.492,6.885-15.377,15.377-15.377h207.838c8.492,0,15.377,6.885,15.377,15.377V278.546z"/>
		<rect x="-87.888" y="125.208" fill="#E8E8E8" width="209.729" height="156.468"/>
		<g>
			<path fill="#C9C9C9" d="M-13.886,282.083v-53.03c4.627-0.93,7.146-2.4,9.275-4.311c3.426,2.379,7.58,3.784,12.066,3.784
				c11.703,0,21.188-9.491,21.188-21.19c0-7.537-3.945-14.137-9.871-17.892c0.721-2.128,1.126-4.403,1.126-6.774
				c0-10.455-7.577-19.119-17.532-20.854c-0.855-10.917-9.966-19.514-21.104-19.514c-11.043,0-20.102,8.452-21.09,19.239
				c-11.145,0.617-19.999,9.826-19.999,21.126c0,2.373,0.407,4.648,1.127,6.774c-5.925,3.757-9.872,10.356-9.872,17.889
				c0,11.703,9.486,21.192,21.189,21.192c5.1,0,9.779-1.809,13.436-4.812c1.73,1.788,3.786,3.252,7.908,4.346v54.025H-13.886z
				 M85.765,229.609c-1.924-1.186-3.818-4.837-5.674-4.92c-0.994-0.047-3.568-0.192-3.568-0.192
				c-4.109-8.354-8.785-10.36-10.549-11.012c-1.76-0.651,1.459,5.826,1.459,5.826c-1-1.627-8.316-4.076-9.957-3.128
				c-1.643,0.95,2.344,4.957,3.682,6c1.566,1.22,5.912,2.499,7.125,3.522c1.209,1.021,0.723,2.917,0.723,2.917
				c-0.221,1.66-0.309,1.817-0.309,1.817c-0.6,0.237-0.6,0.237-0.6,0.237c-0.822-0.471-6.65-9.121-21.486-5.099
				c-12.363,3.353-10.92,14.98-10.723,16.989c-0.554-0.751-1.641-0.141-1.641-0.141c-1.391,0.722-0.772,1.943-0.772,1.943
				c-0.486-0.251-1.171-2.062-1.171-2.062c-1.705,2.257-2.045,3.599-0.764,6.313c1.273,2.697,4.998,3.565,7.715,1.104
				c0,0,0.877,3.254,2.83,3.536c0.672,0.097,1.178,0.864,1.076,1.556c-0.105,0.693-0.711,1.764-0.043,2.389
				c1.124,1.059,2.508,1.635,7,2.195c0.506,0.063,1.811,0.106,3.273,0.2c0.107,0.585,0.197,1.049,0.207,1.265
				c0.043,0.82,6.596,2.652,6.125,1.583c-0.594-1.347-1.182-2.04-1.613-2.606c0.416,0.004,0.756,0.003,0.963-0.017
				c1.012-0.1,1.717-1.927,0.297-2.472c-0.336-0.129-0.975-0.307-1.754-0.5c0.023-0.091,0.039-0.174,0.066-0.273
				c0.268-0.998,2.109-2.441,4.486-4.309c11.375,0.422,18.502-9.508,16.467-14.268c-0.951-2.223-0.566-2.171-0.566-2.171
				s5.418-0.396,6.338-1.47C85.341,233.274,87.39,230.612,85.765,229.609z M55.313,252.083c-0.502,0.852-1.543,0.924-2.199,2.342
				c-0.152,0.328-0.205,0.808-0.205,1.359c-1.036-0.221-1.773-0.374-1.773-0.374s-2.555-0.646-1.582-3.62
				c0.331-1.017,3.271-2.819,4.7-2.251c0.274,0.281,0.575,0.625,0.809,0.987c0.063,0.13,0.14,0.277,0.228,0.435
				C55.462,251.357,55.511,251.748,55.313,252.083z"/>
		</g>
	</g>
</g>
<g id="squares">
	<g>
		<g>
			<linearGradient id="SVGID_3_" gradientUnits="userSpaceOnUse" x1="297.1816" y1="5.9741" x2="297.1816" y2="114.2254">
				<stop  offset="0" style="stop-color:#A8989B"/>
				<stop  offset="0.5" style="stop-color:#7E6B71"/>
				<stop  offset="1" style="stop-color:#61505A"/>
			</linearGradient>
			<path fill="url(#SVGID_3_)" d="M351.994,92.537c-1.278,11.918-11.027,22.406-22.947,22.406h-65.009
				c-11.918,0-21.669-10.488-21.669-22.406v-65.01c0-11.917,9.751-22.391,21.669-22.391h65.009c11.92,0,21.669,10.474,22.947,22.391
				V92.537z"/>
			<linearGradient id="SVGID_4_" gradientUnits="userSpaceOnUse" x1="176.4961" y1="5.9741" x2="176.4961" y2="114.2254">
				<stop  offset="0" style="stop-color:#A8989B"/>
				<stop  offset="0.5" style="stop-color:#7E6B71"/>
				<stop  offset="1" style="stop-color:#61505A"/>
			</linearGradient>
			<path fill="url(#SVGID_4_)" d="M231.309,92.537c-1.277,11.918-11.026,22.406-22.945,22.406h-65.01
				c-11.918,0-21.67-10.488-21.67-22.406v-65.01c0-11.917,9.752-22.391,21.67-22.391h65.01c11.919,0,21.668,10.474,22.945,22.391
				V92.537z"/>
			<linearGradient id="SVGID_5_" gradientUnits="userSpaceOnUse" x1="55.8125" y1="5.9741" x2="55.8125" y2="114.2254">
				<stop  offset="0" style="stop-color:#A8989B"/>
				<stop  offset="0.5" style="stop-color:#7E6B71"/>
				<stop  offset="1" style="stop-color:#61505A"/>
			</linearGradient>
			<path fill="url(#SVGID_5_)" d="M110.625,92.537c-1.278,11.918-11.027,22.406-22.947,22.406H22.669
				C10.751,114.943,1,104.455,1,92.537v-65.01C1,15.61,10.751,5.136,22.669,5.136h65.009c11.92,0,21.669,10.474,22.947,22.391
				V92.537z"/>
			<linearGradient id="SVGID_6_" gradientUnits="userSpaceOnUse" x1="297.1816" y1="124.2866" x2="297.1816" y2="232.5379">
				<stop  offset="0" style="stop-color:#A8989B"/>
				<stop  offset="0.5" style="stop-color:#7E6B71"/>
				<stop  offset="1" style="stop-color:#61505A"/>
			</linearGradient>
			<path fill="url(#SVGID_6_)" d="M351.994,210.849c-1.278,11.918-11.027,22.406-22.947,22.406h-65.009
				c-11.918,0-21.669-10.488-21.669-22.406v-65.01c0-11.917,9.751-22.391,21.669-22.391h65.009c11.92,0,21.669,10.474,22.947,22.391
				V210.849z"/>
			<linearGradient id="SVGID_7_" gradientUnits="userSpaceOnUse" x1="176.4961" y1="124.2866" x2="176.4961" y2="232.5379">
				<stop  offset="0" style="stop-color:#A8989B"/>
				<stop  offset="0.5" style="stop-color:#7E6B71"/>
				<stop  offset="1" style="stop-color:#61505A"/>
			</linearGradient>
			<path fill="url(#SVGID_7_)" d="M231.309,210.849c-1.277,11.918-11.026,22.406-22.945,22.406h-65.01
				c-11.918,0-21.67-10.488-21.67-22.406v-65.01c0-11.917,9.752-22.391,21.67-22.391h65.01c11.919,0,21.668,10.474,22.945,22.391
				V210.849z"/>
			<linearGradient id="SVGID_8_" gradientUnits="userSpaceOnUse" x1="55.8125" y1="124.2866" x2="55.8125" y2="232.5379">
				<stop  offset="0" style="stop-color:#A8989B"/>
				<stop  offset="0.5" style="stop-color:#7E6B71"/>
				<stop  offset="1" style="stop-color:#61505A"/>
			</linearGradient>
			<path fill="url(#SVGID_8_)" d="M110.625,210.849c-1.278,11.918-11.027,22.406-22.947,22.406H22.669
				C10.751,233.255,1,222.767,1,210.849v-65.01c0-11.917,9.751-22.391,21.669-22.391h65.009c11.92,0,21.669,10.474,22.947,22.391
				V210.849z"/>
			<linearGradient id="SVGID_9_" gradientUnits="userSpaceOnUse" x1="297.1816" y1="242.5991" x2="297.1816" y2="350.8509">
				<stop  offset="0" style="stop-color:#A8989B"/>
				<stop  offset="0.5" style="stop-color:#7E6B71"/>
				<stop  offset="1" style="stop-color:#61505A"/>
			</linearGradient>
			<path fill="url(#SVGID_9_)" d="M351.994,329.162c-1.278,11.918-11.027,22.406-22.947,22.406h-65.009
				c-11.918,0-21.669-10.488-21.669-22.406v-65.01c0-11.917,9.751-22.391,21.669-22.391h65.009c11.92,0,21.669,10.474,22.947,22.391
				V329.162z"/>
			<linearGradient id="SVGID_10_" gradientUnits="userSpaceOnUse" x1="176.4961" y1="242.5991" x2="176.4961" y2="350.8509">
				<stop  offset="0" style="stop-color:#A8989B"/>
				<stop  offset="0.5" style="stop-color:#7E6B71"/>
				<stop  offset="1" style="stop-color:#61505A"/>
			</linearGradient>
			<path fill="url(#SVGID_10_)" d="M231.309,329.162c-1.277,11.918-11.026,22.406-22.945,22.406h-65.01
				c-11.918,0-21.67-10.488-21.67-22.406v-65.01c0-11.917,9.752-22.391,21.67-22.391h65.01c11.919,0,21.668,10.474,22.945,22.391
				V329.162z"/>
			<linearGradient id="SVGID_11_" gradientUnits="userSpaceOnUse" x1="55.8125" y1="242.5991" x2="55.8125" y2="350.8509">
				<stop  offset="0" style="stop-color:#A8989B"/>
				<stop  offset="0.5" style="stop-color:#7E6B71"/>
				<stop  offset="1" style="stop-color:#61505A"/>
			</linearGradient>
			<path fill="url(#SVGID_11_)" d="M110.625,329.162c-1.278,11.918-11.027,22.406-22.947,22.406H22.669
				C10.751,351.568,1,341.08,1,329.162v-65.01c0-11.917,9.751-22.391,21.669-22.391h65.009c11.92,0,21.669,10.474,22.947,22.391
				V329.162z"/>
		</g>
		<g>
			<g>
				<path fill="#FEFEFE" d="M302.461,276.689c0,10.459-8.48,18.939-18.939,18.939H54.639c-10.46,0-18.939-8.48-18.939-18.939V88.587
					c0-10.459,8.479-18.938,18.939-18.938h228.883c10.459,0,18.939,8.479,18.939,18.938V276.689z"/>
				<rect x="52.31" y="87.834" fill="#E8E8E8" width="231.212" height="192.71"/>
				<g>
					<path fill="#C9C9C9" d="M143.453,280.544v-64.813c5.698-1.146,8.802-2.956,11.424-5.31c4.219,2.931,9.336,4.661,14.861,4.661
						c14.414,0,26.095-11.689,26.095-26.099c0-9.283-4.859-17.411-12.157-22.036c0.888-2.621,1.387-5.423,1.387-8.344
						c0-12.877-9.332-23.548-21.594-25.684c-1.053-13.446-12.273-24.034-25.991-24.034c-13.601,0-24.758,10.41-25.975,23.696
						c-13.727,0.76-24.632,12.102-24.632,26.019c0,2.923,0.502,5.725,1.388,8.344c-7.297,4.627-12.158,12.755-12.158,22.032
						c0,14.414,11.684,26.102,26.098,26.102c6.28,0,12.044-2.229,16.548-5.926c2.131,2.201,4.662,4.004,9.739,5.352v66.039H143.453z
						 M266.186,216.417c-2.37-1.46-4.703-5.957-6.988-6.06c-1.225-0.058-4.396-0.236-4.396-0.236
						c-5.061-10.289-10.819-12.761-12.992-13.562c-2.167-0.803,1.797,7.176,1.797,7.176c-1.231-2.004-10.242-5.021-12.263-3.854
						c-2.023,1.171,2.887,6.105,4.534,7.391c1.929,1.502,7.281,3.078,8.775,4.338c1.489,1.258,0.89,3.593,0.89,3.593
						c-0.271,2.045-0.38,2.238-0.38,2.238c-0.738,0.292-0.738,0.292-0.738,0.292c-1.013-0.579-8.19-11.233-26.464-6.279
						c-15.227,4.129-13.449,18.451-13.206,20.924c-0.682-0.924-2.021-0.172-2.021-0.172c-1.713,0.889-0.951,2.393-0.951,2.393
						c-0.6-0.309-1.442-2.539-1.442-2.539c-2.1,2.779-2.519,4.432-0.94,7.775c1.568,3.322,6.156,4.393,9.502,1.359
						c0,0,1.08,4.008,3.485,4.355c0.827,0.119,1.45,1.064,1.325,1.916c-0.129,0.854-0.875,2.172-0.053,2.941
						c1.385,1.305,3.089,2.014,8.621,2.705c0.623,0.078,2.23,0.131,4.032,0.246c0.132,0.721,0.243,1.291,0.255,1.557
						c0.053,1.012,8.123,3.268,7.544,1.951c-0.731-1.66-1.456-2.514-1.987-3.211c0.513,0.006,0.932,0.004,1.186-0.02
						c1.246-0.123,2.115-2.373,0.366-3.045c-0.414-0.158-1.2-0.377-2.16-0.615c0.028-0.113,0.048-0.215,0.082-0.338
						c0.329-1.229,2.598-3.006,5.525-5.307c14.01,0.52,22.787-11.709,20.28-17.572c-1.171-2.736-0.697-2.674-0.697-2.674
						s6.673-0.488,7.807-1.81C265.663,220.931,268.187,217.652,266.186,216.417z M228.681,244.097
						c-0.618,1.049-1.9,1.137-2.709,2.883c-0.188,0.404-0.253,0.996-0.253,1.676c-1.275-0.271-2.184-0.461-2.184-0.461
						s-3.146-0.797-1.948-4.459c0.407-1.252,4.028-3.473,5.788-2.771c0.338,0.346,0.709,0.77,0.996,1.215
						c0.078,0.16,0.172,0.342,0.28,0.535C228.863,243.203,228.924,243.683,228.681,244.097z"/>
				</g>
			</g>
		</g>
	</g>
	<g>
		<text transform="matrix(0.8942 0 0 1 112.5674 384.7593)" font-family="'HelveticaNeue'" font-size="36">Pictures</text>
	</g>
</g>
<g id="guides">
</g>
<g id="circles" display="none">
</g>
</svg>
