<?xml version="1.0" encoding="utf-8"?>
<!-- Generator: Adobe Illustrator 16.0.0, SVG Export Plug-In . SVG Version: 6.00 Build 0)  -->
<!DOCTYPE svg PUBLIC "-//W3C//DTD SVG 1.1//EN" "http://www.w3.org/Graphics/SVG/1.1/DTD/svg11.dtd" [
	<!ENTITY ns_extend "http://ns.adobe.com/Extensibility/1.0/">
	<!ENTITY ns_ai "http://ns.adobe.com/AdobeIllustrator/10.0/">
	<!ENTITY ns_graphs "http://ns.adobe.com/Graphs/1.0/">
	<!ENTITY ns_vars "http://ns.adobe.com/Variables/1.0/">
	<!ENTITY ns_imrep "http://ns.adobe.com/ImageReplacement/1.0/">
	<!ENTITY ns_sfw "http://ns.adobe.com/SaveForWeb/1.0/">
	<!ENTITY ns_custom "http://ns.adobe.com/GenericCustomNamespace/1.0/">
	<!ENTITY ns_adobe_xpath "http://ns.adobe.com/XPath/1.0/">
]>
<svg version="1.1" xmlns:x="&ns_extend;" xmlns:i="&ns_ai;" xmlns:graph="&ns_graphs;"
	 xmlns="http://www.w3.org/2000/svg" xmlns:xlink="http://www.w3.org/1999/xlink" x="0px" y="0px" width="354.49px"
	 height="396.611px" viewBox="0 0 354.49 396.611" enable-background="new 0 0 354.49 396.611" xml:space="preserve">
<metadata>
	<sfw  xmlns="&ns_sfw;">
		<slices></slices>
		<sliceSourceBounds  x="-6911" y="-8912" bottomLeftOrigin="true" height="16383" width="16383"></sliceSourceBounds>
	</sfw>
</metadata>
<g id="Background" display="none">
	<radialGradient id="SVGID_1_" cx="176.3584" cy="451.6743" r="1113.6583" gradientUnits="userSpaceOnUse">
		<stop  offset="0" style="stop-color:#006594"/>
		<stop  offset="0.5393" style="stop-color:#000B2A"/>
		<stop  offset="1" style="stop-color:#00232A"/>
	</radialGradient>
	<rect x="-1103.642" y="-465.969" display="inline" fill="url(#SVGID_1_)" width="2560" height="1835.287"/>
</g>
<g id="Layer_1" display="none">
	<linearGradient id="SVGID_2_" gradientUnits="userSpaceOnUse" x1="95.207" y1="32.6753" x2="95.207" y2="386.0717">
		<stop  offset="0.3562" style="stop-color:#8ABA6F"/>
		<stop  offset="1" style="stop-color:#008CBF"/>
	</linearGradient>
	<path display="inline" fill="url(#SVGID_2_)" d="M272.452,314.765c-4.131,38.537-35.656,72.457-74.201,72.457H-11.965
		c-38.539,0-70.072-33.92-70.072-72.457V104.547c0-38.54,31.533-72.405,70.072-72.405h210.216c38.545,0,70.07,33.865,74.201,72.405
		V314.765z"/>
	<g display="inline">
		<g>
			<linearGradient id="SVGID_3_" gradientUnits="userSpaceOnUse" x1="-13.1016" y1="216.8618" x2="245.4893" y2="216.8618">
				<stop  offset="0" style="stop-color:#FFFFFF"/>
				<stop  offset="1" style="stop-color:#E6E5E5"/>
			</linearGradient>
			<path fill="url(#SVGID_3_)" d="M193.062,321.444H-0.745c-6.825,0-12.356-5.611-12.356-12.526V124.806
				c0-6.917,5.531-12.526,12.356-12.526h233.879c6.826,0,12.355,5.608,12.355,12.526v143.006L193.062,321.444z"/>
		</g>
		<polygon fill="#E8E8E8" points="232.114,280.86 209.075,305.912 0.385,305.912 0.385,128.46 232.114,128.46 		"/>
		<polygon fill="#F4F4F4" points="193.577,321.444 193.577,267.812 246.005,267.812 		"/>
		<g>
			<path fill="#C9C9C9" d="M65.585,308.501h16.269v-63.683c5.26-1.057,8.123-2.728,10.542-4.899
				c3.894,2.704,8.615,4.301,13.715,4.301c13.301,0,24.081-10.787,24.081-24.084c0-8.566-4.484-16.066-11.219-20.334
				c0.818-2.419,1.279-5.005,1.279-7.7c0-11.882-8.613-21.729-19.927-23.7c-0.971-12.409-11.326-22.179-23.984-22.179
				c-12.552,0-22.848,9.606-23.97,21.866C39.703,168.791,29.64,179.257,29.64,192.1c0,2.697,0.462,5.283,1.281,7.7
				C24.187,204.07,19.7,211.57,19.7,220.131c0,13.302,10.782,24.086,24.083,24.086c5.796,0,11.115-2.055,15.271-5.468
				c1.968,2.033,4.304,3.695,8.988,4.938v64.814 M195.114,245.452c-2.187-1.349-4.34-5.498-6.449-5.592
				c-1.129-0.052-4.055-0.219-4.055-0.219c-4.671-9.494-9.986-11.774-11.99-12.515c-2-0.74,1.658,6.622,1.658,6.622
				c-1.137-1.848-9.452-4.633-11.317-3.555c-1.866,1.08,2.665,5.634,4.186,6.82c1.78,1.386,6.72,2.839,8.097,4.004
				c1.375,1.16,0.822,3.315,0.822,3.315c-0.252,1.887-0.351,2.065-0.351,2.065c-0.683,0.269-0.683,0.269-0.683,0.269
				c-0.934-0.534-7.558-10.367-24.419-5.794c-14.052,3.81-12.413,17.026-12.188,19.309c-0.629-0.854-1.863-0.16-1.863-0.16
				c-1.582,0.82-0.879,2.209-0.879,2.209c-0.553-0.285-1.331-2.344-1.331-2.344c-1.937,2.565-2.324,4.091-0.867,7.176
				c1.446,3.066,5.68,4.053,8.767,1.254c0,0,0.999,3.699,3.217,4.02c0.763,0.11,1.339,0.982,1.223,1.769
				c-0.12,0.788-0.808,2.005-0.049,2.715c1.278,1.203,2.851,1.858,7.956,2.495c0.575,0.072,2.059,0.121,3.721,0.228
				c0.123,0.665,0.224,1.191,0.236,1.437c0.049,0.933,7.496,3.016,6.96,1.8c-0.674-1.53-1.342-2.319-1.833-2.963
				c0.473,0.005,0.858,0.004,1.094-0.019c1.15-0.113,1.951-2.189,0.338-2.81c-0.381-0.146-1.107-0.348-1.992-0.567
				c0.025-0.104,0.044-0.198,0.074-0.311c0.305-1.135,2.398-2.775,5.1-4.897c12.928,0.479,21.029-10.807,18.716-16.217
				c-1.081-2.525-0.644-2.466-0.644-2.466s6.158-0.452,7.203-1.671C194.632,249.617,196.961,246.593,195.114,245.452z
				 M160.504,270.996c-0.57,0.968-1.753,1.05-2.499,2.662c-0.174,0.373-0.234,0.918-0.233,1.545
				c-1.178-0.251-2.016-0.425-2.016-0.425s-2.903-0.735-1.798-4.114c0.376-1.156,3.717-3.205,5.342-2.559
				c0.312,0.319,0.654,0.71,0.919,1.121c0.071,0.148,0.159,0.315,0.259,0.494C160.673,270.17,160.729,270.615,160.504,270.996z"/>
		</g>
	</g>
</g>
<g id="squares">
	<g>
		<g>
			<linearGradient id="SVGID_4_" gradientUnits="userSpaceOnUse" x1="299.0127" y1="5.9741" x2="299.0127" y2="114.2254">
				<stop  offset="0" style="stop-color:#D0937A"/>
				<stop  offset="0.5" style="stop-color:#B25538"/>
				<stop  offset="1" style="stop-color:#A2311A"/>
			</linearGradient>
			<path fill="url(#SVGID_4_)" d="M353.825,92.537c-1.278,11.918-11.027,22.406-22.947,22.406h-65.009
				c-11.918,0-21.669-10.488-21.669-22.406v-65.01c0-11.917,9.751-22.391,21.669-22.391h65.009c11.92,0,21.669,10.474,22.947,22.391
				V92.537z"/>
			<linearGradient id="SVGID_5_" gradientUnits="userSpaceOnUse" x1="178.3271" y1="5.9741" x2="178.3271" y2="114.2254">
				<stop  offset="0" style="stop-color:#D0937A"/>
				<stop  offset="0.5" style="stop-color:#B25538"/>
				<stop  offset="1" style="stop-color:#A2311A"/>
			</linearGradient>
			<path fill="url(#SVGID_5_)" d="M233.14,92.537c-1.277,11.918-11.026,22.406-22.945,22.406h-65.01
				c-11.918,0-21.669-10.488-21.669-22.406v-65.01c0-11.917,9.751-22.391,21.669-22.391h65.01c11.919,0,21.668,10.474,22.945,22.391
				V92.537z"/>
			<linearGradient id="SVGID_6_" gradientUnits="userSpaceOnUse" x1="57.6431" y1="5.9741" x2="57.6431" y2="114.2254">
				<stop  offset="0" style="stop-color:#D0937A"/>
				<stop  offset="0.5" style="stop-color:#B25538"/>
				<stop  offset="1" style="stop-color:#A2311A"/>
			</linearGradient>
			<path fill="url(#SVGID_6_)" d="M112.456,92.537c-1.278,11.918-11.027,22.406-22.946,22.406H24.5
				c-11.918,0-21.669-10.488-21.669-22.406v-65.01c0-11.917,9.751-22.391,21.669-22.391h65.009
				c11.919,0,21.668,10.474,22.946,22.391V92.537z"/>
			<linearGradient id="SVGID_7_" gradientUnits="userSpaceOnUse" x1="299.0127" y1="124.2866" x2="299.0127" y2="232.5379">
				<stop  offset="0" style="stop-color:#D0937A"/>
				<stop  offset="0.5" style="stop-color:#B25538"/>
				<stop  offset="1" style="stop-color:#A2311A"/>
			</linearGradient>
			<path fill="url(#SVGID_7_)" d="M353.825,210.849c-1.278,11.918-11.027,22.406-22.947,22.406h-65.009
				c-11.918,0-21.669-10.488-21.669-22.406v-65.01c0-11.917,9.751-22.391,21.669-22.391h65.009c11.92,0,21.669,10.474,22.947,22.391
				V210.849z"/>
			<linearGradient id="SVGID_8_" gradientUnits="userSpaceOnUse" x1="178.3271" y1="124.2866" x2="178.3271" y2="232.5379">
				<stop  offset="0" style="stop-color:#D0937A"/>
				<stop  offset="0.5" style="stop-color:#B25538"/>
				<stop  offset="1" style="stop-color:#A2311A"/>
			</linearGradient>
			<path fill="url(#SVGID_8_)" d="M233.14,210.849c-1.277,11.918-11.026,22.406-22.945,22.406h-65.01
				c-11.918,0-21.669-10.488-21.669-22.406v-65.01c0-11.917,9.751-22.391,21.669-22.391h65.01c11.919,0,21.668,10.474,22.945,22.391
				V210.849z"/>
			<linearGradient id="SVGID_9_" gradientUnits="userSpaceOnUse" x1="57.6431" y1="124.2866" x2="57.6431" y2="232.5379">
				<stop  offset="0" style="stop-color:#D0937A"/>
				<stop  offset="0.5" style="stop-color:#B25538"/>
				<stop  offset="1" style="stop-color:#A2311A"/>
			</linearGradient>
			<path fill="url(#SVGID_9_)" d="M112.456,210.849c-1.278,11.918-11.027,22.406-22.946,22.406H24.5
				c-11.918,0-21.669-10.488-21.669-22.406v-65.01c0-11.917,9.751-22.391,21.669-22.391h65.009
				c11.919,0,21.668,10.474,22.946,22.391V210.849z"/>
			<linearGradient id="SVGID_10_" gradientUnits="userSpaceOnUse" x1="299.0127" y1="242.5991" x2="299.0127" y2="350.8509">
				<stop  offset="0" style="stop-color:#D0937A"/>
				<stop  offset="0.5" style="stop-color:#B25538"/>
				<stop  offset="1" style="stop-color:#A2311A"/>
			</linearGradient>
			<path fill="url(#SVGID_10_)" d="M353.825,329.162c-1.278,11.918-11.027,22.406-22.947,22.406h-65.009
				c-11.918,0-21.669-10.488-21.669-22.406v-65.01c0-11.917,9.751-22.391,21.669-22.391h65.009c11.92,0,21.669,10.474,22.947,22.391
				V329.162z"/>
			<linearGradient id="SVGID_11_" gradientUnits="userSpaceOnUse" x1="178.3271" y1="242.5991" x2="178.3271" y2="350.8509">
				<stop  offset="0" style="stop-color:#D0937A"/>
				<stop  offset="0.5" style="stop-color:#B25538"/>
				<stop  offset="1" style="stop-color:#A2311A"/>
			</linearGradient>
			<path fill="url(#SVGID_11_)" d="M233.14,329.162c-1.277,11.918-11.026,22.406-22.945,22.406h-65.01
				c-11.918,0-21.669-10.488-21.669-22.406v-65.01c0-11.917,9.751-22.391,21.669-22.391h65.01c11.919,0,21.668,10.474,22.945,22.391
				V329.162z"/>
			<linearGradient id="SVGID_12_" gradientUnits="userSpaceOnUse" x1="57.6431" y1="242.5991" x2="57.6431" y2="350.8509">
				<stop  offset="0" style="stop-color:#D0937A"/>
				<stop  offset="0.5" style="stop-color:#B25538"/>
				<stop  offset="1" style="stop-color:#A2311A"/>
			</linearGradient>
			<path fill="url(#SVGID_12_)" d="M112.456,329.162c-1.278,11.918-11.027,22.406-22.946,22.406H24.5
				c-11.918,0-21.669-10.488-21.669-22.406v-65.01c0-11.917,9.751-22.391,21.669-22.391h65.009
				c11.919,0,21.668,10.474,22.946,22.391V329.162z"/>
		</g>
		<g>
			<linearGradient id="SVGID_13_" gradientUnits="userSpaceOnUse" x1="52.1201" y1="13.7251" x2="283.0488" y2="317.1774">
				<stop  offset="0" style="stop-color:#FFFFFF"/>
				<stop  offset="1" style="stop-color:#E6E5E5"/>
			</linearGradient>
			<path fill="url(#SVGID_13_)" d="M217.423,115.456c5.451-1.685,9.512-5.053,12.178-10.104c2.664-5.055,3.158-10.306,1.473-15.759
				c-1.684-5.447-5.055-9.503-10.105-12.172c-5.055-2.667-10.307-3.162-15.758-1.476c-5.451,1.685-9.508,5.057-12.176,10.11
				c-2.664,5.054-3.155,10.306-1.473,15.75c1.686,5.453,5.055,9.511,10.107,12.181C206.722,116.651,211.972,117.14,217.423,115.456z
				 M179.437,307.593c-5.443,1.686-10.668,1.207-15.652-1.43l-99.354-52.295c-5.037-2.832-8.391-6.926-10.044-12.279
				c-1.687-5.449-1.209-10.662,1.41-15.65l76.392-144.491c2.601-5.086,6.769-10.012,12.514-14.771
				c5.739-4.759,11.337-7.983,16.788-9.668l64.197-19.846c5.352-1.653,10.586-1.125,15.701,1.575
				c5.111,2.707,8.502,6.729,10.158,12.075l19.844,64.195c1.686,5.452,2.182,11.891,1.498,19.322
				c-0.691,7.425-2.393,13.693-5.096,18.81l-76.074,144.389c-2.829,5.055-6.924,8.41-12.273,10.064H179.437z"/>
		</g>
	</g>
	<g>
		<text transform="matrix(0.8942 0 0 1 94.8589 384.7593)" font-family="'HelveticaNeue'" font-size="36">Tag Counts</text>
	</g>
</g>
<g id="guides">
</g>
<g id="circles" display="none">
</g>
</svg>
