<?xml version="1.0" encoding="utf-8"?>
<!-- Generator: Adobe Illustrator 16.0.0, SVG Export Plug-In . SVG Version: 6.00 Build 0)  -->
<!DOCTYPE svg PUBLIC "-//W3C//DTD SVG 1.1//EN" "http://www.w3.org/Graphics/SVG/1.1/DTD/svg11.dtd" [
	<!ENTITY ns_extend "http://ns.adobe.com/Extensibility/1.0/">
	<!ENTITY ns_ai "http://ns.adobe.com/AdobeIllustrator/10.0/">
	<!ENTITY ns_graphs "http://ns.adobe.com/Graphs/1.0/">
	<!ENTITY ns_vars "http://ns.adobe.com/Variables/1.0/">
	<!ENTITY ns_imrep "http://ns.adobe.com/ImageReplacement/1.0/">
	<!ENTITY ns_sfw "http://ns.adobe.com/SaveForWeb/1.0/">
	<!ENTITY ns_custom "http://ns.adobe.com/GenericCustomNamespace/1.0/">
	<!ENTITY ns_adobe_xpath "http://ns.adobe.com/XPath/1.0/">
]>
<svg version="1.1" xmlns:x="&ns_extend;" xmlns:i="&ns_ai;" xmlns:graph="&ns_graphs;"
	 xmlns="http://www.w3.org/2000/svg" xmlns:xlink="http://www.w3.org/1999/xlink" x="0px" y="0px" width="354.49px"
	 height="396.609px" viewBox="0 0 354.49 396.609" enable-background="new 0 0 354.49 396.609" xml:space="preserve">
<metadata>
	<sfw  xmlns="&ns_sfw;">
		<slices></slices>
		<sliceSourceBounds  x="-6911" y="-8912" bottomLeftOrigin="true" height="16383" width="16383"></sliceSourceBounds>
	</sfw>
</metadata>
<g id="Background" display="none">
	<radialGradient id="SVGID_1_" cx="-834.1416" cy="-411.4873" r="1113.6583" gradientUnits="userSpaceOnUse">
		<stop  offset="0" style="stop-color:#006594"/>
		<stop  offset="0.5393" style="stop-color:#000B2A"/>
		<stop  offset="1" style="stop-color:#00232A"/>
	</radialGradient>
	<rect x="-2114.142" y="-1329.131" display="inline" fill="url(#SVGID_1_)" width="2560" height="1835.287"/>
</g>
<g id="Layer_1" display="none">
</g>
<g id="squares">
	<g>
		<g>
			<linearGradient id="SVGID_2_" gradientUnits="userSpaceOnUse" x1="297.418" y1="2.6592" x2="297.418" y2="110.9104">
				<stop  offset="0" style="stop-color:#89A3B1"/>
				<stop  offset="0.5393" style="stop-color:#507282"/>
				<stop  offset="1" style="stop-color:#1E4554"/>
			</linearGradient>
			<path fill="url(#SVGID_2_)" d="M352.23,89.222c-1.278,11.918-11.027,22.406-22.947,22.406h-65.009
				c-11.918,0-21.669-10.488-21.669-22.406v-65.01c0-11.917,9.751-22.391,21.669-22.391h65.009c11.92,0,21.669,10.474,22.947,22.391
				V89.222z"/>
			<linearGradient id="SVGID_3_" gradientUnits="userSpaceOnUse" x1="176.7324" y1="2.6592" x2="176.7324" y2="110.9104">
				<stop  offset="0" style="stop-color:#89A3B1"/>
				<stop  offset="0.5393" style="stop-color:#507282"/>
				<stop  offset="1" style="stop-color:#1E4554"/>
			</linearGradient>
			<path fill="url(#SVGID_3_)" d="M231.545,89.222c-1.277,11.918-11.026,22.406-22.945,22.406h-65.01
				c-11.918,0-21.67-10.488-21.67-22.406v-65.01c0-11.917,9.752-22.391,21.67-22.391h65.01c11.919,0,21.668,10.474,22.945,22.391
				V89.222z"/>
			<linearGradient id="SVGID_4_" gradientUnits="userSpaceOnUse" x1="56.0488" y1="2.6592" x2="56.0488" y2="110.9104">
				<stop  offset="0" style="stop-color:#89A3B1"/>
				<stop  offset="0.5393" style="stop-color:#507282"/>
				<stop  offset="1" style="stop-color:#1E4554"/>
			</linearGradient>
			<path fill="url(#SVGID_4_)" d="M110.861,89.222c-1.278,11.918-11.027,22.406-22.947,22.406H22.905
				c-11.918,0-21.669-10.488-21.669-22.406v-65.01c0-11.917,9.751-22.391,21.669-22.391h65.009c11.92,0,21.669,10.474,22.947,22.391
				V89.222z"/>
			<linearGradient id="SVGID_5_" gradientUnits="userSpaceOnUse" x1="297.418" y1="120.9717" x2="297.418" y2="229.2229">
				<stop  offset="0" style="stop-color:#89A3B1"/>
				<stop  offset="0.5393" style="stop-color:#507282"/>
				<stop  offset="1" style="stop-color:#1E4554"/>
			</linearGradient>
			<path fill="url(#SVGID_5_)" d="M352.23,207.534c-1.278,11.918-11.027,22.406-22.947,22.406h-65.009
				c-11.918,0-21.669-10.488-21.669-22.406v-65.01c0-11.917,9.751-22.391,21.669-22.391h65.009c11.92,0,21.669,10.474,22.947,22.391
				V207.534z"/>
			<linearGradient id="SVGID_6_" gradientUnits="userSpaceOnUse" x1="176.7324" y1="120.9717" x2="176.7324" y2="229.2229">
				<stop  offset="0" style="stop-color:#89A3B1"/>
				<stop  offset="0.5393" style="stop-color:#507282"/>
				<stop  offset="1" style="stop-color:#1E4554"/>
			</linearGradient>
			<path fill="url(#SVGID_6_)" d="M231.545,207.534c-1.277,11.918-11.026,22.406-22.945,22.406h-65.01
				c-11.918,0-21.67-10.488-21.67-22.406v-65.01c0-11.917,9.752-22.391,21.67-22.391h65.01c11.919,0,21.668,10.474,22.945,22.391
				V207.534z"/>
			<linearGradient id="SVGID_7_" gradientUnits="userSpaceOnUse" x1="56.0488" y1="120.9717" x2="56.0488" y2="229.2229">
				<stop  offset="0" style="stop-color:#89A3B1"/>
				<stop  offset="0.5393" style="stop-color:#507282"/>
				<stop  offset="1" style="stop-color:#1E4554"/>
			</linearGradient>
			<path fill="url(#SVGID_7_)" d="M110.861,207.534c-1.278,11.918-11.027,22.406-22.947,22.406H22.905
				c-11.918,0-21.669-10.488-21.669-22.406v-65.01c0-11.917,9.751-22.391,21.669-22.391h65.009c11.92,0,21.669,10.474,22.947,22.391
				V207.534z"/>
			<linearGradient id="SVGID_8_" gradientUnits="userSpaceOnUse" x1="297.418" y1="239.2842" x2="297.418" y2="347.5354">
				<stop  offset="0" style="stop-color:#89A3B1"/>
				<stop  offset="0.5393" style="stop-color:#507282"/>
				<stop  offset="1" style="stop-color:#1E4554"/>
			</linearGradient>
			<path fill="url(#SVGID_8_)" d="M352.23,325.847c-1.278,11.918-11.027,22.406-22.947,22.406h-65.009
				c-11.918,0-21.669-10.488-21.669-22.406v-65.01c0-11.917,9.751-22.391,21.669-22.391h65.009c11.92,0,21.669,10.474,22.947,22.391
				V325.847z"/>
			<linearGradient id="SVGID_9_" gradientUnits="userSpaceOnUse" x1="176.7324" y1="239.2842" x2="176.7324" y2="347.5354">
				<stop  offset="0" style="stop-color:#89A3B1"/>
				<stop  offset="0.5393" style="stop-color:#507282"/>
				<stop  offset="1" style="stop-color:#1E4554"/>
			</linearGradient>
			<path fill="url(#SVGID_9_)" d="M231.545,325.847c-1.277,11.918-11.026,22.406-22.945,22.406h-65.01
				c-11.918,0-21.67-10.488-21.67-22.406v-65.01c0-11.917,9.752-22.391,21.67-22.391h65.01c11.919,0,21.668,10.474,22.945,22.391
				V325.847z"/>
			<linearGradient id="SVGID_10_" gradientUnits="userSpaceOnUse" x1="56.0488" y1="239.2842" x2="56.0488" y2="347.5354">
				<stop  offset="0" style="stop-color:#89A3B1"/>
				<stop  offset="0.5393" style="stop-color:#507282"/>
				<stop  offset="1" style="stop-color:#1E4554"/>
			</linearGradient>
			<path fill="url(#SVGID_10_)" d="M110.861,325.847c-1.278,11.918-11.027,22.406-22.947,22.406H22.905
				c-11.918,0-21.669-10.488-21.669-22.406v-65.01c0-11.917,9.751-22.391,21.669-22.391h65.009c11.92,0,21.669,10.474,22.947,22.391
				V325.847z"/>
		</g>
		<g>
			<g>
				<linearGradient id="SVGID_11_" gradientUnits="userSpaceOnUse" x1="106.6875" y1="93.8809" x2="204.0158" y2="246.9366">
					<stop  offset="0" style="stop-color:#FFFFFF"/>
					<stop  offset="1" style="stop-color:#E6E5E5"/>
				</linearGradient>
				<path fill="url(#SVGID_11_)" d="M277.477,175.957c0.005-0.986,0.005-1.958,0.005-2.916l-0.121,0.008
					c-1.436-20.731-16.867-37.553-36.908-41.26c0.193-1.754,0.264-3.543,0.264-5.338c0-31.25-25.32-56.562-56.561-56.562
					c-24.251,0-44.87,15.276-52.922,36.735c-5.32-5.848-12.921-9.585-21.459-9.585c-16.094,0-29.129,13.032-29.129,29.129
					c0,1.905,0.193,3.748,0.558,5.551c-21.468,3.539-37.889,22.051-37.889,44.49c0,5.529,0.992,10.822,2.802,15.718
					c3.721,24.986,34.631,45.127,61.86,45.127c11.043,0,21.276-3.214,29.737-8.673c6.074,6.409,14.899,10.476,24.757,10.476
					c10.511,0,19.866-4.615,25.941-11.782c5.37,3.515,11.887,5.587,18.927,5.587c9.047,0,17.235-3.412,23.217-8.927
					c3.136,0.925,12.699,1.443,15.939,0.234c28.883-10.772,30.844-30.778,30.977-47.36c0.002-0.134,0.01-0.267,0.01-0.399
					C277.481,176.123,277.477,176.04,277.477,175.957z"/>
				<g>
					<g>
						<path fill="#C9C9C9" d="M93.36,156.445c0.359,0.773,0.836,1.4,1.434,1.88c0.594,0.481,1.293,0.836,2.096,1.068
							c0.804,0.231,1.635,0.35,2.494,0.35c0.58,0,1.204-0.055,1.867-0.163c0.666-0.109,1.289-0.318,1.87-0.627
							c0.581-0.311,1.065-0.736,1.454-1.277c0.387-0.541,0.58-1.23,0.58-2.067c0-0.898-0.254-1.626-0.768-2.185
							c-0.512-0.556-1.184-1.021-2.014-1.393c-0.832-0.371-1.774-0.698-2.826-0.976c-1.053-0.278-2.117-0.588-3.197-0.93
							c-1.107-0.31-2.188-0.688-3.24-1.138c-1.053-0.448-1.993-1.028-2.824-1.742c-0.831-0.712-1.502-1.604-2.016-2.671
							c-0.513-1.067-0.767-2.36-0.767-3.879c0-1.703,0.323-3.182,0.976-4.438c0.65-1.253,1.501-2.299,2.555-3.134
							c1.053-0.837,2.242-1.456,3.572-1.859c1.329-0.402,2.658-0.604,3.987-0.604c1.55,0,3.038,0.193,4.466,0.58
							c1.426,0.389,2.692,1.016,3.8,1.883c1.108,0.867,1.987,1.973,2.638,3.322c0.65,1.347,0.977,2.979,0.977,4.899h-6.313
							c-0.056-0.991-0.242-1.812-0.562-2.462c-0.318-0.65-0.74-1.161-1.267-1.534c-0.527-0.37-1.13-0.634-1.808-0.788
							s-1.419-0.232-2.223-0.232c-0.525,0-1.051,0.062-1.576,0.186c-0.527,0.123-1.006,0.341-1.434,0.65
							c-0.43,0.31-0.783,0.696-1.061,1.161c-0.276,0.465-0.415,1.053-0.415,1.766c0,0.649,0.11,1.177,0.332,1.579
							c0.222,0.404,0.657,0.774,1.309,1.114c0.651,0.343,1.552,0.682,2.701,1.023c1.147,0.341,2.649,0.774,4.507,1.3
							c0.553,0.123,1.322,0.348,2.305,0.675c0.982,0.325,1.959,0.843,2.929,1.556s1.808,1.664,2.513,2.855
							c0.705,1.194,1.06,2.719,1.06,4.576c0,1.52-0.263,2.928-0.79,4.229c-0.525,1.301-1.309,2.423-2.347,3.368
							c-1.038,0.944-2.326,1.679-3.862,2.206c-1.537,0.526-3.317,0.789-5.338,0.789c-1.634,0-3.219-0.224-4.756-0.673
							c-1.537-0.448-2.895-1.153-4.07-2.114c-1.178-0.96-2.113-2.184-2.804-3.67c-0.693-1.485-1.026-3.252-0.999-5.296h6.314
							C92.819,154.725,92.999,155.67,93.36,156.445z"/>
						<path fill="#C9C9C9" d="M120.317,140.604v3.066h0.082c0.721-1.301,1.635-2.246,2.741-2.835
							c1.108-0.587,2.327-0.881,3.655-0.881c1.689,0,3.144,0.355,4.363,1.067c1.217,0.712,2.229,1.657,3.031,2.834
							c0.804,1.178,1.398,2.547,1.787,4.11c0.387,1.565,0.58,3.198,0.58,4.902c0,1.609-0.193,3.157-0.58,4.645
							c-0.389,1.487-0.977,2.802-1.767,3.949c-0.789,1.146-1.771,2.06-2.948,2.74c-1.178,0.682-2.555,1.022-4.133,1.022
							c-1.33,0-2.555-0.303-3.677-0.907c-1.122-0.603-2.042-1.492-2.762-2.67h-0.085v11.381h-5.897v-32.425H120.317z
							 M127.981,159.648c0.649-0.433,1.176-0.997,1.578-1.695c0.4-0.697,0.686-1.508,0.852-2.438s0.248-1.873,0.248-2.834
							c0-0.96-0.09-1.904-0.269-2.834c-0.182-0.93-0.478-1.756-0.894-2.485c-0.415-0.727-0.949-1.315-1.601-1.766
							c-0.649-0.448-1.446-0.673-2.387-0.673c-0.972,0-1.78,0.225-2.43,0.673c-0.651,0.45-1.179,1.03-1.579,1.743
							c-0.402,0.713-0.686,1.532-0.852,2.461c-0.167,0.93-0.25,1.89-0.25,2.881c0,0.961,0.09,1.904,0.271,2.834
							c0.18,0.93,0.47,1.74,0.871,2.438c0.402,0.698,0.936,1.263,1.599,1.695c0.665,0.436,1.469,0.652,2.409,0.652
							C126.519,160.301,127.329,160.084,127.981,159.648z"/>
						<path fill="#C9C9C9" d="M146.403,158.861c0.885,0.96,2.159,1.439,3.821,1.439c1.19,0,2.216-0.334,3.074-1.001
							c0.858-0.664,1.384-1.369,1.578-2.112h5.192c-0.832,2.881-2.105,4.94-3.82,6.179c-1.719,1.24-3.797,1.858-6.232,1.858
							c-1.689,0-3.213-0.303-4.568-0.907c-1.357-0.603-2.508-1.463-3.448-2.577c-0.942-1.116-1.669-2.447-2.181-3.995
							s-0.768-3.252-0.768-5.11c0-1.795,0.262-3.467,0.789-5.018c0.525-1.547,1.272-2.887,2.244-4.017
							c0.968-1.131,2.123-2.022,3.467-2.672c1.343-0.65,2.831-0.975,4.465-0.975c1.828,0,3.42,0.394,4.775,1.185
							c1.358,0.788,2.474,1.85,3.346,3.181c0.871,1.332,1.502,2.85,1.89,4.553c0.387,1.704,0.524,3.484,0.415,5.343h-15.494
							C145.032,156.353,145.517,157.899,146.403,158.861z M153.069,146.225c-0.705-0.866-1.778-1.301-3.219-1.301
							c-0.941,0-1.724,0.178-2.348,0.533c-0.622,0.358-1.12,0.798-1.495,1.324c-0.373,0.526-0.638,1.085-0.788,1.673
							c-0.153,0.589-0.242,1.114-0.271,1.579h9.596C154.269,148.361,153.776,147.092,153.069,146.225z"/>
						<path fill="#C9C9C9" d="M174.19,144.924c-0.941,0-1.73,0.239-2.367,0.719c-0.637,0.481-1.156,1.102-1.559,1.858
							c-0.4,0.76-0.685,1.597-0.851,2.509c-0.166,0.914-0.249,1.82-0.249,2.72c0,0.865,0.083,1.748,0.249,2.646
							s0.437,1.712,0.811,2.438c0.373,0.729,0.878,1.324,1.516,1.788c0.636,0.466,1.412,0.698,2.326,0.698
							c1.412,0,2.499-0.441,3.261-1.324c0.762-0.884,1.24-2.068,1.433-3.554h5.691c-0.389,3.189-1.495,5.622-3.323,7.294
							s-4.168,2.508-7.02,2.508c-1.607,0-3.082-0.303-4.425-0.907c-1.343-0.603-2.485-1.444-3.427-2.53
							c-0.941-1.084-1.676-2.376-2.201-3.879c-0.526-1.502-0.789-3.152-0.789-4.947c0-1.86,0.242-3.584,0.727-5.181
							c0.484-1.595,1.197-2.973,2.139-4.134s2.092-2.068,3.448-2.718c1.356-0.65,2.909-0.975,4.653-0.975
							c1.272,0,2.498,0.185,3.676,0.557c1.176,0.37,2.229,0.937,3.156,1.695c0.928,0.76,1.684,1.703,2.264,2.834
							c0.582,1.13,0.914,2.47,0.998,4.017h-5.774C178.165,146.302,176.711,144.924,174.19,144.924z"/>
						<path fill="#C9C9C9" d="M187.94,136.888v-5.437h5.896v5.437H187.94z M193.837,140.604v24.018h-5.896v-24.018H193.837z"/>
						<path fill="#C9C9C9" d="M204.806,158.861c0.885,0.96,2.16,1.439,3.82,1.439c1.189,0,2.215-0.334,3.073-1.001
							c0.858-0.664,1.385-1.369,1.579-2.112h5.191c-0.83,2.881-2.104,4.94-3.82,6.179c-1.718,1.24-3.795,1.858-6.231,1.858
							c-1.688,0-3.212-0.303-4.569-0.907c-1.355-0.603-2.507-1.463-3.447-2.577c-0.941-1.116-1.669-2.447-2.18-3.995
							c-0.514-1.548-0.77-3.252-0.77-5.11c0-1.795,0.263-3.467,0.79-5.018c0.525-1.547,1.273-2.887,2.243-4.017
							c0.969-1.131,2.124-2.022,3.467-2.672c1.344-0.65,2.832-0.975,4.466-0.975c1.828,0,3.42,0.394,4.776,1.185
							c1.357,0.788,2.473,1.85,3.344,3.181c0.873,1.332,1.502,2.85,1.891,4.553c0.388,1.704,0.525,3.484,0.415,5.343h-15.493
							C203.434,156.353,203.919,157.899,204.806,158.861z M211.472,146.225c-0.707-0.866-1.78-1.301-3.22-1.301
							c-0.942,0-1.724,0.178-2.347,0.533c-0.623,0.358-1.121,0.798-1.496,1.324c-0.373,0.526-0.637,1.085-0.787,1.673
							c-0.154,0.589-0.244,1.114-0.271,1.579h9.595C212.669,148.361,212.177,147.092,211.472,146.225z"/>
						<path fill="#C9C9C9" d="M227.296,158.651c0.264,0.51,0.604,0.929,1.018,1.254c0.416,0.325,0.894,0.563,1.434,0.719
							c0.541,0.157,1.101,0.234,1.683,0.234c0.415,0,0.851-0.055,1.309-0.164c0.456-0.109,0.872-0.278,1.245-0.51
							c0.374-0.232,0.686-0.542,0.936-0.93c0.249-0.387,0.373-0.874,0.373-1.463c0-0.991-0.588-1.733-1.766-2.23
							c-1.178-0.494-2.818-0.991-4.922-1.485c-0.859-0.217-1.695-0.472-2.513-0.768c-0.817-0.294-1.544-0.682-2.181-1.161
							s-1.15-1.085-1.537-1.811c-0.389-0.729-0.582-1.619-0.582-2.672c0-1.549,0.271-2.818,0.811-3.81
							c0.539-0.992,1.252-1.772,2.139-2.346c0.887-0.572,1.885-0.977,2.992-1.208s2.243-0.348,3.406-0.348
							c1.162,0,2.29,0.123,3.384,0.37c1.095,0.248,2.071,0.667,2.929,1.254c0.857,0.59,1.571,1.371,2.14,2.347
							c0.567,0.976,0.906,2.207,1.017,3.692h-5.606c-0.083-1.27-0.513-2.127-1.288-2.577c-0.775-0.448-1.689-0.675-2.74-0.675
							c-0.334,0-0.693,0.023-1.082,0.07c-0.387,0.045-0.74,0.148-1.059,0.303s-0.588,0.379-0.81,0.673
							c-0.222,0.295-0.333,0.688-0.333,1.185c0,0.589,0.193,1.069,0.582,1.441c0.389,0.37,0.894,0.672,1.516,0.903
							c0.624,0.234,1.336,0.443,2.141,0.628c0.801,0.187,1.619,0.389,2.449,0.604c0.859,0.218,1.695,0.48,2.514,0.79
							c0.816,0.309,1.543,0.721,2.181,1.23c0.636,0.512,1.149,1.146,1.536,1.905c0.389,0.76,0.582,1.694,0.582,2.81
							c0,1.579-0.285,2.904-0.852,3.973c-0.567,1.067-1.307,1.928-2.221,2.579c-0.914,0.648-1.961,1.107-3.137,1.369
							c-1.178,0.264-2.375,0.396-3.595,0.396c-1.245,0-2.464-0.14-3.653-0.419c-1.192-0.277-2.252-0.742-3.18-1.393
							c-0.927-0.651-1.689-1.511-2.283-2.577c-0.596-1.069-0.922-2.409-0.977-4.021h5.607
							C226.901,157.528,227.033,158.14,227.296,158.651z"/>
					</g>
					<g>
						<path fill="#C9C9C9" d="M152.664,172.611v-3.861h15.302v3.861h-5.599v17.024h-4.106v-17.024H152.664z"/>
						<path fill="#C9C9C9" d="M170.843,174.512v2.808h0.051c0.175-0.466,0.411-0.899,0.707-1.301
							c0.297-0.399,0.637-0.741,1.021-1.024c0.383-0.281,0.793-0.501,1.229-0.657c0.436-0.155,0.889-0.234,1.36-0.234
							c0.243,0,0.515,0.049,0.811,0.146v3.862c-0.175-0.039-0.384-0.073-0.628-0.102c-0.245-0.03-0.479-0.046-0.707-0.046
							c-0.68,0-1.254,0.129-1.726,0.381c-0.47,0.254-0.851,0.6-1.138,1.039s-0.492,0.951-0.615,1.536
							c-0.121,0.584-0.184,1.219-0.184,1.899v6.817h-3.713v-15.124H170.843z"/>
						<path fill="#C9C9C9" d="M180.991,186.008c0.558,0.604,1.361,0.908,2.406,0.908c0.748,0,1.395-0.211,1.936-0.63
							s0.871-0.862,0.993-1.332h3.271c-0.523,1.814-1.326,3.111-2.406,3.892c-1.082,0.781-2.389,1.17-3.923,1.17
							c-1.065,0-2.024-0.19-2.879-0.57c-0.854-0.381-1.577-0.921-2.17-1.623c-0.594-0.702-1.052-1.54-1.374-2.517
							c-0.322-0.975-0.482-2.048-0.482-3.218c0-1.131,0.164-2.185,0.496-3.158c0.331-0.976,0.801-1.818,1.412-2.53
							c0.611-0.713,1.338-1.272,2.185-1.683c0.845-0.408,1.783-0.614,2.812-0.614c1.149,0,2.153,0.249,3.008,0.747
							c0.853,0.496,1.556,1.163,2.104,2.004c0.549,0.838,0.945,1.793,1.189,2.865c0.244,1.073,0.332,2.193,0.262,3.364h-9.754
							C180.128,184.429,180.435,185.403,180.991,186.008z M185.188,178.051c-0.444-0.546-1.119-0.819-2.026-0.819
							c-0.593,0-1.085,0.113-1.478,0.338c-0.393,0.224-0.706,0.502-0.941,0.833c-0.235,0.333-0.402,0.684-0.498,1.054
							c-0.096,0.371-0.152,0.702-0.168,0.994h6.041C185.943,179.397,185.634,178.598,185.188,178.051z"/>
						<path fill="#C9C9C9" d="M196.005,186.008c0.557,0.604,1.359,0.908,2.406,0.908c0.748,0,1.395-0.211,1.936-0.63
							c0.54-0.419,0.871-0.862,0.993-1.332h3.271c-0.523,1.814-1.326,3.111-2.406,3.892c-1.082,0.781-2.389,1.17-3.924,1.17
							c-1.064,0-2.023-0.19-2.878-0.57c-0.854-0.381-1.577-0.921-2.171-1.623c-0.593-0.702-1.049-1.54-1.373-2.517
							c-0.322-0.975-0.484-2.048-0.484-3.218c0-1.131,0.166-2.185,0.498-3.158c0.331-0.976,0.802-1.818,1.412-2.53
							c0.611-0.713,1.338-1.272,2.184-1.683c0.846-0.408,1.783-0.614,2.812-0.614c1.15,0,2.154,0.249,3.008,0.747
							c0.854,0.496,1.557,1.163,2.105,2.004c0.549,0.838,0.945,1.793,1.189,2.865c0.244,1.073,0.332,2.193,0.262,3.364h-9.756
							C195.141,184.429,195.446,185.403,196.005,186.008z M200.202,178.051c-0.445-0.546-1.119-0.819-2.026-0.819
							c-0.593,0-1.087,0.113-1.479,0.338c-0.392,0.224-0.706,0.502-0.94,0.833c-0.236,0.333-0.402,0.684-0.498,1.054
							c-0.096,0.371-0.152,0.702-0.17,0.994h6.042C200.956,179.397,200.647,178.598,200.202,178.051z"/>
					</g>
					<g>
						<path fill="#C9C9C9" d="M206.662,201.48c0-1.041,0.185-2.012,0.558-2.911c0.371-0.898,0.928-1.677,1.672-2.333
							c0.744-0.657,1.672-1.171,2.787-1.541c1.115-0.369,2.424-0.555,3.927-0.555c1.317,0,2.534,0.151,3.648,0.453
							c1.114,0.304,2.077,0.759,2.89,1.37c0.809,0.612,1.447,1.375,1.912,2.289s0.697,1.99,0.697,3.228v6.979h-18.091V201.48z
							 M221.407,201.73c0-0.514-0.093-1.012-0.278-1.496c-0.187-0.483-0.495-0.913-0.925-1.29c-0.432-0.378-0.992-0.681-1.686-0.907
							c-0.691-0.227-1.536-0.339-2.533-0.339c-0.912,0-1.736,0.078-2.471,0.236c-0.733,0.158-1.363,0.42-1.887,0.782
							s-0.926,0.843-1.204,1.439s-0.419,1.333-0.419,2.208v2.538h11.402V201.73z"/>
						<path fill="#C9C9C9" d="M213.578,191.582c-0.558-0.333-1.004-0.756-1.342-1.271c-0.339-0.513-0.579-1.09-0.722-1.732
							c-0.145-0.641-0.216-1.288-0.216-1.937c0-0.59,0.046-1.188,0.14-1.79c0.092-0.604,0.274-1.155,0.544-1.655
							c0.271-0.497,0.646-0.906,1.127-1.223s1.119-0.475,1.913-0.475h6.815c0.592,0,1.157-0.031,1.698-0.092
							c0.541-0.06,0.947-0.164,1.217-0.316v3.262c-0.203,0.062-0.41,0.11-0.623,0.148c-0.21,0.037-0.425,0.063-0.645,0.078
							c0.592,0.514,1.006,1.119,1.242,1.812c0.235,0.694,0.354,1.404,0.354,2.13c0,0.559-0.074,1.08-0.227,1.563
							c-0.152,0.484-0.389,0.906-0.711,1.268c-0.32,0.364-0.725,0.646-1.215,0.851s-1.074,0.305-1.748,0.305
							c-0.745,0-1.356-0.115-1.838-0.351c-0.482-0.233-0.865-0.535-1.153-0.906c-0.286-0.37-0.503-0.792-0.646-1.268
							c-0.145-0.477-0.257-0.957-0.343-1.438c-0.083-0.483-0.151-0.958-0.202-1.428c-0.051-0.468-0.127-0.884-0.229-1.246
							s-0.248-0.649-0.442-0.861c-0.194-0.211-0.478-0.31-0.85-0.294c-0.388,0-0.695,0.056-0.925,0.17
							c-0.227,0.113-0.404,0.264-0.532,0.453c-0.126,0.189-0.21,0.407-0.253,0.656c-0.042,0.25-0.063,0.518-0.063,0.806
							c0,0.633,0.152,1.132,0.456,1.494c0.305,0.362,0.812,0.575,1.521,0.635v3.217
							C214.837,192.102,214.136,191.914,213.578,191.582z M218.657,185.226c0.078,0.204,0.141,0.423,0.191,0.656
							c0.051,0.236,0.094,0.48,0.127,0.737c0.033,0.258,0.075,0.515,0.127,0.771c0.05,0.241,0.117,0.479,0.202,0.712
							c0.085,0.236,0.198,0.438,0.343,0.613c0.143,0.173,0.324,0.312,0.544,0.419c0.22,0.105,0.499,0.157,0.836,0.157
							c0.321,0,0.592-0.052,0.811-0.157c0.22-0.107,0.394-0.25,0.521-0.432c0.127-0.181,0.215-0.393,0.265-0.634
							c0.052-0.241,0.077-0.49,0.077-0.747c0-0.635-0.119-1.125-0.355-1.474c-0.236-0.347-0.519-0.604-0.85-0.77
							c-0.328-0.166-0.662-0.269-1-0.307c-0.337-0.038-0.607-0.056-0.811-0.056h-1.342
							C218.478,184.853,218.583,185.023,218.657,185.226z"/>
						<path fill="#C9C9C9" d="M228.653,174.681c0.455,0.62,0.686,1.48,0.686,2.583c0,0.332-0.014,0.658-0.039,0.983
							c-0.025,0.327-0.055,0.655-0.088,0.987h-2.966c0.034-0.303,0.067-0.612,0.102-0.929c0.034-0.317,0.043-0.635,0.025-0.951
							c-0.051-0.423-0.235-0.735-0.558-0.94c-0.32-0.205-0.675-0.307-1.062-0.307c-0.287,0-0.559,0.045-0.812,0.136l-12.287,4.102
							v-3.422l8.969-2.651v-0.044l-8.969-2.56v-3.331l14.72,4.894C227.437,173.578,228.198,174.062,228.653,174.681z"/>
					</g>
					<g>
						<path fill="#C9C9C9" d="M142.286,203.528h1.142v-0.042c-0.476-0.256-0.823-0.585-1.038-0.991
							c-0.217-0.406-0.324-0.821-0.324-1.245c0-0.539,0.082-0.981,0.246-1.325c0.163-0.344,0.391-0.616,0.68-0.814
							c0.291-0.197,0.645-0.337,1.061-0.417c0.418-0.081,0.879-0.12,1.385-0.12h5.037v2.009h-4.623
							c-0.677,0-1.181,0.095-1.513,0.284c-0.333,0.19-0.499,0.524-0.499,1.005c0,0.549,0.182,0.945,0.545,1.191
							c0.364,0.244,0.965,0.367,1.799,0.367h4.291v2.01h-8.188V203.528z"/>
						<path fill="#C9C9C9" d="M141.019,196.987h-1.852v-2.012h1.852V196.987z M142.286,194.976h8.188v2.012h-8.188V194.976z"/>
						<path fill="#C9C9C9" d="M151.075,186.473c0.423,0.081,0.814,0.253,1.18,0.517c0.365,0.265,0.674,0.647,0.927,1.148
							c0.253,0.499,0.38,1.171,0.38,2.01c0,0.358-0.051,0.726-0.15,1.099c-0.101,0.372-0.256,0.712-0.467,1.019
							s-0.484,0.562-0.815,0.764c-0.333,0.204-0.731,0.318-1.195,0.348v-1.996c0.422-0.094,0.715-0.278,0.878-0.552
							c0.164-0.273,0.246-0.591,0.246-0.949c0-0.566-0.191-0.979-0.57-1.238c-0.381-0.261-0.861-0.386-1.441-0.377h-1.078v0.03
							c0.435,0.216,0.753,0.525,0.959,0.927s0.31,0.822,0.31,1.268c0,0.547-0.108,1.02-0.325,1.415
							c-0.216,0.396-0.512,0.722-0.887,0.978c-0.373,0.255-0.812,0.441-1.314,0.56c-0.502,0.117-1.031,0.176-1.592,0.176
							c-0.527,0-1.037-0.068-1.527-0.204c-0.49-0.138-0.924-0.339-1.299-0.604c-0.375-0.262-0.674-0.592-0.896-0.983
							s-0.331-0.843-0.331-1.352c0-0.481,0.101-0.905,0.301-1.268c0.201-0.363,0.539-0.667,1.012-0.912v-0.03h-1.092v-1.91h7.664
							C150.278,186.354,150.653,186.393,151.075,186.473z M148.353,189.228c-0.127-0.216-0.297-0.397-0.509-0.537
							c-0.21-0.143-0.45-0.248-0.72-0.319s-0.551-0.107-0.847-0.107c-0.337,0-0.657,0.03-0.958,0.085
							c-0.301,0.058-0.568,0.152-0.8,0.283c-0.232,0.134-0.417,0.308-0.554,0.524c-0.139,0.219-0.207,0.492-0.207,0.821
							c0,0.284,0.063,0.526,0.189,0.73c0.127,0.202,0.3,0.373,0.516,0.508c0.217,0.138,0.465,0.237,0.744,0.299
							c0.279,0.061,0.572,0.091,0.879,0.091c0.296,0,0.588-0.025,0.879-0.077c0.29-0.052,0.553-0.143,0.783-0.269
							c0.232-0.129,0.424-0.295,0.57-0.503c0.148-0.207,0.222-0.467,0.222-0.779C148.541,189.695,148.479,189.443,148.353,189.228z"
							/>
						<path fill="#C9C9C9" d="M139.167,182.729h4.261v-0.043c-0.476-0.254-0.823-0.581-1.038-0.977
							c-0.217-0.397-0.324-0.784-0.324-1.162c0-0.538,0.082-0.979,0.246-1.323c0.163-0.345,0.391-0.615,0.68-0.814
							c0.291-0.198,0.645-0.338,1.061-0.418c0.418-0.078,0.879-0.119,1.385-0.119h5.037v2.011h-4.623
							c-0.677,0-1.181,0.095-1.513,0.283c-0.333,0.188-0.499,0.523-0.499,1.004c0,0.548,0.182,0.943,0.545,1.189
							c0.364,0.246,0.965,0.369,1.799,0.369h4.291v2.01h-11.307V182.729z"/>
						<path fill="#C9C9C9" d="M142.286,172.32h1.504v1.475h4.054c0.382,0,0.636-0.059,0.761-0.171
							c0.127-0.112,0.189-0.34,0.189-0.681c0-0.112-0.004-0.221-0.016-0.325c-0.01-0.104-0.025-0.201-0.047-0.298h1.742
							c0.031,0.17,0.053,0.359,0.062,0.568c0.011,0.207,0.016,0.409,0.016,0.607c0,0.312-0.023,0.608-0.07,0.886
							c-0.047,0.278-0.14,0.522-0.277,0.736c-0.137,0.212-0.332,0.38-0.586,0.503c-0.253,0.122-0.586,0.183-0.998,0.183h-4.83v1.218
							h-1.504v-1.218h-2.455v-2.009h2.455V172.32z"/>
					</g>
					<g>
						<path fill="#C9C9C9" d="M79.425,205.747v-23.805h4.562v8.574c1.408-1.604,3.075-2.404,5.002-2.404
							c2.101,0,3.838,0.761,5.213,2.281c1.374,1.522,2.061,3.706,2.061,6.552c0,2.944-0.7,5.212-2.102,6.803
							c-1.402,1.592-3.104,2.388-5.107,2.388c-0.984,0-1.955-0.245-2.915-0.738c-0.956-0.493-1.782-1.221-2.476-2.184v2.533H79.425z
							 M83.956,196.751c0,1.786,0.281,3.107,0.844,3.962c0.79,1.212,1.841,1.819,3.149,1.819c1.008,0,1.865-0.431,2.574-1.293
							c0.708-0.858,1.063-2.215,1.063-4.065c0-1.971-0.356-3.392-1.07-4.264c-0.716-0.871-1.631-1.307-2.745-1.307
							c-1.093,0-2.003,0.425-2.728,1.275C84.319,193.728,83.956,195.019,83.956,196.751z"/>
						<path fill="#C9C9C9" d="M99.934,186.164v-4.222h4.563v4.222H99.934z M99.934,205.747v-17.245h4.563v17.245H99.934z"/>
						<path fill="#C9C9C9" d="M113.54,205.747h-4.562v-17.245h4.238v2.452c0.725-1.158,1.377-1.921,1.956-2.289
							c0.579-0.369,1.237-0.553,1.974-0.553c1.039,0,2.04,0.286,3.004,0.86l-1.413,3.979c-0.769-0.498-1.483-0.747-2.144-0.747
							c-0.639,0-1.18,0.177-1.624,0.527c-0.442,0.354-0.792,0.988-1.046,1.909c-0.256,0.919-0.383,2.847-0.383,5.78V205.747z"/>
						<path fill="#C9C9C9" d="M137.929,205.747h-4.238v-2.533c-0.703,0.984-1.533,1.718-2.492,2.2
							c-0.958,0.48-1.924,0.722-2.898,0.722c-1.98,0-3.677-0.798-5.09-2.395c-1.412-1.597-2.119-3.825-2.119-6.682
							c0-2.923,0.687-5.144,2.062-6.666c1.375-1.521,3.111-2.281,5.211-2.281c1.928,0,3.595,0.801,5.002,2.404v-8.574h4.562V205.747
							z M125.751,196.751c0,1.84,0.254,3.172,0.764,3.994c0.736,1.19,1.764,1.787,3.084,1.787c1.05,0,1.943-0.447,2.68-1.341
							c0.736-0.893,1.104-2.229,1.104-4.002c0-1.981-0.356-3.407-1.07-4.279c-0.715-0.871-1.631-1.307-2.745-1.307
							c-1.081,0-1.988,0.431-2.72,1.291C126.116,193.756,125.751,195.041,125.751,196.751z"/>
					</g>
				</g>
			</g>
			
				<linearGradient id="SVGID_12_" gradientUnits="userSpaceOnUse" x1="209.9658" y1="165.9219" x2="267.0087" y2="255.6258" gradientTransform="matrix(0.9982 0.0607 -0.0607 0.9982 -31.405 -5.2355)">
				<stop  offset="0" style="stop-color:#FFFFFF"/>
				<stop  offset="1" style="stop-color:#E6E5E5"/>
			</linearGradient>
			
				<path fill="none" stroke="url(#SVGID_12_)" stroke-width="6" stroke-linecap="round" stroke-linejoin="round" stroke-miterlimit="10" d="
				M260.431,132.064c0,0,44.925,18.206,33.63,66.929c-8.903,38.409-40.198,45.355-55.657,40.868c0,0-6.957,8.82-22.621,8.816
				c-15.67-0.002-23.541-7.007-23.541-7.007c-7.188,7.504-14.925,10.033-26.529,9.327c-10.881-0.661-19.785-3.895-26.063-11.377
				c-9.705,5.458-21.733,5.66-33.922,4.919c-12.101-0.733-23.148-6.343-35.341-13.88"/>
			
				<linearGradient id="SVGID_13_" gradientUnits="userSpaceOnUse" x1="287.4121" y1="160.8066" x2="348.687" y2="257.1657" gradientTransform="matrix(0.9866 0.163 -0.163 0.9866 -72.6133 -25.3727)">
				<stop  offset="0" style="stop-color:#FFFFFF"/>
				<stop  offset="1" style="stop-color:#E6E5E5"/>
			</linearGradient>
			
				<path fill="none" stroke="url(#SVGID_13_)" stroke-width="6" stroke-linecap="round" stroke-linejoin="round" stroke-miterlimit="10" d="
				M287.119,139.78c0,0,42.44,25.367,25.968,78.731c-13.629,44.146-52.525,52.65-70.005,45.559c0,0-13.063,7.316-24.722,6.816
				c-18.34-0.783-25.355-10.069-25.355-10.069s-6.656,7.83-25.025,6.371c-20.198-1.604-31.904-14.654-31.904-14.654
				s-37.157,8.044-56.347-9.973"/>
		</g>
	</g>
	<g>
		<text transform="matrix(0.8942 0 0 1 132.4453 380.3936)" font-family="'HelveticaNeue'" font-size="36">Wordle</text>
	</g>
</g>
<g id="guides">
</g>
<g id="circles" display="none">
	<linearGradient id="SVGID_14_" gradientUnits="userSpaceOnUse" x1="39.2139" y1="205.8691" x2="39.2139" y2="566.2245">
		<stop  offset="0" style="stop-color:#89A3B1"/>
		<stop  offset="0.5393" style="stop-color:#507282"/>
		<stop  offset="1" style="stop-color:#1E4554"/>
	</linearGradient>
	<circle display="inline" fill="url(#SVGID_14_)" cx="39.214" cy="388.788" r="179.125"/>
	<g display="inline">
		<linearGradient id="Cloud_2_" gradientUnits="userSpaceOnUse" x1="-71.8594" y1="299.2461" x2="166.1416" y2="469.2468">
			<stop  offset="0" style="stop-color:#FFFFFF"/>
			<stop  offset="1" style="stop-color:#E6E5E5"/>
		</linearGradient>
		<path id="Cloud_1_" fill="url(#Cloud_2_)" d="M146.725,351.5c0.232-2.096,0.316-4.233,0.316-6.377
			c0-37.337-30.252-67.578-67.578-67.578c-28.975,0-53.609,18.251-63.229,43.889c-6.355-6.984-15.438-11.451-25.637-11.451
			c-19.229,0-34.803,15.569-34.803,34.803c0,2.275,0.232,4.477,0.666,6.631c-25.648,4.229-45.268,26.345-45.268,53.154
			c0,29.893,24.191,54.062,54.062,54.062h171.648c29.861,0,54.062-24.17,54.062-54.062
			C190.967,378.088,171.877,356.152,146.725,351.5z"/>
		<g>
			<g>
				<path fill="#C9C9C9" d="M1.887,368.501v3.873h0.105c0.909-1.643,2.063-2.836,3.462-3.58c1.398-0.742,2.938-1.113,4.617-1.113
					c2.133,0,3.969,0.449,5.509,1.35c1.538,0.898,2.814,2.092,3.829,3.578s1.766,3.217,2.256,5.191
					c0.489,1.977,0.734,4.041,0.734,6.191c0,2.033-0.245,3.988-0.734,5.867c-0.49,1.877-1.232,3.539-2.229,4.986
					s-2.238,2.602-3.725,3.461c-1.487,0.861-3.227,1.291-5.22,1.291c-1.679,0-3.227-0.381-4.644-1.145
					c-1.416-0.762-2.579-1.885-3.488-3.373H2.254v14.375h-7.449v-40.953H1.887z M11.566,392.556c0.821-0.547,1.486-1.26,1.993-2.141
					s0.866-1.906,1.076-3.08s0.314-2.365,0.314-3.578s-0.114-2.406-0.341-3.58c-0.229-1.174-0.604-2.219-1.128-3.139
					c-0.524-0.918-1.198-1.662-2.021-2.23c-0.821-0.566-1.827-0.85-3.016-0.85c-1.226,0-2.248,0.283-3.069,0.85
					c-0.822,0.568-1.487,1.301-1.994,2.201s-0.865,1.936-1.075,3.109s-0.314,2.387-0.314,3.639c0,1.213,0.113,2.404,0.341,3.578
					c0.227,1.174,0.595,2.199,1.102,3.08s1.181,1.594,2.02,2.141c0.84,0.549,1.854,0.822,3.043,0.822
					C9.721,393.378,10.744,393.104,11.566,392.556z"/>
				<path fill="#C9C9C9" d="M34.834,391.56c1.118,1.213,2.728,1.818,4.826,1.818c1.503,0,2.798-0.42,3.882-1.262
					c1.084-0.84,1.749-1.73,1.994-2.67h6.558c-1.049,3.639-2.658,6.24-4.826,7.805c-2.169,1.564-4.793,2.346-7.87,2.346
					c-2.134,0-4.058-0.381-5.771-1.145c-1.714-0.762-3.166-1.848-4.354-3.256c-1.189-1.408-2.107-3.09-2.754-5.045
					c-0.647-1.955-0.971-4.107-0.971-6.455c0-2.268,0.332-4.379,0.997-6.336c0.664-1.955,1.608-3.646,2.833-5.074
					c1.224-1.428,2.684-2.553,4.38-3.375c1.696-0.82,3.576-1.23,5.64-1.23c2.309,0,4.319,0.498,6.033,1.496
					c1.714,0.996,3.122,2.338,4.224,4.018c1.102,1.684,1.896,3.6,2.387,5.75c0.489,2.152,0.664,4.4,0.524,6.748H32.997
					C33.103,388.392,33.714,390.347,34.834,391.56z M43.254,375.601c-0.892-1.094-2.248-1.643-4.066-1.643
					c-1.188,0-2.177,0.225-2.964,0.674c-0.787,0.451-1.416,1.008-1.889,1.672c-0.472,0.666-0.805,1.371-0.996,2.113
					c-0.193,0.744-0.307,1.408-0.342,1.994h12.119C44.767,378.3,44.146,376.696,43.254,375.601z"/>
				<path fill="#C9C9C9" d="M69.93,373.958c-1.189,0-2.187,0.303-2.99,0.908c-0.805,0.607-1.461,1.391-1.968,2.348
					c-0.507,0.959-0.865,2.016-1.075,3.168c-0.21,1.154-0.314,2.299-0.314,3.434c0,1.094,0.104,2.209,0.314,3.344
					s0.551,2.162,1.023,3.08c0.472,0.92,1.109,1.672,1.915,2.258c0.804,0.588,1.783,0.881,2.938,0.881
					c1.783,0,3.156-0.557,4.118-1.672s1.565-2.611,1.81-4.488h7.188c-0.49,4.029-1.889,7.1-4.196,9.211
					c-2.309,2.113-5.265,3.168-8.866,3.168c-2.029,0-3.892-0.381-5.588-1.145c-1.696-0.762-3.14-1.826-4.328-3.197
					c-1.189-1.367-2.116-3-2.78-4.898c-0.665-1.896-0.997-3.98-0.997-6.248c0-2.348,0.307-4.527,0.919-6.543
					c0.611-2.014,1.512-3.754,2.701-5.221c1.188-1.467,2.641-2.611,4.354-3.434c1.713-0.82,3.673-1.23,5.876-1.23
					c1.608,0,3.156,0.234,4.643,0.703s2.815,1.184,3.987,2.143s2.125,2.15,2.859,3.578s1.154,3.119,1.259,5.074h-7.292
					C74.948,375.698,73.112,373.958,69.93,373.958z"/>
				<path fill="#C9C9C9" d="M87.295,363.808v-6.865h7.449v6.865H87.295z M94.744,368.501v30.334h-7.449v-30.334H94.744z"/>
				<path fill="#C9C9C9" d="M108.595,391.56c1.118,1.213,2.728,1.818,4.826,1.818c1.503,0,2.798-0.42,3.882-1.262
					c1.084-0.84,1.749-1.73,1.994-2.67h6.558c-1.049,3.639-2.658,6.24-4.826,7.805c-2.169,1.564-4.793,2.346-7.87,2.346
					c-2.134,0-4.058-0.381-5.771-1.145c-1.714-0.762-3.166-1.848-4.354-3.256c-1.189-1.408-2.107-3.09-2.754-5.045
					c-0.647-1.955-0.971-4.107-0.971-6.455c0-2.268,0.332-4.379,0.997-6.336c0.664-1.955,1.608-3.646,2.833-5.074
					c1.224-1.428,2.684-2.553,4.38-3.375c1.696-0.82,3.576-1.23,5.64-1.23c2.309,0,4.319,0.498,6.033,1.496
					c1.714,0.996,3.122,2.338,4.224,4.018c1.102,1.684,1.896,3.6,2.387,5.75c0.489,2.152,0.664,4.4,0.524,6.748h-19.568
					C106.863,388.392,107.475,390.347,108.595,391.56z M117.015,375.601c-0.892-1.094-2.248-1.643-4.066-1.643
					c-1.188,0-2.177,0.225-2.964,0.674c-0.787,0.451-1.416,1.008-1.889,1.672c-0.472,0.666-0.805,1.371-0.996,2.113
					c-0.193,0.744-0.307,1.408-0.342,1.994h12.119C118.527,378.3,117.906,376.696,117.015,375.601z"/>
				<path fill="#C9C9C9" d="M137.002,391.296c0.332,0.645,0.761,1.172,1.285,1.584c0.524,0.41,1.128,0.713,1.81,0.908
					c0.683,0.197,1.391,0.295,2.125,0.295c0.524,0,1.075-0.068,1.652-0.207c0.577-0.137,1.102-0.352,1.574-0.645
					c0.472-0.293,0.865-0.684,1.181-1.174c0.314-0.488,0.472-1.104,0.472-1.848c0-1.252-0.743-2.189-2.229-2.816
					c-1.487-0.625-3.56-1.252-6.217-1.877c-1.085-0.273-2.143-0.596-3.174-0.969c-1.032-0.371-1.95-0.859-2.755-1.467
					c-0.805-0.605-1.451-1.369-1.94-2.287c-0.49-0.92-0.734-2.045-0.734-3.375c0-1.955,0.341-3.559,1.022-4.811
					c0.683-1.252,1.582-2.238,2.702-2.963c1.119-0.723,2.378-1.232,3.777-1.525c1.398-0.293,2.833-0.439,4.302-0.439
					s2.894,0.156,4.275,0.469s2.614,0.842,3.699,1.584c1.083,0.744,1.984,1.73,2.701,2.963s1.146,2.787,1.285,4.664h-7.082
					c-0.104-1.604-0.647-2.688-1.626-3.256c-0.979-0.566-2.134-0.852-3.463-0.852c-0.42,0-0.875,0.029-1.364,0.088
					c-0.49,0.059-0.936,0.188-1.338,0.383s-0.743,0.479-1.022,0.85c-0.28,0.373-0.42,0.871-0.42,1.496
					c0,0.744,0.244,1.35,0.734,1.82c0.489,0.469,1.128,0.85,1.915,1.143c0.787,0.295,1.687,0.559,2.702,0.793
					c1.014,0.234,2.046,0.49,3.095,0.762c1.084,0.275,2.142,0.607,3.174,0.998c1.031,0.391,1.949,0.91,2.755,1.555
					c0.804,0.646,1.45,1.447,1.94,2.406c0.489,0.959,0.734,2.141,0.734,3.549c0,1.994-0.358,3.668-1.075,5.018
					c-0.717,1.348-1.652,2.434-2.807,3.256c-1.154,0.82-2.475,1.398-3.961,1.73c-1.487,0.332-2.999,0.498-4.538,0.498
					c-1.573,0-3.113-0.176-4.616-0.527c-1.505-0.352-2.842-0.939-4.014-1.76c-1.172-0.822-2.134-1.908-2.886-3.256
					c-0.752-1.35-1.163-3.041-1.232-5.076h7.082C136.503,389.878,136.669,390.649,137.002,391.296z"/>
			</g>
		</g>
	</g>
</g>
</svg>
