<?xml version="1.0" encoding="utf-8"?>
<!-- Generator: Adobe Illustrator 16.0.0, SVG Export Plug-In . SVG Version: 6.00 Build 0)  -->
<!DOCTYPE svg PUBLIC "-//W3C//DTD SVG 1.1//EN" "http://www.w3.org/Graphics/SVG/1.1/DTD/svg11.dtd" [
	<!ENTITY ns_extend "http://ns.adobe.com/Extensibility/1.0/">
	<!ENTITY ns_ai "http://ns.adobe.com/AdobeIllustrator/10.0/">
	<!ENTITY ns_graphs "http://ns.adobe.com/Graphs/1.0/">
	<!ENTITY ns_vars "http://ns.adobe.com/Variables/1.0/">
	<!ENTITY ns_imrep "http://ns.adobe.com/ImageReplacement/1.0/">
	<!ENTITY ns_sfw "http://ns.adobe.com/SaveForWeb/1.0/">
	<!ENTITY ns_custom "http://ns.adobe.com/GenericCustomNamespace/1.0/">
	<!ENTITY ns_adobe_xpath "http://ns.adobe.com/XPath/1.0/">
]>
<svg version="1.1" xmlns:x="&ns_extend;" xmlns:i="&ns_ai;" xmlns:graph="&ns_graphs;"
	 xmlns="http://www.w3.org/2000/svg" xmlns:xlink="http://www.w3.org/1999/xlink" x="0px" y="0px" width="354.49px"
	 height="396.609px" viewBox="0 0 354.49 396.609" enable-background="new 0 0 354.49 396.609" xml:space="preserve">
<metadata>
	<sfw  xmlns="&ns_sfw;">
		<slices></slices>
		<sliceSourceBounds  x="-6911" y="-8912" bottomLeftOrigin="true" height="16383" width="16383"></sliceSourceBounds>
	</sfw>
</metadata>
<g id="Background" display="none">
	<radialGradient id="SVGID_1_" cx="-328.8916" cy="-411.4873" r="1113.6583" gradientUnits="userSpaceOnUse">
		<stop  offset="0" style="stop-color:#006594"/>
		<stop  offset="0.5393" style="stop-color:#000B2A"/>
		<stop  offset="1" style="stop-color:#00232A"/>
	</radialGradient>
	<rect x="-1608.892" y="-1329.131" display="inline" fill="url(#SVGID_1_)" width="2560" height="1835.287"/>
</g>
<g id="Layer_1" display="none">
</g>
<g id="squares">
	<g>
		<text transform="matrix(0.8942 0 0 1 113.0869 380.874)" font-family="'HelveticaNeue'" font-size="36">Pictures</text>
	</g>
	<g>
		<g>
			<linearGradient id="SVGID_2_" gradientUnits="userSpaceOnUse" x1="297.7012" y1="3.1396" x2="297.7012" y2="111.3909">
				<stop  offset="0" style="stop-color:#A8989B"/>
				<stop  offset="0.5" style="stop-color:#7E6B71"/>
				<stop  offset="1" style="stop-color:#61505A"/>
			</linearGradient>
			<path fill="url(#SVGID_2_)" d="M352.514,89.702c-1.278,11.918-11.027,22.406-22.947,22.406h-65.009
				c-11.918,0-21.669-10.488-21.669-22.406v-65.01c0-11.917,9.751-22.391,21.669-22.391h65.009c11.92,0,21.669,10.474,22.947,22.391
				V89.702z"/>
			<linearGradient id="SVGID_3_" gradientUnits="userSpaceOnUse" x1="177.0156" y1="3.1396" x2="177.0156" y2="111.3909">
				<stop  offset="0" style="stop-color:#A8989B"/>
				<stop  offset="0.5" style="stop-color:#7E6B71"/>
				<stop  offset="1" style="stop-color:#61505A"/>
			</linearGradient>
			<path fill="url(#SVGID_3_)" d="M231.828,89.702c-1.277,11.918-11.026,22.406-22.945,22.406h-65.01
				c-11.918,0-21.67-10.488-21.67-22.406v-65.01c0-11.917,9.752-22.391,21.67-22.391h65.01c11.919,0,21.668,10.474,22.945,22.391
				V89.702z"/>
			<linearGradient id="SVGID_4_" gradientUnits="userSpaceOnUse" x1="56.332" y1="3.1396" x2="56.332" y2="111.3909">
				<stop  offset="0" style="stop-color:#A8989B"/>
				<stop  offset="0.5" style="stop-color:#7E6B71"/>
				<stop  offset="1" style="stop-color:#61505A"/>
			</linearGradient>
			<path fill="url(#SVGID_4_)" d="M111.145,89.702c-1.278,11.918-11.027,22.406-22.947,22.406H23.188
				c-11.918,0-21.669-10.488-21.669-22.406v-65.01c0-11.917,9.751-22.391,21.669-22.391h65.009c11.92,0,21.669,10.474,22.947,22.391
				V89.702z"/>
			<linearGradient id="SVGID_5_" gradientUnits="userSpaceOnUse" x1="297.7012" y1="121.4521" x2="297.7012" y2="229.7034">
				<stop  offset="0" style="stop-color:#A8989B"/>
				<stop  offset="0.5" style="stop-color:#7E6B71"/>
				<stop  offset="1" style="stop-color:#61505A"/>
			</linearGradient>
			<path fill="url(#SVGID_5_)" d="M352.514,208.015c-1.278,11.918-11.027,22.406-22.947,22.406h-65.009
				c-11.918,0-21.669-10.488-21.669-22.406v-65.01c0-11.917,9.751-22.391,21.669-22.391h65.009c11.92,0,21.669,10.474,22.947,22.391
				V208.015z"/>
			<linearGradient id="SVGID_6_" gradientUnits="userSpaceOnUse" x1="177.0156" y1="121.4521" x2="177.0156" y2="229.7034">
				<stop  offset="0" style="stop-color:#A8989B"/>
				<stop  offset="0.5" style="stop-color:#7E6B71"/>
				<stop  offset="1" style="stop-color:#61505A"/>
			</linearGradient>
			<path fill="url(#SVGID_6_)" d="M231.828,208.015c-1.277,11.918-11.026,22.406-22.945,22.406h-65.01
				c-11.918,0-21.67-10.488-21.67-22.406v-65.01c0-11.917,9.752-22.391,21.67-22.391h65.01c11.919,0,21.668,10.474,22.945,22.391
				V208.015z"/>
			<linearGradient id="SVGID_7_" gradientUnits="userSpaceOnUse" x1="56.332" y1="121.4521" x2="56.332" y2="229.7034">
				<stop  offset="0" style="stop-color:#A8989B"/>
				<stop  offset="0.5" style="stop-color:#7E6B71"/>
				<stop  offset="1" style="stop-color:#61505A"/>
			</linearGradient>
			<path fill="url(#SVGID_7_)" d="M111.145,208.015c-1.278,11.918-11.027,22.406-22.947,22.406H23.188
				c-11.918,0-21.669-10.488-21.669-22.406v-65.01c0-11.917,9.751-22.391,21.669-22.391h65.009c11.92,0,21.669,10.474,22.947,22.391
				V208.015z"/>
			<linearGradient id="SVGID_8_" gradientUnits="userSpaceOnUse" x1="297.7012" y1="239.7646" x2="297.7012" y2="348.0159">
				<stop  offset="0" style="stop-color:#A8989B"/>
				<stop  offset="0.5" style="stop-color:#7E6B71"/>
				<stop  offset="1" style="stop-color:#61505A"/>
			</linearGradient>
			<path fill="url(#SVGID_8_)" d="M352.514,326.327c-1.278,11.918-11.027,22.406-22.947,22.406h-65.009
				c-11.918,0-21.669-10.488-21.669-22.406v-65.01c0-11.917,9.751-22.391,21.669-22.391h65.009c11.92,0,21.669,10.474,22.947,22.391
				V326.327z"/>
			<linearGradient id="SVGID_9_" gradientUnits="userSpaceOnUse" x1="177.0156" y1="239.7646" x2="177.0156" y2="348.0159">
				<stop  offset="0" style="stop-color:#A8989B"/>
				<stop  offset="0.5" style="stop-color:#7E6B71"/>
				<stop  offset="1" style="stop-color:#61505A"/>
			</linearGradient>
			<path fill="url(#SVGID_9_)" d="M231.828,326.327c-1.277,11.918-11.026,22.406-22.945,22.406h-65.01
				c-11.918,0-21.67-10.488-21.67-22.406v-65.01c0-11.917,9.752-22.391,21.67-22.391h65.01c11.919,0,21.668,10.474,22.945,22.391
				V326.327z"/>
			<linearGradient id="SVGID_10_" gradientUnits="userSpaceOnUse" x1="56.332" y1="239.7646" x2="56.332" y2="348.0159">
				<stop  offset="0" style="stop-color:#A8989B"/>
				<stop  offset="0.5" style="stop-color:#7E6B71"/>
				<stop  offset="1" style="stop-color:#61505A"/>
			</linearGradient>
			<path fill="url(#SVGID_10_)" d="M111.145,326.327c-1.278,11.918-11.027,22.406-22.947,22.406H23.188
				c-11.918,0-21.669-10.488-21.669-22.406v-65.01c0-11.917,9.751-22.391,21.669-22.391h65.009c11.92,0,21.669,10.474,22.947,22.391
				V326.327z"/>
		</g>
		<path fill="#FEFEFE" d="M276.505,245.122c0,8.881-7.201,16.081-16.082,16.081H66.077c-8.882,0-16.082-7.2-16.082-16.081V85.402
			c0-8.881,7.2-16.081,16.082-16.081h194.346c8.881,0,16.082,7.2,16.082,16.081V245.122z"/>
		<rect x="64.099" y="84.764" fill="#E8E8E8" width="196.324" height="163.632"/>
		<g>
			<path fill="#C9C9C9" d="M141.489,248.396v-55.034c4.839-0.972,7.474-2.51,9.7-4.508c3.582,2.488,7.928,3.957,12.619,3.957
				c12.239,0,22.158-9.926,22.158-22.16c0-7.883-4.127-14.783-10.324-18.711c0.755-2.226,1.179-4.605,1.179-7.084
				c0-10.935-7.924-19.995-18.336-21.809c-0.894-11.417-10.421-20.408-22.069-20.408c-11.549,0-21.022,8.84-22.055,20.121
				c-11.656,0.645-20.916,10.275-20.916,22.093c0,2.481,0.427,4.861,1.179,7.085c-6.196,3.93-10.323,10.83-10.323,18.708
				c0,12.238,9.92,22.162,22.159,22.162c5.333,0,10.227-1.892,14.052-5.03c1.809,1.869,3.957,3.399,8.269,4.544v56.074H141.489z
				 M245.703,193.943c-2.012-1.239-3.994-5.059-5.934-5.145c-1.041-0.051-3.732-0.202-3.732-0.202
				c-4.297-8.735-9.188-10.834-11.032-11.515c-1.84-0.682,1.526,6.092,1.526,6.092c-1.046-1.701-8.697-4.263-10.412-3.271
				c-1.719,0.993,2.451,5.185,3.85,6.274c1.637,1.276,6.182,2.613,7.451,3.685c1.265,1.067,0.755,3.049,0.755,3.049
				c-0.229,1.737-0.322,1.9-0.322,1.9c-0.627,0.249-0.627,0.249-0.627,0.249c-0.86-0.492-6.954-9.539-22.471-5.332
				c-12.929,3.507-11.419,15.667-11.213,17.767c-0.579-0.785-1.716-0.146-1.716-0.146c-1.454,0.754-0.808,2.032-0.808,2.032
				c-0.509-0.263-1.225-2.156-1.225-2.156c-1.783,2.359-2.139,3.763-0.799,6.603c1.331,2.82,5.228,3.729,8.067,1.153
				c0,0,0.918,3.403,2.961,3.698c0.701,0.102,1.23,0.904,1.125,1.628c-0.11,0.724-0.743,1.844-0.045,2.497
				c1.176,1.108,2.622,1.71,7.319,2.296c0.529,0.066,1.895,0.112,3.425,0.209c0.111,0.612,0.206,1.098,0.216,1.323
				c0.045,0.857,6.897,2.773,6.406,1.655c-0.622-1.409-1.237-2.134-1.688-2.726c0.436,0.005,0.792,0.004,1.008-0.018
				c1.058-0.104,1.795-2.015,0.311-2.585c-0.352-0.135-1.02-0.32-1.834-0.523c0.024-0.095,0.041-0.181,0.069-0.285
				c0.279-1.043,2.206-2.554,4.691-4.506c11.896,0.44,19.349-9.943,17.22-14.921c-0.994-2.324-0.592-2.271-0.592-2.271
				s5.667-0.415,6.629-1.537C245.26,197.776,247.402,194.993,245.703,193.943z M213.857,217.447
				c-0.525,0.891-1.614,0.966-2.301,2.448c-0.158,0.344-0.214,0.846-0.214,1.423c-1.083-0.231-1.854-0.392-1.854-0.392
				s-2.672-0.676-1.654-3.786c0.346-1.063,3.421-2.948,4.914-2.354c0.287,0.295,0.603,0.653,0.846,1.032
				c0.067,0.137,0.146,0.29,0.238,0.454C214.012,216.688,214.064,217.097,213.857,217.447z"/>
		</g>
		<path fill="#FEFEFE" d="M62.551,258.961c2.363,3.03,5.981,5.056,10.112,5.258l196.555,9.56c7.52,0.363,13.934-5.454,14.299-12.973
			l7.855-161.534c0.25-5.119-2.369-9.728-6.439-12.262l-0.59-0.231l1.587-5.217c6.64,3.202,11.079,10.153,10.698,17.967
			l-7.856,161.533c-0.506,10.417-9.393,18.476-19.811,17.973l-196.554-9.562c-5.538-0.27-10.412-2.908-13.685-6.883L62.551,258.961
			 M57.382,261.486"/>
		<path fill="#FEFEFE" d="M76.417,271.606c2.272,3.1,5.829,5.229,9.953,5.552l196.189,15.315
			c7.507,0.584,14.088-5.043,14.674-12.548l12.586-161.234c0.399-5.11-2.083-9.793-6.078-12.445l-0.583-0.25l1.739-5.166
			c6.543,3.395,10.778,10.474,10.167,18.271l-12.586,161.234c-0.812,10.396-9.93,18.192-20.329,17.383L85.962,282.402
			c-5.528-0.432-10.323-3.21-13.479-7.28L76.417,271.606 M71.176,273.979"/>
	</g>
</g>
<g id="guides">
</g>
<g id="circles" display="none">
	<linearGradient id="SVGID_11_" gradientUnits="userSpaceOnUse" x1="85.7246" y1="217.8691" x2="85.7246" y2="564.2389">
		<stop  offset="0" style="stop-color:#A8989B"/>
		<stop  offset="0.5" style="stop-color:#7E6B71"/>
		<stop  offset="1" style="stop-color:#61505A"/>
	</linearGradient>
	<circle display="inline" fill="url(#SVGID_11_)" cx="85.725" cy="388.788" r="179.125"/>
	<g display="inline">
		<path fill="#FEFEFE" d="M204.885,463.142c0,8.492-6.885,15.377-15.377,15.377H3.67c-8.492,0-15.377-6.885-15.377-15.377V310.415
			c0-8.492,6.885-15.377,15.377-15.377h185.838c8.492,0,15.377,6.885,15.377,15.377V463.142z"/>
		<rect x="1.779" y="309.804" fill="#E8E8E8" width="187.729" height="156.468"/>
		<g>
			<path fill="#C9C9C9" d="M75.781,466.678v-53.03c4.627-0.93,7.146-2.4,9.275-4.311c3.426,2.379,7.58,3.784,12.066,3.784
				c11.703,0,21.188-9.491,21.188-21.19c0-7.537-3.945-14.137-9.871-17.892c0.721-2.128,1.126-4.403,1.126-6.774
				c0-10.455-7.577-19.119-17.532-20.854c-0.855-10.917-9.966-19.514-21.104-19.514c-11.043,0-20.102,8.452-21.09,19.239
				c-11.145,0.617-19.999,9.826-19.999,21.126c0,2.373,0.407,4.648,1.127,6.774c-5.925,3.757-9.872,10.356-9.872,17.889
				c0,11.703,9.486,21.192,21.189,21.192c5.1,0,9.779-1.809,13.436-4.812c1.73,1.788,3.786,3.252,7.908,4.346v54.025H75.781z
				 M175.432,414.204c-1.924-1.186-3.818-4.837-5.674-4.92c-0.994-0.047-3.568-0.192-3.568-0.192
				c-4.109-8.354-8.785-10.36-10.549-11.012c-1.76-0.651,1.459,5.826,1.459,5.826c-1-1.627-8.316-4.076-9.957-3.128
				c-1.643,0.95,2.344,4.957,3.682,6c1.566,1.22,5.912,2.499,7.125,3.522c1.209,1.021,0.723,2.917,0.723,2.917
				c-0.221,1.66-0.309,1.817-0.309,1.817c-0.6,0.237-0.6,0.237-0.6,0.237c-0.822-0.471-6.65-9.121-21.486-5.099
				c-12.363,3.353-10.92,14.98-10.723,16.989c-0.554-0.751-1.641-0.141-1.641-0.141c-1.391,0.722-0.772,1.943-0.772,1.943
				c-0.486-0.251-1.171-2.062-1.171-2.062c-1.705,2.257-2.045,3.599-0.764,6.313c1.273,2.697,4.998,3.565,7.715,1.104
				c0,0,0.877,3.254,2.83,3.536c0.672,0.097,1.178,0.864,1.076,1.556c-0.105,0.693-0.711,1.764-0.043,2.389
				c1.124,1.059,2.508,1.635,7,2.195c0.506,0.063,1.811,0.106,3.273,0.2c0.107,0.585,0.197,1.049,0.207,1.265
				c0.043,0.82,6.596,2.652,6.125,1.583c-0.594-1.347-1.182-2.04-1.613-2.606c0.416,0.004,0.756,0.003,0.963-0.017
				c1.012-0.1,1.717-1.927,0.297-2.472c-0.336-0.129-0.975-0.307-1.754-0.5c0.023-0.091,0.039-0.174,0.066-0.273
				c0.268-0.998,2.109-2.441,4.486-4.309c11.375,0.422,18.502-9.508,16.467-14.268c-0.951-2.223-0.566-2.171-0.566-2.171
				s5.418-0.396,6.338-1.47C175.008,417.869,177.057,415.207,175.432,414.204z M144.98,436.679
				c-0.502,0.852-1.543,0.924-2.199,2.342c-0.152,0.328-0.205,0.808-0.205,1.359c-1.036-0.221-1.773-0.374-1.773-0.374
				s-2.555-0.646-1.582-3.62c0.331-1.017,3.271-2.819,4.7-2.251c0.274,0.281,0.575,0.625,0.809,0.987
				c0.063,0.13,0.14,0.277,0.228,0.435C145.129,435.952,145.178,436.343,144.98,436.679z"/>
		</g>
	</g>
</g>
</svg>
