<?xml version="1.0" encoding="utf-8"?>
<!-- Generator: Adobe Illustrator 16.0.0, SVG Export Plug-In . SVG Version: 6.00 Build 0)  -->
<!DOCTYPE svg PUBLIC "-//W3C//DTD SVG 1.1//EN" "http://www.w3.org/Graphics/SVG/1.1/DTD/svg11.dtd" [
	<!ENTITY ns_extend "http://ns.adobe.com/Extensibility/1.0/">
	<!ENTITY ns_ai "http://ns.adobe.com/AdobeIllustrator/10.0/">
	<!ENTITY ns_graphs "http://ns.adobe.com/Graphs/1.0/">
	<!ENTITY ns_vars "http://ns.adobe.com/Variables/1.0/">
	<!ENTITY ns_imrep "http://ns.adobe.com/ImageReplacement/1.0/">
	<!ENTITY ns_sfw "http://ns.adobe.com/SaveForWeb/1.0/">
	<!ENTITY ns_custom "http://ns.adobe.com/GenericCustomNamespace/1.0/">
	<!ENTITY ns_adobe_xpath "http://ns.adobe.com/XPath/1.0/">
]>
<svg version="1.1" xmlns:x="&ns_extend;" xmlns:i="&ns_ai;" xmlns:graph="&ns_graphs;"
	 xmlns="http://www.w3.org/2000/svg" xmlns:xlink="http://www.w3.org/1999/xlink" x="0px" y="0px" width="2560px"
	 height="165.123px" viewBox="0 0 2560 165.123" enable-background="new 0 0 2560 165.123" xml:space="preserve">
<metadata>
	<sfw  xmlns="&ns_sfw;">
		<slices>
			<slice  width="108" height="90" y="-1219" x="0" sliceID="1091419343"></slice>
			<slice  width="354" height="90" y="-1219" x="107" sliceID="1091436150"></slice>
			<slice  width="144" height="90" y="-1219" x="460" sliceID="1091452957"></slice>
			<slice  width="355" height="90" y="-1219" x="603" sliceID="1091469764"></slice>
			<slice  width="144" height="90" y="-1219" x="957" sliceID="1091486571"></slice>
			<slice  width="355" height="90" y="-1219" x="1100" sliceID="1091503378"></slice>
			<slice  width="144" height="90" y="-1219" x="1454" sliceID="1091520185"></slice>
			<slice  width="356" height="90" y="-1219" x="1597" sliceID="1091536992"></slice>
			<slice  width="144" height="90" y="-1219" x="1952" sliceID="1091553799"></slice>
			<slice  width="355" height="90" y="-1219" x="2095" sliceID="1091570606"></slice>
			<slice  width="111" height="90" y="-1219" x="2449" sliceID="1091587413"></slice>
			<slice  width="108" height="356" y="-1130" x="0" sliceID="1091604220"></slice>
			<slice  width="144" height="356" y="-1130" x="460" sliceID="1091637834"></slice>
			<slice  width="144" height="356" y="-1130" x="957" sliceID="1091671448"></slice>
			<slice  width="144" height="356" y="-1130" x="1454" sliceID="1091705062"></slice>
			<slice  width="144" height="356" y="-1130" x="1952" sliceID="1091738676"></slice>
			<slice  width="111" height="356" y="-1130" x="2449" sliceID="1091772290"></slice>
			<slice  width="108" height="156" y="-775" x="0" sliceID="1091789097"></slice>
			<slice  width="354" height="156" y="-775" x="107" sliceID="1091805904"></slice>
			<slice  width="144" height="156" y="-775" x="460" sliceID="1091822711"></slice>
			<slice  width="355" height="156" y="-775" x="603" sliceID="1091839518"></slice>
			<slice  width="144" height="156" y="-775" x="957" sliceID="1091856325"></slice>
			<slice  width="355" height="156" y="-775" x="1100" sliceID="1091873132"></slice>
			<slice  width="144" height="156" y="-775" x="1454" sliceID="1091889939"></slice>
			<slice  width="356" height="156" y="-775" x="1597" sliceID="1091906746"></slice>
			<slice  width="144" height="156" y="-775" x="1952" sliceID="1091923553"></slice>
			<slice  width="355" height="156" y="-775" x="2095" sliceID="1091940360"></slice>
			<slice  width="111" height="156" y="-775" x="2449" sliceID="1091957167"></slice>
			<slice  width="108" height="358" y="-620" x="0" sliceID="1091973974"></slice>
			<slice  width="144" height="358" y="-620" x="460" sliceID="1092007588"></slice>
			<slice  width="144" height="358" y="-620" x="957" sliceID="1092041202"></slice>
			<slice  width="144" height="358" y="-620" x="1454" sliceID="1092074816"></slice>
			<slice  width="144" height="358" y="-620" x="1952" sliceID="1092108430"></slice>
			<slice  width="111" height="358" y="-620" x="2449" sliceID="1092142044"></slice>
			<slice  width="108" height="263" y="-263" x="0" sliceID="1092158851"></slice>
			<slice  width="354" height="263" y="-263" x="107" sliceID="1092175658"></slice>
			<slice  width="144" height="263" y="-263" x="460" sliceID="1092192465"></slice>
			<slice  width="355" height="263" y="-263" x="603" sliceID="1092209272"></slice>
			<slice  width="144" height="263" y="-263" x="957" sliceID="1092226079"></slice>
			<slice  width="355" height="263" y="-263" x="1100" sliceID="1092242886"></slice>
			<slice  width="144" height="263" y="-263" x="1454" sliceID="1092259693"></slice>
			<slice  width="356" height="263" y="-263" x="1597" sliceID="1092276500"></slice>
			<slice  width="144" height="263" y="-263" x="1952" sliceID="1092293307"></slice>
			<slice  width="355" height="263" y="-263" x="2095" sliceID="1092310114"></slice>
			<slice  width="111" height="263" y="-263" x="2449" sliceID="1092326921"></slice>
		</slices>
		<sliceSourceBounds  width="16680.914" height="16413" y="-8912" x="-7050.368" bottomLeftOrigin="true"></sliceSourceBounds>
	</sfw>
</metadata>
<g id="Layer_3" display="none">
</g>
<g id="squares">
	<linearGradient id="SVGID_2_" gradientUnits="userSpaceOnUse" x1="1279.9995" y1="-2.8735" x2="1279.9995" y2="168.1177">
		<stop  offset="0.2228" style="stop-color:#6C6D6F"/>
		<stop  offset="0.7515" style="stop-color:#212121"/>
	</linearGradient>
	<rect fill="url(#SVGID_2_)" width="2560" height="165.123"/>
	<g>
		<path fill="#FFFFFF" d="M118.97,69.162l22.581,40.593h0.152V69.162h11.139v60.508h-11.897l-22.506-40.508h-0.151v40.508h-11.139
			V69.162H118.97z"/>
		<path fill="#FFFFFF" d="M173.68,119.162c1.616,1.752,3.94,2.627,6.972,2.627c2.171,0,4.041-0.606,5.607-1.822
			c1.565-1.214,2.525-2.5,2.879-3.856h9.472c-1.516,5.254-3.84,9.012-6.972,11.271c-3.133,2.26-6.922,3.39-11.366,3.39
			c-3.082,0-5.861-0.551-8.335-1.652c-2.476-1.102-4.573-2.669-6.29-4.704c-1.718-2.034-3.044-4.462-3.978-7.288
			c-0.936-2.824-1.402-5.932-1.402-9.322c0-3.276,0.479-6.327,1.439-9.152c0.959-2.824,2.323-5.268,4.092-7.331
			c1.768-2.062,3.876-3.687,6.328-4.873c2.45-1.187,5.165-1.78,8.146-1.78c3.334,0,6.238,0.72,8.714,2.161
			c2.475,1.44,4.509,3.376,6.1,5.805c1.591,2.43,2.74,5.199,3.448,8.305c0.707,3.108,0.959,6.356,0.758,9.746h-28.265
			C171.179,114.585,172.062,117.411,173.68,119.162z M185.842,96.111c-1.288-1.581-3.247-2.373-5.873-2.373
			c-1.718,0-3.145,0.326-4.281,0.975c-1.137,0.65-2.046,1.455-2.728,2.415c-0.682,0.961-1.163,1.978-1.44,3.051
			c-0.278,1.074-0.443,2.034-0.493,2.881h17.504C188.026,100.009,187.13,97.693,185.842,96.111z"/>
		<path fill="#FFFFFF" d="M205.959,79.077v-9.915h10.76v9.915H205.959z M216.72,85.857v43.813h-10.76V85.857H216.72z"/>
		<path fill="#FFFFFF" d="M262.223,132.89c-0.43,2.259-1.352,4.364-2.766,6.313c-1.415,1.949-3.461,3.602-6.138,4.958
			c-2.678,1.356-6.265,2.034-10.76,2.034c-1.92,0-3.878-0.269-5.873-0.805c-1.997-0.538-3.815-1.371-5.456-2.5
			c-1.642-1.131-3.006-2.585-4.092-4.364c-1.087-1.78-1.705-3.913-1.857-6.398h10.685c0.504,2.259,1.49,3.827,2.956,4.704
			c1.464,0.875,3.156,1.313,5.077,1.313c3.031,0,5.241-1.017,6.63-3.051c1.389-2.034,2.058-4.605,2.008-7.712v-5.763h-0.151
			c-1.163,2.317-2.817,4.025-4.963,5.127c-2.148,1.102-4.408,1.653-6.782,1.653c-2.93,0-5.456-0.579-7.578-1.737
			c-2.122-1.157-3.864-2.74-5.229-4.746c-1.364-2.004-2.362-4.35-2.993-7.034c-0.632-2.683-0.947-5.521-0.947-8.517
			c0-2.825,0.366-5.551,1.099-8.178c0.732-2.627,1.806-4.943,3.221-6.949c1.414-2.005,3.169-3.602,5.267-4.788
			c2.096-1.187,4.509-1.78,7.236-1.78c2.577,0,4.837,0.538,6.782,1.61c1.944,1.074,3.573,2.881,4.888,5.423h0.151v-5.847h10.23
			v41.017C262.867,128.625,262.651,130.63,262.223,132.89z M247.484,118.314c1.162-0.678,2.122-1.581,2.879-2.712
			c0.758-1.129,1.326-2.415,1.705-3.855c0.379-1.441,0.568-2.952,0.568-4.534c0-1.807-0.151-3.517-0.455-5.127
			s-0.809-3.036-1.516-4.28c-0.708-1.242-1.642-2.231-2.804-2.966c-1.163-0.734-2.627-1.102-4.395-1.102
			c-1.516,0-2.817,0.339-3.902,1.017c-1.087,0.678-1.997,1.597-2.728,2.754c-0.733,1.159-1.263,2.487-1.591,3.983
			c-0.329,1.498-0.493,3.065-0.493,4.704c0,1.582,0.139,3.15,0.417,4.703c0.277,1.555,0.758,2.953,1.439,4.195
			c0.682,1.244,1.579,2.26,2.69,3.051c1.11,0.792,2.5,1.187,4.167,1.187C244.984,119.331,246.322,118.992,247.484,118.314z"/>
		<path fill="#FFFFFF" d="M282.265,69.162v22.796h0.228c1.364-2.542,3.107-4.392,5.229-5.551c2.122-1.157,4.192-1.737,6.213-1.737
			c2.88,0,5.241,0.438,7.085,1.313c1.843,0.876,3.296,2.091,4.357,3.644c1.061,1.555,1.806,3.447,2.235,5.678
			c0.429,2.233,0.644,4.704,0.644,7.416v26.949h-10.76v-24.746c0-3.615-0.505-6.313-1.515-8.093
			c-1.011-1.779-2.804-2.669-5.38-2.669c-2.93,0-5.052,0.975-6.365,2.924c-1.314,1.949-1.97,5.156-1.97,9.619v22.966h-10.76V69.162
			H282.265z"/>
		<path fill="#FFFFFF" d="M327.2,69.162v22.034h0.152c1.313-2.259,3.094-3.912,5.342-4.958c2.248-1.045,4.584-1.568,7.01-1.568
			c1.97,0,3.914,0.453,5.834,1.356c1.919,0.904,3.649,2.288,5.191,4.152c1.54,1.864,2.791,4.252,3.751,7.161
			c0.959,2.91,1.439,6.37,1.439,10.381c0,4.012-0.48,7.472-1.439,10.381c-0.96,2.911-2.211,5.297-3.751,7.161
			c-1.542,1.864-3.271,3.25-5.191,4.152c-1.92,0.903-3.865,1.356-5.834,1.356c-2.88,0-5.456-0.508-7.729-1.525
			c-2.273-1.017-3.991-2.74-5.153-5.169h-0.151v5.593h-10.23V69.162H327.2z M344.628,102.467c-0.354-1.695-0.909-3.191-1.667-4.492
			c-0.758-1.299-1.705-2.33-2.842-3.093s-2.514-1.144-4.13-1.144c-1.566,0-2.93,0.381-4.092,1.144
			c-1.163,0.763-2.122,1.794-2.879,3.093c-0.758,1.301-1.314,2.797-1.667,4.492c-0.354,1.695-0.531,3.475-0.531,5.339
			c0,1.809,0.177,3.56,0.531,5.254c0.353,1.695,0.909,3.192,1.667,4.491c0.758,1.3,1.717,2.331,2.879,3.093
			c1.162,0.763,2.525,1.144,4.092,1.144c1.616,0,2.993-0.381,4.13-1.144s2.084-1.793,2.842-3.093
			c0.758-1.299,1.313-2.796,1.667-4.491c0.353-1.695,0.53-3.445,0.53-5.254C345.159,105.941,344.981,104.162,344.628,102.467z"/>
		<path fill="#FFFFFF" d="M362.966,98.272c0.959-2.852,2.323-5.282,4.092-7.288c1.768-2.005,3.89-3.559,6.365-4.661
			c2.475-1.102,5.253-1.652,8.335-1.652c3.081,0,5.873,0.551,8.373,1.652c2.501,1.102,4.634,2.656,6.403,4.661
			c1.768,2.006,3.132,4.436,4.092,7.288c0.959,2.854,1.44,6.031,1.44,9.534c0,3.504-0.481,6.667-1.44,9.492
			c-0.96,2.826-2.324,5.241-4.092,7.246c-1.769,2.006-3.902,3.546-6.403,4.619c-2.5,1.072-5.292,1.61-8.373,1.61
			c-3.082,0-5.861-0.538-8.335-1.61c-2.476-1.073-4.598-2.613-6.365-4.619c-1.769-2.005-3.133-4.42-4.092-7.246
			c-0.96-2.825-1.44-5.988-1.44-9.492C361.526,104.303,362.005,101.125,362.966,98.272z M372.741,112.933
			c0.303,1.667,0.821,3.165,1.554,4.492c0.731,1.328,1.705,2.387,2.917,3.178c1.212,0.792,2.728,1.187,4.546,1.187
			c1.818,0,3.346-0.395,4.584-1.187c1.237-0.791,2.222-1.85,2.955-3.178c0.732-1.327,1.25-2.824,1.554-4.492
			c0.303-1.666,0.455-3.375,0.455-5.127c0-1.75-0.152-3.475-0.455-5.169c-0.303-1.695-0.822-3.191-1.554-4.491
			c-0.733-1.299-1.718-2.358-2.955-3.178c-1.238-0.818-2.766-1.229-4.584-1.229c-1.819,0-3.334,0.41-4.546,1.229
			c-1.213,0.82-2.186,1.879-2.917,3.178c-0.733,1.3-1.25,2.796-1.554,4.491c-0.303,1.695-0.455,3.419-0.455,5.169
			C372.286,109.558,372.438,111.267,372.741,112.933z"/>
		<path fill="#FFFFFF" d="M419.267,85.857v8.135h0.151c0.504-1.356,1.187-2.612,2.046-3.771c0.858-1.157,1.844-2.146,2.956-2.966
			c1.11-0.818,2.298-1.454,3.562-1.907c1.262-0.451,2.576-0.678,3.94-0.678c0.707,0,1.489,0.142,2.349,0.424V96.28
			c-0.505-0.112-1.111-0.212-1.818-0.296c-0.708-0.085-1.39-0.127-2.046-0.127c-1.97,0-3.637,0.368-5.001,1.102
			c-1.364,0.735-2.462,1.737-3.296,3.008c-0.833,1.271-1.428,2.754-1.78,4.449c-0.354,1.695-0.531,3.531-0.531,5.508v19.746h-10.76
			V85.857H419.267z"/>
		<path fill="#FFFFFF" d="M449.274,69.162v22.796h0.228c1.364-2.542,3.107-4.392,5.229-5.551c2.122-1.157,4.192-1.737,6.213-1.737
			c2.88,0,5.241,0.438,7.085,1.313c1.843,0.876,3.296,2.091,4.357,3.644c1.061,1.555,1.806,3.447,2.235,5.678
			c0.429,2.233,0.644,4.704,0.644,7.416v26.949h-10.76v-24.746c0-3.615-0.505-6.313-1.515-8.093
			c-1.011-1.779-2.804-2.669-5.38-2.669c-2.93,0-5.052,0.975-6.365,2.924c-1.314,1.949-1.97,5.156-1.97,9.619v22.966h-10.76V69.162
			H449.274z"/>
		<path fill="#FFFFFF" d="M483.676,98.272c0.959-2.852,2.323-5.282,4.092-7.288c1.768-2.005,3.89-3.559,6.365-4.661
			c2.475-1.102,5.253-1.652,8.335-1.652c3.081,0,5.873,0.551,8.373,1.652c2.501,1.102,4.634,2.656,6.403,4.661
			c1.768,2.006,3.132,4.436,4.092,7.288c0.959,2.854,1.44,6.031,1.44,9.534c0,3.504-0.481,6.667-1.44,9.492
			c-0.96,2.826-2.324,5.241-4.092,7.246c-1.769,2.006-3.902,3.546-6.403,4.619c-2.5,1.072-5.292,1.61-8.373,1.61
			c-3.082,0-5.861-0.538-8.335-1.61c-2.476-1.073-4.598-2.613-6.365-4.619c-1.769-2.005-3.133-4.42-4.092-7.246
			c-0.96-2.825-1.44-5.988-1.44-9.492C482.236,104.303,482.715,101.125,483.676,98.272z M493.451,112.933
			c0.303,1.667,0.821,3.165,1.554,4.492c0.731,1.328,1.705,2.387,2.917,3.178c1.212,0.792,2.728,1.187,4.546,1.187
			c1.818,0,3.346-0.395,4.584-1.187c1.237-0.791,2.222-1.85,2.955-3.178c0.732-1.327,1.25-2.824,1.554-4.492
			c0.303-1.666,0.455-3.375,0.455-5.127c0-1.75-0.152-3.475-0.455-5.169c-0.303-1.695-0.822-3.191-1.554-4.491
			c-0.733-1.299-1.718-2.358-2.955-3.178c-1.238-0.818-2.766-1.229-4.584-1.229c-1.819,0-3.334,0.41-4.546,1.229
			c-1.213,0.82-2.186,1.879-2.917,3.178c-0.733,1.3-1.25,2.796-1.554,4.491c-0.303,1.695-0.455,3.419-0.455,5.169
			C492.996,109.558,493.148,111.267,493.451,112.933z"/>
		<path fill="#FFFFFF" d="M529.975,98.272c0.959-2.852,2.323-5.282,4.092-7.288c1.768-2.005,3.89-3.559,6.365-4.661
			c2.475-1.102,5.253-1.652,8.335-1.652c3.081,0,5.873,0.551,8.373,1.652c2.501,1.102,4.634,2.656,6.403,4.661
			c1.768,2.006,3.132,4.436,4.092,7.288c0.959,2.854,1.44,6.031,1.44,9.534c0,3.504-0.481,6.667-1.44,9.492
			c-0.96,2.826-2.324,5.241-4.092,7.246c-1.769,2.006-3.902,3.546-6.403,4.619c-2.5,1.072-5.292,1.61-8.373,1.61
			c-3.082,0-5.861-0.538-8.335-1.61c-2.476-1.073-4.598-2.613-6.365-4.619c-1.769-2.005-3.133-4.42-4.092-7.246
			c-0.96-2.825-1.44-5.988-1.44-9.492C528.535,104.303,529.014,101.125,529.975,98.272z M539.75,112.933
			c0.303,1.667,0.821,3.165,1.554,4.492c0.731,1.328,1.705,2.387,2.917,3.178c1.212,0.792,2.728,1.187,4.546,1.187
			c1.818,0,3.346-0.395,4.584-1.187c1.237-0.791,2.222-1.85,2.955-3.178c0.732-1.327,1.25-2.824,1.554-4.492
			c0.303-1.666,0.455-3.375,0.455-5.127c0-1.75-0.152-3.475-0.455-5.169c-0.303-1.695-0.822-3.191-1.554-4.491
			c-0.733-1.299-1.718-2.358-2.955-3.178c-1.238-0.818-2.766-1.229-4.584-1.229c-1.819,0-3.334,0.41-4.546,1.229
			c-1.213,0.82-2.186,1.879-2.917,3.178c-0.733,1.3-1.25,2.796-1.554,4.491c-0.303,1.695-0.455,3.419-0.455,5.169
			C539.295,109.558,539.447,111.267,539.75,112.933z"/>
		<path fill="#FFFFFF" d="M603.856,124.077c-1.263,2.373-2.917,4.083-4.963,5.127c-2.046,1.045-4.357,1.568-6.934,1.568
			c-2.93,0-5.507-0.635-7.729-1.907c-2.224-1.271-4.054-2.994-5.494-5.169c-1.439-2.174-2.526-4.674-3.258-7.5
			c-0.733-2.824-1.099-5.763-1.099-8.813c0-2.937,0.366-5.776,1.099-8.517c0.732-2.74,1.819-5.155,3.258-7.246
			c1.44-2.09,3.246-3.771,5.418-5.042c2.171-1.271,4.698-1.907,7.578-1.907c2.323,0,4.533,0.551,6.63,1.652
			c2.096,1.102,3.751,2.727,4.963,4.873h0.151V69.162h10.76v60.508h-10.23v-5.593H603.856z M603.401,102.424
			c-0.303-1.666-0.822-3.135-1.554-4.407c-0.733-1.271-1.68-2.301-2.841-3.093c-1.163-0.791-2.627-1.186-4.395-1.186
			c-1.769,0-3.258,0.396-4.471,1.186c-1.212,0.792-2.186,1.837-2.917,3.136c-0.733,1.3-1.264,2.783-1.591,4.449
			c-0.329,1.667-0.493,3.404-0.493,5.212c0,1.695,0.176,3.39,0.53,5.084c0.353,1.695,0.921,3.207,1.705,4.534
			c0.783,1.328,1.768,2.402,2.956,3.221c1.186,0.819,2.614,1.229,4.281,1.229c1.768,0,3.245-0.395,4.433-1.187
			c1.187-0.791,2.134-1.85,2.842-3.178c0.707-1.327,1.212-2.839,1.516-4.534c0.303-1.695,0.455-3.446,0.455-5.254
			C603.856,105.829,603.705,104.091,603.401,102.424z"/>
		<path fill="#FFFFFF" d="M653.641,114.755c0.656,1.413,1.527,2.557,2.614,3.432c1.086,0.876,2.361,1.525,3.827,1.949
			c1.465,0.424,2.98,0.635,4.546,0.635c1.061,0,2.198-0.098,3.41-0.296c1.212-0.197,2.349-0.579,3.41-1.144
			c1.061-0.564,1.944-1.341,2.652-2.331c0.707-0.988,1.061-2.246,1.061-3.771c0-1.638-0.468-2.966-1.402-3.983
			c-0.936-1.017-2.16-1.865-3.675-2.542c-1.516-0.678-3.233-1.271-5.153-1.78c-1.92-0.508-3.865-1.072-5.834-1.695
			c-2.021-0.564-3.992-1.256-5.911-2.076c-1.92-0.818-3.637-1.877-5.153-3.178c-1.516-1.299-2.741-2.923-3.675-4.873
			c-0.936-1.949-1.402-4.308-1.402-7.076c0-3.106,0.593-5.805,1.781-8.093c1.187-2.288,2.74-4.195,4.66-5.72
			c1.919-1.525,4.092-2.655,6.517-3.39c2.425-0.734,4.85-1.102,7.274-1.102c2.829,0,5.543,0.354,8.146,1.06
			c2.601,0.707,4.912,1.851,6.934,3.432c2.02,1.583,3.624,3.602,4.812,6.059c1.187,2.458,1.781,5.438,1.781,8.941h-11.518
			c-0.102-1.808-0.443-3.305-1.023-4.492c-0.581-1.187-1.352-2.119-2.311-2.796c-0.96-0.678-2.059-1.157-3.296-1.441
			c-1.238-0.282-2.589-0.424-4.054-0.424c-0.96,0-1.92,0.114-2.879,0.339c-0.96,0.226-1.832,0.622-2.614,1.186
			c-0.784,0.565-1.428,1.271-1.932,2.119c-0.506,0.848-0.758,1.921-0.758,3.221c0,1.186,0.201,2.147,0.606,2.881
			c0.404,0.735,1.2,1.413,2.387,2.034c1.187,0.623,2.829,1.243,4.925,1.864c2.096,0.623,4.837,1.413,8.222,2.373
			c1.01,0.227,2.412,0.636,4.206,1.229c1.793,0.593,3.574,1.54,5.342,2.839c1.768,1.3,3.296,3.038,4.584,5.211
			c1.289,2.176,1.933,4.958,1.933,8.348c0,2.769-0.481,5.339-1.44,7.712c-0.96,2.373-2.387,4.421-4.281,6.144
			c-1.895,1.724-4.244,3.065-7.047,4.025c-2.804,0.96-6.05,1.441-9.737,1.441c-2.981,0-5.873-0.411-8.676-1.229
			s-5.279-2.104-7.426-3.856c-2.147-1.75-3.853-3.983-5.115-6.695c-1.263-2.711-1.87-5.932-1.818-9.661h11.518
			C652.655,111.619,652.983,113.343,653.641,114.755z"/>
		<path fill="#FFFFFF" d="M694.028,92.297c1.11-1.864,2.525-3.361,4.243-4.491c1.717-1.13,3.649-1.935,5.797-2.416
			c2.146-0.479,4.306-0.72,6.479-0.72c1.97,0,3.965,0.156,5.986,0.466c2.02,0.311,3.865,0.919,5.532,1.822
			c1.667,0.904,3.031,2.161,4.092,3.771c1.061,1.61,1.591,3.744,1.591,6.398v22.796c0,1.978,0.101,3.871,0.303,5.678
			c0.201,1.809,0.555,3.165,1.061,4.068h-10.912c-0.202-0.678-0.367-1.369-0.492-2.076c-0.127-0.706-0.216-1.426-0.265-2.161
			c-1.718,1.979-3.739,3.362-6.062,4.152c-2.324,0.791-4.698,1.187-7.123,1.187c-1.869,0-3.612-0.254-5.229-0.763
			c-1.617-0.508-3.031-1.299-4.243-2.373c-1.212-1.073-2.16-2.429-2.842-4.068c-0.682-1.638-1.023-3.587-1.023-5.848
			c0-2.485,0.391-4.534,1.175-6.144c0.782-1.61,1.792-2.895,3.031-3.855c1.237-0.96,2.652-1.681,4.244-2.161
			c1.591-0.479,3.194-0.861,4.812-1.144c1.616-0.282,3.208-0.508,4.774-0.678c1.565-0.169,2.956-0.423,4.168-0.763
			c1.212-0.339,2.171-0.833,2.879-1.483c0.707-0.649,1.035-1.596,0.985-2.839c0-1.299-0.189-2.331-0.568-3.093
			c-0.378-0.763-0.884-1.356-1.515-1.78c-0.632-0.423-1.364-0.706-2.198-0.847c-0.833-0.141-1.731-0.212-2.69-0.212
			c-2.122,0-3.789,0.508-5.001,1.525s-1.92,2.712-2.122,5.084h-10.76C692.285,96.507,692.917,94.162,694.028,92.297z
			 M715.284,109.289c-0.682,0.254-1.415,0.466-2.198,0.636c-0.784,0.169-1.604,0.311-2.463,0.424
			c-0.859,0.114-1.718,0.254-2.576,0.424c-0.809,0.169-1.604,0.396-2.387,0.678c-0.784,0.283-1.465,0.665-2.046,1.144
			c-0.581,0.481-1.049,1.088-1.402,1.822c-0.354,0.735-0.53,1.667-0.53,2.796c0,1.074,0.176,1.979,0.53,2.712
			c0.353,0.735,0.833,1.313,1.44,1.737c0.606,0.424,1.313,0.72,2.122,0.89c0.808,0.169,1.641,0.254,2.501,0.254
			c2.122,0,3.763-0.395,4.925-1.187c1.162-0.791,2.02-1.737,2.576-2.839c0.556-1.102,0.896-2.217,1.023-3.348
			c0.125-1.129,0.189-2.034,0.189-2.712v-4.491C716.534,108.682,715.965,109.035,715.284,109.289z"/>
		<path fill="#FFFFFF" d="M731.991,93.908v-8.051h6.441v-3.39c0-3.898,1.086-7.089,3.258-9.576c2.171-2.485,5.456-3.729,9.851-3.729
			c0.959,0,1.919,0.042,2.879,0.127c0.959,0.085,1.895,0.156,2.804,0.212v8.983c-1.263-0.169-2.576-0.254-3.94-0.254
			c-1.466,0-2.514,0.381-3.145,1.144c-0.632,0.763-0.947,2.048-0.947,3.855v2.627h7.426v8.051h-7.426v35.762h-10.76V93.908H731.991z
			"/>
		<path fill="#FFFFFF" d="M762.756,92.297c1.11-1.864,2.525-3.361,4.243-4.491c1.717-1.13,3.649-1.935,5.797-2.416
			c2.146-0.479,4.306-0.72,6.479-0.72c1.97,0,3.965,0.156,5.986,0.466c2.02,0.311,3.865,0.919,5.532,1.822
			c1.667,0.904,3.031,2.161,4.092,3.771c1.061,1.61,1.591,3.744,1.591,6.398v22.796c0,1.978,0.101,3.871,0.303,5.678
			c0.201,1.809,0.555,3.165,1.061,4.068h-10.912c-0.202-0.678-0.367-1.369-0.492-2.076c-0.127-0.706-0.216-1.426-0.265-2.161
			c-1.718,1.979-3.739,3.362-6.062,4.152c-2.324,0.791-4.698,1.187-7.123,1.187c-1.869,0-3.612-0.254-5.229-0.763
			c-1.617-0.508-3.031-1.299-4.243-2.373c-1.212-1.073-2.16-2.429-2.842-4.068c-0.682-1.638-1.023-3.587-1.023-5.848
			c0-2.485,0.391-4.534,1.175-6.144c0.782-1.61,1.792-2.895,3.031-3.855c1.237-0.96,2.652-1.681,4.244-2.161
			c1.591-0.479,3.194-0.861,4.812-1.144c1.616-0.282,3.208-0.508,4.774-0.678c1.565-0.169,2.956-0.423,4.168-0.763
			c1.212-0.339,2.171-0.833,2.879-1.483c0.707-0.649,1.035-1.596,0.985-2.839c0-1.299-0.189-2.331-0.568-3.093
			c-0.378-0.763-0.884-1.356-1.515-1.78c-0.632-0.423-1.364-0.706-2.198-0.847c-0.833-0.141-1.731-0.212-2.69-0.212
			c-2.122,0-3.789,0.508-5.001,1.525s-1.92,2.712-2.122,5.084h-10.76C761.013,96.507,761.644,94.162,762.756,92.297z
			 M784.011,109.289c-0.682,0.254-1.415,0.466-2.198,0.636c-0.784,0.169-1.604,0.311-2.463,0.424
			c-0.859,0.114-1.718,0.254-2.576,0.424c-0.809,0.169-1.604,0.396-2.387,0.678c-0.784,0.283-1.465,0.665-2.046,1.144
			c-0.581,0.481-1.049,1.088-1.402,1.822c-0.354,0.735-0.53,1.667-0.53,2.796c0,1.074,0.176,1.979,0.53,2.712
			c0.353,0.735,0.833,1.313,1.44,1.737c0.606,0.424,1.313,0.72,2.122,0.89c0.808,0.169,1.641,0.254,2.501,0.254
			c2.122,0,3.763-0.395,4.925-1.187c1.162-0.791,2.02-1.737,2.576-2.839c0.556-1.102,0.896-2.217,1.023-3.348
			c0.125-1.129,0.189-2.034,0.189-2.712v-4.491C785.261,108.682,784.693,109.035,784.011,109.289z"/>
		<path fill="#FFFFFF" d="M815.041,85.857v8.135h0.151c0.504-1.356,1.187-2.612,2.046-3.771c0.858-1.157,1.844-2.146,2.956-2.966
			c1.11-0.818,2.298-1.454,3.562-1.907c1.262-0.451,2.576-0.678,3.94-0.678c0.707,0,1.489,0.142,2.349,0.424V96.28
			c-0.505-0.112-1.111-0.212-1.818-0.296c-0.708-0.085-1.39-0.127-2.046-0.127c-1.97,0-3.637,0.368-5.001,1.102
			c-1.364,0.735-2.462,1.737-3.296,3.008c-0.833,1.271-1.428,2.754-1.78,4.449c-0.354,1.695-0.531,3.531-0.531,5.508v19.746h-10.76
			V85.857H815.041z"/>
		<path fill="#FFFFFF" d="M834.59,79.077v-9.915h10.76v9.915H834.59z M845.351,85.857v43.813h-10.76V85.857H845.351z"/>
	</g>
	<path fill="#FFFFFF" d="M1849.956,77.721c-2.754-2.146-6.024-3.22-9.813-3.22c-3.233,0-5.999,0.678-8.298,2.034
		s-4.193,3.178-5.683,5.466c-1.491,2.288-2.59,4.902-3.297,7.839c-0.708,2.938-1.061,5.989-1.061,9.152
		c0,3.447,0.353,6.709,1.061,9.788c0.707,3.08,1.806,5.763,3.297,8.051c1.489,2.288,3.396,4.11,5.721,5.466
		c2.323,1.356,5.103,2.034,8.336,2.034c2.374,0,4.482-0.437,6.327-1.313c1.844-0.875,3.435-2.09,4.773-3.644
		c1.338-1.553,2.388-3.403,3.146-5.551c0.757-2.146,1.212-4.462,1.363-6.949h7.199c-0.708,7.627-3.058,13.559-7.048,17.796
		c-3.991,4.237-9.446,6.356-16.367,6.356c-4.193,0-7.856-0.805-10.987-2.415c-3.133-1.61-5.734-3.827-7.806-6.653
		c-2.071-2.824-3.625-6.157-4.66-10c-1.036-3.841-1.553-7.966-1.553-12.373s0.555-8.544,1.667-12.415
		c1.11-3.869,2.739-7.246,4.888-10.127c2.146-2.881,4.823-5.155,8.032-6.822c3.207-1.666,6.882-2.5,11.025-2.5
		c2.828,0,5.505,0.424,8.032,1.271c2.525,0.847,4.773,2.091,6.744,3.729c1.97,1.64,3.611,3.687,4.925,6.144s2.172,5.297,2.577,8.517
		h-7.199C1854.489,83.089,1852.708,79.869,1849.956,77.721z"/>
	<path fill="#FFFFFF" d="M1877.348,69.162v23.135h0.151c0.504-1.356,1.212-2.5,2.121-3.432c0.91-0.932,1.933-1.695,3.069-2.288
		s2.323-1.03,3.562-1.313c1.237-0.282,2.437-0.424,3.6-0.424c2.576,0,4.723,0.396,6.44,1.187c1.717,0.792,3.107,1.894,4.168,3.305
		c1.061,1.413,1.806,3.093,2.235,5.042c0.429,1.949,0.645,4.11,0.645,6.483v28.813h-6.441v-29.661c0-2.712-0.708-4.858-2.122-6.441
		c-1.414-1.581-3.359-2.373-5.834-2.373c-1.971,0-3.676,0.339-5.115,1.017c-1.439,0.678-2.641,1.639-3.6,2.881
		c-0.96,1.243-1.68,2.698-2.159,4.364c-0.48,1.667-0.72,3.489-0.72,5.466v24.746h-6.441V69.162H1877.348z"/>
	<path fill="#FFFFFF" d="M1943.121,130.602c-1.667,0-2.993-0.523-3.978-1.568c-0.985-1.044-1.479-2.754-1.479-5.127
		c-1.769,2.373-3.826,4.083-6.176,5.127c-2.349,1.045-4.887,1.568-7.615,1.568c-1.769,0-3.436-0.212-5.001-0.636
		c-1.566-0.423-2.943-1.129-4.13-2.118c-1.188-0.988-2.122-2.259-2.804-3.814c-0.682-1.553-1.023-3.432-1.023-5.635
		c0-2.485,0.379-4.52,1.137-6.102c0.758-1.581,1.755-2.867,2.993-3.856c1.237-0.988,2.652-1.737,4.244-2.246
		c1.591-0.509,3.22-0.933,4.888-1.271c1.768-0.395,3.447-0.691,5.039-0.89c1.591-0.197,2.993-0.479,4.205-0.848
		c1.213-0.367,2.172-0.903,2.88-1.61c0.707-0.706,1.061-1.737,1.061-3.093c0-1.581-0.266-2.852-0.796-3.813
		c-0.53-0.96-1.212-1.695-2.046-2.204c-0.833-0.508-1.769-0.847-2.804-1.017c-1.036-0.17-2.059-0.254-3.068-0.254
		c-2.729,0-5.002,0.58-6.82,1.737c-1.818,1.159-2.804,3.347-2.955,6.568h-6.441c0.101-2.712,0.606-5,1.516-6.865
		c0.909-1.864,2.122-3.375,3.638-4.534c1.516-1.157,3.258-1.992,5.229-2.5c1.97-0.508,4.041-0.763,6.214-0.763
		c1.768,0,3.523,0.142,5.266,0.424c1.743,0.283,3.321,0.862,4.736,1.737c1.414,0.876,2.551,2.105,3.41,3.687
		c0.858,1.582,1.288,3.644,1.288,6.186v22.542c0,1.695,0.088,2.938,0.266,3.729c0.176,0.792,0.77,1.187,1.78,1.187
		c0.556,0,1.213-0.141,1.971-0.424v5.593C1946.632,130.234,1945.092,130.602,1943.121,130.602z M1934.104,108.526
		c-1.313,0.312-2.689,0.565-4.129,0.763c-1.44,0.199-2.893,0.424-4.357,0.678c-1.466,0.254-2.779,0.665-3.94,1.229
		c-1.163,0.565-2.11,1.371-2.842,2.416c-0.732,1.046-1.099,2.472-1.099,4.28c0,1.186,0.214,2.19,0.645,3.008
		c0.428,0.819,0.984,1.483,1.667,1.991c0.682,0.509,1.489,0.877,2.425,1.102c0.934,0.226,1.881,0.339,2.841,0.339
		c2.122,0,3.94-0.325,5.456-0.975c1.516-0.649,2.753-1.468,3.713-2.458c0.959-0.988,1.668-2.062,2.122-3.22
		c0.455-1.158,0.682-2.246,0.682-3.263v-7.373C1936.478,107.721,1935.417,108.216,1934.104,108.526z"/>
	<path fill="#FFFFFF" d="M1959.792,85.857v6.949h0.151c2.677-5.31,6.92-7.966,12.73-7.966c2.576,0,4.723,0.396,6.44,1.187
		c1.717,0.792,3.107,1.894,4.168,3.305c1.061,1.413,1.806,3.093,2.235,5.042c0.429,1.949,0.645,4.11,0.645,6.483v28.813h-6.441
		v-29.661c0-2.712-0.708-4.858-2.122-6.441c-1.414-1.581-3.359-2.373-5.834-2.373c-1.971,0-3.676,0.339-5.115,1.017
		c-1.439,0.678-2.641,1.639-3.6,2.881c-0.96,1.243-1.68,2.698-2.159,4.364c-0.48,1.667-0.72,3.489-0.72,5.466v24.746h-6.441V85.857
		H1959.792z"/>
	<path fill="#FFFFFF" d="M2001.923,85.857v6.949h0.151c2.677-5.31,6.92-7.966,12.73-7.966c2.576,0,4.723,0.396,6.44,1.187
		c1.717,0.792,3.107,1.894,4.168,3.305c1.061,1.413,1.806,3.093,2.235,5.042c0.429,1.949,0.645,4.11,0.645,6.483v28.813h-6.441
		v-29.661c0-2.712-0.708-4.858-2.122-6.441c-1.414-1.581-3.359-2.373-5.834-2.373c-1.971,0-3.676,0.339-5.115,1.017
		c-1.439,0.678-2.641,1.639-3.6,2.881c-0.96,1.243-1.68,2.698-2.159,4.364c-0.48,1.667-0.72,3.489-0.72,5.466v24.746h-6.441V85.857
		H2001.923z"/>
	<path fill="#FFFFFF" d="M2065.727,126.874c-2.931,2.486-6.619,3.729-11.063,3.729c-3.133,0-5.848-0.565-8.146-1.695
		c-2.3-1.129-4.232-2.712-5.798-4.746c-1.566-2.034-2.74-4.462-3.523-7.288c-0.783-2.825-1.226-5.903-1.326-9.237
		c0-3.333,0.455-6.384,1.364-9.152c0.909-2.768,2.185-5.169,3.827-7.204c1.641-2.034,3.586-3.615,5.834-4.746
		c2.248-1.129,4.71-1.695,7.389-1.695c3.485,0,6.377,0.805,8.677,2.415c2.298,1.61,4.142,3.659,5.531,6.144
		c1.389,2.487,2.349,5.199,2.88,8.136c0.53,2.938,0.744,5.735,0.644,8.39h-29.325c-0.051,1.921,0.151,3.743,0.606,5.466
		c0.454,1.724,1.187,3.249,2.197,4.576c1.01,1.328,2.298,2.387,3.864,3.178c1.565,0.792,3.41,1.187,5.532,1.187
		c2.728,0,4.963-0.706,6.706-2.119c1.743-1.412,2.892-3.559,3.447-6.44h6.365C2070.55,120.687,2068.655,124.388,2065.727,126.874z
		 M2064.173,98.738c-0.581-1.525-1.364-2.839-2.349-3.94c-0.985-1.102-2.148-1.977-3.486-2.627
		c-1.339-0.649-2.816-0.975-4.433-0.975c-1.667,0-3.171,0.326-4.509,0.975c-1.339,0.65-2.488,1.54-3.447,2.669
		c-0.961,1.131-1.719,2.444-2.273,3.94c-0.557,1.498-0.885,3.093-0.985,4.788h22.506
		C2065.094,101.874,2064.753,100.264,2064.173,98.738z"/>
	<path fill="#FFFFFF" d="M2085.503,69.162v60.508h-6.441V69.162H2085.503z"/>
	<path fill="#FFFFFF" d="M2144.721,77.425c-2.4-1.949-5.47-2.924-9.207-2.924c-1.516,0-3.007,0.169-4.471,0.508
		c-1.466,0.339-2.767,0.905-3.902,1.695c-1.137,0.792-2.046,1.851-2.729,3.178c-0.682,1.328-1.022,2.98-1.022,4.958
		c0,1.864,0.492,3.376,1.478,4.534c0.984,1.159,2.298,2.105,3.94,2.839c1.641,0.735,3.497,1.342,5.569,1.822
		c2.07,0.48,4.18,1.004,6.327,1.568c2.146,0.565,4.255,1.229,6.327,1.991c2.071,0.763,3.928,1.794,5.569,3.093
		c1.642,1.3,2.956,2.938,3.94,4.916c0.985,1.978,1.478,4.463,1.478,7.458c0,3.22-0.644,5.975-1.932,8.263s-2.943,4.152-4.964,5.593
		c-2.021,1.441-4.281,2.487-6.781,3.136c-2.501,0.649-4.99,0.975-7.464,0.975c-3.031,0-5.899-0.424-8.602-1.271
		c-2.702-0.848-5.076-2.132-7.122-3.856c-2.046-1.723-3.664-3.926-4.851-6.61c-1.188-2.683-1.78-5.86-1.78-9.534h6.82
		c0,2.542,0.441,4.732,1.325,6.568c0.884,1.836,2.047,3.347,3.486,4.534s3.118,2.063,5.039,2.627c1.919,0.565,3.89,0.848,5.91,0.848
		c1.616,0,3.246-0.169,4.888-0.508c1.642-0.339,3.119-0.918,4.433-1.737c1.313-0.818,2.374-1.935,3.183-3.348
		c0.808-1.412,1.213-3.22,1.213-5.424c0-2.089-0.492-3.784-1.478-5.084c-0.985-1.299-2.3-2.358-3.94-3.178
		c-1.643-0.818-3.499-1.483-5.569-1.992c-2.072-0.508-4.181-1.03-6.327-1.568c-2.148-0.536-4.257-1.157-6.328-1.864
		c-2.071-0.706-3.928-1.638-5.569-2.797c-1.642-1.157-2.955-2.655-3.94-4.491c-0.985-1.835-1.478-4.138-1.478-6.907
		c0-3.051,0.556-5.691,1.667-7.924c1.11-2.231,2.589-4.067,4.433-5.508c1.844-1.44,3.94-2.513,6.29-3.22
		c2.349-0.706,4.761-1.06,7.236-1.06c2.778,0,5.354,0.368,7.729,1.102c2.374,0.735,4.458,1.894,6.251,3.475
		c1.793,1.582,3.208,3.574,4.244,5.974c1.034,2.402,1.603,5.269,1.705,8.602h-6.82C2148.521,82.524,2147.119,79.374,2144.721,77.425
		z"/>
	<path fill="#FFFFFF" d="M2193.406,126.874c-2.931,2.486-6.619,3.729-11.063,3.729c-3.133,0-5.848-0.565-8.146-1.695
		c-2.3-1.129-4.232-2.712-5.798-4.746c-1.566-2.034-2.74-4.462-3.523-7.288c-0.783-2.825-1.226-5.903-1.326-9.237
		c0-3.333,0.455-6.384,1.364-9.152c0.909-2.768,2.185-5.169,3.827-7.204c1.641-2.034,3.586-3.615,5.834-4.746
		c2.248-1.129,4.71-1.695,7.389-1.695c3.485,0,6.377,0.805,8.677,2.415c2.298,1.61,4.142,3.659,5.531,6.144
		c1.389,2.487,2.349,5.199,2.88,8.136c0.53,2.938,0.744,5.735,0.644,8.39h-29.325c-0.051,1.921,0.151,3.743,0.606,5.466
		c0.454,1.724,1.187,3.249,2.197,4.576c1.01,1.328,2.298,2.387,3.864,3.178c1.565,0.792,3.41,1.187,5.532,1.187
		c2.728,0,4.963-0.706,6.706-2.119c1.743-1.412,2.892-3.559,3.447-6.44h6.365C2198.229,120.687,2196.335,124.388,2193.406,126.874z
		 M2191.853,98.738c-0.581-1.525-1.364-2.839-2.349-3.94c-0.985-1.102-2.148-1.977-3.486-2.627
		c-1.339-0.649-2.816-0.975-4.433-0.975c-1.667,0-3.171,0.326-4.509,0.975c-1.339,0.65-2.488,1.54-3.447,2.669
		c-0.961,1.131-1.719,2.444-2.273,3.94c-0.557,1.498-0.885,3.093-0.985,4.788h22.506
		C2192.773,101.874,2192.433,100.264,2191.853,98.738z"/>
	<path fill="#FFFFFF" d="M2213.183,69.162v60.508h-6.441V69.162H2213.183z"/>
	<path fill="#FFFFFF" d="M2250.918,126.874c-2.931,2.486-6.619,3.729-11.063,3.729c-3.133,0-5.848-0.565-8.146-1.695
		c-2.3-1.129-4.232-2.712-5.798-4.746c-1.566-2.034-2.74-4.462-3.523-7.288c-0.783-2.825-1.226-5.903-1.326-9.237
		c0-3.333,0.455-6.384,1.364-9.152c0.909-2.768,2.185-5.169,3.827-7.204c1.641-2.034,3.586-3.615,5.834-4.746
		c2.248-1.129,4.71-1.695,7.389-1.695c3.485,0,6.377,0.805,8.677,2.415c2.298,1.61,4.142,3.659,5.531,6.144
		c1.389,2.487,2.349,5.199,2.88,8.136c0.53,2.938,0.744,5.735,0.644,8.39h-29.325c-0.051,1.921,0.151,3.743,0.606,5.466
		c0.454,1.724,1.187,3.249,2.197,4.576c1.01,1.328,2.298,2.387,3.864,3.178c1.565,0.792,3.41,1.187,5.532,1.187
		c2.728,0,4.963-0.706,6.706-2.119c1.743-1.412,2.892-3.559,3.447-6.44h6.365C2255.741,120.687,2253.847,124.388,2250.918,126.874z
		 M2249.364,98.738c-0.581-1.525-1.364-2.839-2.349-3.94c-0.985-1.102-2.148-1.977-3.486-2.627
		c-1.339-0.649-2.816-0.975-4.433-0.975c-1.667,0-3.171,0.326-4.509,0.975c-1.339,0.65-2.488,1.54-3.447,2.669
		c-0.961,1.131-1.719,2.444-2.273,3.94c-0.557,1.498-0.885,3.093-0.985,4.788h22.506
		C2250.285,101.874,2249.944,100.264,2249.364,98.738z"/>
	<path fill="#FFFFFF" d="M2287.289,93.484c-1.617-1.525-3.789-2.288-6.517-2.288c-2.324,0-4.27,0.48-5.835,1.44
		c-1.566,0.961-2.816,2.233-3.751,3.813c-0.936,1.583-1.604,3.405-2.008,5.466c-0.405,2.063-0.606,4.195-0.606,6.398
		c0,2.034,0.214,4.012,0.645,5.932c0.428,1.921,1.099,3.63,2.008,5.127c0.909,1.498,2.096,2.698,3.562,3.602
		c1.465,0.904,3.207,1.356,5.229,1.356c3.183,0,5.67-0.932,7.464-2.797c1.792-1.864,2.892-4.491,3.296-7.881h6.593
		c-0.708,5.423-2.514,9.605-5.418,12.542c-2.905,2.938-6.857,4.407-11.859,4.407c-2.98,0-5.62-0.538-7.918-1.61
		c-2.3-1.073-4.219-2.598-5.759-4.577c-1.542-1.977-2.703-4.335-3.486-7.076c-0.783-2.739-1.175-5.748-1.175-9.025
		c0-3.276,0.379-6.341,1.137-9.195c0.758-2.853,1.906-5.339,3.448-7.458c1.54-2.118,3.473-3.784,5.797-5
		c2.323-1.214,5.026-1.822,8.108-1.822c2.222,0,4.306,0.297,6.251,0.89c1.944,0.593,3.662,1.512,5.153,2.754
		c1.489,1.243,2.715,2.811,3.675,4.703c0.959,1.894,1.565,4.14,1.818,6.737h-6.668C2289.966,97.157,2288.905,95.009,2287.289,93.484
		z"/>
	<path fill="#FFFFFF" d="M2321.312,85.857v6.356h-7.806v27.203c0,0.847,0.063,1.525,0.189,2.034s0.366,0.904,0.72,1.187
		c0.354,0.283,0.846,0.466,1.479,0.551c0.631,0.084,1.451,0.127,2.462,0.127h2.956v6.356h-4.926c-1.667,0-3.095-0.127-4.281-0.381
		c-1.188-0.254-2.148-0.72-2.88-1.398c-0.732-0.678-1.276-1.638-1.629-2.881c-0.354-1.242-0.53-2.881-0.53-4.915V92.213h-6.669
		v-6.356h6.669V72.721h6.44v13.136H2321.312z"/>
	<path fill="#FFFFFF" d="M2327.523,98.78c0.808-2.796,2.02-5.225,3.637-7.288c1.616-2.062,3.611-3.686,5.986-4.873
		c2.374-1.187,5.103-1.78,8.185-1.78c3.132,0,5.872,0.593,8.222,1.78c2.349,1.187,4.331,2.811,5.948,4.873
		c1.616,2.063,2.828,4.492,3.638,7.288c0.807,2.797,1.212,5.805,1.212,9.025s-0.405,6.216-1.212,8.983
		c-0.81,2.769-2.021,5.184-3.638,7.246c-1.617,2.063-3.6,3.673-5.948,4.831c-2.35,1.157-5.09,1.737-8.222,1.737
		c-3.082,0-5.811-0.58-8.185-1.737c-2.375-1.157-4.37-2.768-5.986-4.831c-1.617-2.062-2.829-4.477-3.637-7.246
		c-0.809-2.767-1.213-5.763-1.213-8.983S2326.715,101.577,2327.523,98.78z M2334.078,114.882c0.631,2.063,1.502,3.786,2.614,5.169
		c1.11,1.385,2.412,2.444,3.902,3.178c1.489,0.735,3.069,1.102,4.736,1.102s3.245-0.367,4.735-1.102
		c1.49-0.734,2.791-1.793,3.903-3.178c1.11-1.384,1.981-3.106,2.614-5.169c0.631-2.062,0.947-4.42,0.947-7.076
		c0-2.655-0.316-5.013-0.947-7.076c-0.633-2.062-1.504-3.799-2.614-5.212c-1.112-1.412-2.413-2.485-3.903-3.22
		c-1.49-0.733-3.068-1.102-4.735-1.102s-3.247,0.368-4.736,1.102c-1.49,0.735-2.792,1.809-3.902,3.22
		c-1.112,1.413-1.983,3.15-2.614,5.212c-0.633,2.063-0.947,4.421-0.947,7.076C2333.131,110.462,2333.445,112.82,2334.078,114.882z"
		/>
	<path fill="#FFFFFF" d="M2377.763,85.857v9.237h0.151c1.565-3.56,3.485-6.187,5.759-7.881s5.153-2.485,8.639-2.373v7.627
		c-2.576,0-4.773,0.396-6.593,1.187c-1.818,0.792-3.284,1.949-4.395,3.475c-1.112,1.525-1.921,3.376-2.425,5.551
		c-0.506,2.175-0.758,4.675-0.758,7.5v19.491h-6.441V85.857H2377.763z"/>
	<g display="none">
	</g>
</g>
<g id="Layer_2">
	<rect id="_x3C_Slice_x3E__44_" fill="none" width="107.148" height="262.612"/>
	<rect id="_x3C_Slice_x3E__45_" x="107.148" fill="none" width="353.239" height="262.612"/>
	<rect id="_x3C_Slice_x3E__46_" x="460.387" fill="none" width="142.807" height="262.612"/>
	<rect id="_x3C_Slice_x3E__47_" x="603.194" fill="none" width="354.491" height="262.612"/>
	<rect id="_x3C_Slice_x3E__48_" x="957.685" fill="none" width="142.807" height="262.612"/>
	<rect id="_x3C_Slice_x3E__49_" x="1100.491" fill="none" width="354.491" height="262.612"/>
	<rect id="_x3C_Slice_x3E__50_" x="1454.982" fill="none" width="142.807" height="262.612"/>
	<rect id="_x3C_Slice_x3E__51_" x="1597.789" fill="none" width="354.49" height="262.612"/>
	<rect id="_x3C_Slice_x3E__52_" x="1952.279" fill="none" width="142.807" height="262.612"/>
	<rect id="_x3C_Slice_x3E__53_" x="2095.086" fill="none" width="354.49" height="262.612"/>
	<rect id="_x3C_Slice_x3E__54_" x="2449.576" fill="none" width="110.424" height="262.612"/>
</g>
</svg>
