<?xml version="1.0" encoding="utf-8"?>
<!-- Generator: Adobe Illustrator 16.0.0, SVG Export Plug-In . SVG Version: 6.00 Build 0)  -->
<!DOCTYPE svg PUBLIC "-//W3C//DTD SVG 1.1//EN" "http://www.w3.org/Graphics/SVG/1.1/DTD/svg11.dtd" [
	<!ENTITY ns_extend "http://ns.adobe.com/Extensibility/1.0/">
	<!ENTITY ns_ai "http://ns.adobe.com/AdobeIllustrator/10.0/">
	<!ENTITY ns_graphs "http://ns.adobe.com/Graphs/1.0/">
	<!ENTITY ns_vars "http://ns.adobe.com/Variables/1.0/">
	<!ENTITY ns_imrep "http://ns.adobe.com/ImageReplacement/1.0/">
	<!ENTITY ns_sfw "http://ns.adobe.com/SaveForWeb/1.0/">
	<!ENTITY ns_custom "http://ns.adobe.com/GenericCustomNamespace/1.0/">
	<!ENTITY ns_adobe_xpath "http://ns.adobe.com/XPath/1.0/">
]>
<svg version="1.1" xmlns:x="&ns_extend;" xmlns:i="&ns_ai;" xmlns:graph="&ns_graphs;"
	 xmlns="http://www.w3.org/2000/svg" xmlns:xlink="http://www.w3.org/1999/xlink" x="0px" y="0px" width="354.49px"
	 height="396.611px" viewBox="0 0 354.49 396.611" enable-background="new 0 0 354.49 396.611" xml:space="preserve">
<metadata>
	<sfw  xmlns="&ns_sfw;">
		<slices></slices>
		<sliceSourceBounds  x="-6911" y="-8912" bottomLeftOrigin="true" height="16383" width="16383"></sliceSourceBounds>
	</sfw>
</metadata>
<g id="Background" display="none">
	<radialGradient id="SVGID_1_" cx="1186.8584" cy="451.6743" r="1113.6583" gradientUnits="userSpaceOnUse">
		<stop  offset="0" style="stop-color:#006594"/>
		<stop  offset="0.5393" style="stop-color:#000B2A"/>
		<stop  offset="1" style="stop-color:#00232A"/>
	</radialGradient>
	<rect x="-93.142" y="-465.969" display="inline" fill="url(#SVGID_1_)" width="2560" height="1835.287"/>
</g>
<g id="Layer_1" display="none">
	<linearGradient id="SVGID_2_" gradientUnits="userSpaceOnUse" x1="262.041" y1="393.189" x2="262.041" y2="41.4598">
		<stop  offset="0.3166" style="stop-color:#FF8700"/>
		<stop  offset="1" style="stop-color:#FFE12A"/>
	</linearGradient>
	<path display="inline" fill="url(#SVGID_2_)" d="M439.286,321.946c-4.131,38.537-35.656,72.457-74.201,72.457H154.868
		c-38.539,0-70.072-33.92-70.072-72.457V111.727c0-38.54,31.533-72.405,70.072-72.405h210.217c38.545,0,70.07,33.865,74.201,72.405
		V321.946z"/>
	<g display="inline">
		<linearGradient id="SVGID_3_" gradientUnits="userSpaceOnUse" x1="177.1782" y1="128.2925" x2="340.3056" y2="332.2024">
			<stop  offset="0" style="stop-color:#FFFFFF"/>
			<stop  offset="1" style="stop-color:#E6E5E5"/>
		</linearGradient>
		<path fill="url(#SVGID_3_)" d="M352.172,300.617V133.589c0-5.883-4.835-10.649-10.795-10.649H182.705
			c-5.962,0-10.795,4.767-10.795,10.649v201.563c0,5.883,4.833,10.648,10.795,10.648h123.246L352.172,300.617z"/>
		<polygon fill="#F4F4F4" points="352.172,300.617 305.951,300.617 305.951,345.8 		"/>
	</g>
	<g display="inline">
		<path fill="#B6B6B6" d="M265.548,246.703h-19.303l-2.297,5.319c-0.752,1.772-1.128,3.237-1.128,4.392
			c0,1.532,0.618,2.66,1.854,3.386c0.725,0.43,2.512,0.752,5.36,0.967v1.491h-18.175v-1.491c1.961-0.295,3.573-1.106,4.836-2.438
			c1.263-1.328,2.821-4.076,4.674-8.24l19.545-43.604h0.766l19.706,44.812c1.88,4.244,3.425,6.918,4.634,8.02
			c0.914,0.832,2.203,1.316,3.869,1.45v1.491h-26.436v-1.491h1.088c2.123,0,3.613-0.295,4.473-0.886
			c0.591-0.431,0.887-1.049,0.887-1.854c0-0.483-0.081-0.98-0.242-1.491c-0.054-0.241-0.457-1.249-1.209-3.021L265.548,246.703z
			 M264.178,243.72l-8.14-18.819l-8.382,18.819H264.178z"/>
	</g>
</g>
<g id="squares">
	<g>
		<text transform="matrix(0.8942 0 0 1 95.48 384.7593)" font-family="'HelveticaNeue'" font-size="36">Latest Note</text>
	</g>
	<g>
		<g>
			<linearGradient id="SVGID_4_" gradientUnits="userSpaceOnUse" x1="297.9297" y1="5.9741" x2="297.9297" y2="114.2254">
				<stop  offset="0" style="stop-color:#EED387"/>
				<stop  offset="0.5" style="stop-color:#E6C14C"/>
				<stop  offset="1" style="stop-color:#E1B724"/>
			</linearGradient>
			<path fill="url(#SVGID_4_)" d="M352.742,92.537c-1.278,11.918-11.027,22.406-22.946,22.406h-65.009
				c-11.918,0-21.669-10.488-21.669-22.406v-65.01c0-11.917,9.751-22.391,21.669-22.391h65.009
				c11.919,0,21.668,10.474,22.946,22.391V92.537z"/>
			<linearGradient id="SVGID_5_" gradientUnits="userSpaceOnUse" x1="177.2451" y1="5.9741" x2="177.2451" y2="114.2254">
				<stop  offset="0" style="stop-color:#EED387"/>
				<stop  offset="0.5" style="stop-color:#E6C14C"/>
				<stop  offset="1" style="stop-color:#E1B724"/>
			</linearGradient>
			<path fill="url(#SVGID_5_)" d="M232.058,92.537c-1.278,11.918-11.027,22.406-22.946,22.406h-65.009
				c-11.918,0-21.669-10.488-21.669-22.406v-65.01c0-11.917,9.751-22.391,21.669-22.391h65.009
				c11.919,0,21.668,10.474,22.946,22.391V92.537z"/>
			<linearGradient id="SVGID_6_" gradientUnits="userSpaceOnUse" x1="56.5605" y1="5.9741" x2="56.5605" y2="114.2254">
				<stop  offset="0" style="stop-color:#EED387"/>
				<stop  offset="0.5" style="stop-color:#E6C14C"/>
				<stop  offset="1" style="stop-color:#E1B724"/>
			</linearGradient>
			<path fill="url(#SVGID_6_)" d="M111.373,92.537c-1.278,11.918-11.027,22.406-22.946,22.406H23.417
				c-11.918,0-21.669-10.488-21.669-22.406v-65.01c0-11.917,9.751-22.391,21.669-22.391h65.009
				c11.919,0,21.668,10.474,22.946,22.391V92.537z"/>
			<linearGradient id="SVGID_7_" gradientUnits="userSpaceOnUse" x1="297.9297" y1="124.2866" x2="297.9297" y2="232.5379">
				<stop  offset="0" style="stop-color:#EED387"/>
				<stop  offset="0.5" style="stop-color:#E6C14C"/>
				<stop  offset="1" style="stop-color:#E1B724"/>
			</linearGradient>
			<path fill="url(#SVGID_7_)" d="M352.742,210.849c-1.278,11.918-11.027,22.406-22.946,22.406h-65.009
				c-11.918,0-21.669-10.488-21.669-22.406v-65.01c0-11.917,9.751-22.391,21.669-22.391h65.009
				c11.919,0,21.668,10.474,22.946,22.391V210.849z"/>
			<linearGradient id="SVGID_8_" gradientUnits="userSpaceOnUse" x1="177.2451" y1="124.2866" x2="177.2451" y2="232.5379">
				<stop  offset="0" style="stop-color:#EED387"/>
				<stop  offset="0.5" style="stop-color:#E6C14C"/>
				<stop  offset="1" style="stop-color:#E1B724"/>
			</linearGradient>
			<path fill="url(#SVGID_8_)" d="M232.058,210.849c-1.278,11.918-11.027,22.406-22.946,22.406h-65.009
				c-11.918,0-21.669-10.488-21.669-22.406v-65.01c0-11.917,9.751-22.391,21.669-22.391h65.009
				c11.919,0,21.668,10.474,22.946,22.391V210.849z"/>
			<linearGradient id="SVGID_9_" gradientUnits="userSpaceOnUse" x1="56.5605" y1="124.2866" x2="56.5605" y2="232.5379">
				<stop  offset="0" style="stop-color:#EED387"/>
				<stop  offset="0.5" style="stop-color:#E6C14C"/>
				<stop  offset="1" style="stop-color:#E1B724"/>
			</linearGradient>
			<path fill="url(#SVGID_9_)" d="M111.373,210.849c-1.278,11.918-11.027,22.406-22.946,22.406H23.417
				c-11.918,0-21.669-10.488-21.669-22.406v-65.01c0-11.917,9.751-22.391,21.669-22.391h65.009
				c11.919,0,21.668,10.474,22.946,22.391V210.849z"/>
			<linearGradient id="SVGID_10_" gradientUnits="userSpaceOnUse" x1="297.9297" y1="242.5991" x2="297.9297" y2="350.8509">
				<stop  offset="0" style="stop-color:#EED387"/>
				<stop  offset="0.5" style="stop-color:#E6C14C"/>
				<stop  offset="1" style="stop-color:#E1B724"/>
			</linearGradient>
			<path fill="url(#SVGID_10_)" d="M352.742,329.162c-1.278,11.918-11.027,22.406-22.946,22.406h-65.009
				c-11.918,0-21.669-10.488-21.669-22.406v-65.01c0-11.917,9.751-22.391,21.669-22.391h65.009
				c11.919,0,21.668,10.474,22.946,22.391V329.162z"/>
			<linearGradient id="SVGID_11_" gradientUnits="userSpaceOnUse" x1="177.2451" y1="242.5991" x2="177.2451" y2="350.8509">
				<stop  offset="0" style="stop-color:#EED387"/>
				<stop  offset="0.5" style="stop-color:#E6C14C"/>
				<stop  offset="1" style="stop-color:#E1B724"/>
			</linearGradient>
			<path fill="url(#SVGID_11_)" d="M232.058,329.162c-1.278,11.918-11.027,22.406-22.946,22.406h-65.009
				c-11.918,0-21.669-10.488-21.669-22.406v-65.01c0-11.917,9.751-22.391,21.669-22.391h65.009
				c11.919,0,21.668,10.474,22.946,22.391V329.162z"/>
			<linearGradient id="SVGID_12_" gradientUnits="userSpaceOnUse" x1="56.5605" y1="242.5991" x2="56.5605" y2="350.8509">
				<stop  offset="0" style="stop-color:#EED387"/>
				<stop  offset="0.5" style="stop-color:#E6C14C"/>
				<stop  offset="1" style="stop-color:#E1B724"/>
			</linearGradient>
			<path fill="url(#SVGID_12_)" d="M111.373,329.162c-1.278,11.918-11.027,22.406-22.946,22.406H23.417
				c-11.918,0-21.669-10.488-21.669-22.406v-65.01c0-11.917,9.751-22.391,21.669-22.391h65.009
				c11.919,0,21.668,10.474,22.946,22.391V329.162z"/>
		</g>
		<g>
			<g>
				<linearGradient id="SVGID_13_" gradientUnits="userSpaceOnUse" x1="92.3823" y1="68.2759" x2="255.5104" y2="272.1866">
					<stop  offset="0" style="stop-color:#FFFFFF"/>
					<stop  offset="1" style="stop-color:#E6E5E5"/>
				</linearGradient>
				<path fill="url(#SVGID_13_)" d="M267.376,240.601V73.572c0-5.883-4.835-10.648-10.795-10.648H97.908
					c-5.962,0-10.795,4.766-10.795,10.648v201.564c0,5.883,4.833,10.648,10.795,10.648h123.246L267.376,240.601z"/>
				<polygon fill="#F4F4F4" points="267.376,240.601 221.154,240.601 221.154,285.785 				"/>
			</g>
			<g>
				<path fill="#B6B6B6" d="M181.919,186.687h-19.303l-2.297,5.318c-0.752,1.773-1.129,3.238-1.129,4.393
					c0,1.531,0.618,2.66,1.854,3.385c0.725,0.43,2.512,0.752,5.359,0.967v1.492h-18.175v-1.492c1.961-0.295,3.573-1.105,4.836-2.438
					c1.263-1.328,2.821-4.076,4.675-8.24l19.545-43.604h0.766l19.706,44.812c1.88,4.244,3.425,6.918,4.634,8.02
					c0.914,0.832,2.203,1.316,3.869,1.449v1.492h-26.437v-1.492h1.089c2.122,0,3.613-0.295,4.473-0.885
					c0.591-0.432,0.887-1.049,0.887-1.855c0-0.482-0.081-0.98-0.242-1.49c-0.054-0.242-0.456-1.25-1.209-3.021L181.919,186.687z
					 M180.549,183.705l-8.14-18.82l-8.383,18.82H180.549z"/>
			</g>
		</g>
	</g>
</g>
<g id="guides">
</g>
<g id="circles" display="none">
</g>
</svg>
