<?xml version="1.0" encoding="utf-8"?>
<!-- Generator: Adobe Illustrator 16.0.0, SVG Export Plug-In . SVG Version: 6.00 Build 0)  -->
<!DOCTYPE svg PUBLIC "-//W3C//DTD SVG 1.1//EN" "http://www.w3.org/Graphics/SVG/1.1/DTD/svg11.dtd" [
	<!ENTITY ns_extend "http://ns.adobe.com/Extensibility/1.0/">
	<!ENTITY ns_ai "http://ns.adobe.com/AdobeIllustrator/10.0/">
	<!ENTITY ns_graphs "http://ns.adobe.com/Graphs/1.0/">
	<!ENTITY ns_vars "http://ns.adobe.com/Variables/1.0/">
	<!ENTITY ns_imrep "http://ns.adobe.com/ImageReplacement/1.0/">
	<!ENTITY ns_sfw "http://ns.adobe.com/SaveForWeb/1.0/">
	<!ENTITY ns_custom "http://ns.adobe.com/GenericCustomNamespace/1.0/">
	<!ENTITY ns_adobe_xpath "http://ns.adobe.com/XPath/1.0/">
]>
<svg version="1.1" xmlns:x="&ns_extend;" xmlns:i="&ns_ai;" xmlns:graph="&ns_graphs;"
	 xmlns="http://www.w3.org/2000/svg" xmlns:xlink="http://www.w3.org/1999/xlink" x="0px" y="0px" width="354.49px"
	 height="396.611px" viewBox="0 0 354.49 396.611" enable-background="new 0 0 354.49 396.611" xml:space="preserve">
<metadata>
	<sfw  xmlns="&ns_sfw;">
		<slices></slices>
		<sliceSourceBounds  x="-6911" y="-8912" bottomLeftOrigin="true" height="16383" width="16383"></sliceSourceBounds>
	</sfw>
</metadata>
<g id="Background" display="none">
	<radialGradient id="SVGID_1_" cx="-834.1416" cy="883.2549" r="1113.6583" gradientUnits="userSpaceOnUse">
		<stop  offset="0" style="stop-color:#006594"/>
		<stop  offset="0.5393" style="stop-color:#000B2A"/>
		<stop  offset="1" style="stop-color:#00232A"/>
	</radialGradient>
	<rect x="-2114.142" y="-34.389" display="inline" fill="url(#SVGID_1_)" width="2560" height="1835.287"/>
</g>
<g id="Layer_1" display="none">
</g>
<g id="squares">
	<g>
		<linearGradient id="SVGID_2_" gradientUnits="userSpaceOnUse" x1="175.3389" y1="0.5337" x2="175.3389" y2="353.9301">
			<stop  offset="0" style="stop-color:#89A3B1"/>
			<stop  offset="0.5393" style="stop-color:#507282"/>
			<stop  offset="1" style="stop-color:#1E4554"/>
		</linearGradient>
		<path fill="url(#SVGID_2_)" d="M352.583,282.624c-4.131,38.537-35.656,72.457-74.201,72.457H68.166
			c-38.539,0-70.072-33.92-70.072-72.457V72.405C-1.906,33.865,29.627,0,68.166,0h210.216c38.545,0,70.07,33.865,74.201,72.405
			V282.624z"/>
		<g>
			<linearGradient id="SVGID_3_" gradientUnits="userSpaceOnUse" x1="105.4639" y1="94.1406" x2="228.3887" y2="287.4487">
				<stop  offset="0" style="stop-color:#FFFFFF"/>
				<stop  offset="1" style="stop-color:#E6E5E5"/>
			</linearGradient>
			<path fill="url(#SVGID_3_)" d="M321.168,197.8c0.006-1.244,0.007-2.473,0.007-3.682l-0.152,0.009
				c-1.813-26.183-21.305-47.429-46.616-52.109c0.245-2.216,0.334-4.477,0.334-6.742c0-39.47-31.979-71.438-71.438-71.438
				c-30.629,0-56.67,19.294-66.84,46.396c-6.719-7.385-16.318-12.105-27.102-12.105c-20.326,0-36.791,16.459-36.791,36.79
				c0,2.405,0.246,4.732,0.705,7.011c-27.114,4.47-47.854,27.849-47.854,56.189c0,6.983,1.253,13.669,3.539,19.852
				c4.698,31.559,43.737,56.995,78.129,56.995c13.947,0,26.873-4.059,37.559-10.953c7.672,8.096,18.818,13.23,31.268,13.23
				c13.274,0,25.091-5.829,32.765-14.881c6.782,4.438,15.012,7.057,23.904,7.057c11.425,0,21.768-4.309,29.321-11.274
				c3.962,1.168,16.04,1.823,20.134,0.296c36.477-13.605,38.954-38.873,39.122-59.816c0.002-0.169,0.013-0.336,0.013-0.505
				C321.175,198.012,321.168,197.906,321.168,197.8z"/>
			<g>
				<g>
					<path fill="#C9C9C9" d="M88.629,173.157c0.454,0.979,1.058,1.77,1.811,2.375c0.751,0.607,1.634,1.057,2.649,1.35
						c1.014,0.293,2.062,0.441,3.147,0.441c0.734,0,1.521-0.068,2.36-0.207c0.84-0.137,1.627-0.4,2.361-0.791
						s1.346-0.93,1.836-1.613c0.489-0.684,0.734-1.555,0.734-2.611c0-1.135-0.323-2.053-0.971-2.758
						c-0.647-0.703-1.495-1.291-2.544-1.76c-1.05-0.469-2.239-0.881-3.567-1.232c-1.33-0.352-2.676-0.742-4.04-1.174
						c-1.399-0.391-2.763-0.869-4.092-1.438c-1.329-0.566-2.519-1.299-3.567-2.199s-1.897-2.025-2.545-3.373
						c-0.647-1.35-0.97-2.982-0.97-4.9c0-2.15,0.41-4.018,1.232-5.604c0.821-1.584,1.896-2.904,3.227-3.959
						c1.329-1.057,2.833-1.838,4.512-2.348c1.679-0.508,3.357-0.762,5.036-0.762c1.959,0,3.838,0.244,5.64,0.732
						c1.801,0.49,3.401,1.281,4.801,2.377c1.398,1.096,2.509,2.492,3.331,4.195c0.821,1.701,1.233,3.764,1.233,6.189h-7.975
						c-0.07-1.252-0.307-2.289-0.708-3.109c-0.402-0.822-0.937-1.467-1.601-1.938c-0.665-0.469-1.426-0.801-2.282-0.996
						c-0.857-0.195-1.792-0.293-2.807-0.293c-0.665,0-1.329,0.078-1.993,0.234c-0.665,0.156-1.269,0.43-1.811,0.82
						c-0.542,0.393-0.988,0.881-1.338,1.467c-0.35,0.588-0.524,1.33-0.524,2.23c0,0.82,0.14,1.486,0.42,1.994
						c0.279,0.51,0.83,0.979,1.652,1.408c0.821,0.432,1.959,0.861,3.41,1.291c1.451,0.432,3.349,0.979,5.692,1.643
						c0.699,0.156,1.67,0.439,2.911,0.852c1.241,0.41,2.475,1.064,3.699,1.965c1.224,0.9,2.282,2.104,3.174,3.607
						c0.892,1.508,1.338,3.434,1.338,5.779c0,1.918-0.333,3.697-0.997,5.34c-0.665,1.643-1.652,3.061-2.964,4.254
						s-2.938,2.121-4.879,2.787c-1.941,0.664-4.189,0.996-6.741,0.996c-2.064,0-4.066-0.283-6.007-0.85
						c-1.941-0.566-3.655-1.457-5.142-2.67c-1.487-1.213-2.668-2.758-3.541-4.635c-0.875-1.877-1.295-4.107-1.26-6.689h7.975
						C87.947,170.985,88.174,172.178,88.629,173.157z"/>
					<path fill="#C9C9C9" d="M122.676,153.149v3.873h0.105c0.909-1.643,2.063-2.836,3.462-3.58c1.398-0.742,2.938-1.113,4.617-1.113
						c2.133,0,3.969,0.449,5.509,1.35c1.538,0.898,2.814,2.092,3.829,3.578s1.766,3.217,2.256,5.191
						c0.489,1.977,0.734,4.041,0.734,6.191c0,2.033-0.245,3.988-0.734,5.867c-0.49,1.877-1.232,3.539-2.229,4.987
						c-0.997,1.447-2.238,2.602-3.725,3.461c-1.487,0.861-3.227,1.291-5.22,1.291c-1.679,0-3.227-0.381-4.644-1.145
						c-1.416-0.762-2.579-1.885-3.488-3.373h-0.105v14.375h-7.449v-40.954H122.676z M132.355,177.204
						c0.821-0.547,1.486-1.26,1.993-2.141s0.866-1.906,1.076-3.08s0.314-2.365,0.314-3.578s-0.114-2.406-0.341-3.58
						c-0.229-1.174-0.604-2.219-1.128-3.139c-0.524-0.918-1.198-1.662-2.021-2.23c-0.821-0.566-1.827-0.85-3.016-0.85
						c-1.226,0-2.248,0.283-3.069,0.85c-0.822,0.568-1.487,1.301-1.994,2.201s-0.865,1.936-1.075,3.109s-0.314,2.387-0.314,3.639
						c0,1.213,0.113,2.404,0.341,3.578c0.227,1.174,0.595,2.199,1.102,3.08s1.181,1.594,2.02,2.141
						c0.84,0.549,1.854,0.822,3.043,0.822C130.51,178.026,131.533,177.752,132.355,177.204z"/>
					<path fill="#C9C9C9" d="M155.623,176.208c1.118,1.213,2.728,1.818,4.826,1.818c1.503,0,2.798-0.42,3.882-1.262
						c1.084-0.84,1.749-1.73,1.994-2.67h6.558c-1.049,3.639-2.658,6.241-4.826,7.805c-2.169,1.564-4.793,2.346-7.87,2.346
						c-2.134,0-4.058-0.381-5.771-1.145c-1.714-0.762-3.166-1.848-4.354-3.256c-1.189-1.409-2.107-3.09-2.754-5.045
						c-0.647-1.955-0.971-4.107-0.971-6.455c0-2.268,0.332-4.379,0.997-6.336c0.664-1.955,1.608-3.646,2.833-5.074
						c1.224-1.428,2.684-2.553,4.38-3.375c1.696-0.82,3.576-1.23,5.64-1.23c2.309,0,4.319,0.498,6.033,1.496
						c1.714,0.996,3.122,2.338,4.224,4.018c1.102,1.684,1.896,3.6,2.387,5.75c0.489,2.152,0.664,4.4,0.524,6.748h-19.568
						C153.892,173.04,154.503,174.995,155.623,176.208z M164.043,160.249c-0.892-1.094-2.248-1.643-4.066-1.643
						c-1.188,0-2.177,0.225-2.964,0.674c-0.787,0.451-1.416,1.008-1.889,1.672c-0.472,0.666-0.805,1.371-0.996,2.113
						c-0.193,0.744-0.307,1.408-0.342,1.994h12.119C165.556,162.948,164.935,161.344,164.043,160.249z"/>
					<path fill="#C9C9C9" d="M190.719,158.606c-1.189,0-2.187,0.303-2.99,0.908c-0.805,0.607-1.461,1.391-1.968,2.348
						c-0.507,0.959-0.865,2.016-1.075,3.168c-0.21,1.154-0.314,2.299-0.314,3.434c0,1.094,0.104,2.209,0.314,3.344
						s0.551,2.162,1.023,3.08c0.472,0.92,1.109,1.672,1.915,2.258c0.804,0.588,1.783,0.881,2.938,0.881
						c1.783,0,3.156-0.557,4.118-1.672s1.565-2.611,1.81-4.488h7.188c-0.49,4.029-1.889,7.1-4.196,9.211
						c-2.309,2.113-5.265,3.168-8.866,3.168c-2.029,0-3.892-0.381-5.588-1.145c-1.696-0.762-3.14-1.826-4.328-3.197
						c-1.189-1.368-2.116-3-2.78-4.899c-0.665-1.896-0.997-3.98-0.997-6.248c0-2.348,0.307-4.527,0.919-6.543
						c0.611-2.014,1.512-3.754,2.701-5.221c1.188-1.467,2.641-2.611,4.354-3.434c1.713-0.82,3.673-1.23,5.876-1.23
						c1.608,0,3.156,0.234,4.643,0.703s2.815,1.184,3.987,2.143s2.125,2.15,2.859,3.578s1.154,3.119,1.259,5.074h-7.292
						C195.737,160.346,193.901,158.606,190.719,158.606z"/>
					<path fill="#C9C9C9" d="M208.084,148.456v-6.865h7.449v6.865H208.084z M215.533,153.149v30.334h-7.449v-30.334H215.533z"/>
					<path fill="#C9C9C9" d="M229.384,176.208c1.118,1.213,2.728,1.818,4.826,1.818c1.503,0,2.798-0.42,3.882-1.262
						c1.084-0.84,1.749-1.73,1.994-2.67h6.558c-1.049,3.639-2.658,6.241-4.826,7.805c-2.169,1.564-4.793,2.346-7.87,2.346
						c-2.134,0-4.058-0.381-5.771-1.145c-1.714-0.762-3.166-1.848-4.354-3.256c-1.189-1.409-2.107-3.09-2.754-5.045
						c-0.647-1.955-0.971-4.107-0.971-6.455c0-2.268,0.332-4.379,0.997-6.336c0.664-1.955,1.608-3.646,2.833-5.074
						c1.224-1.428,2.684-2.553,4.38-3.375c1.696-0.82,3.576-1.23,5.64-1.23c2.309,0,4.319,0.498,6.033,1.496
						c1.714,0.996,3.122,2.338,4.224,4.018c1.102,1.684,1.896,3.6,2.387,5.75c0.489,2.152,0.664,4.4,0.524,6.748h-19.568
						C227.652,173.04,228.264,174.995,229.384,176.208z M237.804,160.249c-0.892-1.094-2.248-1.643-4.066-1.643
						c-1.188,0-2.177,0.225-2.964,0.674c-0.787,0.451-1.416,1.008-1.889,1.672c-0.472,0.666-0.805,1.371-0.996,2.113
						c-0.193,0.744-0.307,1.408-0.342,1.994h12.119C239.316,162.948,238.695,161.344,237.804,160.249z"/>
					<path fill="#C9C9C9" d="M257.791,175.944c0.332,0.645,0.761,1.172,1.285,1.584c0.524,0.41,1.128,0.713,1.81,0.908
						c0.683,0.198,1.391,0.295,2.125,0.295c0.524,0,1.075-0.068,1.652-0.208c0.577-0.137,1.102-0.352,1.574-0.645
						c0.472-0.293,0.865-0.684,1.181-1.174c0.314-0.488,0.472-1.104,0.472-1.848c0-1.252-0.743-2.189-2.229-2.816
						c-1.487-0.625-3.56-1.252-6.217-1.877c-1.085-0.273-2.143-0.596-3.174-0.969c-1.032-0.371-1.95-0.859-2.755-1.467
						c-0.805-0.605-1.451-1.369-1.94-2.287c-0.49-0.92-0.734-2.045-0.734-3.375c0-1.955,0.341-3.559,1.022-4.811
						c0.683-1.252,1.582-2.238,2.702-2.963c1.119-0.723,2.378-1.232,3.777-1.525c1.398-0.293,2.833-0.439,4.302-0.439
						s2.894,0.156,4.275,0.469s2.614,0.842,3.699,1.584c1.083,0.744,1.984,1.73,2.701,2.963s1.146,2.787,1.285,4.664h-7.082
						c-0.104-1.604-0.647-2.688-1.626-3.256c-0.979-0.566-2.134-0.852-3.463-0.852c-0.42,0-0.875,0.029-1.364,0.088
						c-0.49,0.059-0.936,0.188-1.338,0.383s-0.743,0.479-1.022,0.85c-0.28,0.373-0.42,0.871-0.42,1.496
						c0,0.744,0.244,1.35,0.734,1.82c0.489,0.469,1.128,0.85,1.915,1.143c0.787,0.295,1.687,0.559,2.702,0.793
						c1.014,0.234,2.046,0.49,3.095,0.762c1.084,0.275,2.142,0.607,3.174,0.998c1.031,0.391,1.949,0.91,2.755,1.555
						c0.804,0.646,1.45,1.447,1.94,2.406c0.489,0.959,0.734,2.141,0.734,3.549c0,1.994-0.358,3.668-1.075,5.018
						c-0.717,1.348-1.652,2.434-2.807,3.256c-1.154,0.82-2.475,1.398-3.961,1.73c-1.487,0.332-2.999,0.498-4.538,0.498
						c-1.573,0-3.113-0.176-4.616-0.527c-1.505-0.352-2.842-0.939-4.014-1.76c-1.172-0.822-2.134-1.908-2.886-3.256
						c-0.752-1.35-1.163-3.042-1.232-5.077h7.082C257.292,174.526,257.458,175.297,257.791,175.944z"/>
				</g>
				<g>
					<path fill="#C9C9C9" d="M163.53,193.575v-4.877h19.325v4.877h-7.069v21.502H170.6v-21.502H163.53z"/>
					<path fill="#C9C9C9" d="M186.489,195.976v3.547h0.066c0.22-0.59,0.518-1.139,0.892-1.645c0.375-0.504,0.804-0.936,1.289-1.293
						c0.484-0.355,1.002-0.633,1.553-0.83c0.55-0.197,1.123-0.297,1.718-0.297c0.308,0,0.649,0.062,1.023,0.186v4.877
						c-0.22-0.049-0.484-0.092-0.792-0.129c-0.31-0.037-0.606-0.057-0.893-0.057c-0.858,0-1.586,0.162-2.18,0.48
						c-0.595,0.32-1.074,0.758-1.438,1.312s-0.622,1.201-0.776,1.939s-0.231,1.539-0.231,2.4v8.609h-4.69v-19.102H186.489z"/>
					<path fill="#C9C9C9" d="M199.308,210.495c0.704,0.764,1.718,1.146,3.039,1.146c0.946,0,1.762-0.266,2.444-0.795
						s1.101-1.09,1.255-1.682h4.13c-0.661,2.291-1.674,3.93-3.039,4.914c-1.366,0.986-3.018,1.479-4.955,1.479
						c-1.344,0-2.556-0.24-3.635-0.721s-1.993-1.164-2.741-2.051c-0.749-0.887-1.327-1.945-1.734-3.178
						c-0.408-1.23-0.611-2.586-0.611-4.064c0-1.428,0.209-2.758,0.628-3.988c0.418-1.232,1.013-2.297,1.783-3.197
						c0.771-0.898,1.69-1.605,2.759-2.123s2.252-0.777,3.552-0.777c1.453,0,2.72,0.314,3.799,0.943
						c1.078,0.627,1.966,1.471,2.659,2.531c0.693,1.059,1.194,2.266,1.503,3.619c0.309,1.355,0.418,2.771,0.33,4.25h-12.321
						C198.217,208.501,198.603,209.731,199.308,210.495z M204.609,200.446c-0.562-0.689-1.415-1.035-2.561-1.035
						c-0.749,0-1.371,0.143-1.866,0.426s-0.892,0.635-1.189,1.053c-0.297,0.42-0.507,0.863-0.628,1.33
						c-0.121,0.469-0.192,0.887-0.214,1.256h7.631C205.562,202.146,205.171,201.136,204.609,200.446z"/>
					<path fill="#C9C9C9" d="M218.27,210.495c0.704,0.764,1.718,1.146,3.039,1.146c0.946,0,1.762-0.266,2.444-0.795
						s1.101-1.09,1.255-1.682h4.13c-0.661,2.291-1.674,3.93-3.039,4.914c-1.366,0.986-3.018,1.479-4.955,1.479
						c-1.344,0-2.556-0.24-3.635-0.721s-1.993-1.164-2.741-2.051c-0.749-0.887-1.327-1.945-1.734-3.178
						c-0.408-1.23-0.611-2.586-0.611-4.064c0-1.428,0.209-2.758,0.628-3.988c0.418-1.232,1.013-2.297,1.783-3.197
						c0.771-0.898,1.69-1.605,2.759-2.123s2.252-0.777,3.552-0.777c1.453,0,2.72,0.314,3.799,0.943
						c1.078,0.627,1.966,1.471,2.659,2.531c0.693,1.059,1.194,2.266,1.503,3.619c0.309,1.355,0.418,2.771,0.33,4.25h-12.321
						C217.179,208.501,217.564,209.731,218.27,210.495z M223.571,200.446c-0.562-0.689-1.415-1.035-2.561-1.035
						c-0.749,0-1.371,0.143-1.866,0.426s-0.892,0.635-1.189,1.053c-0.297,0.42-0.507,0.863-0.628,1.33
						c-0.121,0.469-0.192,0.887-0.214,1.256h7.631C224.523,202.146,224.133,201.136,223.571,200.446z"/>
				</g>
				<g>
					<path fill="#C9C9C9" d="M231.729,230.038c0-1.316,0.234-2.543,0.704-3.678c0.469-1.135,1.173-2.117,2.111-2.947
						c0.939-0.83,2.112-1.479,3.521-1.945s3.062-0.701,4.96-0.701c1.664,0,3.2,0.191,4.607,0.572
						c1.408,0.383,2.624,0.959,3.648,1.73c1.023,0.773,1.829,1.736,2.416,2.891s0.88,2.514,0.88,4.078v8.812h-22.848V230.038z
						 M250.354,230.353c0-0.648-0.117-1.277-0.353-1.889c-0.234-0.611-0.624-1.154-1.168-1.631s-1.253-0.859-2.128-1.145
						c-0.874-0.287-1.941-0.43-3.2-0.43c-1.151,0-2.191,0.1-3.12,0.301c-0.928,0.199-1.722,0.529-2.384,0.986
						c-0.661,0.459-1.168,1.064-1.52,1.818c-0.353,0.754-0.528,1.684-0.528,2.789v3.205h14.4V230.353z"/>
					<path fill="#C9C9C9" d="M240.465,217.534c-0.704-0.42-1.269-0.953-1.695-1.604c-0.427-0.648-0.73-1.377-0.912-2.188
						s-0.272-1.627-0.272-2.447c0-0.744,0.06-1.498,0.176-2.26c0.118-0.764,0.348-1.459,0.688-2.09
						c0.342-0.629,0.816-1.145,1.424-1.545c0.608-0.4,1.414-0.6,2.416-0.6h8.608c0.747,0,1.461-0.039,2.144-0.115
						c0.684-0.076,1.195-0.209,1.536-0.4v4.119c-0.256,0.078-0.517,0.139-0.784,0.188c-0.267,0.047-0.538,0.08-0.815,0.1
						c0.747,0.648,1.27,1.412,1.567,2.289c0.299,0.877,0.448,1.773,0.448,2.689c0,0.705-0.096,1.363-0.288,1.975
						s-0.49,1.145-0.896,1.602c-0.405,0.459-0.917,0.816-1.536,1.074s-1.354,0.385-2.208,0.385c-0.938,0-1.712-0.146-2.32-0.443
						c-0.608-0.295-1.093-0.676-1.456-1.145c-0.362-0.467-0.635-1-0.815-1.602c-0.182-0.602-0.325-1.207-0.433-1.816
						c-0.106-0.611-0.191-1.211-0.256-1.803s-0.16-1.117-0.288-1.574s-0.314-0.82-0.56-1.088c-0.245-0.266-0.603-0.391-1.072-0.371
						c-0.49,0-0.88,0.07-1.168,0.215c-0.288,0.143-0.512,0.334-0.672,0.572s-0.267,0.514-0.32,0.83
						c-0.053,0.314-0.08,0.652-0.08,1.016c0,0.801,0.192,1.43,0.576,1.889c0.384,0.457,1.024,0.725,1.92,0.801v4.062
						C242.055,218.192,241.169,217.954,240.465,217.534z M246.881,209.507c0.097,0.258,0.177,0.535,0.24,0.83
						c0.064,0.297,0.117,0.605,0.16,0.93c0.043,0.326,0.096,0.65,0.16,0.975c0.063,0.305,0.149,0.605,0.256,0.9
						c0.106,0.297,0.251,0.553,0.432,0.773c0.182,0.219,0.411,0.395,0.688,0.529c0.277,0.133,0.629,0.199,1.056,0.199
						c0.405,0,0.747-0.066,1.024-0.199c0.277-0.135,0.496-0.316,0.655-0.545c0.16-0.229,0.272-0.496,0.336-0.801
						c0.064-0.305,0.097-0.619,0.097-0.943c0-0.803-0.149-1.422-0.448-1.861c-0.299-0.438-0.656-0.762-1.072-0.973
						c-0.416-0.209-0.837-0.338-1.264-0.387c-0.427-0.047-0.768-0.07-1.024-0.07h-1.695
						C246.652,209.036,246.785,209.251,246.881,209.507z"/>
					<path fill="#C9C9C9" d="M259.505,196.188c0.576,0.783,0.864,1.869,0.864,3.262c0,0.42-0.016,0.834-0.048,1.244
						c-0.032,0.412-0.069,0.826-0.112,1.246h-3.744c0.043-0.383,0.085-0.773,0.128-1.174s0.054-0.801,0.032-1.201
						c-0.063-0.535-0.299-0.93-0.704-1.188s-0.854-0.387-1.344-0.387c-0.362,0-0.704,0.057-1.024,0.172l-15.52,5.18v-4.322
						l11.328-3.348v-0.057l-11.328-3.232v-4.207l18.592,6.18C257.969,194.796,258.929,195.407,259.505,196.188z"/>
				</g>
				<g>
					<path fill="#C9C9C9" d="M150.424,232.624h1.439v-0.055c-0.6-0.322-1.036-0.738-1.31-1.252c-0.273-0.512-0.41-1.037-0.41-1.572
						c0-0.68,0.104-1.238,0.311-1.674c0.206-0.434,0.493-0.777,0.859-1.027c0.367-0.25,0.813-0.426,1.34-0.527
						c0.527-0.102,1.11-0.152,1.75-0.152h6.36v2.539h-5.84c-0.854,0-1.49,0.119-1.91,0.357c-0.42,0.24-0.63,0.662-0.63,1.27
						c0,0.693,0.229,1.193,0.689,1.504c0.46,0.309,1.218,0.465,2.271,0.465h5.42v2.539h-10.34V232.624z"/>
					<path fill="#C9C9C9" d="M148.823,224.362h-2.34v-2.541h2.34V224.362z M150.424,221.821h10.34v2.541h-10.34V221.821z"/>
					<path fill="#C9C9C9" d="M161.523,211.083c0.533,0.102,1.03,0.318,1.49,0.652s0.85,0.816,1.17,1.449
						c0.32,0.631,0.48,1.479,0.48,2.539c0,0.453-0.063,0.916-0.19,1.387s-0.323,0.9-0.59,1.287s-0.61,0.709-1.03,0.965
						c-0.42,0.258-0.923,0.402-1.51,0.439v-2.521c0.533-0.119,0.903-0.352,1.11-0.697c0.206-0.346,0.31-0.746,0.31-1.199
						c0-0.715-0.24-1.236-0.72-1.564c-0.48-0.328-1.087-0.486-1.82-0.475h-1.36v0.037c0.547,0.273,0.95,0.664,1.21,1.17
						c0.261,0.508,0.391,1.041,0.391,1.602c0,0.691-0.137,1.287-0.41,1.787c-0.273,0.502-0.646,0.912-1.12,1.234
						c-0.473,0.322-1.026,0.559-1.66,0.707c-0.633,0.148-1.303,0.223-2.01,0.223c-0.667,0-1.31-0.086-1.93-0.258
						c-0.62-0.174-1.167-0.428-1.641-0.762c-0.473-0.332-0.85-0.748-1.13-1.242s-0.42-1.064-0.42-1.707
						c0-0.609,0.127-1.143,0.38-1.602c0.254-0.459,0.681-0.844,1.28-1.152v-0.037h-1.38v-2.414h9.68
						C160.518,210.931,160.99,210.981,161.523,211.083z M158.084,214.562c-0.16-0.273-0.373-0.502-0.641-0.68
						c-0.267-0.18-0.569-0.312-0.91-0.402c-0.34-0.09-0.696-0.135-1.069-0.135c-0.427,0-0.83,0.037-1.21,0.107
						c-0.38,0.072-0.717,0.191-1.01,0.357c-0.294,0.168-0.527,0.389-0.7,0.662c-0.174,0.275-0.261,0.621-0.261,1.037
						c0,0.357,0.08,0.664,0.24,0.922c0.16,0.256,0.377,0.471,0.65,0.643c0.273,0.174,0.587,0.299,0.939,0.377
						c0.354,0.076,0.724,0.115,1.11,0.115c0.373,0,0.743-0.033,1.11-0.098c0.366-0.066,0.696-0.18,0.989-0.34
						c0.294-0.162,0.534-0.373,0.721-0.635s0.279-0.59,0.279-0.984C158.323,215.151,158.244,214.835,158.084,214.562z"/>
					<path fill="#C9C9C9" d="M146.483,206.353h5.38V206.3c-0.6-0.322-1.036-0.734-1.31-1.234c-0.273-0.502-0.41-0.99-0.41-1.467
						c0-0.68,0.104-1.236,0.311-1.672c0.206-0.436,0.493-0.777,0.859-1.029c0.367-0.25,0.813-0.426,1.34-0.527
						c0.527-0.1,1.11-0.15,1.75-0.15h6.36v2.539h-5.84c-0.854,0-1.49,0.119-1.91,0.357s-0.63,0.662-0.63,1.27
						c0,0.691,0.229,1.191,0.689,1.502s1.218,0.465,2.271,0.465h5.42v2.539h-14.28V206.353z"/>
					<path fill="#C9C9C9" d="M150.424,193.208h1.899v1.861h5.12c0.48,0,0.801-0.072,0.96-0.215c0.16-0.143,0.24-0.43,0.24-0.859
						c0-0.143-0.007-0.279-0.02-0.41c-0.014-0.131-0.033-0.256-0.061-0.377h2.2c0.04,0.215,0.066,0.453,0.08,0.717
						c0.013,0.262,0.02,0.518,0.02,0.768c0,0.395-0.029,0.768-0.09,1.119c-0.06,0.352-0.177,0.66-0.35,0.93
						c-0.173,0.268-0.42,0.48-0.74,0.635s-0.74,0.232-1.26,0.232h-6.101v1.537h-1.899v-1.537h-3.101v-2.539h3.101V193.208z"/>
				</g>
				<g>
					<path fill="#C9C9C9" d="M71.03,235.425V205.36h5.763v10.828c1.777-2.023,3.883-3.035,6.316-3.035
						c2.652,0,4.847,0.961,6.583,2.881c1.736,1.922,2.604,4.68,2.604,8.275c0,3.719-0.886,6.582-2.656,8.592
						s-3.92,3.016-6.449,3.016c-1.244,0-2.471-0.311-3.682-0.934c-1.209-0.621-2.252-1.541-3.127-2.758v3.199H71.03z
						 M76.752,224.063c0,2.256,0.355,3.924,1.066,5.004c0.998,1.531,2.324,2.297,3.979,2.297c1.271,0,2.354-0.543,3.25-1.631
						c0.896-1.086,1.344-2.799,1.344-5.137c0-2.488-0.451-4.283-1.354-5.383c-0.902-1.102-2.058-1.652-3.466-1.652
						c-1.381,0-2.529,0.537-3.445,1.611C77.21,220.245,76.752,221.876,76.752,224.063z"/>
					<path fill="#C9C9C9" d="M96.932,210.692v-5.332h5.763v5.332H96.932z M96.932,235.425v-21.779h5.763v21.779H96.932z"/>
					<path fill="#C9C9C9" d="M114.117,235.425h-5.763v-21.779h5.353v3.096c0.916-1.463,1.739-2.426,2.471-2.891
						s1.562-0.697,2.492-0.697c1.312,0,2.577,0.361,3.794,1.086l-1.784,5.025c-0.971-0.629-1.873-0.943-2.707-0.943
						c-0.807,0-1.49,0.223-2.051,0.666c-0.561,0.445-1.002,1.248-1.322,2.41c-0.322,1.162-0.482,3.596-0.482,7.301V235.425z"/>
					<path fill="#C9C9C9" d="M144.92,235.425h-5.353v-3.199c-0.889,1.244-1.938,2.17-3.148,2.779
						c-1.209,0.607-2.43,0.912-3.66,0.912c-2.502,0-4.645-1.008-6.43-3.025c-1.783-2.016-2.676-4.83-2.676-8.439
						c0-3.691,0.868-6.496,2.604-8.418c1.736-1.92,3.931-2.881,6.583-2.881c2.434,0,4.539,1.012,6.316,3.035V205.36h5.763V235.425z
						 M129.539,224.063c0,2.324,0.321,4.006,0.964,5.045c0.93,1.504,2.229,2.256,3.896,2.256c1.326,0,2.454-0.564,3.384-1.691
						c0.93-1.129,1.395-2.814,1.395-5.057c0-2.502-0.451-4.303-1.354-5.402c-0.902-1.102-2.058-1.652-3.466-1.652
						c-1.367,0-2.512,0.545-3.436,1.631C130.001,220.28,129.539,221.903,129.539,224.063z"/>
				</g>
			</g>
		</g>
	</g>
	<g>
		<text transform="matrix(0.8942 0 0 1 126.4453 386.7734)" font-family="'HelveticaNeue'" font-size="36">Wordle</text>
	</g>
</g>
<g id="guides">
</g>
<g id="circles" display="none">
</g>
</svg>
