<?xml version="1.0" encoding="utf-8"?>
<!-- Generator: Adobe Illustrator 16.0.0, SVG Export Plug-In . SVG Version: 6.00 Build 0)  -->
<!DOCTYPE svg PUBLIC "-//W3C//DTD SVG 1.1//EN" "http://www.w3.org/Graphics/SVG/1.1/DTD/svg11.dtd" [
	<!ENTITY ns_extend "http://ns.adobe.com/Extensibility/1.0/">
	<!ENTITY ns_ai "http://ns.adobe.com/AdobeIllustrator/10.0/">
	<!ENTITY ns_graphs "http://ns.adobe.com/Graphs/1.0/">
	<!ENTITY ns_vars "http://ns.adobe.com/Variables/1.0/">
	<!ENTITY ns_imrep "http://ns.adobe.com/ImageReplacement/1.0/">
	<!ENTITY ns_sfw "http://ns.adobe.com/SaveForWeb/1.0/">
	<!ENTITY ns_custom "http://ns.adobe.com/GenericCustomNamespace/1.0/">
	<!ENTITY ns_adobe_xpath "http://ns.adobe.com/XPath/1.0/">
]>
<svg version="1.1" xmlns:x="&ns_extend;" xmlns:i="&ns_ai;" xmlns:graph="&ns_graphs;"
	 xmlns="http://www.w3.org/2000/svg" xmlns:xlink="http://www.w3.org/1999/xlink" x="0px" y="0px" width="354.49px"
	 height="396.61px" viewBox="0 0 354.49 396.61" enable-background="new 0 0 354.49 396.61" xml:space="preserve">
<metadata>
	<sfw  xmlns="&ns_sfw;">
		<slices></slices>
		<sliceSourceBounds  x="-6911" y="-8912" bottomLeftOrigin="true" height="16383" width="16383"></sliceSourceBounds>
	</sfw>
</metadata>
<g id="Background" display="none">
	<radialGradient id="SVGID_1_" cx="-834.1416" cy="20.0938" r="1113.6583" gradientUnits="userSpaceOnUse">
		<stop  offset="0" style="stop-color:#006594"/>
		<stop  offset="0.5393" style="stop-color:#000B2A"/>
		<stop  offset="1" style="stop-color:#00232A"/>
	</radialGradient>
	<rect x="-2114.142" y="-897.55" display="inline" fill="url(#SVGID_1_)" width="2560" height="1835.287"/>
</g>
<g id="Layer_1" display="none">
	<linearGradient id="SVGID_2_" gradientUnits="userSpaceOnUse" x1="81.6123" y1="73.1748" x2="81.6123" y2="420.2689">
		<stop  offset="0.3725" style="stop-color:#970CB7"/>
		<stop  offset="1" style="stop-color:#6316A3"/>
	</linearGradient>
	<circle display="inline" fill="url(#SVGID_2_)" cx="81.612" cy="247.369" r="179.125"/>
	<linearGradient id="SVGID_3_" gradientUnits="userSpaceOnUse" x1="-47.9453" y1="146.5117" x2="212.8882" y2="374.741">
		<stop  offset="0" style="stop-color:#FFFFFF"/>
		<stop  offset="1" style="stop-color:#E6E5E5"/>
	</linearGradient>
	<path display="inline" fill="url(#SVGID_3_)" d="M96.652,305.754c19.653,21.272,40.684,28.572,78.339,22.315
		c23.257-3.863,46.128-23.01,46.128-45.239c0-14.32-7.962-26.859-19.92-33.992c1.454-4.045,2.272-8.368,2.272-12.873
		c0-19.865-15.291-36.326-35.379-39.622c-1.727-20.741-43.465-33.56-65.94-33.56c-22.284,0-69.942,14.838-71.937,35.334
		c-28.69-12.935-62.691,10.378-48.164,37.844c2.108,3.985,0.822,8.832,2.274,12.873c-11.956,7.137-19.922,19.676-19.922,33.988
		c0,23.073,12.09,39.934,33.69,44.05C57.811,338.251,89.273,311.46,96.652,305.754z"/>
	<g display="inline">
		<g>
			<path fill="#C9C9C9" d="M3.251,240.061c0.454,0.979,1.058,1.771,1.811,2.376c0.751,0.607,1.634,1.057,2.649,1.35
				c1.014,0.293,2.062,0.44,3.147,0.44c0.734,0,1.521-0.068,2.36-0.206c0.84-0.137,1.627-0.4,2.361-0.792
				c0.734-0.391,1.346-0.929,1.836-1.613c0.489-0.684,0.734-1.555,0.734-2.61c0-1.135-0.323-2.054-0.971-2.758
				s-1.495-1.291-2.544-1.761c-1.05-0.469-2.239-0.88-3.567-1.231c-1.33-0.353-2.676-0.743-4.04-1.174
				c-1.399-0.391-2.763-0.87-4.092-1.438c-1.329-0.566-2.519-1.3-3.567-2.2c-1.049-0.899-1.897-2.024-2.545-3.373
				c-0.647-1.35-0.97-2.982-0.97-4.899c0-2.15,0.41-4.019,1.232-5.604c0.821-1.584,1.896-2.904,3.227-3.96
				c1.329-1.056,2.833-1.838,4.512-2.347c1.679-0.508,3.357-0.763,5.036-0.763c1.959,0,3.838,0.244,5.64,0.733
				c1.801,0.489,3.401,1.281,4.801,2.376c1.398,1.096,2.509,2.493,3.331,4.195c0.821,1.701,1.233,3.765,1.233,6.189h-7.975
				c-0.07-1.251-0.307-2.288-0.708-3.109c-0.402-0.821-0.937-1.467-1.601-1.937c-0.665-0.469-1.426-0.801-2.282-0.997
				c-0.857-0.195-1.792-0.293-2.807-0.293c-0.665,0-1.329,0.078-1.993,0.234c-0.665,0.156-1.269,0.431-1.811,0.821
				c-0.542,0.392-0.988,0.88-1.338,1.467s-0.524,1.33-0.524,2.229c0,0.821,0.14,1.487,0.42,1.995
				c0.279,0.509,0.83,0.978,1.652,1.408c0.821,0.431,1.959,0.86,3.41,1.29c1.451,0.432,3.349,0.979,5.692,1.644
				c0.699,0.156,1.67,0.439,2.911,0.851c1.241,0.41,2.475,1.065,3.699,1.965c1.224,0.9,2.282,2.104,3.174,3.608
				c0.892,1.507,1.338,3.433,1.338,5.779c0,1.917-0.333,3.696-0.997,5.339c-0.665,1.644-1.652,3.062-2.964,4.254
				c-1.312,1.193-2.938,2.122-4.879,2.787c-1.941,0.665-4.189,0.997-6.741,0.997c-2.064,0-4.066-0.284-6.007-0.851
				c-1.941-0.566-3.655-1.457-5.142-2.67c-1.487-1.212-2.668-2.757-3.541-4.635c-0.875-1.877-1.295-4.106-1.26-6.688h7.975
				C2.569,237.89,2.796,239.083,3.251,240.061z"/>
			<path fill="#C9C9C9" d="M37.298,220.054v3.872h0.105c0.909-1.643,2.063-2.835,3.462-3.579c1.398-0.742,2.938-1.114,4.617-1.114
				c2.133,0,3.969,0.45,5.509,1.35c1.538,0.899,2.814,2.093,3.829,3.578c1.015,1.487,1.766,3.218,2.256,5.192
				c0.489,1.976,0.734,4.04,0.734,6.19c0,2.034-0.245,3.989-0.734,5.867c-0.49,1.877-1.232,3.54-2.229,4.987
				s-2.238,2.602-3.725,3.461c-1.487,0.86-3.227,1.291-5.22,1.291c-1.679,0-3.227-0.381-4.644-1.145
				c-1.416-0.763-2.579-1.886-3.488-3.373h-0.105v14.374h-7.449v-40.952H37.298z M46.978,244.108
				c0.821-0.547,1.486-1.261,1.993-2.141c0.507-0.881,0.866-1.907,1.076-3.081c0.21-1.173,0.314-2.365,0.314-3.578
				c0-1.212-0.114-2.406-0.341-3.579c-0.229-1.174-0.604-2.22-1.128-3.14c-0.524-0.918-1.198-1.662-2.021-2.229
				c-0.821-0.566-1.827-0.851-3.016-0.851c-1.226,0-2.248,0.284-3.069,0.851c-0.822,0.567-1.487,1.301-1.994,2.2
				c-0.507,0.9-0.865,1.937-1.075,3.11c-0.21,1.173-0.314,2.386-0.314,3.638c0,1.213,0.113,2.405,0.341,3.578
				c0.227,1.174,0.595,2.2,1.102,3.081c0.507,0.88,1.181,1.594,2.02,2.141c0.84,0.549,1.854,0.822,3.043,0.822
				C45.132,244.931,46.155,244.657,46.978,244.108z"/>
			<path fill="#C9C9C9" d="M70.245,243.111c1.118,1.213,2.728,1.819,4.826,1.819c1.503,0,2.798-0.42,3.882-1.262
				c1.084-0.841,1.749-1.73,1.994-2.67h6.558c-1.049,3.638-2.658,6.239-4.826,7.804c-2.169,1.564-4.793,2.347-7.87,2.347
				c-2.134,0-4.058-0.381-5.771-1.145c-1.714-0.763-3.166-1.848-4.354-3.256c-1.189-1.408-2.107-3.09-2.754-5.046
				c-0.647-1.955-0.971-4.106-0.971-6.454c0-2.268,0.332-4.38,0.997-6.336c0.664-1.955,1.608-3.646,2.833-5.075
				c1.224-1.428,2.684-2.552,4.38-3.374c1.696-0.821,3.576-1.231,5.64-1.231c2.309,0,4.319,0.498,6.033,1.496
				c1.714,0.997,3.122,2.338,4.224,4.019c1.102,1.683,1.896,3.6,2.387,5.75c0.489,2.151,0.664,4.4,0.524,6.747H68.408
				C68.514,239.943,69.125,241.899,70.245,243.111z M78.665,227.152c-0.892-1.094-2.248-1.643-4.066-1.643
				c-1.188,0-2.177,0.226-2.964,0.675c-0.787,0.45-1.416,1.008-1.889,1.672c-0.472,0.666-0.805,1.37-0.996,2.112
				c-0.193,0.744-0.307,1.408-0.342,1.995h12.119C80.178,229.852,79.557,228.248,78.665,227.152z"/>
			<path fill="#C9C9C9" d="M105.341,225.51c-1.189,0-2.187,0.304-2.99,0.909c-0.805,0.607-1.461,1.39-1.968,2.348
				c-0.507,0.959-0.865,2.015-1.075,3.168c-0.21,1.154-0.314,2.298-0.314,3.433c0,1.095,0.104,2.21,0.314,3.344
				c0.21,1.135,0.551,2.162,1.023,3.08c0.472,0.92,1.109,1.673,1.915,2.259c0.804,0.587,1.783,0.881,2.938,0.881
				c1.783,0,3.156-0.558,4.118-1.673c0.962-1.114,1.565-2.61,1.81-4.488h7.188c-0.49,4.029-1.889,7.1-4.196,9.212
				c-2.309,2.112-5.265,3.168-8.866,3.168c-2.029,0-3.892-0.381-5.588-1.145c-1.696-0.763-3.14-1.827-4.328-3.197
				c-1.189-1.368-2.116-3.001-2.78-4.899c-0.665-1.896-0.997-3.979-0.997-6.248c0-2.347,0.307-4.526,0.919-6.542
				c0.611-2.014,1.512-3.755,2.701-5.222c1.188-1.467,2.641-2.61,4.354-3.433c1.713-0.821,3.673-1.231,5.876-1.231
				c1.608,0,3.156,0.234,4.643,0.704c1.486,0.469,2.815,1.184,3.987,2.142c1.172,0.959,2.125,2.151,2.859,3.578
				c0.734,1.429,1.154,3.12,1.259,5.075h-7.292C110.359,227.251,108.523,225.51,105.341,225.51z"/>
			<path fill="#C9C9C9" d="M122.706,215.359v-6.864h7.449v6.864H122.706z M130.155,220.054v30.333h-7.449v-30.333H130.155z"/>
			<path fill="#C9C9C9" d="M144.006,243.111c1.118,1.213,2.728,1.819,4.826,1.819c1.503,0,2.798-0.42,3.882-1.262
				c1.084-0.841,1.749-1.73,1.994-2.67h6.558c-1.049,3.638-2.658,6.239-4.826,7.804c-2.169,1.564-4.793,2.347-7.87,2.347
				c-2.134,0-4.058-0.381-5.771-1.145c-1.714-0.763-3.166-1.848-4.354-3.256c-1.189-1.408-2.107-3.09-2.754-5.046
				c-0.647-1.955-0.971-4.106-0.971-6.454c0-2.268,0.332-4.38,0.997-6.336c0.664-1.955,1.608-3.646,2.833-5.075
				c1.224-1.428,2.684-2.552,4.38-3.374c1.696-0.821,3.576-1.231,5.64-1.231c2.309,0,4.319,0.498,6.033,1.496
				c1.714,0.997,3.122,2.338,4.224,4.019c1.102,1.683,1.896,3.6,2.387,5.75c0.489,2.151,0.664,4.4,0.524,6.747h-19.568
				C142.274,239.943,142.886,241.899,144.006,243.111z M152.426,227.152c-0.892-1.094-2.248-1.643-4.066-1.643
				c-1.188,0-2.177,0.226-2.964,0.675c-0.787,0.45-1.416,1.008-1.889,1.672c-0.472,0.666-0.805,1.37-0.996,2.112
				c-0.193,0.744-0.307,1.408-0.342,1.995h12.119C153.938,229.852,153.317,228.248,152.426,227.152z"/>
			<path fill="#C9C9C9" d="M172.413,242.848c0.332,0.646,0.761,1.173,1.285,1.584c0.524,0.41,1.128,0.714,1.81,0.909
				c0.683,0.196,1.391,0.294,2.125,0.294c0.524,0,1.075-0.068,1.652-0.206c0.577-0.137,1.102-0.352,1.574-0.646
				c0.472-0.293,0.865-0.684,1.181-1.173c0.314-0.489,0.472-1.104,0.472-1.849c0-1.251-0.743-2.189-2.229-2.816
				c-1.487-0.625-3.56-1.251-6.217-1.877c-1.085-0.273-2.143-0.596-3.174-0.968c-1.032-0.372-1.95-0.86-2.755-1.467
				s-1.451-1.369-1.94-2.288c-0.49-0.919-0.734-2.044-0.734-3.374c0-1.955,0.341-3.559,1.022-4.812
				c0.683-1.251,1.582-2.238,2.702-2.963c1.119-0.723,2.378-1.231,3.777-1.525c1.398-0.293,2.833-0.439,4.302-0.439
				s2.894,0.156,4.275,0.469c1.382,0.313,2.614,0.842,3.699,1.585c1.083,0.743,1.984,1.73,2.701,2.963
				c0.717,1.231,1.146,2.786,1.285,4.664h-7.082c-0.104-1.604-0.647-2.688-1.626-3.257c-0.979-0.566-2.134-0.851-3.463-0.851
				c-0.42,0-0.875,0.029-1.364,0.088c-0.49,0.059-0.936,0.187-1.338,0.382c-0.402,0.196-0.743,0.479-1.022,0.851
				c-0.28,0.372-0.42,0.871-0.42,1.496c0,0.743,0.244,1.35,0.734,1.819c0.489,0.469,1.128,0.851,1.915,1.144
				c0.787,0.294,1.687,0.558,2.702,0.792c1.014,0.235,2.046,0.49,3.095,0.763c1.084,0.274,2.142,0.607,3.174,0.998
				c1.031,0.391,1.949,0.909,2.755,1.555c0.804,0.646,1.45,1.447,1.94,2.405c0.489,0.959,0.734,2.142,0.734,3.55
				c0,1.994-0.358,3.667-1.075,5.017c-0.717,1.349-1.652,2.435-2.807,3.256s-2.475,1.399-3.961,1.73
				c-1.487,0.332-2.999,0.499-4.538,0.499c-1.573,0-3.113-0.176-4.616-0.528c-1.505-0.352-2.842-0.938-4.014-1.76
				s-2.134-1.907-2.886-3.256c-0.752-1.35-1.163-3.041-1.232-5.075h7.082C171.914,241.43,172.08,242.202,172.413,242.848z"/>
		</g>
		<g>
			<path fill="#C9C9C9" d="M78.152,260.479v-4.877h19.325v4.877h-7.069v21.502h-5.187v-21.502H78.152z"/>
			<path fill="#C9C9C9" d="M101.111,262.88v3.547h0.066c0.22-0.591,0.518-1.139,0.892-1.645c0.375-0.504,0.804-0.936,1.289-1.293
				c0.484-0.356,1.002-0.634,1.553-0.831c0.55-0.196,1.123-0.296,1.718-0.296c0.308,0,0.649,0.062,1.023,0.186v4.876
				c-0.22-0.049-0.484-0.092-0.792-0.129c-0.31-0.037-0.606-0.056-0.893-0.056c-0.858,0-1.586,0.161-2.18,0.48
				c-0.595,0.32-1.074,0.758-1.438,1.312c-0.363,0.555-0.622,1.201-0.776,1.939c-0.154,0.739-0.231,1.54-0.231,2.401v8.608h-4.69
				V262.88H101.111z"/>
			<path fill="#C9C9C9" d="M113.93,277.399c0.704,0.764,1.718,1.146,3.039,1.146c0.946,0,1.762-0.265,2.444-0.795
				c0.683-0.529,1.101-1.09,1.255-1.681h4.13c-0.661,2.291-1.674,3.929-3.039,4.914c-1.366,0.985-3.018,1.478-4.955,1.478
				c-1.344,0-2.556-0.24-3.635-0.721s-1.993-1.164-2.741-2.051c-0.749-0.887-1.327-1.945-1.734-3.177
				c-0.408-1.231-0.611-2.586-0.611-4.064c0-1.428,0.209-2.758,0.628-3.989c0.418-1.231,1.013-2.297,1.783-3.196
				c0.771-0.898,1.69-1.606,2.759-2.124s2.252-0.776,3.552-0.776c1.453,0,2.72,0.314,3.799,0.942
				c1.078,0.628,1.966,1.472,2.659,2.531c0.693,1.059,1.194,2.266,1.503,3.62s0.418,2.771,0.33,4.249h-12.321
				C112.839,275.404,113.225,276.636,113.93,277.399z M119.231,267.351c-0.562-0.689-1.415-1.035-2.561-1.035
				c-0.749,0-1.371,0.143-1.866,0.425c-0.495,0.284-0.892,0.635-1.189,1.054c-0.297,0.419-0.507,0.862-0.628,1.33
				s-0.192,0.887-0.214,1.256h7.631C120.184,269.05,119.793,268.04,119.231,267.351z"/>
			<path fill="#C9C9C9" d="M132.892,277.399c0.704,0.764,1.718,1.146,3.039,1.146c0.946,0,1.762-0.265,2.444-0.795
				c0.683-0.529,1.101-1.09,1.255-1.681h4.13c-0.661,2.291-1.674,3.929-3.039,4.914c-1.366,0.985-3.018,1.478-4.955,1.478
				c-1.344,0-2.556-0.24-3.635-0.721s-1.993-1.164-2.741-2.051c-0.749-0.887-1.327-1.945-1.734-3.177
				c-0.408-1.231-0.611-2.586-0.611-4.064c0-1.428,0.209-2.758,0.628-3.989c0.418-1.231,1.013-2.297,1.783-3.196
				c0.771-0.898,1.69-1.606,2.759-2.124s2.252-0.776,3.552-0.776c1.453,0,2.72,0.314,3.799,0.942
				c1.078,0.628,1.966,1.472,2.659,2.531c0.693,1.059,1.194,2.266,1.503,3.62s0.418,2.771,0.33,4.249h-12.321
				C131.801,275.404,132.187,276.636,132.892,277.399z M138.193,267.351c-0.562-0.689-1.415-1.035-2.561-1.035
				c-0.749,0-1.371,0.143-1.866,0.425c-0.495,0.284-0.892,0.635-1.189,1.054c-0.297,0.419-0.507,0.862-0.628,1.33
				s-0.192,0.887-0.214,1.256h7.631C139.146,269.05,138.755,268.04,138.193,267.351z"/>
		</g>
		<g>
			<path fill="#C9C9C9" d="M146.352,296.941c0-1.316,0.234-2.543,0.704-3.678c0.469-1.135,1.173-2.117,2.111-2.947
				c0.939-0.83,2.112-1.479,3.521-1.945s3.062-0.701,4.96-0.701c1.664,0,3.2,0.191,4.607,0.572c1.408,0.383,2.624,0.959,3.648,1.73
				c1.023,0.773,1.829,1.736,2.416,2.891s0.88,2.514,0.88,4.078v8.812h-22.848V296.941z M164.976,297.256
				c0-0.648-0.117-1.277-0.353-1.889c-0.234-0.611-0.624-1.154-1.168-1.631s-1.253-0.859-2.128-1.145
				c-0.874-0.287-1.941-0.43-3.2-0.43c-1.151,0-2.191,0.1-3.12,0.301c-0.928,0.199-1.722,0.529-2.384,0.986
				c-0.661,0.459-1.168,1.064-1.52,1.818c-0.353,0.754-0.528,1.684-0.528,2.789v3.205h14.4V297.256z"/>
			<path fill="#C9C9C9" d="M155.087,284.438c-0.704-0.42-1.269-0.953-1.695-1.604c-0.427-0.648-0.73-1.377-0.912-2.188
				s-0.272-1.627-0.272-2.447c0-0.744,0.06-1.498,0.176-2.26c0.118-0.764,0.348-1.459,0.688-2.09
				c0.342-0.629,0.816-1.145,1.424-1.545c0.608-0.4,1.414-0.6,2.416-0.6h8.608c0.747,0,1.461-0.039,2.144-0.115
				c0.684-0.076,1.195-0.209,1.536-0.4v4.119c-0.256,0.078-0.517,0.139-0.784,0.188c-0.267,0.047-0.538,0.08-0.815,0.1
				c0.747,0.648,1.27,1.412,1.567,2.289c0.299,0.877,0.448,1.773,0.448,2.689c0,0.705-0.096,1.363-0.288,1.975
				s-0.49,1.145-0.896,1.602c-0.405,0.459-0.917,0.816-1.536,1.074s-1.354,0.385-2.208,0.385c-0.938,0-1.712-0.146-2.32-0.443
				c-0.608-0.295-1.093-0.676-1.456-1.145c-0.362-0.467-0.635-1-0.815-1.602c-0.182-0.602-0.325-1.207-0.433-1.816
				c-0.106-0.611-0.191-1.211-0.256-1.803s-0.16-1.117-0.288-1.574s-0.314-0.82-0.56-1.088c-0.245-0.266-0.603-0.391-1.072-0.371
				c-0.49,0-0.88,0.07-1.168,0.215c-0.288,0.143-0.512,0.334-0.672,0.572s-0.267,0.514-0.32,0.83
				c-0.053,0.314-0.08,0.652-0.08,1.016c0,0.801,0.192,1.43,0.576,1.889c0.384,0.457,1.024,0.725,1.92,0.801v4.062
				C156.677,285.096,155.791,284.857,155.087,284.438z M161.503,276.41c0.097,0.258,0.177,0.535,0.24,0.83
				c0.064,0.297,0.117,0.605,0.16,0.93c0.043,0.326,0.096,0.65,0.16,0.975c0.063,0.305,0.149,0.605,0.256,0.9
				c0.106,0.297,0.251,0.553,0.432,0.773c0.182,0.219,0.411,0.395,0.688,0.529c0.277,0.133,0.629,0.199,1.056,0.199
				c0.405,0,0.747-0.066,1.024-0.199c0.277-0.135,0.496-0.316,0.655-0.545c0.16-0.229,0.272-0.496,0.336-0.801
				c0.064-0.305,0.097-0.619,0.097-0.943c0-0.803-0.149-1.422-0.448-1.861c-0.299-0.438-0.656-0.762-1.072-0.973
				c-0.416-0.209-0.837-0.338-1.264-0.387c-0.427-0.047-0.768-0.07-1.024-0.07h-1.695
				C161.274,275.939,161.407,276.154,161.503,276.41z"/>
			<path fill="#C9C9C9" d="M174.127,263.092c0.576,0.783,0.864,1.869,0.864,3.262c0,0.42-0.016,0.834-0.048,1.244
				c-0.032,0.412-0.069,0.826-0.112,1.246h-3.744c0.043-0.383,0.085-0.773,0.128-1.174s0.054-0.801,0.032-1.201
				c-0.063-0.535-0.299-0.93-0.704-1.188s-0.854-0.387-1.344-0.387c-0.362,0-0.704,0.057-1.024,0.172l-15.52,5.18v-4.322
				l11.328-3.348v-0.057l-11.328-3.232v-4.207l18.592,6.18C172.591,261.699,173.551,262.311,174.127,263.092z"/>
		</g>
		<g>
			<path fill="#C9C9C9" d="M65.046,299.527h1.439v-0.054c-0.6-0.322-1.036-0.739-1.31-1.252s-0.41-1.037-0.41-1.573
				c0-0.68,0.104-1.237,0.311-1.673c0.206-0.435,0.493-0.777,0.859-1.028c0.367-0.25,0.813-0.426,1.34-0.527
				c0.527-0.101,1.11-0.151,1.75-0.151h6.36v2.539h-5.84c-0.854,0-1.49,0.119-1.91,0.357c-0.42,0.239-0.63,0.662-0.63,1.27
				c0,0.692,0.229,1.192,0.689,1.503c0.46,0.31,1.218,0.465,2.271,0.465h5.42v2.539h-10.34V299.527z"/>
			<path fill="#C9C9C9" d="M63.445,291.266h-2.34v-2.54h2.34V291.266z M65.046,288.726h10.34v2.54h-10.34V288.726z"/>
			<path fill="#C9C9C9" d="M76.146,277.986c0.533,0.102,1.03,0.319,1.49,0.653s0.85,0.816,1.17,1.448s0.48,1.479,0.48,2.54
				c0,0.453-0.063,0.915-0.19,1.386s-0.323,0.9-0.59,1.287c-0.267,0.388-0.61,0.71-1.03,0.966c-0.42,0.257-0.923,0.402-1.51,0.438
				v-2.521c0.533-0.119,0.903-0.352,1.11-0.697c0.206-0.346,0.31-0.745,0.31-1.198c0-0.716-0.24-1.237-0.72-1.565
				c-0.48-0.327-1.087-0.485-1.82-0.474h-1.36v0.036c0.547,0.274,0.95,0.664,1.21,1.171c0.261,0.507,0.391,1.04,0.391,1.601
				c0,0.691-0.137,1.288-0.41,1.788c-0.273,0.501-0.646,0.912-1.12,1.234c-0.473,0.321-1.026,0.558-1.66,0.706
				c-0.633,0.149-1.303,0.224-2.01,0.224c-0.667,0-1.31-0.086-1.93-0.259s-1.167-0.427-1.641-0.761
				c-0.473-0.333-0.85-0.748-1.13-1.242c-0.28-0.495-0.42-1.064-0.42-1.708c0-0.608,0.127-1.142,0.38-1.601
				c0.254-0.459,0.681-0.844,1.28-1.153v-0.036h-1.38v-2.414h9.68C75.14,277.835,75.612,277.886,76.146,277.986z M72.706,281.465
				c-0.16-0.273-0.373-0.501-0.641-0.68c-0.267-0.179-0.569-0.312-0.91-0.402c-0.34-0.089-0.696-0.134-1.069-0.134
				c-0.427,0-0.83,0.036-1.21,0.107s-0.717,0.19-1.01,0.357c-0.294,0.167-0.527,0.388-0.7,0.662
				c-0.174,0.274-0.261,0.62-0.261,1.037c0,0.357,0.08,0.664,0.24,0.921s0.377,0.471,0.65,0.644s0.587,0.298,0.939,0.376
				c0.354,0.077,0.724,0.116,1.11,0.116c0.373,0,0.743-0.033,1.11-0.099c0.366-0.065,0.696-0.179,0.989-0.34
				c0.294-0.161,0.534-0.372,0.721-0.635c0.187-0.262,0.279-0.59,0.279-0.983C72.945,282.056,72.866,281.739,72.706,281.465z"/>
			<path fill="#C9C9C9" d="M61.105,273.257h5.38v-0.054c-0.6-0.322-1.036-0.733-1.31-1.234s-0.41-0.989-0.41-1.466
				c0-0.68,0.104-1.237,0.311-1.673c0.206-0.435,0.493-0.777,0.859-1.028c0.367-0.25,0.813-0.426,1.34-0.527
				c0.527-0.101,1.11-0.151,1.75-0.151h6.36v2.539h-5.84c-0.854,0-1.49,0.119-1.91,0.357c-0.42,0.239-0.63,0.662-0.63,1.27
				c0,0.692,0.229,1.192,0.689,1.503c0.46,0.31,1.218,0.465,2.271,0.465h5.42v2.539h-14.28V273.257z"/>
			<path fill="#C9C9C9" d="M65.046,260.112h1.899v1.86h5.12c0.48,0,0.801-0.071,0.96-0.215c0.16-0.143,0.24-0.429,0.24-0.858
				c0-0.143-0.007-0.28-0.02-0.411c-0.014-0.131-0.033-0.256-0.061-0.376h2.2c0.04,0.215,0.066,0.453,0.08,0.716
				c0.013,0.263,0.02,0.519,0.02,0.769c0,0.394-0.029,0.767-0.09,1.118c-0.06,0.352-0.177,0.661-0.35,0.93s-0.42,0.48-0.74,0.635
				c-0.32,0.155-0.74,0.232-1.26,0.232h-6.101v1.538h-1.899v-1.538h-3.101v-2.539h3.101V260.112z"/>
		</g>
		<g>
			<path fill="#C9C9C9" d="M-14.348,302.328v-30.064h5.763v10.828c1.777-2.023,3.883-3.035,6.316-3.035
				c2.652,0,4.847,0.961,6.583,2.881c1.736,1.922,2.604,4.68,2.604,8.275c0,3.719-0.886,6.583-2.656,8.593s-3.92,3.015-6.449,3.015
				c-1.244,0-2.471-0.311-3.682-0.934c-1.209-0.621-2.252-1.541-3.127-2.758v3.199H-14.348z M-8.626,290.967
				c0,2.256,0.355,3.924,1.066,5.004c0.998,1.531,2.324,2.297,3.979,2.297c1.271,0,2.354-0.543,3.25-1.631
				c0.896-1.086,1.344-2.799,1.344-5.137c0-2.488-0.451-4.283-1.354-5.383c-0.902-1.102-2.058-1.651-3.466-1.651
				c-1.381,0-2.529,0.536-3.445,1.61C-8.168,287.148-8.626,288.779-8.626,290.967z"/>
			<path fill="#C9C9C9" d="M11.554,277.596v-5.332h5.763v5.332H11.554z M11.554,302.328v-21.779h5.763v21.779H11.554z"/>
			<path fill="#C9C9C9" d="M28.739,302.328h-5.763v-21.779h5.353v3.097c0.916-1.463,1.739-2.427,2.471-2.892
				s1.562-0.697,2.492-0.697c1.312,0,2.577,0.362,3.794,1.087l-1.784,5.024c-0.971-0.629-1.873-0.943-2.707-0.943
				c-0.807,0-1.49,0.223-2.051,0.666c-0.561,0.445-1.002,1.248-1.322,2.41c-0.322,1.162-0.482,3.596-0.482,7.301V302.328z"/>
			<path fill="#C9C9C9" d="M59.542,302.328h-5.353v-3.199c-0.889,1.244-1.938,2.17-3.148,2.779c-1.209,0.607-2.43,0.912-3.66,0.912
				c-2.502,0-4.645-1.008-6.43-3.025c-1.783-2.016-2.676-4.829-2.676-8.438c0-3.691,0.868-6.497,2.604-8.419
				c1.736-1.92,3.931-2.881,6.583-2.881c2.434,0,4.539,1.012,6.316,3.035v-10.828h5.763V302.328z M44.161,290.967
				c0,2.324,0.321,4.006,0.964,5.045c0.93,1.504,2.229,2.256,3.896,2.256c1.326,0,2.454-0.564,3.384-1.691
				c0.93-1.129,1.395-2.813,1.395-5.056c0-2.502-0.451-4.304-1.354-5.403c-0.902-1.102-2.058-1.651-3.466-1.651
				c-1.367,0-2.512,0.544-3.436,1.63C44.623,287.184,44.161,288.807,44.161,290.967z"/>
		</g>
	</g>
	<linearGradient id="SVGID_4_" gradientUnits="userSpaceOnUse" x1="-47.9453" y1="146.5117" x2="212.8882" y2="374.741">
		<stop  offset="0" style="stop-color:#FFFFFF"/>
		<stop  offset="1" style="stop-color:#E6E5E5"/>
	</linearGradient>
	<path display="inline" fill="url(#SVGID_4_)" d="M96.652,305.754c19.653,21.272,40.684,28.572,78.339,22.315
		c23.257-3.863,46.128-23.01,46.128-45.239c0-14.32-7.962-26.859-19.92-33.992c1.454-4.045,2.272-8.368,2.272-12.873
		c0-19.865-15.291-36.326-35.379-39.622c-1.727-20.741-43.465-33.56-65.94-33.56c-22.284,0-69.942,14.838-71.937,35.334
		c-28.69-12.935-62.691,10.378-48.164,37.844c2.108,3.985,0.822,8.832,2.274,12.873c-11.956,7.137-19.922,19.676-19.922,33.988
		c0,23.073,12.09,39.934,33.69,44.05C57.811,338.251,89.273,311.46,96.652,305.754z"/>
	<g display="inline">
		<g>
			<path fill="#C9C9C9" d="M3.251,240.061c0.454,0.979,1.058,1.771,1.811,2.376c0.751,0.607,1.634,1.057,2.649,1.35
				c1.014,0.293,2.062,0.44,3.147,0.44c0.734,0,1.521-0.068,2.36-0.206c0.84-0.137,1.627-0.4,2.361-0.792
				c0.734-0.391,1.346-0.929,1.836-1.613c0.489-0.684,0.734-1.555,0.734-2.61c0-1.135-0.323-2.054-0.971-2.758
				s-1.495-1.291-2.544-1.761c-1.05-0.469-2.239-0.88-3.567-1.231c-1.33-0.353-2.676-0.743-4.04-1.174
				c-1.399-0.391-2.763-0.87-4.092-1.438c-1.329-0.566-2.519-1.3-3.567-2.2c-1.049-0.899-1.897-2.024-2.545-3.373
				c-0.647-1.35-0.97-2.982-0.97-4.899c0-2.15,0.41-4.019,1.232-5.604c0.821-1.584,1.896-2.904,3.227-3.96
				c1.329-1.056,2.833-1.838,4.512-2.347c1.679-0.508,3.357-0.763,5.036-0.763c1.959,0,3.838,0.244,5.64,0.733
				c1.801,0.489,3.401,1.281,4.801,2.376c1.398,1.096,2.509,2.493,3.331,4.195c0.821,1.701,1.233,3.765,1.233,6.189h-7.975
				c-0.07-1.251-0.307-2.288-0.708-3.109c-0.402-0.821-0.937-1.467-1.601-1.937c-0.665-0.469-1.426-0.801-2.282-0.997
				c-0.857-0.195-1.792-0.293-2.807-0.293c-0.665,0-1.329,0.078-1.993,0.234c-0.665,0.156-1.269,0.431-1.811,0.821
				c-0.542,0.392-0.988,0.88-1.338,1.467s-0.524,1.33-0.524,2.229c0,0.821,0.14,1.487,0.42,1.995
				c0.279,0.509,0.83,0.978,1.652,1.408c0.821,0.431,1.959,0.86,3.41,1.29c1.451,0.432,3.349,0.979,5.692,1.644
				c0.699,0.156,1.67,0.439,2.911,0.851c1.241,0.41,2.475,1.065,3.699,1.965c1.224,0.9,2.282,2.104,3.174,3.608
				c0.892,1.507,1.338,3.433,1.338,5.779c0,1.917-0.333,3.696-0.997,5.339c-0.665,1.644-1.652,3.062-2.964,4.254
				c-1.312,1.193-2.938,2.122-4.879,2.787c-1.941,0.665-4.189,0.997-6.741,0.997c-2.064,0-4.066-0.284-6.007-0.851
				c-1.941-0.566-3.655-1.457-5.142-2.67c-1.487-1.212-2.668-2.757-3.541-4.635c-0.875-1.877-1.295-4.106-1.26-6.688h7.975
				C2.569,237.89,2.796,239.083,3.251,240.061z"/>
			<path fill="#C9C9C9" d="M37.298,220.054v3.872h0.105c0.909-1.643,2.063-2.835,3.462-3.579c1.398-0.742,2.938-1.114,4.617-1.114
				c2.133,0,3.969,0.45,5.509,1.35c1.538,0.899,2.814,2.093,3.829,3.578c1.015,1.487,1.766,3.218,2.256,5.192
				c0.489,1.976,0.734,4.04,0.734,6.19c0,2.034-0.245,3.989-0.734,5.867c-0.49,1.877-1.232,3.54-2.229,4.987
				s-2.238,2.602-3.725,3.461c-1.487,0.86-3.227,1.291-5.22,1.291c-1.679,0-3.227-0.381-4.644-1.145
				c-1.416-0.763-2.579-1.886-3.488-3.373h-0.105v14.374h-7.449v-40.952H37.298z M46.978,244.108
				c0.821-0.547,1.486-1.261,1.993-2.141c0.507-0.881,0.866-1.907,1.076-3.081c0.21-1.173,0.314-2.365,0.314-3.578
				c0-1.212-0.114-2.406-0.341-3.579c-0.229-1.174-0.604-2.22-1.128-3.14c-0.524-0.918-1.198-1.662-2.021-2.229
				c-0.821-0.566-1.827-0.851-3.016-0.851c-1.226,0-2.248,0.284-3.069,0.851c-0.822,0.567-1.487,1.301-1.994,2.2
				c-0.507,0.9-0.865,1.937-1.075,3.11c-0.21,1.173-0.314,2.386-0.314,3.638c0,1.213,0.113,2.405,0.341,3.578
				c0.227,1.174,0.595,2.2,1.102,3.081c0.507,0.88,1.181,1.594,2.02,2.141c0.84,0.549,1.854,0.822,3.043,0.822
				C45.132,244.931,46.155,244.657,46.978,244.108z"/>
			<path fill="#C9C9C9" d="M70.245,243.111c1.118,1.213,2.728,1.819,4.826,1.819c1.503,0,2.798-0.42,3.882-1.262
				c1.084-0.841,1.749-1.73,1.994-2.67h6.558c-1.049,3.638-2.658,6.239-4.826,7.804c-2.169,1.564-4.793,2.347-7.87,2.347
				c-2.134,0-4.058-0.381-5.771-1.145c-1.714-0.763-3.166-1.848-4.354-3.256c-1.189-1.408-2.107-3.09-2.754-5.046
				c-0.647-1.955-0.971-4.106-0.971-6.454c0-2.268,0.332-4.38,0.997-6.336c0.664-1.955,1.608-3.646,2.833-5.075
				c1.224-1.428,2.684-2.552,4.38-3.374c1.696-0.821,3.576-1.231,5.64-1.231c2.309,0,4.319,0.498,6.033,1.496
				c1.714,0.997,3.122,2.338,4.224,4.019c1.102,1.683,1.896,3.6,2.387,5.75c0.489,2.151,0.664,4.4,0.524,6.747H68.408
				C68.514,239.943,69.125,241.899,70.245,243.111z M78.665,227.152c-0.892-1.094-2.248-1.643-4.066-1.643
				c-1.188,0-2.177,0.226-2.964,0.675c-0.787,0.45-1.416,1.008-1.889,1.672c-0.472,0.666-0.805,1.37-0.996,2.112
				c-0.193,0.744-0.307,1.408-0.342,1.995h12.119C80.178,229.852,79.557,228.248,78.665,227.152z"/>
			<path fill="#C9C9C9" d="M105.341,225.51c-1.189,0-2.187,0.304-2.99,0.909c-0.805,0.607-1.461,1.39-1.968,2.348
				c-0.507,0.959-0.865,2.015-1.075,3.168c-0.21,1.154-0.314,2.298-0.314,3.433c0,1.095,0.104,2.21,0.314,3.344
				c0.21,1.135,0.551,2.162,1.023,3.08c0.472,0.92,1.109,1.673,1.915,2.259c0.804,0.587,1.783,0.881,2.938,0.881
				c1.783,0,3.156-0.558,4.118-1.673c0.962-1.114,1.565-2.61,1.81-4.488h7.188c-0.49,4.029-1.889,7.1-4.196,9.212
				c-2.309,2.112-5.265,3.168-8.866,3.168c-2.029,0-3.892-0.381-5.588-1.145c-1.696-0.763-3.14-1.827-4.328-3.197
				c-1.189-1.368-2.116-3.001-2.78-4.899c-0.665-1.896-0.997-3.979-0.997-6.248c0-2.347,0.307-4.526,0.919-6.542
				c0.611-2.014,1.512-3.755,2.701-5.222c1.188-1.467,2.641-2.61,4.354-3.433c1.713-0.821,3.673-1.231,5.876-1.231
				c1.608,0,3.156,0.234,4.643,0.704c1.486,0.469,2.815,1.184,3.987,2.142c1.172,0.959,2.125,2.151,2.859,3.578
				c0.734,1.429,1.154,3.12,1.259,5.075h-7.292C110.359,227.251,108.523,225.51,105.341,225.51z"/>
			<path fill="#C9C9C9" d="M122.706,215.359v-6.864h7.449v6.864H122.706z M130.155,220.054v30.333h-7.449v-30.333H130.155z"/>
			<path fill="#C9C9C9" d="M144.006,243.111c1.118,1.213,2.728,1.819,4.826,1.819c1.503,0,2.798-0.42,3.882-1.262
				c1.084-0.841,1.749-1.73,1.994-2.67h6.558c-1.049,3.638-2.658,6.239-4.826,7.804c-2.169,1.564-4.793,2.347-7.87,2.347
				c-2.134,0-4.058-0.381-5.771-1.145c-1.714-0.763-3.166-1.848-4.354-3.256c-1.189-1.408-2.107-3.09-2.754-5.046
				c-0.647-1.955-0.971-4.106-0.971-6.454c0-2.268,0.332-4.38,0.997-6.336c0.664-1.955,1.608-3.646,2.833-5.075
				c1.224-1.428,2.684-2.552,4.38-3.374c1.696-0.821,3.576-1.231,5.64-1.231c2.309,0,4.319,0.498,6.033,1.496
				c1.714,0.997,3.122,2.338,4.224,4.019c1.102,1.683,1.896,3.6,2.387,5.75c0.489,2.151,0.664,4.4,0.524,6.747h-19.568
				C142.274,239.943,142.886,241.899,144.006,243.111z M152.426,227.152c-0.892-1.094-2.248-1.643-4.066-1.643
				c-1.188,0-2.177,0.226-2.964,0.675c-0.787,0.45-1.416,1.008-1.889,1.672c-0.472,0.666-0.805,1.37-0.996,2.112
				c-0.193,0.744-0.307,1.408-0.342,1.995h12.119C153.938,229.852,153.317,228.248,152.426,227.152z"/>
			<path fill="#C9C9C9" d="M172.413,242.848c0.332,0.646,0.761,1.173,1.285,1.584c0.524,0.41,1.128,0.714,1.81,0.909
				c0.683,0.196,1.391,0.294,2.125,0.294c0.524,0,1.075-0.068,1.652-0.206c0.577-0.137,1.102-0.352,1.574-0.646
				c0.472-0.293,0.865-0.684,1.181-1.173c0.314-0.489,0.472-1.104,0.472-1.849c0-1.251-0.743-2.189-2.229-2.816
				c-1.487-0.625-3.56-1.251-6.217-1.877c-1.085-0.273-2.143-0.596-3.174-0.968c-1.032-0.372-1.95-0.86-2.755-1.467
				s-1.451-1.369-1.94-2.288c-0.49-0.919-0.734-2.044-0.734-3.374c0-1.955,0.341-3.559,1.022-4.812
				c0.683-1.251,1.582-2.238,2.702-2.963c1.119-0.723,2.378-1.231,3.777-1.525c1.398-0.293,2.833-0.439,4.302-0.439
				s2.894,0.156,4.275,0.469c1.382,0.313,2.614,0.842,3.699,1.585c1.083,0.743,1.984,1.73,2.701,2.963
				c0.717,1.231,1.146,2.786,1.285,4.664h-7.082c-0.104-1.604-0.647-2.688-1.626-3.257c-0.979-0.566-2.134-0.851-3.463-0.851
				c-0.42,0-0.875,0.029-1.364,0.088c-0.49,0.059-0.936,0.187-1.338,0.382c-0.402,0.196-0.743,0.479-1.022,0.851
				c-0.28,0.372-0.42,0.871-0.42,1.496c0,0.743,0.244,1.35,0.734,1.819c0.489,0.469,1.128,0.851,1.915,1.144
				c0.787,0.294,1.687,0.558,2.702,0.792c1.014,0.235,2.046,0.49,3.095,0.763c1.084,0.274,2.142,0.607,3.174,0.998
				c1.031,0.391,1.949,0.909,2.755,1.555c0.804,0.646,1.45,1.447,1.94,2.405c0.489,0.959,0.734,2.142,0.734,3.55
				c0,1.994-0.358,3.667-1.075,5.017c-0.717,1.349-1.652,2.435-2.807,3.256s-2.475,1.399-3.961,1.73
				c-1.487,0.332-2.999,0.499-4.538,0.499c-1.573,0-3.113-0.176-4.616-0.528c-1.505-0.352-2.842-0.938-4.014-1.76
				s-2.134-1.907-2.886-3.256c-0.752-1.35-1.163-3.041-1.232-5.075h7.082C171.914,241.43,172.08,242.202,172.413,242.848z"/>
		</g>
		<g>
			<path fill="#C9C9C9" d="M78.152,260.479v-4.877h19.325v4.877h-7.069v21.502h-5.187v-21.502H78.152z"/>
			<path fill="#C9C9C9" d="M101.111,262.88v3.547h0.066c0.22-0.591,0.518-1.139,0.892-1.645c0.375-0.504,0.804-0.936,1.289-1.293
				c0.484-0.356,1.002-0.634,1.553-0.831c0.55-0.196,1.123-0.296,1.718-0.296c0.308,0,0.649,0.062,1.023,0.186v4.876
				c-0.22-0.049-0.484-0.092-0.792-0.129c-0.31-0.037-0.606-0.056-0.893-0.056c-0.858,0-1.586,0.161-2.18,0.48
				c-0.595,0.32-1.074,0.758-1.438,1.312c-0.363,0.555-0.622,1.201-0.776,1.939c-0.154,0.739-0.231,1.54-0.231,2.401v8.608h-4.69
				V262.88H101.111z"/>
			<path fill="#C9C9C9" d="M113.93,277.399c0.704,0.764,1.718,1.146,3.039,1.146c0.946,0,1.762-0.265,2.444-0.795
				c0.683-0.529,1.101-1.09,1.255-1.681h4.13c-0.661,2.291-1.674,3.929-3.039,4.914c-1.366,0.985-3.018,1.478-4.955,1.478
				c-1.344,0-2.556-0.24-3.635-0.721s-1.993-1.164-2.741-2.051c-0.749-0.887-1.327-1.945-1.734-3.177
				c-0.408-1.231-0.611-2.586-0.611-4.064c0-1.428,0.209-2.758,0.628-3.989c0.418-1.231,1.013-2.297,1.783-3.196
				c0.771-0.898,1.69-1.606,2.759-2.124s2.252-0.776,3.552-0.776c1.453,0,2.72,0.314,3.799,0.942
				c1.078,0.628,1.966,1.472,2.659,2.531c0.693,1.059,1.194,2.266,1.503,3.62s0.418,2.771,0.33,4.249h-12.321
				C112.839,275.404,113.225,276.636,113.93,277.399z M119.231,267.351c-0.562-0.689-1.415-1.035-2.561-1.035
				c-0.749,0-1.371,0.143-1.866,0.425c-0.495,0.284-0.892,0.635-1.189,1.054c-0.297,0.419-0.507,0.862-0.628,1.33
				s-0.192,0.887-0.214,1.256h7.631C120.184,269.05,119.793,268.04,119.231,267.351z"/>
			<path fill="#C9C9C9" d="M132.892,277.399c0.704,0.764,1.718,1.146,3.039,1.146c0.946,0,1.762-0.265,2.444-0.795
				c0.683-0.529,1.101-1.09,1.255-1.681h4.13c-0.661,2.291-1.674,3.929-3.039,4.914c-1.366,0.985-3.018,1.478-4.955,1.478
				c-1.344,0-2.556-0.24-3.635-0.721s-1.993-1.164-2.741-2.051c-0.749-0.887-1.327-1.945-1.734-3.177
				c-0.408-1.231-0.611-2.586-0.611-4.064c0-1.428,0.209-2.758,0.628-3.989c0.418-1.231,1.013-2.297,1.783-3.196
				c0.771-0.898,1.69-1.606,2.759-2.124s2.252-0.776,3.552-0.776c1.453,0,2.72,0.314,3.799,0.942
				c1.078,0.628,1.966,1.472,2.659,2.531c0.693,1.059,1.194,2.266,1.503,3.62s0.418,2.771,0.33,4.249h-12.321
				C131.801,275.404,132.187,276.636,132.892,277.399z M138.193,267.351c-0.562-0.689-1.415-1.035-2.561-1.035
				c-0.749,0-1.371,0.143-1.866,0.425c-0.495,0.284-0.892,0.635-1.189,1.054c-0.297,0.419-0.507,0.862-0.628,1.33
				s-0.192,0.887-0.214,1.256h7.631C139.146,269.05,138.755,268.04,138.193,267.351z"/>
		</g>
		<g>
			<path fill="#C9C9C9" d="M146.352,296.941c0-1.316,0.234-2.543,0.704-3.678c0.469-1.135,1.173-2.117,2.111-2.947
				c0.939-0.83,2.112-1.479,3.521-1.945s3.062-0.701,4.96-0.701c1.664,0,3.2,0.191,4.607,0.572c1.408,0.383,2.624,0.959,3.648,1.73
				c1.023,0.773,1.829,1.736,2.416,2.891s0.88,2.514,0.88,4.078v8.812h-22.848V296.941z M164.976,297.256
				c0-0.648-0.117-1.277-0.353-1.889c-0.234-0.611-0.624-1.154-1.168-1.631s-1.253-0.859-2.128-1.145
				c-0.874-0.287-1.941-0.43-3.2-0.43c-1.151,0-2.191,0.1-3.12,0.301c-0.928,0.199-1.722,0.529-2.384,0.986
				c-0.661,0.459-1.168,1.064-1.52,1.818c-0.353,0.754-0.528,1.684-0.528,2.789v3.205h14.4V297.256z"/>
			<path fill="#C9C9C9" d="M155.087,284.438c-0.704-0.42-1.269-0.953-1.695-1.604c-0.427-0.648-0.73-1.377-0.912-2.188
				s-0.272-1.627-0.272-2.447c0-0.744,0.06-1.498,0.176-2.26c0.118-0.764,0.348-1.459,0.688-2.09
				c0.342-0.629,0.816-1.145,1.424-1.545c0.608-0.4,1.414-0.6,2.416-0.6h8.608c0.747,0,1.461-0.039,2.144-0.115
				c0.684-0.076,1.195-0.209,1.536-0.4v4.119c-0.256,0.078-0.517,0.139-0.784,0.188c-0.267,0.047-0.538,0.08-0.815,0.1
				c0.747,0.648,1.27,1.412,1.567,2.289c0.299,0.877,0.448,1.773,0.448,2.689c0,0.705-0.096,1.363-0.288,1.975
				s-0.49,1.145-0.896,1.602c-0.405,0.459-0.917,0.816-1.536,1.074s-1.354,0.385-2.208,0.385c-0.938,0-1.712-0.146-2.32-0.443
				c-0.608-0.295-1.093-0.676-1.456-1.145c-0.362-0.467-0.635-1-0.815-1.602c-0.182-0.602-0.325-1.207-0.433-1.816
				c-0.106-0.611-0.191-1.211-0.256-1.803s-0.16-1.117-0.288-1.574s-0.314-0.82-0.56-1.088c-0.245-0.266-0.603-0.391-1.072-0.371
				c-0.49,0-0.88,0.07-1.168,0.215c-0.288,0.143-0.512,0.334-0.672,0.572s-0.267,0.514-0.32,0.83
				c-0.053,0.314-0.08,0.652-0.08,1.016c0,0.801,0.192,1.43,0.576,1.889c0.384,0.457,1.024,0.725,1.92,0.801v4.062
				C156.677,285.096,155.791,284.857,155.087,284.438z M161.503,276.41c0.097,0.258,0.177,0.535,0.24,0.83
				c0.064,0.297,0.117,0.605,0.16,0.93c0.043,0.326,0.096,0.65,0.16,0.975c0.063,0.305,0.149,0.605,0.256,0.9
				c0.106,0.297,0.251,0.553,0.432,0.773c0.182,0.219,0.411,0.395,0.688,0.529c0.277,0.133,0.629,0.199,1.056,0.199
				c0.405,0,0.747-0.066,1.024-0.199c0.277-0.135,0.496-0.316,0.655-0.545c0.16-0.229,0.272-0.496,0.336-0.801
				c0.064-0.305,0.097-0.619,0.097-0.943c0-0.803-0.149-1.422-0.448-1.861c-0.299-0.438-0.656-0.762-1.072-0.973
				c-0.416-0.209-0.837-0.338-1.264-0.387c-0.427-0.047-0.768-0.07-1.024-0.07h-1.695
				C161.274,275.939,161.407,276.154,161.503,276.41z"/>
			<path fill="#C9C9C9" d="M174.127,263.092c0.576,0.783,0.864,1.869,0.864,3.262c0,0.42-0.016,0.834-0.048,1.244
				c-0.032,0.412-0.069,0.826-0.112,1.246h-3.744c0.043-0.383,0.085-0.773,0.128-1.174s0.054-0.801,0.032-1.201
				c-0.063-0.535-0.299-0.93-0.704-1.188s-0.854-0.387-1.344-0.387c-0.362,0-0.704,0.057-1.024,0.172l-15.52,5.18v-4.322
				l11.328-3.348v-0.057l-11.328-3.232v-4.207l18.592,6.18C172.591,261.699,173.551,262.311,174.127,263.092z"/>
		</g>
		<g>
			<path fill="#C9C9C9" d="M65.046,299.527h1.439v-0.054c-0.6-0.322-1.036-0.739-1.31-1.252s-0.41-1.037-0.41-1.573
				c0-0.68,0.104-1.237,0.311-1.673c0.206-0.435,0.493-0.777,0.859-1.028c0.367-0.25,0.813-0.426,1.34-0.527
				c0.527-0.101,1.11-0.151,1.75-0.151h6.36v2.539h-5.84c-0.854,0-1.49,0.119-1.91,0.357c-0.42,0.239-0.63,0.662-0.63,1.27
				c0,0.692,0.229,1.192,0.689,1.503c0.46,0.31,1.218,0.465,2.271,0.465h5.42v2.539h-10.34V299.527z"/>
			<path fill="#C9C9C9" d="M63.445,291.266h-2.34v-2.54h2.34V291.266z M65.046,288.726h10.34v2.54h-10.34V288.726z"/>
			<path fill="#C9C9C9" d="M76.146,277.986c0.533,0.102,1.03,0.319,1.49,0.653s0.85,0.816,1.17,1.448s0.48,1.479,0.48,2.54
				c0,0.453-0.063,0.915-0.19,1.386s-0.323,0.9-0.59,1.287c-0.267,0.388-0.61,0.71-1.03,0.966c-0.42,0.257-0.923,0.402-1.51,0.438
				v-2.521c0.533-0.119,0.903-0.352,1.11-0.697c0.206-0.346,0.31-0.745,0.31-1.198c0-0.716-0.24-1.237-0.72-1.565
				c-0.48-0.327-1.087-0.485-1.82-0.474h-1.36v0.036c0.547,0.274,0.95,0.664,1.21,1.171c0.261,0.507,0.391,1.04,0.391,1.601
				c0,0.691-0.137,1.288-0.41,1.788c-0.273,0.501-0.646,0.912-1.12,1.234c-0.473,0.321-1.026,0.558-1.66,0.706
				c-0.633,0.149-1.303,0.224-2.01,0.224c-0.667,0-1.31-0.086-1.93-0.259s-1.167-0.427-1.641-0.761
				c-0.473-0.333-0.85-0.748-1.13-1.242c-0.28-0.495-0.42-1.064-0.42-1.708c0-0.608,0.127-1.142,0.38-1.601
				c0.254-0.459,0.681-0.844,1.28-1.153v-0.036h-1.38v-2.414h9.68C75.14,277.835,75.612,277.886,76.146,277.986z M72.706,281.465
				c-0.16-0.273-0.373-0.501-0.641-0.68c-0.267-0.179-0.569-0.312-0.91-0.402c-0.34-0.089-0.696-0.134-1.069-0.134
				c-0.427,0-0.83,0.036-1.21,0.107s-0.717,0.19-1.01,0.357c-0.294,0.167-0.527,0.388-0.7,0.662
				c-0.174,0.274-0.261,0.62-0.261,1.037c0,0.357,0.08,0.664,0.24,0.921s0.377,0.471,0.65,0.644s0.587,0.298,0.939,0.376
				c0.354,0.077,0.724,0.116,1.11,0.116c0.373,0,0.743-0.033,1.11-0.099c0.366-0.065,0.696-0.179,0.989-0.34
				c0.294-0.161,0.534-0.372,0.721-0.635c0.187-0.262,0.279-0.59,0.279-0.983C72.945,282.056,72.866,281.739,72.706,281.465z"/>
			<path fill="#C9C9C9" d="M61.105,273.257h5.38v-0.054c-0.6-0.322-1.036-0.733-1.31-1.234s-0.41-0.989-0.41-1.466
				c0-0.68,0.104-1.237,0.311-1.673c0.206-0.435,0.493-0.777,0.859-1.028c0.367-0.25,0.813-0.426,1.34-0.527
				c0.527-0.101,1.11-0.151,1.75-0.151h6.36v2.539h-5.84c-0.854,0-1.49,0.119-1.91,0.357c-0.42,0.239-0.63,0.662-0.63,1.27
				c0,0.692,0.229,1.192,0.689,1.503c0.46,0.31,1.218,0.465,2.271,0.465h5.42v2.539h-14.28V273.257z"/>
			<path fill="#C9C9C9" d="M65.046,260.112h1.899v1.86h5.12c0.48,0,0.801-0.071,0.96-0.215c0.16-0.143,0.24-0.429,0.24-0.858
				c0-0.143-0.007-0.28-0.02-0.411c-0.014-0.131-0.033-0.256-0.061-0.376h2.2c0.04,0.215,0.066,0.453,0.08,0.716
				c0.013,0.263,0.02,0.519,0.02,0.769c0,0.394-0.029,0.767-0.09,1.118c-0.06,0.352-0.177,0.661-0.35,0.93s-0.42,0.48-0.74,0.635
				c-0.32,0.155-0.74,0.232-1.26,0.232h-6.101v1.538h-1.899v-1.538h-3.101v-2.539h3.101V260.112z"/>
		</g>
		<g>
			<path fill="#C9C9C9" d="M-14.348,302.328v-30.064h5.763v10.828c1.777-2.023,3.883-3.035,6.316-3.035
				c2.652,0,4.847,0.961,6.583,2.881c1.736,1.922,2.604,4.68,2.604,8.275c0,3.719-0.886,6.583-2.656,8.593s-3.92,3.015-6.449,3.015
				c-1.244,0-2.471-0.311-3.682-0.934c-1.209-0.621-2.252-1.541-3.127-2.758v3.199H-14.348z M-8.626,290.967
				c0,2.256,0.355,3.924,1.066,5.004c0.998,1.531,2.324,2.297,3.979,2.297c1.271,0,2.354-0.543,3.25-1.631
				c0.896-1.086,1.344-2.799,1.344-5.137c0-2.488-0.451-4.283-1.354-5.383c-0.902-1.102-2.058-1.651-3.466-1.651
				c-1.381,0-2.529,0.536-3.445,1.61C-8.168,287.148-8.626,288.779-8.626,290.967z"/>
			<path fill="#C9C9C9" d="M11.554,277.596v-5.332h5.763v5.332H11.554z M11.554,302.328v-21.779h5.763v21.779H11.554z"/>
			<path fill="#C9C9C9" d="M28.739,302.328h-5.763v-21.779h5.353v3.097c0.916-1.463,1.739-2.427,2.471-2.892
				s1.562-0.697,2.492-0.697c1.312,0,2.577,0.362,3.794,1.087l-1.784,5.024c-0.971-0.629-1.873-0.943-2.707-0.943
				c-0.807,0-1.49,0.223-2.051,0.666c-0.561,0.445-1.002,1.248-1.322,2.41c-0.322,1.162-0.482,3.596-0.482,7.301V302.328z"/>
			<path fill="#C9C9C9" d="M59.542,302.328h-5.353v-3.199c-0.889,1.244-1.938,2.17-3.148,2.779c-1.209,0.607-2.43,0.912-3.66,0.912
				c-2.502,0-4.645-1.008-6.43-3.025c-1.783-2.016-2.676-4.829-2.676-8.438c0-3.691,0.868-6.497,2.604-8.419
				c1.736-1.92,3.931-2.881,6.583-2.881c2.434,0,4.539,1.012,6.316,3.035v-10.828h5.763V302.328z M44.161,290.967
				c0,2.324,0.321,4.006,0.964,5.045c0.93,1.504,2.229,2.256,3.896,2.256c1.326,0,2.454-0.564,3.384-1.691
				c0.93-1.129,1.395-2.813,1.395-5.056c0-2.502-0.451-4.304-1.354-5.403c-0.902-1.102-2.058-1.651-3.466-1.651
				c-1.367,0-2.512,0.544-3.436,1.63C44.623,287.184,44.161,288.807,44.161,290.967z"/>
		</g>
	</g>
</g>
<g id="squares">
	<g>
		<linearGradient id="SVGID_5_" gradientUnits="userSpaceOnUse" x1="175.3389" y1="4.5908" x2="175.3389" y2="357.9872">
			<stop  offset="0" style="stop-color:#89A3B1"/>
			<stop  offset="0.5393" style="stop-color:#507282"/>
			<stop  offset="1" style="stop-color:#1E4554"/>
		</linearGradient>
		<path fill="url(#SVGID_5_)" d="M352.583,286.681c-4.131,38.537-35.656,72.457-74.201,72.457H68.166
			c-38.539,0-70.072-33.92-70.072-72.457V76.462c0-38.54,31.533-72.405,70.072-72.405h210.216c38.545,0,70.07,33.865,74.201,72.405
			V286.681z"/>
		<g>
			<g>
				<linearGradient id="SVGID_6_" gradientUnits="userSpaceOnUse" x1="106.5029" y1="103.3105" x2="211.2267" y2="267.9962">
					<stop  offset="0" style="stop-color:#FFFFFF"/>
					<stop  offset="1" style="stop-color:#E6E5E5"/>
				</linearGradient>
				<path fill="url(#SVGID_6_)" d="M290.269,191.621c0.005-1.061,0.006-2.106,0.006-3.137l-0.131,0.008
					c-1.545-22.307-18.149-40.406-39.713-44.395c0.209-1.887,0.284-3.812,0.284-5.743c0-33.625-27.244-60.86-60.858-60.86
					c-26.094,0-48.279,16.438-56.943,39.526c-5.724-6.292-13.902-10.313-23.089-10.313c-17.316,0-31.343,14.022-31.343,31.343
					c0,2.05,0.209,4.032,0.601,5.973c-23.1,3.808-40.768,23.726-40.768,47.87c0,5.949,1.067,11.645,3.015,16.912
					c4.003,26.885,37.262,48.556,66.561,48.556c11.882,0,22.894-3.458,31.997-9.332c6.536,6.896,16.031,11.271,26.638,11.271
					c11.309,0,21.376-4.966,27.912-12.677c5.778,3.781,12.79,6.011,20.365,6.011c9.733,0,18.545-3.671,24.98-9.604
					c3.374,0.995,13.664,1.553,17.151,0.252c31.076-11.591,33.187-33.117,33.33-50.959c0.001-0.144,0.011-0.286,0.011-0.43
					C290.274,191.801,290.269,191.711,290.269,191.621z"/>
				<g>
					<g>
						<path fill="#C9C9C9" d="M92.162,170.627c0.388,0.833,0.9,1.508,1.543,2.023c0.639,0.518,1.392,0.899,2.256,1.149
							c0.864,0.249,1.758,0.376,2.683,0.376c0.625,0,1.296-0.059,2.01-0.176c0.716-0.117,1.387-0.342,2.012-0.674
							c0.626-0.334,1.146-0.793,1.564-1.375c0.417-0.582,0.625-1.324,0.625-2.225c0-0.967-0.274-1.749-0.826-2.35
							c-0.551-0.599-1.273-1.1-2.167-1.499c-0.895-0.399-1.909-0.751-3.04-1.05c-1.133-0.3-2.278-0.633-3.441-1
							c-1.191-0.333-2.354-0.74-3.486-1.225c-1.132-0.482-2.145-1.106-3.039-1.874c-0.894-0.767-1.615-1.726-2.168-2.874
							c-0.552-1.148-0.825-2.54-0.825-4.174c0-1.832,0.349-3.423,1.05-4.774c0.699-1.349,1.615-2.474,2.748-3.372
							c1.133-0.9,2.414-1.566,3.845-2c1.43-0.434,2.859-0.649,4.29-0.649c1.668,0,3.27,0.208,4.805,0.624
							c1.534,0.418,2.897,1.092,4.089,2.025c1.192,0.934,2.138,2.123,2.838,3.574c0.7,1.449,1.051,3.206,1.051,5.272h-6.793
							c-0.06-1.066-0.261-1.95-0.604-2.649s-0.798-1.249-1.363-1.65c-0.567-0.398-1.216-0.682-1.945-0.848
							c-0.729-0.167-1.526-0.25-2.391-0.25c-0.566,0-1.132,0.066-1.697,0.199c-0.567,0.133-1.081,0.366-1.542,0.699
							c-0.462,0.334-0.843,0.75-1.142,1.25c-0.297,0.5-0.446,1.133-0.446,1.899c0,0.699,0.119,1.267,0.357,1.699
							c0.238,0.435,0.707,0.833,1.408,1.199c0.7,0.368,1.669,0.733,2.906,1.101c1.234,0.367,2.852,0.834,4.849,1.398
							c0.596,0.133,1.423,0.375,2.48,0.727c1.058,0.35,2.107,0.906,3.151,1.674c1.043,0.767,1.944,1.791,2.703,3.072
							c0.76,1.285,1.141,2.926,1.141,4.924c0,1.635-0.283,3.15-0.85,4.55s-1.408,2.607-2.525,3.624s-2.503,1.807-4.156,2.374
							c-1.653,0.566-3.569,0.849-5.743,0.849c-1.758,0-3.464-0.24-5.117-0.724c-1.653-0.482-3.114-1.241-4.38-2.274
							c-1.268-1.033-2.273-2.35-3.017-3.949c-0.746-1.599-1.104-3.499-1.074-5.698h6.794
							C91.581,168.776,91.774,169.793,92.162,170.627z"/>
						<path fill="#C9C9C9" d="M121.168,153.582v3.299h0.089c0.775-1.399,1.759-2.416,2.949-3.05
							c1.192-0.632,2.504-0.948,3.934-0.948c1.817,0,3.382,0.383,4.693,1.149c1.311,0.766,2.398,1.782,3.262,3.049
							c0.865,1.267,1.505,2.74,1.923,4.423c0.416,1.684,0.625,3.441,0.625,5.274c0,1.731-0.209,3.397-0.625,4.998
							c-0.418,1.6-1.05,3.015-1.9,4.249c-0.849,1.232-1.905,2.216-3.173,2.948c-1.267,0.733-2.748,1.1-4.446,1.1
							c-1.431,0-2.749-0.325-3.956-0.976c-1.207-0.648-2.197-1.605-2.972-2.873h-0.091v12.246h-6.346v-34.889H121.168z
							 M129.414,174.074c0.699-0.466,1.266-1.073,1.698-1.824c0.432-0.75,0.737-1.623,0.917-2.623c0.179-1,0.267-2.016,0.267-3.049
							s-0.097-2.05-0.289-3.05c-0.195-1-0.515-1.89-0.961-2.674c-0.447-0.782-1.021-1.416-1.723-1.9
							c-0.699-0.482-1.556-0.724-2.568-0.724c-1.045,0-1.915,0.241-2.614,0.724c-0.701,0.484-1.268,1.108-1.699,1.876
							c-0.433,0.767-0.737,1.648-0.916,2.648c-0.18,1-0.269,2.033-0.269,3.1c0,1.033,0.097,2.049,0.291,3.049
							c0.193,1,0.506,1.873,0.938,2.623c0.432,0.751,1.006,1.358,1.72,1.824c0.716,0.468,1.58,0.701,2.593,0.701
							C127.841,174.775,128.713,174.542,129.414,174.074z"/>
						<path fill="#C9C9C9" d="M149.236,173.227c0.952,1.033,2.323,1.549,4.111,1.549c1.281,0,2.384-0.358,3.308-1.076
							c0.924-0.715,1.489-1.474,1.698-2.273h5.587c-0.895,3.1-2.266,5.316-4.111,6.648c-1.849,1.334-4.084,1.999-6.705,1.999
							c-1.817,0-3.457-0.325-4.916-0.976c-1.46-0.648-2.697-1.574-3.71-2.773c-1.014-1.2-1.795-2.633-2.347-4.298
							c-0.551-1.666-0.826-3.499-0.826-5.499c0-1.932,0.282-3.73,0.85-5.398c0.565-1.665,1.369-3.106,2.414-4.322
							c1.042-1.217,2.285-2.176,3.73-2.875s3.047-1.049,4.805-1.049c1.967,0,3.68,0.424,5.139,1.274
							c1.461,0.849,2.661,1.991,3.6,3.423c0.938,1.434,1.615,3.066,2.033,4.898c0.416,1.834,0.564,3.749,0.446,5.749h-16.671
							C147.761,170.527,148.282,172.192,149.236,173.227z M156.409,159.63c-0.76-0.932-1.914-1.399-3.464-1.399
							c-1.013,0-1.854,0.191-2.525,0.574c-0.67,0.385-1.206,0.858-1.609,1.424c-0.401,0.567-0.686,1.168-0.849,1.801
							c-0.164,0.634-0.26,1.199-0.291,1.699h10.324C157.698,161.93,157.169,160.563,156.409,159.63z"/>
						<path fill="#C9C9C9" d="M179.135,158.23c-1.013,0-1.862,0.258-2.547,0.773c-0.686,0.518-1.245,1.186-1.677,2
							c-0.432,0.817-0.737,1.718-0.916,2.699c-0.179,0.983-0.268,1.959-0.268,2.926c0,0.932,0.089,1.881,0.268,2.848
							s0.47,1.842,0.872,2.624c0.401,0.784,0.944,1.425,1.631,1.924c0.685,0.501,1.52,0.751,2.503,0.751
							c1.52,0,2.689-0.475,3.508-1.425c0.82-0.95,1.335-2.225,1.542-3.823h6.124c-0.418,3.432-1.609,6.049-3.576,7.848
							c-1.967,1.8-4.484,2.698-7.553,2.698c-1.729,0-3.315-0.325-4.761-0.976c-1.445-0.648-2.675-1.555-3.688-2.723
							c-1.013-1.166-1.803-2.557-2.368-4.174c-0.566-1.616-0.85-3.392-0.85-5.323c0-2.001,0.262-3.856,0.783-5.574
							c0.521-1.716,1.287-3.198,2.301-4.447c1.013-1.25,2.25-2.226,3.71-2.925s3.13-1.049,5.007-1.049
							c1.369,0,2.688,0.199,3.955,0.6c1.266,0.398,2.397,1.008,3.396,1.824c0.998,0.817,1.811,1.832,2.436,3.049
							c0.626,1.216,0.983,2.657,1.073,4.322h-6.213C183.411,159.713,181.847,158.23,179.135,158.23z"/>
						<path fill="#C9C9C9" d="M193.929,149.584v-5.85h6.346v5.85H193.929z M200.274,153.582v25.842h-6.346v-25.842H200.274z"/>
						<path fill="#C9C9C9" d="M212.075,173.227c0.953,1.033,2.324,1.549,4.111,1.549c1.28,0,2.383-0.358,3.307-1.076
							c0.924-0.715,1.49-1.474,1.699-2.273h5.586c-0.894,3.1-2.264,5.316-4.11,6.648c-1.849,1.334-4.084,1.999-6.705,1.999
							c-1.817,0-3.456-0.325-4.916-0.976c-1.46-0.648-2.698-1.574-3.71-2.773c-1.014-1.2-1.796-2.633-2.346-4.298
							c-0.552-1.666-0.827-3.499-0.827-5.499c0-1.932,0.282-3.73,0.85-5.398c0.565-1.665,1.37-3.106,2.413-4.322
							c1.043-1.217,2.286-2.176,3.731-2.875s3.047-1.049,4.805-1.049c1.967,0,3.68,0.424,5.14,1.274
							c1.46,0.849,2.659,1.991,3.598,3.423c0.938,1.434,1.616,3.066,2.033,4.898c0.418,1.834,0.566,3.749,0.447,5.749H210.51
							C210.6,170.527,211.121,172.192,212.075,173.227z M219.248,159.63c-0.76-0.932-1.915-1.399-3.464-1.399
							c-1.014,0-1.854,0.191-2.525,0.574c-0.671,0.385-1.206,0.858-1.609,1.424c-0.401,0.567-0.686,1.168-0.848,1.801
							c-0.165,0.634-0.262,1.199-0.292,1.699h10.324C220.536,161.93,220.008,160.563,219.248,159.63z"/>
						<path fill="#C9C9C9" d="M236.275,173.001c0.283,0.549,0.648,0.999,1.095,1.35c0.447,0.35,0.961,0.606,1.543,0.773
							c0.581,0.169,1.184,0.252,1.81,0.252c0.446,0,0.915-0.059,1.408-0.177c0.491-0.117,0.938-0.299,1.34-0.549
							c0.402-0.25,0.738-0.583,1.007-1c0.268-0.416,0.401-0.94,0.401-1.574c0-1.066-0.633-1.865-1.899-2.399
							c-1.268-0.532-3.033-1.066-5.297-1.599c-0.924-0.233-1.824-0.508-2.703-0.826c-0.879-0.315-1.661-0.732-2.347-1.249
							c-0.686-0.516-1.237-1.167-1.653-1.948c-0.418-0.784-0.626-1.742-0.626-2.875c0-1.666,0.291-3.032,0.871-4.099
							c0.581-1.067,1.348-1.907,2.302-2.524c0.954-0.615,2.027-1.05,3.219-1.3c1.191-0.249,2.414-0.374,3.665-0.374
							s2.465,0.133,3.642,0.398c1.178,0.267,2.229,0.718,3.151,1.35c0.923,0.635,1.69,1.475,2.302,2.524
							c0.61,1.05,0.976,2.375,1.095,3.974h-6.033c-0.089-1.366-0.552-2.289-1.386-2.773c-0.834-0.482-1.818-0.726-2.949-0.726
							c-0.358,0-0.746,0.024-1.163,0.075c-0.417,0.049-0.797,0.16-1.14,0.326s-0.633,0.407-0.871,0.724
							c-0.238,0.317-0.358,0.741-0.358,1.274c0,0.634,0.208,1.15,0.627,1.551c0.417,0.398,0.961,0.724,1.631,0.973
							c0.671,0.252,1.437,0.477,2.303,0.676c0.862,0.2,1.742,0.418,2.636,0.649c0.924,0.234,1.824,0.518,2.704,0.851
							c0.879,0.332,1.66,0.775,2.347,1.324c0.685,0.551,1.236,1.232,1.653,2.05s0.626,1.823,0.626,3.023
							c0,1.698-0.307,3.125-0.916,4.274c-0.611,1.148-1.407,2.074-2.391,2.774c-0.983,0.698-2.109,1.191-3.375,1.474
							c-1.267,0.283-2.556,0.425-3.867,0.425c-1.34,0-2.651-0.149-3.932-0.45c-1.282-0.299-2.422-0.799-3.42-1.498
							c-0.998-0.701-1.818-1.626-2.458-2.773c-0.64-1.15-0.991-2.592-1.05-4.326h6.033
							C235.851,171.793,235.992,172.45,236.275,173.001z"/>
					</g>
					<g>
						<path fill="#C9C9C9" d="M155.973,188.021v-4.154h16.464v4.154h-6.023v18.318h-4.418v-18.318H155.973z"/>
						<path fill="#C9C9C9" d="M175.532,190.066v3.021h0.056c0.188-0.502,0.441-0.969,0.76-1.4c0.319-0.43,0.685-0.797,1.099-1.102
							c0.412-0.303,0.854-0.539,1.323-0.707c0.468-0.168,0.956-0.253,1.463-0.253c0.262,0,0.554,0.053,0.872,0.157v4.155
							c-0.188-0.042-0.413-0.079-0.675-0.109c-0.265-0.032-0.517-0.049-0.761-0.049c-0.731,0-1.351,0.139-1.857,0.409
							c-0.506,0.273-0.915,0.646-1.224,1.118c-0.31,0.473-0.53,1.023-0.662,1.653c-0.131,0.628-0.197,1.311-0.197,2.044v7.335
							h-3.995v-16.273H175.532z"/>
						<path fill="#C9C9C9" d="M186.452,202.436c0.6,0.651,1.464,0.978,2.589,0.978c0.806,0,1.501-0.227,2.083-0.678
							c0.581-0.45,0.938-0.928,1.068-1.433h3.519c-0.563,1.952-1.426,3.348-2.589,4.187c-1.164,0.841-2.57,1.26-4.221,1.26
							c-1.146,0-2.178-0.205-3.098-0.614c-0.919-0.409-1.697-0.991-2.335-1.746c-0.639-0.756-1.131-1.657-1.478-2.708
							c-0.348-1.049-0.521-2.203-0.521-3.462c0-1.217,0.178-2.351,0.534-3.398c0.356-1.05,0.862-1.957,1.52-2.723
							c0.658-0.767,1.44-1.369,2.351-1.811c0.909-0.439,1.919-0.661,3.026-0.661c1.237,0,2.316,0.269,3.236,0.804
							c0.918,0.534,1.674,1.252,2.265,2.156c0.591,0.902,1.018,1.93,1.28,3.083c0.263,1.155,0.356,2.36,0.281,3.62h-10.496
							C185.522,200.737,185.853,201.786,186.452,202.436z M190.969,193.875c-0.479-0.588-1.205-0.882-2.181-0.882
							c-0.639,0-1.168,0.122-1.591,0.363c-0.422,0.241-0.759,0.54-1.013,0.896c-0.253,0.358-0.432,0.735-0.535,1.134
							c-0.104,0.399-0.164,0.755-0.182,1.069h6.5C191.78,195.323,191.447,194.463,190.969,193.875z"/>
						<path fill="#C9C9C9" d="M202.606,202.436c0.6,0.651,1.463,0.978,2.589,0.978c0.806,0,1.501-0.227,2.083-0.678
							c0.581-0.45,0.937-0.928,1.068-1.433h3.519c-0.563,1.952-1.426,3.348-2.589,4.187c-1.164,0.841-2.57,1.26-4.222,1.26
							c-1.146,0-2.178-0.205-3.097-0.614s-1.697-0.991-2.335-1.746c-0.639-0.756-1.13-1.657-1.478-2.708
							c-0.348-1.049-0.521-2.203-0.521-3.462c0-1.217,0.179-2.351,0.535-3.398c0.356-1.05,0.863-1.957,1.52-2.723
							c0.658-0.767,1.44-1.369,2.35-1.811c0.91-0.439,1.919-0.661,3.026-0.661c1.238,0,2.317,0.269,3.236,0.804
							c0.919,0.534,1.675,1.252,2.266,2.156c0.591,0.902,1.017,1.93,1.28,3.083c0.263,1.155,0.356,2.36,0.281,3.62h-10.497
							C201.677,200.737,202.006,201.786,202.606,202.436z M207.123,193.875c-0.479-0.588-1.205-0.882-2.181-0.882
							c-0.639,0-1.169,0.122-1.591,0.363s-0.76,0.54-1.013,0.896c-0.253,0.358-0.433,0.735-0.535,1.134
							c-0.104,0.399-0.164,0.755-0.183,1.069h6.501C207.935,195.323,207.602,194.463,207.123,193.875z"/>
					</g>
					<g>
						<path fill="#C9C9C9" d="M214.073,219.085c0-1.12,0.199-2.165,0.6-3.133c0.399-0.967,0.999-1.804,1.799-2.511
							c0.801-0.707,1.799-1.26,3-1.657c1.199-0.397,2.607-0.598,4.225-0.598c1.418,0,2.727,0.163,3.926,0.488
							c1.199,0.326,2.235,0.816,3.108,1.474c0.871,0.659,1.558,1.479,2.058,2.463s0.75,2.142,0.75,3.474v7.508h-19.465V219.085z
							 M229.938,219.354c0-0.553-0.1-1.089-0.299-1.609c-0.2-0.521-0.532-0.983-0.995-1.389c-0.464-0.406-1.067-0.732-1.813-0.976
							c-0.744-0.244-1.653-0.365-2.727-0.365c-0.98,0-1.867,0.084-2.657,0.255c-0.79,0.17-1.467,0.451-2.031,0.841
							c-0.563,0.391-0.995,0.907-1.295,1.549c-0.3,0.643-0.45,1.435-0.45,2.376v2.731h12.268V219.354z"/>
						<path fill="#C9C9C9" d="M221.515,208.434c-0.6-0.358-1.08-0.812-1.443-1.367c-0.364-0.552-0.623-1.172-0.777-1.863
							c-0.154-0.689-0.231-1.387-0.231-2.084c0-0.635,0.05-1.277,0.149-1.926c0.1-0.65,0.296-1.243,0.586-1.781
							c0.291-0.535,0.695-0.975,1.213-1.315s1.204-0.511,2.059-0.511h7.333c0.637,0,1.245-0.033,1.827-0.099
							c0.582-0.064,1.019-0.177,1.309-0.341v3.51c-0.218,0.066-0.44,0.118-0.669,0.16c-0.227,0.039-0.458,0.067-0.694,0.084
							c0.637,0.552,1.082,1.203,1.336,1.95s0.382,1.511,0.382,2.291c0,0.602-0.081,1.162-0.245,1.683s-0.418,0.975-0.764,1.364
							c-0.345,0.392-0.78,0.695-1.309,0.915c-0.527,0.22-1.154,0.327-1.881,0.327c-0.801,0-1.459-0.124-1.978-0.377
							c-0.518-0.251-0.931-0.575-1.24-0.975c-0.308-0.398-0.541-0.853-0.694-1.364c-0.155-0.513-0.276-1.029-0.369-1.548
							c-0.09-0.521-0.163-1.031-0.217-1.536c-0.056-0.504-0.137-0.951-0.246-1.341s-0.268-0.699-0.477-0.927
							c-0.209-0.227-0.514-0.333-0.914-0.316c-0.417,0-0.748,0.06-0.995,0.183c-0.244,0.122-0.436,0.284-0.572,0.488
							c-0.136,0.203-0.227,0.438-0.272,0.706c-0.045,0.269-0.068,0.557-0.068,0.866c0,0.682,0.164,1.218,0.491,1.608
							c0.327,0.39,0.873,0.618,1.636,0.683v3.461C222.87,208.993,222.115,208.791,221.515,208.434z M226.98,201.595
							c0.083,0.219,0.151,0.455,0.205,0.706c0.056,0.254,0.101,0.517,0.137,0.793c0.036,0.277,0.081,0.554,0.137,0.83
							c0.054,0.26,0.127,0.516,0.218,0.767c0.091,0.254,0.214,0.471,0.368,0.659c0.153,0.187,0.35,0.336,0.586,0.451
							c0.236,0.113,0.536,0.169,0.899,0.169c0.346,0,0.637-0.056,0.872-0.169c0.236-0.115,0.423-0.27,0.56-0.465
							c0.137-0.194,0.231-0.422,0.285-0.682c0.056-0.26,0.083-0.527,0.083-0.804c0-0.684-0.128-1.211-0.382-1.586
							c-0.255-0.373-0.559-0.649-0.914-0.828c-0.354-0.179-0.713-0.288-1.076-0.33c-0.363-0.04-0.654-0.06-0.873-0.06h-1.443
							C226.786,201.193,226.899,201.377,226.98,201.595z"/>
						<path fill="#C9C9C9" d="M237.735,190.248c0.49,0.667,0.737,1.593,0.737,2.779c0,0.357-0.014,0.709-0.042,1.059
							c-0.027,0.352-0.059,0.705-0.095,1.062h-3.19c0.037-0.326,0.072-0.659,0.109-1s0.046-0.683,0.027-1.023
							c-0.055-0.455-0.254-0.791-0.6-1.012s-0.727-0.33-1.145-0.33c-0.309,0-0.6,0.049-0.873,0.146l-13.222,4.413v-3.682
							l9.651-2.853v-0.048l-9.651-2.754v-3.584l15.839,5.265C236.427,189.062,237.245,189.582,237.735,190.248z"/>
					</g>
					<g>
						<path fill="#C9C9C9" d="M144.807,221.288h1.228v-0.046c-0.512-0.275-0.885-0.629-1.117-1.066
							c-0.232-0.437-0.349-0.884-0.349-1.34c0-0.579,0.088-1.056,0.265-1.426c0.176-0.369,0.42-0.663,0.731-0.876
							c0.313-0.212,0.693-0.362,1.142-0.448c0.449-0.088,0.945-0.13,1.49-0.13h5.419v2.162h-4.975c-0.728,0-1.27,0.102-1.627,0.306
							c-0.358,0.204-0.537,0.563-0.537,1.081c0,0.59,0.195,1.017,0.587,1.281c0.392,0.263,1.038,0.396,1.935,0.396h4.617v2.163
							h-8.809V221.288z"/>
						<path fill="#C9C9C9" d="M143.442,214.25h-1.992v-2.165h1.992V214.25z M144.807,212.085h8.809v2.165h-8.809V212.085z"/>
						<path fill="#C9C9C9" d="M154.263,202.937c0.455,0.087,0.877,0.271,1.27,0.556c0.393,0.285,0.725,0.696,0.997,1.235
							c0.272,0.537,0.409,1.26,0.409,2.163c0,0.386-0.055,0.78-0.162,1.182c-0.108,0.4-0.275,0.767-0.502,1.096
							c-0.228,0.33-0.521,0.604-0.878,0.822c-0.358,0.22-0.787,0.343-1.286,0.374v-2.147c0.454-0.102,0.77-0.3,0.945-0.594
							c0.176-0.295,0.264-0.636,0.264-1.021c0-0.609-0.205-1.054-0.613-1.333c-0.409-0.28-0.926-0.415-1.551-0.405h-1.159v0.032
							c0.467,0.232,0.81,0.565,1.031,0.997c0.222,0.433,0.333,0.886,0.333,1.364c0,0.589-0.117,1.097-0.35,1.522
							c-0.232,0.427-0.551,0.776-0.954,1.052c-0.402,0.274-0.874,0.476-1.414,0.603c-0.54,0.126-1.11,0.189-1.713,0.189
							c-0.568,0-1.116-0.074-1.644-0.22c-0.528-0.148-0.994-0.365-1.397-0.649c-0.403-0.282-0.725-0.637-0.964-1.059
							c-0.238-0.421-0.356-0.906-0.356-1.454c0-0.519,0.108-0.974,0.323-1.364c0.217-0.391,0.58-0.718,1.09-0.981v-0.032h-1.175
							v-2.056h8.246C153.406,202.808,153.809,202.851,154.263,202.937z M151.333,205.9c-0.137-0.232-0.318-0.428-0.547-0.578
							c-0.227-0.153-0.484-0.267-0.774-0.344c-0.29-0.076-0.593-0.115-0.911-0.115c-0.363,0-0.707,0.032-1.031,0.092
							c-0.323,0.062-0.61,0.164-0.86,0.305c-0.25,0.144-0.449,0.331-0.596,0.564c-0.148,0.234-0.223,0.529-0.223,0.883
							c0,0.306,0.068,0.566,0.204,0.786c0.137,0.218,0.322,0.401,0.555,0.547c0.233,0.148,0.5,0.255,0.801,0.321
							c0.301,0.065,0.616,0.098,0.945,0.098c0.318,0,0.633-0.027,0.946-0.083c0.312-0.056,0.594-0.153,0.843-0.289
							c0.25-0.139,0.455-0.317,0.613-0.541c0.16-0.223,0.238-0.502,0.238-0.839C151.536,206.403,151.47,206.133,151.333,205.9z"/>
						<path fill="#C9C9C9" d="M141.45,198.907h4.584v-0.046c-0.512-0.273-0.885-0.625-1.117-1.051
							c-0.232-0.428-0.349-0.844-0.349-1.25c0-0.579,0.088-1.053,0.265-1.424c0.176-0.371,0.42-0.662,0.731-0.877
							c0.313-0.213,0.693-0.363,1.142-0.449c0.449-0.084,0.945-0.128,1.49-0.128h5.419v2.163h-4.975
							c-0.728,0-1.27,0.102-1.627,0.305c-0.358,0.202-0.537,0.563-0.537,1.08c0,0.59,0.195,1.016,0.587,1.28
							s1.038,0.396,1.935,0.396h4.617v2.163H141.45V198.907z"/>
						<path fill="#C9C9C9" d="M144.807,187.709h1.618v1.586h4.361c0.41,0,0.684-0.062,0.818-0.184
							c0.137-0.121,0.204-0.365,0.204-0.732c0-0.121-0.005-0.237-0.017-0.35c-0.012-0.111-0.027-0.217-0.051-0.32h1.874
							c0.034,0.183,0.058,0.387,0.068,0.611c0.011,0.223,0.017,0.44,0.017,0.653c0,0.336-0.025,0.654-0.076,0.953
							c-0.051,0.3-0.15,0.562-0.298,0.792c-0.147,0.229-0.358,0.409-0.631,0.541s-0.631,0.197-1.073,0.197h-5.197v1.311h-1.618
							v-1.311h-2.642v-2.162h2.642V187.709z"/>
					</g>
					<g>
						<path fill="#C9C9C9" d="M77.169,223.675v-25.613h4.909v9.226c1.515-1.725,3.309-2.587,5.382-2.587
							c2.26,0,4.129,0.819,5.608,2.455c1.479,1.638,2.218,3.987,2.218,7.05c0,3.168-0.754,5.607-2.262,7.319
							c-1.509,1.713-3.34,2.569-5.495,2.569c-1.06,0-2.104-0.265-3.137-0.795c-1.029-0.53-1.918-1.313-2.663-2.35v2.726H77.169z
							 M82.044,213.995c0,1.922,0.303,3.344,0.908,4.264c0.85,1.304,1.98,1.957,3.389,1.957c1.084,0,2.007-0.463,2.77-1.391
							c0.762-0.924,1.145-2.384,1.145-4.375c0-2.12-0.384-3.649-1.152-4.587c-0.77-0.938-1.754-1.406-2.953-1.406
							c-1.176,0-2.155,0.457-2.935,1.372C82.435,210.742,82.044,212.132,82.044,213.995z"/>
						<path fill="#C9C9C9" d="M99.235,202.604v-4.543h4.91v4.543H99.235z M99.235,223.675V205.12h4.91v18.555H99.235z"/>
						<path fill="#C9C9C9" d="M113.876,223.675h-4.909V205.12h4.56v2.638c0.78-1.246,1.482-2.066,2.105-2.463
							s1.331-0.595,2.123-0.595c1.118,0,2.195,0.309,3.232,0.926l-1.521,4.281c-0.826-0.536-1.596-0.804-2.306-0.804
							c-0.688,0-1.27,0.189-1.748,0.567c-0.477,0.38-0.853,1.063-1.126,2.054c-0.274,0.989-0.411,3.063-0.411,6.22V223.675z"/>
						<path fill="#C9C9C9" d="M140.118,223.675h-4.561v-2.726c-0.757,1.06-1.65,1.849-2.682,2.367
							c-1.031,0.518-2.07,0.777-3.119,0.777c-2.131,0-3.956-0.858-5.477-2.577c-1.52-1.718-2.28-4.115-2.28-7.189
							c0-3.145,0.739-5.534,2.22-7.172c1.479-1.636,3.348-2.455,5.607-2.455c2.073,0,3.867,0.862,5.381,2.587v-9.226h4.91V223.675z
							 M127.015,213.995c0,1.98,0.273,3.413,0.821,4.298c0.792,1.281,1.898,1.923,3.319,1.923c1.129,0,2.091-0.481,2.883-1.442
							s1.188-2.397,1.188-4.307c0-2.132-0.384-3.666-1.152-4.604c-0.77-0.938-1.754-1.406-2.953-1.406
							c-1.164,0-2.14,0.463-2.927,1.389C127.407,210.772,127.015,212.155,127.015,213.995z"/>
					</g>
				</g>
			</g>
			
				<linearGradient id="SVGID_7_" gradientUnits="userSpaceOnUse" x1="189.3105" y1="182.0596" x2="250.4428" y2="278.1945" gradientTransform="matrix(0.9982 0.0607 -0.0607 0.9982 -5.2153 -4.4402)">
				<stop  offset="0" style="stop-color:#FFFFFF"/>
				<stop  offset="1" style="stop-color:#E6E5E5"/>
			</linearGradient>
			
				<path fill="none" stroke="url(#SVGID_7_)" stroke-width="6" stroke-linecap="round" stroke-linejoin="round" stroke-miterlimit="10" d="
				M271.927,144.395c0,0,48.339,19.589,36.186,72.014c-9.579,41.327-43.253,48.802-59.887,43.974c0,0-7.484,9.49-24.34,9.485
				c-16.86-0.002-25.329-7.539-25.329-7.539c-7.733,8.074-16.059,10.796-28.545,10.036c-11.707-0.711-21.288-4.19-28.044-12.241
				c-10.442,5.873-23.384,6.09-36.499,5.293c-13.021-0.79-24.907-6.825-38.026-14.935"/>
			
				<linearGradient id="SVGID_8_" gradientUnits="userSpaceOnUse" x1="225.4707" y1="181.6016" x2="291.1562" y2="284.8968" gradientTransform="matrix(0.9866 0.163 -0.163 0.9866 -2.2759 -19.6024)">
				<stop  offset="0" style="stop-color:#FFFFFF"/>
				<stop  offset="1" style="stop-color:#E6E5E5"/>
			</linearGradient>
			
				<path fill="none" stroke="url(#SVGID_8_)" stroke-width="6" stroke-linecap="round" stroke-linejoin="round" stroke-miterlimit="10" d="
				M300.644,152.696c0,0,45.665,27.295,27.94,84.714c-14.664,47.499-56.517,56.65-75.323,49.02c0,0-14.057,7.872-26.6,7.335
				c-19.733-0.844-27.283-10.835-27.283-10.835s-7.162,8.425-26.926,6.855c-21.733-1.726-34.329-15.768-34.329-15.768
				s-39.98,8.655-60.628-10.73"/>
		</g>
	</g>
	<g>
		<text transform="matrix(0.8942 0 0 1 128.4453 390.8311)" font-family="'HelveticaNeue'" font-size="36">Wordle</text>
	</g>
</g>
<g id="guides">
</g>
<g id="circles" display="none">
</g>
</svg>
