<?xml version="1.0" encoding="utf-8"?>
<!-- Generator: Adobe Illustrator 16.0.0, SVG Export Plug-In . SVG Version: 6.00 Build 0)  -->
<!DOCTYPE svg PUBLIC "-//W3C//DTD SVG 1.1//EN" "http://www.w3.org/Graphics/SVG/1.1/DTD/svg11.dtd" [
	<!ENTITY ns_extend "http://ns.adobe.com/Extensibility/1.0/">
	<!ENTITY ns_ai "http://ns.adobe.com/AdobeIllustrator/10.0/">
	<!ENTITY ns_graphs "http://ns.adobe.com/Graphs/1.0/">
	<!ENTITY ns_vars "http://ns.adobe.com/Variables/1.0/">
	<!ENTITY ns_imrep "http://ns.adobe.com/ImageReplacement/1.0/">
	<!ENTITY ns_sfw "http://ns.adobe.com/SaveForWeb/1.0/">
	<!ENTITY ns_custom "http://ns.adobe.com/GenericCustomNamespace/1.0/">
	<!ENTITY ns_adobe_xpath "http://ns.adobe.com/XPath/1.0/">
]>
<svg version="1.1" xmlns:x="&ns_extend;" xmlns:i="&ns_ai;" xmlns:graph="&ns_graphs;"
	 xmlns="http://www.w3.org/2000/svg" xmlns:xlink="http://www.w3.org/1999/xlink" x="0px" y="0px" width="354.49px"
	 height="396.61px" viewBox="0 0 354.49 396.61" enable-background="new 0 0 354.49 396.61" xml:space="preserve">
<metadata>
	<sfw  xmlns="&ns_sfw;">
		<slices></slices>
		<sliceSourceBounds  x="-6911" y="-8912" bottomLeftOrigin="true" height="16383" width="16383"></sliceSourceBounds>
	</sfw>
</metadata>
<g id="Background" display="none">
	<radialGradient id="SVGID_1_" cx="-328.8916" cy="20.0938" r="1113.6583" gradientUnits="userSpaceOnUse">
		<stop  offset="0" style="stop-color:#006594"/>
		<stop  offset="0.5393" style="stop-color:#000B2A"/>
		<stop  offset="1" style="stop-color:#00232A"/>
	</radialGradient>
	<rect x="-1608.892" y="-897.55" display="inline" fill="url(#SVGID_1_)" width="2560" height="1835.287"/>
</g>
<g id="Layer_1" display="none">
	<linearGradient id="SVGID_2_" gradientUnits="userSpaceOnUse" x1="142.8838" y1="424.71" x2="142.8838" y2="69.0261">
		<stop  offset="0.3" style="stop-color:#1E80F7"/>
		<stop  offset="1" style="stop-color:#3FFFFC"/>
	</linearGradient>
	<circle display="inline" fill="url(#SVGID_2_)" cx="142.884" cy="247.369" r="179.125"/>
	<g display="inline">
		<g>
			<linearGradient id="SVGID_3_" gradientUnits="userSpaceOnUse" x1="52.7295" y1="247.3818" x2="280.4189" y2="247.3818">
				<stop  offset="0" style="stop-color:#FFFFFF"/>
				<stop  offset="1" style="stop-color:#E6E5E5"/>
			</linearGradient>
			<path fill="url(#SVGID_3_)" d="M234.257,339.466H63.609c-6.01,0-10.88-4.941-10.88-11.029v-162.11
				c0-6.092,4.87-11.029,10.88-11.029H269.54c6.011,0,10.879,4.938,10.879,11.029v125.917L234.257,339.466z"/>
		</g>
		<polygon fill="#E8E8E8" points="268.643,303.731 248.356,325.789 64.604,325.789 64.604,169.544 268.643,169.544 		"/>
		<polygon fill="#F4F4F4" points="234.71,339.466 234.71,292.243 280.873,292.243 		"/>
		<g>
			<path fill="#C9C9C9" d="M122.013,328.069h14.325v-56.072c4.632-0.932,7.152-2.401,9.282-4.314
				c3.429,2.382,7.586,3.787,12.077,3.787c11.712,0,21.203-9.498,21.203-21.206c0-7.542-3.949-14.146-9.879-17.903
				c0.72-2.131,1.127-4.408,1.127-6.781c0-10.461-7.584-19.132-17.546-20.867c-0.855-10.926-9.973-19.529-21.118-19.529
				c-11.053,0-20.118,8.459-21.106,19.253c-11.154,0.618-20.014,9.835-20.014,21.142c0,2.375,0.406,4.652,1.127,6.781
				c-5.93,3.759-9.88,10.363-9.88,17.9c0,11.713,9.494,21.209,21.205,21.209c5.104,0,9.786-1.81,13.446-4.814
				c1.732,1.79,3.789,3.254,7.914,4.348v57.068 M236.063,272.556c-1.925-1.188-3.821-4.842-5.678-4.925
				c-0.994-0.046-3.57-0.193-3.57-0.193c-4.113-8.359-8.793-10.366-10.558-11.019c-1.761-0.652,1.46,5.83,1.46,5.83
				c-1.001-1.627-8.322-4.079-9.965-3.13c-1.644,0.951,2.347,4.961,3.686,6.005c1.567,1.221,5.916,2.499,7.129,3.525
				c1.211,1.021,0.724,2.919,0.724,2.919c-0.222,1.661-0.309,1.818-0.309,1.818c-0.601,0.236-0.601,0.236-0.601,0.236
				c-0.822-0.47-6.654-9.128-21.501-5.101c-12.373,3.354-10.93,14.99-10.732,17.001c-0.554-0.751-1.641-0.141-1.641-0.141
				c-1.393,0.722-0.773,1.944-0.773,1.944c-0.487-0.25-1.172-2.063-1.172-2.063c-1.705,2.259-2.047,3.603-0.763,6.318
				c1.272,2.7,5.001,3.568,7.718,1.104c0,0,0.88,3.257,2.833,3.539c0.672,0.098,1.18,0.865,1.077,1.557
				c-0.106,0.694-0.712,1.766-0.043,2.391c1.125,1.06,2.51,1.637,7.005,2.197c0.507,0.063,1.812,0.106,3.276,0.2
				c0.108,0.586,0.196,1.049,0.208,1.265c0.043,0.821,6.601,2.655,6.128,1.585c-0.593-1.347-1.182-2.042-1.614-2.608
				c0.417,0.004,0.756,0.003,0.964-0.017c1.013-0.1,1.718-1.928,0.297-2.474c-0.335-0.129-0.975-0.307-1.754-0.5
				c0.022-0.091,0.039-0.174,0.065-0.273c0.269-0.999,2.111-2.443,4.49-4.312c11.383,0.423,18.517-9.515,16.479-14.279
				c-0.952-2.223-0.566-2.17-0.566-2.17s5.422-0.398,6.342-1.473C235.639,276.222,237.689,273.56,236.063,272.556z M205.589,295.046
				c-0.502,0.852-1.543,0.924-2.2,2.344c-0.152,0.328-0.206,0.809-0.205,1.36c-1.037-0.221-1.774-0.374-1.774-0.374
				s-2.557-0.647-1.584-3.623c0.332-1.018,3.273-2.821,4.704-2.252c0.274,0.281,0.576,0.625,0.809,0.986
				c0.063,0.131,0.141,0.278,0.229,0.436C205.738,294.319,205.787,294.71,205.589,295.046z"/>
		</g>
	</g>
	<g display="inline">
		<g>
			<linearGradient id="SVGID_4_" gradientUnits="userSpaceOnUse" x1="52.7295" y1="247.3818" x2="280.4189" y2="247.3818">
				<stop  offset="0" style="stop-color:#FFFFFF"/>
				<stop  offset="1" style="stop-color:#E6E5E5"/>
			</linearGradient>
			<path fill="url(#SVGID_4_)" d="M234.257,339.466H63.609c-6.01,0-10.88-4.941-10.88-11.029v-162.11
				c0-6.092,4.87-11.029,10.88-11.029H269.54c6.011,0,10.879,4.938,10.879,11.029v125.917L234.257,339.466z"/>
		</g>
		<polygon fill="#E8E8E8" points="268.643,303.731 248.356,325.789 64.604,325.789 64.604,169.544 268.643,169.544 		"/>
		<polygon fill="#F4F4F4" points="234.71,339.466 234.71,292.243 280.873,292.243 		"/>
		<g>
			<path fill="#C9C9C9" d="M122.013,328.069h14.325v-56.072c4.632-0.932,7.152-2.401,9.282-4.314
				c3.429,2.382,7.586,3.787,12.077,3.787c11.712,0,21.203-9.498,21.203-21.206c0-7.542-3.949-14.146-9.879-17.903
				c0.72-2.131,1.127-4.408,1.127-6.781c0-10.461-7.584-19.132-17.546-20.867c-0.855-10.926-9.973-19.529-21.118-19.529
				c-11.053,0-20.118,8.459-21.106,19.253c-11.154,0.618-20.014,9.835-20.014,21.142c0,2.375,0.406,4.652,1.127,6.781
				c-5.93,3.759-9.88,10.363-9.88,17.9c0,11.713,9.494,21.209,21.205,21.209c5.104,0,9.786-1.81,13.446-4.814
				c1.732,1.79,3.789,3.254,7.914,4.348v57.068 M236.063,272.556c-1.925-1.188-3.821-4.842-5.678-4.925
				c-0.994-0.046-3.57-0.193-3.57-0.193c-4.113-8.359-8.793-10.366-10.558-11.019c-1.761-0.652,1.46,5.83,1.46,5.83
				c-1.001-1.627-8.322-4.079-9.965-3.13c-1.644,0.951,2.347,4.961,3.686,6.005c1.567,1.221,5.916,2.499,7.129,3.525
				c1.211,1.021,0.724,2.919,0.724,2.919c-0.222,1.661-0.309,1.818-0.309,1.818c-0.601,0.236-0.601,0.236-0.601,0.236
				c-0.822-0.47-6.654-9.128-21.501-5.101c-12.373,3.354-10.93,14.99-10.732,17.001c-0.554-0.751-1.641-0.141-1.641-0.141
				c-1.393,0.722-0.773,1.944-0.773,1.944c-0.487-0.25-1.172-2.063-1.172-2.063c-1.705,2.259-2.047,3.603-0.763,6.318
				c1.272,2.7,5.001,3.568,7.718,1.104c0,0,0.88,3.257,2.833,3.539c0.672,0.098,1.18,0.865,1.077,1.557
				c-0.106,0.694-0.712,1.766-0.043,2.391c1.125,1.06,2.51,1.637,7.005,2.197c0.507,0.063,1.812,0.106,3.276,0.2
				c0.108,0.586,0.196,1.049,0.208,1.265c0.043,0.821,6.601,2.655,6.128,1.585c-0.593-1.347-1.182-2.042-1.614-2.608
				c0.417,0.004,0.756,0.003,0.964-0.017c1.013-0.1,1.718-1.928,0.297-2.474c-0.335-0.129-0.975-0.307-1.754-0.5
				c0.022-0.091,0.039-0.174,0.065-0.273c0.269-0.999,2.111-2.443,4.49-4.312c11.383,0.423,18.517-9.515,16.479-14.279
				c-0.952-2.223-0.566-2.17-0.566-2.17s5.422-0.398,6.342-1.473C235.639,276.222,237.689,273.56,236.063,272.556z M205.589,295.046
				c-0.502,0.852-1.543,0.924-2.2,2.344c-0.152,0.328-0.206,0.809-0.205,1.36c-1.037-0.221-1.774-0.374-1.774-0.374
				s-2.557-0.647-1.584-3.623c0.332-1.018,3.273-2.821,4.704-2.252c0.274,0.281,0.576,0.625,0.809,0.986
				c0.063,0.131,0.141,0.278,0.229,0.436C205.738,294.319,205.787,294.71,205.589,295.046z"/>
		</g>
	</g>
</g>
<g id="squares">
	<g id="Your_Icon_2_">
		<polygon fill="#FFFFFF" points="140.842,191.173 140.105,201.832 339.595,210.7 346.651,51.939 322.617,50.873 322.576,64.195 
			332.762,64.651 327.037,199.257 		"/>
		<polygon fill="#FFFFFF" points="317.994,185.175 318.415,64.01 318.461,50.692 318.528,30.422 298.262,30.353 298.829,39.511 
			309.346,39.546 309.342,41.627 309.31,50.284 309.265,63.606 308.878,175.993 122.504,176.306 122.47,184.504 		"/>
	</g>
	<linearGradient id="SVGID_5_" gradientUnits="userSpaceOnUse" x1="175.8154" y1="4.5908" x2="175.8154" y2="357.9872">
		<stop  offset="0" style="stop-color:#A8989B"/>
		<stop  offset="0.5" style="stop-color:#7E6B71"/>
		<stop  offset="1" style="stop-color:#61505A"/>
	</linearGradient>
	<path fill="url(#SVGID_5_)" d="M353.06,286.682c-4.131,38.537-35.656,72.456-74.201,72.456H68.643
		c-38.539,0-70.072-33.919-70.072-72.456V76.462c0-38.54,31.533-72.405,70.072-72.405h210.216c38.545,0,70.07,33.865,74.201,72.405
		V286.682z"/>
	<path fill="#FEFEFE" d="M282.721,256.078c0,8.881-7.201,16.081-16.082,16.081H72.293c-8.882,0-16.082-7.2-16.082-16.081V96.358
		c0-8.881,7.2-16.081,16.082-16.081h194.346c8.881,0,16.082,7.2,16.082,16.081V256.078z"/>
	<rect x="70.314" y="95.719" fill="#E8E8E8" width="196.324" height="163.633"/>
	<g>
		<path fill="#C9C9C9" d="M147.705,259.352v-55.034c4.839-0.972,7.474-2.51,9.7-4.509c3.582,2.489,7.928,3.958,12.619,3.958
			c12.239,0,22.158-9.926,22.158-22.16c0-7.882-4.127-14.784-10.324-18.711c0.755-2.226,1.179-4.604,1.179-7.085
			c0-10.934-7.924-19.994-18.336-21.809c-0.894-11.416-10.421-20.406-22.069-20.406c-11.549,0-21.022,8.839-22.055,20.12
			c-11.656,0.646-20.916,10.276-20.916,22.093c0,2.482,0.427,4.861,1.179,7.085c-6.196,3.929-10.323,10.831-10.323,18.708
			c0,12.238,9.92,22.162,22.159,22.162c5.333,0,10.227-1.892,14.052-5.031c1.809,1.87,3.957,3.4,8.269,4.545v56.074H147.705z
			 M251.919,204.899c-2.012-1.239-3.994-5.058-5.934-5.146c-1.041-0.049-3.732-0.201-3.732-0.201
			c-4.297-8.735-9.188-10.834-11.032-11.516c-1.84-0.682,1.526,6.094,1.526,6.094c-1.046-1.702-8.697-4.264-10.412-3.271
			c-1.719,0.994,2.451,5.184,3.85,6.274c1.637,1.276,6.182,2.613,7.451,3.685c1.265,1.067,0.755,3.049,0.755,3.049
			c-0.229,1.737-0.322,1.9-0.322,1.9c-0.627,0.249-0.627,0.249-0.627,0.249c-0.86-0.492-6.954-9.539-22.471-5.332
			c-12.929,3.507-11.419,15.667-11.213,17.767c-0.579-0.785-1.716-0.146-1.716-0.146c-1.454,0.754-0.808,2.032-0.808,2.032
			c-0.509-0.263-1.225-2.156-1.225-2.156c-1.783,2.359-2.139,3.763-0.799,6.603c1.331,2.82,5.228,3.729,8.067,1.153
			c0,0,0.918,3.403,2.961,3.698c0.701,0.102,1.23,0.904,1.125,1.628c-0.11,0.724-0.743,1.844-0.045,2.497
			c1.176,1.108,2.622,1.71,7.319,2.296c0.529,0.066,1.895,0.112,3.425,0.209c0.111,0.612,0.206,1.098,0.216,1.323
			c0.045,0.857,6.897,2.773,6.406,1.655c-0.622-1.409-1.237-2.134-1.688-2.726c0.436,0.005,0.792,0.004,1.008-0.018
			c1.058-0.104,1.795-2.015,0.311-2.585c-0.352-0.135-1.02-0.32-1.834-0.523c0.024-0.095,0.041-0.181,0.069-0.285
			c0.279-1.043,2.206-2.554,4.691-4.506c11.896,0.44,19.349-9.943,17.22-14.921c-0.994-2.324-0.592-2.271-0.592-2.271
			s5.667-0.415,6.629-1.537C251.476,208.732,253.618,205.949,251.919,204.899z M220.073,228.403
			c-0.525,0.891-1.614,0.966-2.301,2.448c-0.158,0.344-0.214,0.846-0.214,1.423c-1.083-0.231-1.854-0.392-1.854-0.392
			s-2.672-0.676-1.654-3.786c0.346-1.063,3.421-2.948,4.914-2.354c0.287,0.295,0.603,0.653,0.846,1.032
			c0.067,0.137,0.146,0.29,0.238,0.454C220.228,227.644,220.28,228.053,220.073,228.403z"/>
	</g>
	<path fill="#FEFEFE" d="M68.767,269.917c2.363,3.03,5.981,5.056,10.112,5.258l196.555,9.56c7.52,0.363,13.934-5.454,14.299-12.973
		l7.855-161.534c0.25-5.119-2.369-9.728-6.439-12.262l-0.59-0.231l1.587-5.217c6.64,3.202,11.079,10.153,10.698,17.967
		l-7.856,161.533c-0.506,10.417-9.393,18.476-19.811,17.973l-196.554-9.562c-5.538-0.27-10.412-2.908-13.685-6.883L68.767,269.917
		 M63.598,272.442"/>
	<path fill="#FEFEFE" d="M82.633,282.562c2.272,3.1,5.829,5.229,9.953,5.552l196.189,15.315c7.507,0.584,14.088-5.043,14.674-12.548
		l12.586-161.235c0.399-5.109-2.083-9.792-6.078-12.444l-0.583-0.249l1.739-5.167c6.543,3.395,10.778,10.474,10.167,18.271
		l-12.586,161.234c-0.812,10.396-9.93,18.192-20.329,17.383L92.178,293.358c-5.528-0.432-10.323-3.21-13.479-7.28L82.633,282.562
		 M77.392,284.936"/>
	<g>
		<text transform="matrix(0.8942 0 0 1 119.3027 390.8311)" font-family="'HelveticaNeue'" font-size="36">Pictures</text>
	</g>
</g>
<g id="guides">
</g>
<g id="circles" display="none">
</g>
</svg>
